<?xml version="1.0" encoding="UTF-8"?>
<svg version="1.1" xmlns="http://www.w3.org/2000/svg" width="1024" height="1024">
<path d="M0 0 C1.06831055 0.21043945 2.13662109 0.42087891 3.23730469 0.63769531 C4.17678955 0.82807373 5.11627441 1.01845215 6.08422852 1.21459961 C8.67638415 1.61951128 11.09912458 1.7009475 13.71777344 1.62597656 C13.71777344 2.28597656 13.71777344 2.94597656 13.71777344 3.62597656 C14.99007813 3.73941406 16.26238281 3.85285156 17.57324219 3.96972656 C22.85993963 4.55771249 27.89246869 5.77898655 33.03027344 7.12597656 C33.91005859 7.3515625 34.78984375 7.57714844 35.69628906 7.80957031 C37.32175474 8.22673614 38.94659871 8.64633873 40.57055664 9.06933594 C41.89032498 9.41147031 43.2125883 9.74433936 44.53857422 10.06152344 C47.73074243 10.88835437 50.87956944 11.85534306 54.03417969 12.81347656 C54.75407074 13.03161011 55.47396179 13.24974365 56.21566772 13.4744873 C80.8915366 20.96548807 105.37222864 28.77318221 129.43041992 38.08496094 C130.58614502 38.53162109 131.74187012 38.97828125 132.93261719 39.43847656 C134.46583618 40.03595703 134.46583618 40.03595703 136.0300293 40.64550781 C138.25959728 41.45883736 140.41560978 42.07514441 142.71777344 42.62597656 C144.46201953 43.38384136 146.18893538 44.18186902 147.90527344 45.00097656 C153.3802157 47.57272635 158.89792363 50.0176055 164.44873047 52.42114258 C220.53566941 76.77501899 275.11115093 110.56262101 298.7199707 169.74926758 C302.87274781 180.7602254 305.54044724 192.07899217 307.71777344 203.62597656 C307.88293457 204.46386719 308.0480957 205.30175781 308.21826172 206.16503906 C320.65647544 271.81616917 304.0205377 348.1983499 266.98730469 403.36816406 C236.28810922 447.43551178 195.42115686 477.40945513 142.17871094 487.28222656 C85.64885491 496.63509812 23.19666879 482.96924785 -30.2824707 464.79638672 C-39.23696169 461.64524353 -39.23696169 461.64524353 -48.39941406 462.74316406 C-51.62827361 464.85198561 -54.53021139 467.19697757 -57.40722656 469.75097656 C-63.49157204 475.02191623 -69.76134678 479.89833872 -76.28222656 484.62597656 C-77.06597656 485.19574219 -77.84972656 485.76550781 -78.65722656 486.35253906 C-81.17533827 488.14754437 -83.72051134 489.89366914 -86.28222656 491.62597656 C-86.87068359 492.0254248 -87.45914063 492.42487305 -88.06542969 492.83642578 C-122.09157239 515.80151759 -122.09157239 515.80151759 -135.28222656 515.62597656 C-140.51215604 514.05699772 -143.25889577 512.16097275 -146.28222656 507.62597656 C-148.3716499 503.44712989 -147.5234055 498.58738849 -146.42675781 494.21582031 C-145.9871875 493.01054688 -145.54761719 491.80527344 -145.09472656 490.56347656 C-144.72009277 489.53105835 -144.72009277 489.53105835 -144.33789062 488.4777832 C-140.81670091 479.02328934 -136.77270466 469.75361525 -132.77758789 460.4909668 C-128.07729244 449.83192924 -128.07729244 449.83192924 -126.15722656 438.43847656 C-128.60074199 432.32968799 -137.12400664 429.61640695 -142.74194336 426.78320312 C-153.08520235 421.56677607 -163.08405738 415.90158433 -172.96972656 409.87597656 C-173.54815308 409.52434448 -174.12657959 409.1727124 -174.72253418 408.8104248 C-186.06873131 401.89803949 -197.14625436 394.63150217 -207.84472656 386.75097656 C-209.06832886 385.84980103 -209.06832886 385.84980103 -210.31665039 384.93041992 C-216.68952896 380.18067244 -222.518753 375.10127645 -228.28222656 369.62597656 C-229.58881013 368.49411057 -230.90100318 367.36867504 -232.21972656 366.25097656 C-242.4331899 357.30898519 -251.28346651 347.57694169 -259.28222656 336.62597656 C-259.71277344 336.03977539 -260.14332031 335.45357422 -260.58691406 334.84960938 C-282.71643432 304.3209303 -289.5888586 268.440326 -289.34472656 231.31347656 C-289.33969263 229.97558765 -289.33513313 228.63769686 -289.33105469 227.29980469 C-289.31941332 224.07514571 -289.30306359 220.85058696 -289.28222656 217.62597656 C-288.62222656 217.62597656 -287.96222656 217.62597656 -287.28222656 217.62597656 C-287.31445312 216.35753906 -287.34667969 215.08910156 -287.37988281 213.78222656 C-287.30728451 160.59878442 -254.4539842 99.02011806 -220.28222656 59.62597656 C-219.54746094 58.77390625 -218.81269531 57.92183594 -218.05566406 57.04394531 C-216.92556215 55.74793482 -215.78892033 54.45755178 -214.64160156 53.17675781 C-213.35677833 51.71102556 -212.15969108 50.16971431 -210.96972656 48.62597656 C-210.41285156 47.96597656 -209.85597656 47.30597656 -209.28222656 46.62597656 C-208.62222656 46.62597656 -207.96222656 46.62597656 -207.28222656 46.62597656 C-206.95222656 45.63597656 -206.62222656 44.64597656 -206.28222656 43.62597656 C-204.16503906 41.68066406 -204.16503906 41.68066406 -201.40722656 39.50097656 C-196.94650638 35.95659362 -196.94650638 35.95659362 -192.56347656 32.31738281 C-169.94828646 13.12772886 -138.71477126 -0.40935975 -109.24316406 -3.87792969 C-107.7775 -4.12349609 -107.7775 -4.12349609 -106.28222656 -4.37402344 C-105.95222656 -5.03402344 -105.62222656 -5.69402344 -105.28222656 -6.37402344 C-104.55003906 -6.36242187 -103.81785156 -6.35082031 -103.06347656 -6.33886719 C-96.313182 -6.28261473 -89.62248913 -6.43528203 -82.88232422 -6.78344727 C-54.89791528 -8.19368874 -27.46367604 -5.43398938 0 0 Z M-118.28222656 203.62597656 C-122.956344 210.85082665 -125.49204725 217.00825738 -123.89160156 225.76269531 C-121.75675474 233.60415192 -116.83869529 239.5567584 -109.84472656 243.62597656 C-101.39583297 245.99759582 -93.91944066 246.43537248 -85.89160156 242.43457031 C-79.96375603 238.83271715 -75.79752766 234.41628325 -73.67675781 227.71191406 C-72.38191323 220.86590408 -72.53340602 214.41903715 -76.09082031 208.33300781 C-80.12963553 202.54624633 -86.08599038 197.95649047 -92.84472656 195.81347656 C-93.64910156 195.75160156 -94.45347656 195.68972656 -95.28222656 195.62597656 C-96.31347656 195.52285156 -97.34472656 195.41972656 -98.40722656 195.31347656 C-105.4885247 195.88454899 -113.37354186 198.28417262 -118.28222656 203.62597656 Z M-4.71972656 230.87597656 C-9.69826161 236.9135638 -10.96983816 242.7872043 -10.28222656 250.62597656 C-8.72774216 258.42666195 -4.89708269 264.37395982 1.63574219 268.97753906 C7.62815005 272.30266758 14.0509153 273.37055239 20.78027344 272.00097656 C28.805378 269.57589526 34.58040471 264.91045856 38.71777344 257.62597656 C41.24950583 251.82749271 41.27698648 245.70690744 39.71777344 239.62597656 C36.35748025 231.8792604 32.03471686 227.14593967 24.39355469 223.52441406 C13.48785171 219.86264518 3.03617487 222.82818637 -4.71972656 230.87597656 Z M106.71777344 257.62597656 C102.04276081 264.30027112 100.89159676 270.61665263 101.71777344 278.62597656 C103.56123613 285.4588111 106.47959087 291.94696278 112.63964844 295.84082031 C119.57139228 299.50213614 127.12890694 301.00795082 134.86621094 299.09472656 C142.55249192 296.38538614 147.51587411 292.64393419 151.51074219 285.46582031 C154.44593682 278.56003877 154.45793975 271.92356965 152.21777344 264.81347656 C149.74603376 258.94732726 146.38546517 254.47696118 140.62792969 251.57128906 C128.20754966 246.71415721 116.32521997 247.78978131 106.71777344 257.62597656 Z " fill="#76E5E1" transform="translate(497.2822265625,254.3740234375)"/>
<path d="M0 0 C0.33 0 0.66 0 1 0 C1 14.52 1 29.04 1 44 C0.34 44 -0.32 44 -1 44 C-1 45.65 -1 47.3 -1 49 C-1.33 49 -1.66 49 -2 49 C-1.93941406 47.97648438 -1.87882813 46.95296875 -1.81640625 45.8984375 C-0.9468245 30.60814601 -0.47390211 15.30658104 0 0 Z " fill="#7DEDE9" transform="translate(806,490)"/>
<path d="M0 0 C5.25603344 0.9598992 8.5230525 4.08929469 12 8 C16.1503335 14.60868452 17.63424584 20.26220074 17 28 C16.67 28 16.34 28 16 28 C16 25.69 16 23.38 16 21 C15.34 21 14.68 21 14 21 C13.8040625 20.28714844 13.608125 19.57429687 13.40625 18.83984375 C11.12688517 11.53998137 8.31397949 7.34598588 2 3 C1.34 2.67 0.68 2.34 0 2 C0 1.34 0 0.68 0 0 Z " fill="#7CEBE6" transform="translate(636,504)"/>
<path d="M0 0 C0 0.33 0 0.66 0 1 C-1.27875 1.2475 -2.5575 1.495 -3.875 1.75 C-8.38838322 2.74109047 -12.49507421 4.28694793 -16.73828125 6.09765625 C-18.81638777 6.92674538 -20.81911694 7.51591383 -23 8 C-16.79116506 0.58945508 -9.31634625 -0.44363554 0 0 Z " fill="#7BEBE7" transform="translate(629,501)"/>
<path d="M0 0 C0.33 0.66 0.66 1.32 1 2 C0.02107593 3.76206333 -0.96385513 5.52176416 -2.0078125 7.24609375 C-3.07409939 9.13098672 -3.65780123 10.86125771 -4 13 C-4.66 13 -5.32 13 -6 13 C-6 16.63 -6 20.26 -6 24 C-6.33 24 -6.66 24 -7 24 C-7.47648234 16.17774821 -7.29068854 9.7589107 -3 3 C-2.03283796 1.96820661 -1.0408825 0.9573733 0 0 Z " fill="#7DEDE9" transform="translate(604,510)"/>
<path d="M0 0 C0.66 0 1.32 0 2 0 C0.95914278 2.11560281 -0.11047736 4.19927225 -1.25390625 6.26171875 C-4.34486836 11.99153209 -5.68519822 16.49409652 -6 23 C-6.33 23 -6.66 23 -7 23 C-7.64238489 14.45271211 -5.93818531 8.63329222 -1.375 1.4375 C-0.92125 0.963125 -0.4675 0.48875 0 0 Z " fill="#7CECE8" transform="translate(492,483)"/>
<path d="M0 0 C3.057952 1.73559438 5.63379989 3.38472619 8 6 C7.67 6.66 7.34 7.32 7 8 C3.64379729 6.61122646 1.92701272 5.08322035 0 2 C0 1.34 0 0.68 0 0 Z " fill="#7CECE5" transform="translate(376,489)"/>
<path d="" fill="#78E2DA" transform="translate(0,0)"/>
<path d="M0 0 C0.66 0 1.32 0 2 0 C1.67 0.66 1.34 1.32 1 2 C0.67 1.34 0.34 0.68 0 0 Z " fill="#79E1D9" transform="translate(724,338)"/>
<path d="M0 0 C3 1 3 1 3 1 Z " fill="#79E0DA" transform="translate(337,264)"/>
<path d="M0 0 C2 1 2 1 2 1 Z " fill="#76E1DB" transform="translate(632,743)"/>
<path d="M0 0 C2 1 2 1 2 1 Z " fill="#79E1DA" transform="translate(640,742)"/>
<path d="M0 0 C2 1 2 1 2 1 Z " fill="#76E0D8" transform="translate(564,742)"/>
<path d="M0 0 C2 1 2 1 2 1 Z " fill="#7AE3DB" transform="translate(304,653)"/>
<path d="" fill="#77E1DA" transform="translate(0,0)"/>
<path d="" fill="#78E2DA" transform="translate(0,0)"/>
<path d="" fill="#78E2DA" transform="translate(0,0)"/>
<path d="" fill="#78E5DD" transform="translate(0,0)"/>
<path d="M0 0 C2 1 2 1 2 1 Z " fill="#79E7DF" transform="translate(508,478)"/>
<path d="" fill="#7AE2DB" transform="translate(0,0)"/>
<path d="" fill="#7BE2DA" transform="translate(0,0)"/>
<path d="" fill="#7DE4DE" transform="translate(0,0)"/>
<path d="M0 0 C2 1 2 1 2 1 Z " fill="#77E0DC" transform="translate(694,321)"/>
<path d="M0 0 C2 1 2 1 2 1 Z " fill="#78E0D9" transform="translate(522,258)"/>
<path d="M0 0 C2 1 2 1 2 1 Z " fill="#78E1D9" transform="translate(470,248)"/>
<path d="" fill="#53887B" transform="translate(0,0)"/>
<path d="" fill="#7AE2DA" transform="translate(0,0)"/>
<path d="" fill="#77E0D9" transform="translate(0,0)"/>
<path d="" fill="#79E2DB" transform="translate(0,0)"/>
<path d="" fill="#78E0DA" transform="translate(0,0)"/>
<path d="" fill="#78E0DB" transform="translate(0,0)"/>
<path d="" fill="#79DFD9" transform="translate(0,0)"/>
<path d="" fill="#79E3DA" transform="translate(0,0)"/>
<path d="" fill="#78E3DA" transform="translate(0,0)"/>
<path d="" fill="#78E4DD" transform="translate(0,0)"/>
<path d="" fill="#7AE2D9" transform="translate(0,0)"/>
<path d="" fill="#78E4DC" transform="translate(0,0)"/>
<path d="" fill="#7AE4DD" transform="translate(0,0)"/>
<path d="" fill="#79E2D9" transform="translate(0,0)"/>
<path d="" fill="#7AE4DE" transform="translate(0,0)"/>
<path d="" fill="#7AE4DD" transform="translate(0,0)"/>
<path d="" fill="#79E5DC" transform="translate(0,0)"/>
<path d="" fill="#7CE6DE" transform="translate(0,0)"/>
<path d="" fill="#7CE6DF" transform="translate(0,0)"/>
<path d="" fill="#7AE3DB" transform="translate(0,0)"/>
<path d="" fill="#79E2DB" transform="translate(0,0)"/>
<path d="" fill="#79E1DB" transform="translate(0,0)"/>
<path d="" fill="#79DFDA" transform="translate(0,0)"/>
<path d="" fill="#7AE3DD" transform="translate(0,0)"/>
<path d="" fill="#7AE2DC" transform="translate(0,0)"/>
<path d="" fill="#78DFD7" transform="translate(0,0)"/>
<path d="" fill="#77E2D9" transform="translate(0,0)"/>
<path d="" fill="#79E5DC" transform="translate(0,0)"/>
<path d="" fill="#7BE4DD" transform="translate(0,0)"/>
<path d="" fill="#7BE6DF" transform="translate(0,0)"/>
<path d="" fill="#79E5DE" transform="translate(0,0)"/>
<path d="" fill="#76E2DA" transform="translate(0,0)"/>
<path d="" fill="#7DE8E1" transform="translate(0,0)"/>
<path d="" fill="#79E6DE" transform="translate(0,0)"/>
<path d="" fill="#7BE6DF" transform="translate(0,0)"/>
<path d="" fill="#7AE3DB" transform="translate(0,0)"/>
<path d="" fill="#79E2DD" transform="translate(0,0)"/>
<path d="" fill="#7AE5DE" transform="translate(0,0)"/>
<path d="" fill="#7AE7DF" transform="translate(0,0)"/>
<path d="" fill="#79E6DF" transform="translate(0,0)"/>
<path d="" fill="#7BE7E0" transform="translate(0,0)"/>
<path d="" fill="#7BE9DE" transform="translate(0,0)"/>
<path d="" fill="#79E1DC" transform="translate(0,0)"/>
<path d="" fill="#7BE6DD" transform="translate(0,0)"/>
<path d="" fill="#7CE7DE" transform="translate(0,0)"/>
<path d="" fill="#79E5DF" transform="translate(0,0)"/>
<path d="" fill="#7AE9DF" transform="translate(0,0)"/>
<path d="" fill="#7AE7E0" transform="translate(0,0)"/>
<path d="" fill="#75E1DA" transform="translate(0,0)"/>
<path d="" fill="#7BE3DD" transform="translate(0,0)"/>
<path d="" fill="#79E6E1" transform="translate(0,0)"/>
<path d="" fill="#7DE4DC" transform="translate(0,0)"/>
<path d="" fill="#7AE6DF" transform="translate(0,0)"/>
<path d="" fill="#7AE0D8" transform="translate(0,0)"/>
<path d="" fill="#7CE1D9" transform="translate(0,0)"/>
<path d="" fill="#7AE5DC" transform="translate(0,0)"/>
<path d="" fill="#79DED6" transform="translate(0,0)"/>
<path d="" fill="#78E1DA" transform="translate(0,0)"/>
<path d="" fill="#79E2DC" transform="translate(0,0)"/>
<path d="" fill="#79E3DA" transform="translate(0,0)"/>
<path d="" fill="#79E1DA" transform="translate(0,0)"/>
<path d="" fill="#7BE3DB" transform="translate(0,0)"/>
<path d="" fill="#7AE3DB" transform="translate(0,0)"/>
<path d="" fill="#77E0DA" transform="translate(0,0)"/>
<path d="" fill="#7BE3DB" transform="translate(0,0)"/>
<path d="" fill="#77E2DB" transform="translate(0,0)"/>
<path d="" fill="#78E3DD" transform="translate(0,0)"/>
<path d="" fill="#7AE4DB" transform="translate(0,0)"/>
<path d="" fill="#78E2DB" transform="translate(0,0)"/>
<path d="" fill="#79E2DC" transform="translate(0,0)"/>
<path d="" fill="#79E4DD" transform="translate(0,0)"/>
<path d="" fill="#7BE2DB" transform="translate(0,0)"/>
<path d="" fill="#7AE1DA" transform="translate(0,0)"/>
<path d="" fill="#79E0DC" transform="translate(0,0)"/>
<path d="" fill="#7AE2D9" transform="translate(0,0)"/>
<path d="" fill="#78E0D8" transform="translate(0,0)"/>
<path d="" fill="#78DFDB" transform="translate(0,0)"/>
<path d="" fill="#79E1D8" transform="translate(0,0)"/>
<path d="" fill="#78E0DA" transform="translate(0,0)"/>
<path d="" fill="#77E2DB" transform="translate(0,0)"/>
<path d="" fill="#79E2DB" transform="translate(0,0)"/>
<path d="" fill="#79E1DA" transform="translate(0,0)"/>
<path d="" fill="#7AE1D9" transform="translate(0,0)"/>
<path d="" fill="#79E0DB" transform="translate(0,0)"/>
</svg>
