<?xml version="1.0" encoding="UTF-8"?>
<svg version="1.1" xmlns="http://www.w3.org/2000/svg" width="3500" height="2321">
<path d="M0 0 C7.80467325 7.47396676 12.73959096 16.89290534 17.515625 26.4609375 C18.73633835 28.86690745 19.9640897 31.26926824 21.19140625 33.671875 C21.4949855 34.26828293 21.79856476 34.86469086 22.11134338 35.47917175 C24.87771768 40.90275137 27.76716403 46.25275595 30.703125 51.5859375 C35.23325128 59.82991688 39.7054339 68.1029901 44.140625 76.3984375 C45.41917361 78.78911451 46.69782836 81.17973472 47.9765625 83.5703125 C48.2930928 84.16211807 48.60962311 84.75392365 48.93574524 85.36366272 C52.20032574 91.46508351 55.48228167 97.55709985 58.765625 103.6484375 C91.00199641 163.48037556 91.00199641 163.48037556 106.12939453 192.7175293 C108.3981507 197.10183202 110.67443038 201.48156847 112.9831543 205.8449707 C119.35968081 217.89909899 125.5901793 230.02099446 131.703125 242.2109375 C132.1816391 243.16435028 132.6601532 244.11776306 133.15316772 245.10006714 C157.29343094 293.3074703 157.29343094 293.3074703 154.1875 307.2421875 C151.6923247 314.41014564 147.09675516 319.38142746 141.765625 324.6484375 C141.22164062 325.21433594 140.67765625 325.78023437 140.1171875 326.36328125 C130.01228126 336.032189 116.296241 339.96967038 102.66793942 339.9002865 C101.67172985 339.90321536 100.67552028 339.90614423 99.64912254 339.90916184 C96.30164113 339.9165547 92.95434167 339.90968282 89.60686111 339.90291309 C87.17604904 339.90530236 84.7452377 339.90856717 82.31442785 339.91262969 C77.00791492 339.91947 71.7014551 339.92007338 66.39494386 339.91524021 C58.45084068 339.90804041 50.50677213 339.91236087 42.56266988 339.91892156 C29.02365778 339.92976116 15.48465959 339.93107612 1.94564438 339.92722321 C-11.77709689 339.92334918 -25.49982778 339.92379846 -39.22256851 339.929533 C-40.08892816 339.92989183 -40.9552878 339.93025066 -41.84790077 339.93062036 C-45.37638732 339.93209524 -48.90487386 339.93359964 -52.43336038 339.93514182 C-88.26715314 339.95078505 -124.10093879 339.95345487 -159.93473436 339.95098576 C-164.88766194 339.95064732 -169.84058953 339.95032522 -174.79351711 339.95002007 C-176.26913509 339.94992851 -176.26913509 339.94992851 -177.77456354 339.94983509 C-199.5666759 339.94856371 -221.35878728 339.95116365 -243.15089936 339.95454614 C-248.12541446 339.95531688 -253.09992956 339.95606161 -258.07444467 339.95681116 C-260.07088904 339.95711285 -262.06733342 339.95741473 -264.0637778 339.9577168 C-265.05337283 339.95786648 -266.04296787 339.95801616 -267.06255063 339.95817037 C-269.06420696 339.9584739 -271.06586329 339.95877859 -273.06751962 339.95908442 C-329.87401682 339.96775917 -386.68051317 339.97240011 -443.48701096 339.96813679 C-444.53918055 339.96805873 -445.59135014 339.96798067 -446.67540366 339.96790025 C-458.40849614 339.96702743 -470.14158861 339.96609817 -481.87468109 339.96514962 C-482.93402795 339.96506411 -483.99337482 339.9649786 -485.0848231 339.9648905 C-493.88765227 339.96417966 -493.88765227 339.96417966 -497.9370936 339.96384827 C-565.69960422 339.95831223 -633.46210122 339.96585467 -701.22460938 339.98461914 C-718.29839449 339.98934126 -735.37217962 339.99402173 -752.44596481 339.998456 C-753.49723096 339.99872932 -754.54849711 339.99900265 -755.63161981 339.99928425 C-788.02621931 340.00765402 -820.42081767 340.01233507 -852.81541824 340.01316357 C-854.34073566 340.01320312 -854.34073566 340.01320312 -855.89686757 340.01324346 C-878.21847837 340.01378422 -900.54008908 340.01341186 -922.86169985 340.01220375 C-930.84852973 340.01177812 -938.83535961 340.01141299 -946.82218949 340.01107431 C-948.80914891 340.01098901 -950.79610832 340.01090007 -952.78306774 340.01080749 C-984.45808877 340.00935806 -1016.13310054 340.01648922 -1047.80811935 340.02781145 C-1080.59272078 340.03945443 -1113.37730567 340.04003294 -1146.16190717 340.02796803 C-1149.68146384 340.02671617 -1153.20102053 340.02551269 -1156.72057724 340.02434731 C-1157.58434691 340.02405701 -1158.44811658 340.02376672 -1159.33806109 340.02346763 C-1173.02302212 340.01913981 -1186.7079597 340.02487727 -1200.39291705 340.0347875 C-1213.84475324 340.04431752 -1227.29655318 340.04315931 -1240.74838725 340.03058127 C-1248.63748181 340.02352425 -1256.52647221 340.02467394 -1264.41555937 340.03792966 C-1270.26920311 340.04684955 -1276.12276085 340.04015743 -1281.97639969 340.02734008 C-1284.33218841 340.02460652 -1286.68798965 340.02692143 -1289.04376662 340.03484723 C-1321.6022599 340.13693013 -1321.6022599 340.13693013 -1334.55859375 328.57421875 C-1342.81309454 319.83146652 -1346.41719229 309.60619448 -1346.19580078 297.54736328 C-1344.92292595 272.84922119 -1333.94373852 251.16141931 -1316.66796875 233.68359375 C-1310.68484595 228.68005125 -1304.41300572 225.701884 -1297.01953125 223.36328125 C-1295.67162003 222.92307899 -1295.67162003 222.92307899 -1294.29647827 222.47398376 C-1291.30022998 221.49968524 -1288.29889681 220.54228641 -1285.296875 219.5859375 C-1283.14254353 218.89179865 -1280.9883312 218.19728994 -1278.83422852 217.50244141 C-1234.19672455 203.15798122 -1189.32512624 189.4952314 -1144.234375 176.6484375 C-1142.60773926 176.18464691 -1142.60773926 176.18464691 -1140.94824219 175.71148682 C-1051.84254799 150.32437707 -962.10565765 127.07519996 -82.671875 -9.4140625 C-81.67124023 -9.49066353 -80.67060547 -9.56726456 -79.63964844 -9.64618683 C-73.92007285 -10.0837927 -68.2001692 -10.51654177 -62.47963142 -10.9413929 C-60.75873703 -11.06948525 -59.03792226 -11.19865283 -57.3171978 -11.3290081 C-35.85528253 -12.94947157 -18.36489509 -12.76302457 0 0 Z " fill="#E74113" transform="translate(2382.234375,1044.3515625)"/>
<path d="M0 0 C6.18031014 5.28171222 9.81445671 10.94401144 13.55834961 18.10424805 C14.77487354 20.35214417 15.99233548 22.59953289 17.21069336 24.84643555 C18.10570557 26.51657715 18.10570557 26.51657715 19.01879883 28.22045898 C21.47608428 32.76820865 24.0402346 37.25069479 26.62084961 41.72924805 C27.60027056 43.4387378 28.57943037 45.14837719 29.55834961 46.8581543 C30.62080397 48.71104505 31.683307 50.5639079 32.74584961 52.41674805 C35.37262875 56.99906451 37.99793473 61.58221888 40.62084961 66.16674805 C41.12905243 67.05496246 41.12905243 67.05496246 41.64752197 67.96112061 C47.06701444 77.43741848 52.41934269 86.9498403 57.74194336 96.48095703 C63.34066124 106.49950559 69.03652804 116.46094945 74.74584961 126.41674805 C77.37262875 130.99906451 79.99793473 135.58221888 82.62084961 140.16674805 C83.12905243 141.05496246 83.12905243 141.05496246 83.64752197 141.96112061 C89.06701444 151.43741848 94.41934269 160.9498403 99.74194336 170.48095703 C105.96131968 181.61013428 112.29996174 192.66986556 118.64575195 203.72729492 C132.51592658 227.90019848 132.51592658 227.90019848 139.12084961 239.79174805 C139.7899939 240.98489624 139.7899939 240.98489624 140.47265625 242.20214844 C144.76241731 249.98142432 146.58636482 256.47793553 145.74584961 265.41674805 C144.07129734 270.44040486 141.25480232 273.70646946 136.74584961 276.41674805 C127.89075601 280.60895453 118.97837987 282.52720742 109.36383057 283.84216309 C106.88779867 284.18155885 104.41522053 284.54048258 101.94262695 284.90405273 C99.20052132 285.30711218 96.4583014 285.70908422 93.71530151 286.10601807 C0.79953928 299.55655051 -91.61060071 317.10587399 -187.13285828 339.90925598 C-189.27849157 340.42257136 -191.42433278 340.93501108 -193.57019043 341.4473877 C-251.57673056 355.30878309 -309.23890793 370.43035719 -366.37469482 387.55395508 C-369.27484609 388.42294926 -372.1758484 389.28906056 -375.0769043 390.1550293 C-466.85449487 417.59889706 -557.51493116 449.05824384 -683.01977539 503.61987305 C-689.72312562 506.65039087 -696.4832571 509.54095213 -703.25415039 512.41674805 C-702.63383205 508.64374798 -701.54078258 505.50392257 -699.94555664 502.03393555 C-699.45498779 500.96675293 -698.96441895 499.89957031 -698.45898438 498.80004883 C-697.91701416 497.64230957 -697.37504395 496.48457031 -696.81665039 495.29174805 C-696.53636993 494.69038025 -696.25608948 494.08901245 -695.96731567 493.46942139 C-685.13780829 470.27961114 -673.21933188 447.55418959 -660.79077148 425.18530273 C-659.0797115 422.10245872 -657.37976547 419.01360784 -655.67993164 415.92456055 C-648.02230244 402.03859393 -640.17519047 388.27875836 -632.13012695 374.61401367 C-630.10580758 371.16392433 -628.09696369 367.70512224 -626.09008789 364.24487305 C-618.03376149 350.37159426 -609.77284379 336.67335494 -601.05053711 323.20483398 C-599.12431217 320.21523235 -597.22068238 317.21206269 -595.32055664 314.20581055 C-586.97360009 301.02089883 -578.37559873 288.07870779 -569.25415039 275.41674805 C-568.66359863 274.59416504 -568.07304688 273.77158203 -567.46459961 272.92407227 C-560.11954521 262.72271802 -552.53846009 252.87092743 -544.25415039 243.41674805 C-543.64442383 242.69616211 -543.03469727 241.97557617 -542.40649414 241.2331543 C-540.72530657 239.25785826 -539.00435312 237.3311489 -537.25415039 235.41674805 C-536.51551758 234.60077148 -535.77688477 233.78479492 -535.01586914 232.9440918 C-482.4200883 177.47509682 -391.68373187 142.58945814 -322.77954102 111.04272461 C-319.06843956 109.33109471 -315.37039459 107.59378531 -311.67602539 105.84643555 C-291.67151041 96.38853934 -271.52922551 87.27968226 -251.25415039 78.41674805 C-249.83371429 77.79579254 -249.83371429 77.79579254 -248.38458252 77.16229248 C-102.58577879 13.47776532 -102.58577879 13.47776532 -35.44165039 -3.20825195 C-34.46429932 -3.45631592 -33.48694824 -3.70437988 -32.47998047 -3.95996094 C-21.0910006 -6.64653622 -9.94135007 -6.98252521 0 0 Z " fill="#EE7004" transform="translate(1995.254150390625,343.583251953125)"/>
<path d="M0 0 C1.69099571 -0.01045349 1.69099571 -0.01045349 3.41615295 -0.02111816 C7.04049443 -0.03843931 10.66468134 -0.04483939 14.2890625 -0.046875 C15.52504181 -0.04788208 16.76102112 -0.04888916 18.03445435 -0.04992676 C36.20629076 -0.03989416 53.92722968 0.44790801 71.9140625 3.203125 C73.44087646 3.4199292 73.44087646 3.4199292 74.99853516 3.64111328 C126.73068464 11.01974714 126.73068464 11.01974714 134.9140625 19.203125 C135.01379426 21.27426294 135.0414648 23.34887072 135.04269695 25.4224081 C135.04444999 26.08268005 135.04620303 26.74295199 135.04800919 27.42323217 C135.05270747 29.66355836 135.05019388 31.90382074 135.04777527 34.14414978 C135.0496414 35.75577951 135.0519413 37.36740879 135.05464059 38.97903734 C135.06079105 43.43020881 135.06062117 47.88136159 135.05944622 52.33253634 C135.05924298 57.12583816 135.06475402 61.91913386 135.06950378 66.71243286 C135.07783226 76.11847429 135.08055975 85.52450946 135.08111616 94.93055426 C135.08159096 102.58620154 135.08364395 110.24184674 135.08681679 117.89749336 C135.09563488 139.61820276 135.10023519 161.33890721 135.09948631 183.05961841 C135.09942638 184.81831896 135.09942638 184.81831896 135.09936523 186.61254883 C135.09932435 187.78645609 135.09928347 188.96036335 135.09924135 190.16984356 C135.09883614 209.13471228 135.108371 228.09956102 135.1225036 247.06442397 C135.13691095 266.55277646 135.14377117 286.04111924 135.14290982 305.52947718 C135.14257901 316.46376643 135.14527422 327.39803482 135.15608788 338.33231926 C135.16525106 347.65777871 135.16732142 356.98320789 135.16057845 366.30866992 C135.15734029 371.05711886 135.15715667 375.80550994 135.1659317 380.55395317 C135.29009945 452.39707168 121.62155788 515.27611322 69.9140625 568.203125 C67.35468692 570.68810012 64.68599183 572.95918221 61.9140625 575.203125 C60.81509132 576.11456785 59.71613434 577.02602781 58.6171875 577.9375 C12.54296043 615.82129668 -48.0979486 635.96764393 -107.5859375 636.578125 C-108.95564697 636.59915283 -108.95564697 636.59915283 -110.35302734 636.62060547 C-121.54701348 636.5398348 -129.68221713 633.25108313 -137.7734375 625.609375 C-148.4513301 614.29080885 -148.41576411 598.1115312 -148.23120117 583.48144531 C-148.01137148 580.033629 -147.53365716 576.62857116 -147.0859375 573.203125 C-146.44574677 573.20978683 -145.80555603 573.21644867 -145.14596558 573.22331238 C-138.36266204 573.2907096 -131.57945644 573.33534842 -124.79589844 573.36791992 C-122.27860642 573.38282368 -119.76133948 573.40315364 -117.24414062 573.42944336 C-71.50957427 573.89444792 -27.70631235 564.24205879 6.0390625 531.578125 C36.50691795 500.72765933 47.30748366 456.81943788 52.9140625 415.203125 C52.31722656 415.50605469 51.72039063 415.80898437 51.10546875 416.12109375 C36.74699437 423.05497811 21.65390381 426.2779112 5.9140625 428.203125 C5.06215332 428.30753906 4.21024414 428.41195312 3.33251953 428.51953125 C-41.45938783 433.76864778 -87.05196075 427.6928257 -123.39697266 399.04858398 C-124.97061432 397.77912191 -126.53084547 396.49522353 -128.0859375 395.203125 C-129.045 394.41035156 -130.0040625 393.61757812 -130.9921875 392.80078125 C-171.46889746 357.72475591 -182.92817212 294.15876536 -186.75 243.4453125 C-187.71564941 229.05877304 -188.42198085 214.62362588 -188.0859375 200.203125 C-188.06805176 199.34654297 -188.05016602 198.48996094 -188.03173828 197.60742188 C-186.79779719 144.89922301 -180.10960527 89.64983423 -142.0859375 50.203125 C-141.43109375 49.48511719 -140.77625 48.76710938 -140.1015625 48.02734375 C-106.50853103 12.20913284 -47.03139983 0.19587338 0 0 Z M-19.8359375 64.953125 C-20.61267822 65.04110352 -21.38941895 65.12908203 -22.18969727 65.21972656 C-38.29621222 67.21840539 -52.79955754 72.35196818 -65.0859375 83.203125 C-66.28669922 84.24533203 -66.28669922 84.24533203 -67.51171875 85.30859375 C-98.19179403 113.79382694 -106.45250059 165.72269516 -108.17706299 205.29406738 C-109.90979194 253.25523881 -104.94667982 308.92599586 -73.0234375 347.328125 C-59.30904299 361.94753032 -37.18118835 370.39627411 -17.41162109 371.3293457 C2.85325137 371.85129459 22.58985344 371.20180204 38.7265625 357.2890625 C48.03663559 348.41124281 51.01288535 338.33704097 51.35530519 325.6913656 C51.42750937 319.83545628 51.40325998 313.98182975 51.36816406 308.12573242 C51.36703454 305.48343777 51.36749581 302.84118756 51.36993408 300.19889832 C51.37202135 294.53123042 51.35957827 288.86374815 51.33698273 283.19612694 C51.30433581 275.00194853 51.29404281 266.80785897 51.28903076 258.61362258 C51.2802979 245.31585064 51.25373715 232.0181774 51.21582031 218.72045898 C51.17904801 205.81063324 51.15076187 192.90083441 51.13378906 179.9909668 C51.13273817 179.19386739 51.13168727 178.39676798 51.13060454 177.57551404 C51.12538401 173.57630136 51.12032927 169.57708849 51.11535692 165.57787549 C51.0739575 132.45288683 51.00356417 99.32801918 50.9140625 66.203125 C45.28081428 65.91211705 39.64728288 65.62764459 34.01342773 65.34863281 C32.10611569 65.25332318 30.19888444 65.15637931 28.29174805 65.05761719 C4.20910299 63.66739371 4.20910299 63.66739371 -19.8359375 64.953125 Z " fill="#393939" transform="translate(2069.0859375,1684.796875)"/>
<path d="M0 0 C21.45 0 42.9 0 65 0 C68.37493619 8.99982984 68.37493619 8.99982984 69.46794128 12.84388733 C69.84332283 14.15473549 69.84332283 14.15473549 70.22628784 15.49206543 C70.48958893 16.42417847 70.75289001 17.3562915 71.02416992 18.31665039 C71.31102158 19.32187241 71.59787323 20.32709442 71.89341736 21.36277771 C72.84215887 24.69020804 73.7862544 28.01893871 74.73046875 31.34765625 C75.40496558 33.71562535 76.07980274 36.08349754 76.75495911 38.45127869 C78.54191541 44.72084838 80.32516544 50.99146565 82.10736084 57.26239014 C85.24833175 68.31285008 88.39480661 79.36174316 91.54296875 90.41015625 C91.89112703 91.63237885 92.23928532 92.85460144 92.59799385 94.11386108 C98.42887155 114.57640086 104.34605504 135.01296783 110.30212402 155.43937683 C116.06122499 175.19080913 121.75817136 194.95962564 127.4304657 214.73613739 C128.75591672 219.35638133 130.08258407 223.976276 131.40917969 228.59619141 C131.954989 230.4970391 132.50079588 232.39788749 133.04660034 234.29873657 C133.31706051 235.24065479 133.58752068 236.18257301 133.86617661 237.15303421 C134.67879641 239.98329142 135.49128975 242.81358491 136.30374146 245.64389038 C141.23172583 262.81092794 146.16794107 279.97559225 151.10676193 297.13951492 C152.17874517 300.86504462 153.25062143 304.5906051 154.32250977 308.31616211 C155.60036715 312.75757208 156.87824084 317.19897735 158.15617371 321.6403656 C161.20618595 332.24056649 164.25557815 342.84094562 167.3046875 353.44140625 C175.70010828 382.62847311 184.09727886 411.81503394 192.5 441 C197.37378167 457.9279868 202.24687484 474.85617101 207.1171875 491.78515625 C207.44048381 492.90891222 207.44048381 492.90891222 207.77031136 494.05537033 C210.17305249 502.40723743 212.57542676 510.75920993 214.97729492 519.11132812 C215.85072499 522.14844432 216.72418155 525.18555289 217.59765625 528.22265625 C217.81474684 528.97749928 218.03183743 529.7323423 218.25550652 530.51005936 C221.32906613 541.19660556 224.40611716 551.88214172 227.48553467 562.56700134 C229.21435699 568.56563466 230.94233256 574.56451179 232.67012024 580.56344318 C234.08599831 585.47910877 235.50302905 590.39444019 236.92089367 595.30953312 C237.79220581 598.33100488 238.66242724 601.35278994 239.53233528 604.37466621 C239.93772002 605.78202256 240.34357071 607.18924479 240.74990654 608.59632683 C241.3029887 610.51178506 241.85430624 612.42775256 242.40551758 614.34375 C242.71524002 615.41818359 243.02496246 616.49261719 243.34407043 617.59960938 C244 620 244 620 244 621 C217.27 621 190.54 621 163 621 C161.11130412 615.96347765 159.38903199 611.18171359 157.90966797 606.05151367 C157.72163542 605.40271807 157.53360287 604.75392246 157.33987236 604.08546638 C156.72097003 601.94715651 156.10656711 599.80758205 155.4921875 597.66796875 C155.04944849 596.13494572 154.6064281 594.60200393 154.16314697 593.06913757 C152.9757372 588.96007662 151.79223511 584.84990005 150.60959625 580.73946381 C149.38091654 576.47106992 148.14902867 572.2036021 146.91748047 567.93603516 C145.16463805 561.86087827 143.41311336 555.78534401 141.66308022 549.70937729 C138.91154903 540.15662685 136.15144068 530.60639384 133.3853569 521.05784798 C132.19115513 516.9343753 130.99854253 512.81044282 129.80608559 508.68646526 C128.87525107 505.46751789 127.94364131 502.24879957 127.01019287 499.03060913 C125.98606573 495.49768564 124.96524623 491.96382348 123.9453125 488.4296875 C123.64328918 487.39067795 123.34126587 486.3516684 123.03009033 485.28117371 C122.75993103 484.34260025 122.48977173 483.40402679 122.21142578 482.43701172 C121.85795578 481.21532791 121.85795578 481.21532791 121.49734497 479.96896362 C121 478 121 478 121 476 C62.59 476 4.18 476 -56 476 C-57.32 481.28 -58.64 486.56 -60 492 C-61.01046108 495.6645769 -62.03380291 499.31782606 -63.09692383 502.96655273 C-63.378871 503.94310318 -63.66081818 504.91965363 -63.9513092 505.92579651 C-64.8672283 509.0958371 -65.78713005 512.26470667 -66.70703125 515.43359375 C-67.35743377 517.68245951 -68.00754899 519.93140838 -68.65739441 522.18043518 C-70.36030018 528.07162742 -72.06644502 533.96187614 -73.77349854 539.85186768 C-76.49436321 549.24167188 -79.21050247 558.63284337 -81.92615318 568.02415657 C-83.12315247 572.16126123 -84.32246387 576.29769382 -85.52246571 580.43392849 C-89.42390772 593.93752139 -93.20952211 607.46257898 -97 621 C-123.73 621 -150.46 621 -178 621 C-177.31051785 615.4841428 -176.60202385 611.06552246 -175.08007812 605.85327148 C-174.88544574 605.18036135 -174.69081335 604.50745121 -174.49028301 603.81414986 C-173.84297474 601.58142853 -173.18709255 599.35132169 -172.53125 597.12109375 C-172.06293786 595.51163356 -171.59520538 593.90200462 -171.12800598 592.29222107 C-170.12143487 588.82798444 -169.11119025 585.36484881 -168.09805298 581.90252686 C-166.47471497 576.35431459 -164.85989944 570.80364551 -163.24682617 565.25244141 C-162.69103085 563.33996406 -162.13522941 561.42748848 -161.579422 559.51501465 C-161.3012797 558.55791092 -161.0231374 557.60080719 -160.73656654 556.61470032 C-159.87943174 553.66634051 -159.02150258 550.71821285 -158.16337585 547.7701416 C-152.42760932 528.06084533 -146.75673694 508.33307588 -141.09519958 488.60235214 C-139.78378386 484.03266468 -138.47147802 479.46323289 -137.15917969 474.89379883 C-136.63668747 473.07444785 -136.11419602 471.25509665 -135.59170532 469.43574524 C-135.33436237 468.53966364 -135.07701942 467.64358204 -134.8118782 466.72034645 C-134.03868578 464.02791561 -133.26559039 461.33545692 -132.49252319 458.64299011 C-127.63286636 441.71804803 -122.76584876 424.79522672 -117.89680862 407.87298203 C-117.2512448 405.62932629 -116.60570539 403.38566352 -115.96017456 401.14199829 C-114.25480769 395.21467403 -112.54942437 389.2873545 -110.84394836 383.36006165 C-107.79389684 372.75971794 -104.74446279 362.15919672 -101.6953125 351.55859375 C-93.10517067 321.6945702 -84.51294049 291.83115043 -75.91532898 261.96927643 C-69.48247528 239.62614005 -63.0525944 217.28214993 -56.625 194.9375 C-56.40702003 194.17972637 -56.18904007 193.42195274 -55.96445465 192.64121628 C-52.64285622 181.09417685 -49.32141143 169.54709322 -46 158 C-44.4456687 152.59627063 -42.89132898 147.19254369 -41.33697701 141.78882027 C-40.6720622 139.4772133 -40.00716515 137.16560123 -39.3422699 134.85398865 C-37.15130975 127.23689996 -34.95995536 119.61992503 -32.76782227 112.00317383 C-31.90377672 109.00082297 -31.03976756 105.99846165 -30.17578125 102.99609375 C-29.85648997 101.88658198 -29.85648997 101.88658198 -29.53074837 100.75465584 C-26.6805204 90.84966555 -23.83532114 80.94324492 -20.9944458 71.03556824 C-19.47404579 65.733279 -17.95198013 60.43146832 -16.42949677 55.12977695 C-15.21384049 50.89601735 -14.00028613 46.6616635 -12.78845882 42.42680645 C-11.86230482 39.19280832 -10.93282772 35.95976675 -10.00390625 32.7265625 C-9.68600632 31.61293839 -9.36810638 30.49931427 -9.04057312 29.35194397 C-6.20480117 19.50162463 -3.09048211 9.78652668 0 0 Z M32 169 C17.1191563 220.38990731 2.27895907 271.79132828 -12.47192383 323.21870422 C-15.24289305 332.87914598 -18.01680729 342.53873091 -20.79497719 352.19710445 C-22.71464435 358.87151473 -24.63147498 365.54673512 -26.54601097 372.22261906 C-27.65684528 376.09572713 -28.76895729 379.96845668 -29.88439941 383.84024048 C-30.90725052 387.3908182 -31.92643399 390.94242698 -32.94266319 394.49490547 C-33.48871347 396.40011623 -34.03871138 398.30419418 -34.58882141 400.20823669 C-34.90957138 401.33222366 -35.23032135 402.45621063 -35.56079102 403.61425781 C-35.98063011 405.07596405 -35.98063011 405.07596405 -36.40895081 406.56719971 C-37.11804134 409.06860503 -37.11804134 409.06860503 -37 412 C8.87 412 54.74 412 102 412 C101.21795095 406.28606663 101.21795095 406.28606663 99.92010498 400.81509399 C99.59762393 399.68441797 99.59762393 399.68441797 99.26862812 398.5309 C99.03399451 397.7261571 98.7993609 396.9214142 98.55761719 396.09228516 C98.30790507 395.22186805 98.05819296 394.35145094 97.80091381 393.45465755 C96.97065645 390.5648326 96.13377284 387.6769707 95.296875 384.7890625 C94.70520145 382.73456954 94.11394783 380.6799556 93.52308655 378.62522888 C91.93413832 373.1039004 90.33951746 367.58422507 88.74383926 362.06483841 C87.07937949 356.30387395 85.42014936 350.54140391 83.76049805 344.77905273 C81.09132779 335.51361183 78.41941396 326.24896668 75.74560547 316.98486328 C72.50067049 305.74093337 69.26486676 294.49440514 66.03515625 283.24609375 C65.14383655 280.14232315 64.25246871 277.03856638 63.36108398 273.93481445 C63.04132394 272.82140954 63.04132394 272.82140954 62.7151041 271.68551159 C52.87838371 237.43717077 42.95689895 203.2135787 33 169 C32.67 169 32.34 169 32 169 Z " fill="#393939" transform="translate(178,1494)"/>
<path d="M0 0 C2.02435364 2.08058568 3.43622204 3.99993192 5.01171875 6.41796875 C8.02380994 10.99000708 11.1527874 15.46681756 14.3125 19.9375 C33.718656 47.54913999 52.37659822 75.68551434 70.25 104.3125 C70.7464502 105.10736816 71.24290039 105.90223633 71.75439453 106.72119141 C75.61002169 112.90372338 79.43728398 119.10342401 83.25 125.3125 C84.23492432 126.91641602 84.23492432 126.91641602 85.23974609 128.55273438 C100.51253623 153.46716645 115.0409379 178.77627649 129.25 204.3125 C130.15359644 205.93362128 131.05723881 207.55471697 131.9609375 209.17578125 C133.97254379 212.78685606 135.97631579 216.40220601 137.97753906 220.01904297 C139.40397543 222.59002209 140.83884112 225.15622216 142.2734375 227.72265625 C143.28664254 229.54416838 144.29966696 231.36578099 145.3125 233.1875 C145.79033936 234.03868408 146.26817871 234.88986816 146.76049805 235.7668457 C147.20176025 236.5630835 147.64302246 237.35932129 148.09765625 238.1796875 C148.6855896 239.23325439 148.6855896 239.23325439 149.28540039 240.30810547 C152.5661757 247.12540875 152.29620941 256.04805948 150.53125 263.2421875 C147.40507345 271.5366398 142.66824957 276.37033388 135.23828125 281.015625 C128.0394086 284.13984163 120.0082025 284.6630921 112.25366211 285.21044922 C111.30678528 285.28234467 110.35990845 285.35424011 109.38433838 285.42831421 C106.26574223 285.66370969 103.14657736 285.89040939 100.02734375 286.1171875 C97.804852 286.28352118 95.5824051 286.45045489 93.36000061 286.61795044 C87.48888409 287.05904381 81.61726403 287.49301905 75.7454834 287.9251709 C66.5272496 288.60482865 57.30982314 289.29539035 48.09234238 289.98517227 C44.63659528 290.24336413 41.18074151 290.50009566 37.72488403 290.75680542 C26.57996757 291.58794959 15.43866565 292.44857173 4.30224609 293.38720703 C3.25980775 293.47503952 2.2173694 293.56287201 1.14334202 293.65336609 C0.11017322 293.74046341 -0.92299559 293.82756073 -1.98747253 293.91729736 C-24.50742891 295.81521475 -47.01014149 297.27382872 -69.58477783 298.3248291 C-76.91640936 298.66685209 -84.24746346 299.02062422 -91.578125 299.3828125 C-92.34649185 299.42053394 -93.1148587 299.45825539 -93.9065094 299.4971199 C-104.5560087 300.02555555 -115.16167539 300.75786042 -125.76464844 301.90429688 C-138.87095927 303.31395655 -151.69094159 302.37085243 -162.62329102 294.19262695 C-169.72225858 287.91675172 -174.07777281 278.44867158 -178.5625 270.25 C-179.79809317 268.01746153 -181.03507517 265.78569114 -182.2734375 263.5546875 C-182.86995117 262.47928711 -183.46646484 261.40388672 -184.08105469 260.29589844 C-186.22913672 256.45599755 -188.44044595 252.65761222 -190.6875 248.875 C-200.57143251 232.21240035 -210.15475895 215.37272019 -219.75759888 198.54702759 C-227.04596682 185.77765871 -234.39321992 173.04255758 -241.75 160.3125 C-255.19893041 137.04068044 -255.19893041 137.04068044 -260.7578125 127.296875 C-261.09232422 126.71053284 -261.42683594 126.12419067 -261.77148438 125.52008057 C-263.12016459 123.15559039 -264.46862919 120.79097801 -265.81628418 118.42590332 C-271.18480726 109.00655573 -276.62357255 99.62993766 -282.14672852 90.30029297 C-296.48509679 65.92398312 -296.48509679 65.92398312 -293.1328125 52.91796875 C-290.38431318 45.77916742 -285.48013418 41.07599972 -278.61181641 37.82885742 C-274.73610524 36.20420248 -270.78740684 35.31402873 -266.66796875 34.54296875 C-265.85850296 34.38563766 -265.04903717 34.22830658 -264.21504211 34.06620789 C-261.45759881 33.53456121 -258.69779037 33.01664968 -255.9375 32.5 C-254.47328613 32.22195526 -254.47328613 32.22195526 -252.97949219 31.93829346 C-227.37062621 27.08184191 -201.65898695 22.78454671 -175.95776367 18.44995117 C-172.58638222 17.88095439 -169.215059 17.31161338 -165.84375 16.7421875 C-165.00892971 16.6013335 -164.17410942 16.46047951 -163.31399155 16.31535721 C-151.75167951 14.36240946 -140.20725705 12.32527535 -128.67067146 10.22601891 C-109.6093616 6.76008765 -90.50864725 3.6116854 -71.36157227 0.6574707 C-67.09024792 -0.00218408 -62.82157226 -0.67766714 -58.55323887 -1.35636806 C-55.1766407 -1.89052307 -51.7983987 -2.41365413 -48.41963005 -2.93388557 C-46.84409675 -3.17826997 -45.26915311 -3.42649596 -43.69491768 -3.67910576 C-28.5540691 -6.10112846 -13.66230296 -8.38368591 0 0 Z " fill="#EA590D" transform="translate(2174.75,691.6875)"/>
<path d="M0 0 C0.33 71.61 0.66 143.22 1 217 C9.25 213.7 17.5 210.4 26 207 C54.42790516 196.83487028 84.64633508 188.83608897 115 188 C116.31355469 187.96003906 117.62710937 187.92007812 118.98046875 187.87890625 C145.58715865 187.33798244 172.04339988 192.14294082 192.5390625 210.2421875 C204.93974553 222.89855472 211.12898891 241.12765857 211.12304783 258.62414455 C211.12503888 259.92345486 211.12702993 261.22276517 211.12908131 262.56144851 C211.12622877 263.99111539 211.12328319 265.42078209 211.12025452 266.85044861 C211.12069082 268.37854151 211.12156681 269.90663434 211.12284368 271.43472677 C211.12507707 275.62610166 211.12108316 279.81745094 211.11606562 284.00882256 C211.11174472 288.53157749 211.11320871 293.05433099 211.1139679 297.5770874 C211.11449209 305.41053039 211.11135619 313.24396504 211.10573006 321.07740593 C211.09760093 332.40322858 211.09499838 343.72904721 211.09374207 355.05487246 C211.09155377 373.43054551 211.08489971 391.80621412 211.07543945 410.18188477 C211.06625959 428.03149391 211.05918156 445.88110186 211.05493164 463.73071289 C211.05453756 465.38125635 211.05453756 465.38125635 211.05413551 467.06514411 C211.05283047 472.58537196 211.05156676 478.10559981 211.05032361 483.62582767 C211.03995792 529.41722239 211.02152333 575.2086089 211 621 C184.27 621 157.54 621 130 621 C129.99589111 610.69217285 129.99178223 600.3843457 129.98754883 589.76416016 C129.97088862 556.77750688 129.92972158 523.79092487 129.87314438 490.80431686 C129.8643777 485.67992899 129.85582788 480.55554079 129.84741211 475.43115234 C129.84573305 474.4109852 129.84405398 473.39081805 129.84232404 472.33973674 C129.81565919 455.82451217 129.80655933 439.30932231 129.80395857 422.79407842 C129.80089839 405.84605562 129.77894411 388.89813312 129.73947543 371.95015562 C129.7157187 361.49355271 129.70667353 351.03715007 129.71648689 340.58052389 C129.72180541 333.40858752 129.70875996 326.23683049 129.6813371 319.06494518 C129.66605908 314.92798207 129.65881739 310.79142039 129.67340279 306.65444565 C129.68659176 302.86273473 129.67658734 299.07180032 129.64856227 295.28017657 C129.63959842 293.26746249 129.65507527 291.2546847 129.67157966 289.24201834 C129.57071592 280.15111487 127.72874501 273.51738496 121.89453125 266.44921875 C103.66873681 251.02739268 79.35717493 248.78419529 56.34375 250.46484375 C38.16097008 252.11691351 16.52553976 255.68504475 3.5 269.6875 C1.05568369 273.45582098 0.87245224 276.38136343 0.8613348 280.77275372 C0.85586036 281.98398173 0.85038591 283.19520975 0.84474558 284.44314164 C0.84366931 285.79418156 0.84268463 287.14522155 0.84178162 288.4962616 C0.83721727 289.9260331 0.83221744 291.35580328 0.82681805 292.78557187 C0.81321302 296.72373544 0.80581175 300.66189036 0.79939139 304.60007131 C0.79139782 308.84342235 0.77769646 313.08675532 0.76467896 317.33009338 C0.74290138 324.68504967 0.72476158 332.04000778 0.70907402 339.39497948 C0.68638705 350.02910889 0.6582426 360.66321831 0.62875474 371.29733077 C0.58106444 388.5493673 0.53780415 405.80141198 0.49731445 423.0534668 C0.45796684 439.81486649 0.41654238 456.57625893 0.37231445 473.33764648 C0.36959018 474.37035878 0.36686591 475.40307108 0.36405908 476.46707769 C0.35037973 481.64775454 0.33665943 486.82843127 0.32291877 492.00910795 C0.2089314 535.00605774 0.10294039 578.00302206 0 621 C-26.73 621 -53.46 621 -81 621 C-81.05072575 564.72992487 -81.0991201 508.45985001 -81.12702942 452.1897583 C-81.12744359 451.35685036 -81.12785776 450.52394242 -81.12828448 449.66579485 C-81.13726335 431.56415683 -81.14557388 413.46251857 -81.15319599 395.36087994 C-81.15693798 386.48375064 -81.16082764 377.6066214 -81.16479492 368.72949219 C-81.16538334 367.40442554 -81.16538334 367.40442554 -81.16598364 366.05258987 C-81.17876608 337.42338653 -81.20129882 308.79420096 -81.22889166 280.16500839 C-81.25719702 250.74307626 -81.27565809 221.32115397 -81.28174497 191.89920845 C-81.28260943 187.74289726 -81.28358634 183.58658611 -81.28463173 179.43027496 C-81.284834 178.61225895 -81.28503627 177.79424295 -81.28524467 176.95143857 C-81.28878885 163.78735709 -81.30270042 150.62330602 -81.3204961 137.45923694 C-81.3381683 124.22265175 -81.34490131 110.9860967 -81.34050413 97.74950013 C-81.33822364 89.88686114 -81.34429453 82.02433253 -81.36239263 74.16171349 C-81.37498925 68.28742798 -81.37187168 62.41321851 -81.36269668 56.53892437 C-81.36142918 54.16456475 -81.36523439 51.79019583 -81.37464955 49.41585454 C-81.48823494 19.00111251 -81.48823494 19.00111251 -72 9 C-53.92731362 -9.07268638 -20.50045127 0 0 0 Z " fill="#393939" transform="translate(907,1494)"/>
<path d="M0 0 C-0.72506263 3.72787006 -2.28958685 6.8264535 -3.98413086 10.21118164 C-4.29008179 10.82498184 -4.59603271 11.43878204 -4.91125488 12.07118225 C-5.92521867 14.1028158 -6.94492395 16.13150702 -7.96484375 18.16015625 C-8.67961897 19.58851227 -9.39409648 21.0170173 -10.10829163 22.44566345 C-11.61147012 25.45045468 -13.11732586 28.45388349 -14.62524414 31.45629883 C-16.5287017 35.24646062 -18.42704154 39.03915481 -20.32357407 42.83278561 C-27.03474652 56.25458563 -33.74590057 69.67138298 -40.78944397 82.92279053 C-44.13682654 89.22371387 -47.32337321 95.59517881 -50.47781372 101.99472046 C-55.60721343 112.38734245 -60.89566422 122.66714318 -66.51342773 132.80615234 C-70.46066545 139.94714205 -74.21180469 147.17883539 -77.9375 154.4375 C-83.81792074 165.86187943 -90.01299344 177.06896624 -96.40869141 188.21142578 C-97.99124315 190.98465469 -99.55182262 193.76908162 -101.10546875 196.55859375 C-136.65327909 260.29165093 -136.65327909 260.29165093 -159 284 C-159.98613281 285.0828125 -159.98613281 285.0828125 -160.9921875 286.1875 C-172.64090493 298.5379474 -187.71777092 301.57329773 -203.69771957 305.4270134 C-205.98531994 305.97893555 -208.27160593 306.53604982 -210.55764771 307.09439087 C-213.89144123 307.90844924 -217.2255924 308.72101615 -220.56002808 309.53244019 C-252.09598676 317.21237588 -283.54706949 325.1836605 -314.9375 333.4375 C-316.77786795 333.92122177 -318.61824068 334.40492534 -320.45861816 334.88861084 C-321.3715564 335.12856215 -322.28449463 335.36851345 -323.22509766 335.61573601 C-327.83491661 336.82732609 -332.4447816 338.03874079 -337.0546875 339.25 C-338.41967628 339.60875906 -338.41967628 339.60875906 -339.8122406 339.97476578 C-360.37467928 345.37762326 -380.96437414 350.67254525 -401.5625 355.9375 C-402.83670429 356.26322369 -402.83670429 356.26322369 -404.13665009 356.59552765 C-414.06554379 359.13330553 -423.99553331 361.66677207 -433.92630577 364.19718742 C-439.3340162 365.57514166 -444.7413385 366.95460953 -450.1484375 368.33496094 C-502.60007157 381.7236491 -502.60007157 381.7236491 -524.3125 387 C-525.32728928 387.24733383 -525.32728928 387.24733383 -526.36257935 387.49966431 C-536.64618942 390 -536.64618942 390 -539 390 C-537.66945504 383.10917766 -535.60725172 376.95528966 -532.875 370.5 C-532.44396973 369.47592041 -532.01293945 368.45184082 -531.56884766 367.39672852 C-518.46821439 336.80065915 -503.06508617 306.79133751 -486.50878906 277.93286133 C-483.22534926 272.20627636 -480.09023862 266.42785334 -477.0625 260.5625 C-471.67107353 250.16293429 -465.73721296 240.09280841 -459.77587891 230.01220703 C-458.05098648 227.08648216 -456.34164164 224.15224102 -454.63671875 221.21484375 C-442.29190446 200.00925326 -429.15448781 179.66427943 -412 162 C-411.30777344 161.28199219 -410.61554688 160.56398438 -409.90234375 159.82421875 C-398.58762666 148.94552158 -383.15519464 142.35180543 -369 136 C-367.39781245 135.27318577 -365.79584921 134.5458769 -364.1940918 133.81811523 C-359.13762075 131.52689742 -354.07072997 129.25946172 -349 127 C-347.75334564 126.44448456 -347.75334564 126.44448456 -346.48150635 125.87774658 C-333.6846286 120.18217774 -320.85019683 114.57406812 -308 109 C-307.14257202 108.6276825 -306.28514404 108.25536499 -305.4017334 107.87176514 C-218.34679256 70.07940917 -129.56602474 34.33615371 -38 9 C-37.31401733 8.80942017 -36.62803467 8.61884033 -35.92126465 8.42248535 C-5.5984884 0 -5.5984884 0 0 0 Z " fill="#EA590D" transform="translate(1659,794)"/>
<path d="M0 0 C1.24668457 0.01135986 1.24668457 0.01135986 2.51855469 0.02294922 C11.48218192 0.26345391 17.96628076 2.54583825 24.71533203 8.47851562 C28.43786569 12.42638902 30.94367663 17.18940444 33.625 21.875 C34.94973049 24.13587995 36.27526879 26.39628673 37.6015625 28.65625 C38.26446289 29.79449219 38.92736328 30.93273437 39.61035156 32.10546875 C42.5155781 37.06426462 45.50286898 41.97138449 48.5 46.875 C49.07008789 47.81053711 49.64017578 48.74607422 50.22753906 49.70996094 C54.58860329 56.86152187 58.98018632 63.99414682 63.375 71.125 C68.94846939 80.16839921 74.49055969 89.23001352 80 98.3125 C80.35179321 98.89242706 80.70358643 99.47235413 81.06604004 100.06985474 C83.92390072 104.78179623 86.77967697 109.49500018 89.63537598 114.20825195 C92.13094675 118.32692355 94.62733726 122.44509665 97.125 126.5625 C97.47714569 127.14304138 97.82929138 127.72358276 98.19210815 128.32171631 C103.93500975 137.78624448 109.72797566 147.21936523 115.53881836 156.64233398 C122.24683115 167.5291359 128.87777922 178.46213387 135.50547791 189.3979187 C138.37059746 194.12418231 141.24540556 198.84449024 144.12329102 203.56298828 C145.83822994 206.37716123 147.5482665 209.19426742 149.2578125 212.01171875 C151.48143599 215.67365406 153.72895259 219.31945889 155.9921875 222.95703125 C157.07825549 224.72127384 158.16419852 226.48559337 159.25 228.25 C159.74346924 229.03181641 160.23693848 229.81363281 160.74536133 230.61914062 C165.68549331 238.69810712 168.98000713 247.26727641 167.09375 256.80859375 C164.53964731 266.79695964 159.04505005 272.87011795 150.5625 278.4375 C147.63094579 279.87238344 144.62526405 280.94954668 141.5390625 282.00390625 C140.66557159 282.31537598 139.79208069 282.6268457 138.89212036 282.94775391 C135.99489496 283.97783913 133.09127854 284.98855196 130.1875 286 C128.11305393 286.73468763 126.03917361 287.47097436 123.96582031 288.20874023 C119.51395719 289.79176089 115.05993178 291.36848132 110.60449219 292.94140625 C98.48358973 297.22857753 86.39987533 301.61941397 74.3125 306 C73.08110291 306.44591492 71.84970581 306.89182983 70.58099365 307.35125732 C-15.63370884 338.57508253 -102.03775982 371.23278206 -193.49804688 420.80957031 C-196.77682963 422.62542774 -200.06743133 424.41911195 -203.359375 426.2109375 C-221.33374937 436.01167976 -238.91882622 446.36472694 -256.3671875 457.078125 C-257.29781006 457.64563477 -258.22843262 458.21314453 -259.18725586 458.79785156 C-260.93730878 459.86546492 -262.68316403 460.93999984 -264.42407227 462.02246094 C-265.19033936 462.48942383 -265.95660645 462.95638672 -266.74609375 463.4375 C-267.41439209 463.85 -268.08269043 464.2625 -268.77124023 464.6875 C-269.32110596 464.935 -269.87097168 465.1825 -270.4375 465.4375 C-271.0975 465.1075 -271.7575 464.7775 -272.4375 464.4375 C-269.3467696 458.37583177 -266.25407851 452.31516664 -263.16015625 446.25512695 C-262.11252654 444.20261159 -261.06531141 442.14988455 -260.01855469 440.09692383 C-253.5977526 427.50488058 -247.10851427 414.953708 -240.50286865 402.45767212 C-237.95701542 397.63017724 -235.44969468 392.78256306 -232.9375 387.9375 C-224.7808167 372.23642175 -216.52967946 356.59205365 -208.15444946 341.00637817 C-203.61776395 332.56013763 -199.15256884 324.07958808 -194.75 315.5625 C-190.3748187 307.10298078 -185.8913969 298.71442629 -181.3034668 290.36865234 C-176.63578903 281.85412005 -172.09600573 273.27391986 -167.5625 264.6875 C-160.48282501 251.28198978 -153.33912017 237.91364473 -146.13183594 224.57617188 C-144.37874149 221.32865282 -142.63014214 218.07874916 -140.8828125 214.828125 C-134.9726513 203.83424055 -129.03671396 192.85568017 -123.04638672 181.90527344 C-118.96844681 174.43824391 -114.94833928 166.9407036 -110.9375 159.4375 C-105.97538254 150.1547103 -100.9757546 140.89379512 -95.92358398 131.65966797 C-92.08715951 124.64255239 -88.2878616 117.6059369 -84.5 110.5625 C-75.39953539 93.64181199 -66.25460289 76.74582277 -57.0378418 59.88818359 C-54.2795877 54.83660581 -51.54069045 49.77521137 -48.8203125 44.703125 C-48.20534912 43.5569873 -47.59038574 42.41084961 -46.95678711 41.22998047 C-45.77594287 39.02693399 -44.5969287 36.82290513 -43.42016602 34.61767578 C-28.24359613 6.30207932 -28.24359613 6.30207932 -11.88134766 1.05273438 C-7.91253785 0.05359345 -4.07636965 -0.05230372 0 0 Z " fill="#F49200" transform="translate(1783.4375,-0.4375)"/>
<path d="M0 0 C1.0396843 -0.00701431 2.07936859 -0.01402863 3.15055847 -0.02125549 C6.48583364 -0.03864963 9.82093115 -0.04510735 13.15625 -0.046875 C14.29663727 -0.04754974 15.43702454 -0.04822449 16.61196899 -0.04891968 C33.8131795 -0.03274787 50.65701559 0.33918429 67.65625 3.203125 C68.68556641 3.37473145 69.71488281 3.54633789 70.77539062 3.72314453 C101.22243708 9.01027131 133.56614439 19.12038496 152.76171875 45.046875 C160.55974639 57.41730691 162.26323909 70.42201693 162.13726807 84.74986267 C162.1390173 86.25598917 162.14252864 87.76211446 162.14762473 89.26823336 C162.15647958 93.36187299 162.14069373 97.4550862 162.12051249 101.5486716 C162.10311325 105.97994099 162.10909294 110.41118955 162.11212158 114.84248352 C162.11421112 122.50504616 162.10174382 130.16747175 162.07917023 137.82999992 C162.04655472 148.90847814 162.03623347 159.98689061 162.03121826 171.06541163 C162.02248054 189.04291283 161.99590642 207.0203411 161.95800781 224.99780273 C161.92124821 242.45320269 161.89295581 259.90858278 161.87597656 277.36401367 C161.87492567 278.44136522 161.87387477 279.51871677 161.87279204 280.62871533 C161.86757159 286.03388948 161.86251683 291.43906378 161.85754442 296.84423816 C161.81612983 341.63059856 161.74241765 386.41682396 161.65625 431.203125 C134.92625 431.203125 108.19625 431.203125 80.65625 431.203125 C80.65214111 420.89529785 80.64803223 410.5874707 80.64379883 399.96728516 C80.62713862 366.98063188 80.58597158 333.99404987 80.52939438 301.00744186 C80.5206277 295.88305399 80.51207788 290.75866579 80.50366211 285.63427734 C80.50198305 284.6141102 80.50030398 283.59394305 80.49857404 282.54286174 C80.47190919 266.02763717 80.46280933 249.51244731 80.46020857 232.99720342 C80.45714839 216.04918062 80.43519411 199.10125812 80.39572543 182.15328062 C80.3719687 171.69667771 80.36292353 161.24027507 80.37273689 150.78364889 C80.37805541 143.61171252 80.36500996 136.43995549 80.3375871 129.26807018 C80.32230908 125.13110707 80.31506739 120.99454539 80.32965279 116.85757065 C80.34284176 113.06585973 80.33283734 109.27492532 80.30481227 105.48330157 C80.29584842 103.47058749 80.31132527 101.4578097 80.32782966 99.44514334 C80.22696592 90.35423987 78.38499501 83.72050996 72.55078125 76.65234375 C54.30472146 61.21337009 29.97300104 58.9931266 6.9375 60.6640625 C-10.16214811 62.22604959 -33.54189409 65.77358015 -45.40625 79.390625 C-48.17657218 83.41206042 -48.47033598 86.20458585 -48.4824152 90.97587872 C-48.48788964 92.18710673 -48.49336409 93.39833475 -48.49900442 94.64626664 C-48.50008069 95.99730656 -48.50106537 97.34834655 -48.50196838 98.6993866 C-48.50653273 100.1291581 -48.51153256 101.55892828 -48.51693195 102.98869687 C-48.53053698 106.92686044 -48.53793825 110.86501536 -48.54435861 114.80319631 C-48.55235218 119.04654735 -48.56605354 123.28988032 -48.57907104 127.53321838 C-48.60084862 134.88817467 -48.61898842 142.24313278 -48.63467598 149.59810448 C-48.65736295 160.23223389 -48.6855074 170.86634331 -48.71499526 181.50045577 C-48.76268556 198.7524923 -48.80594585 216.00453698 -48.84643555 233.2565918 C-48.88578316 250.01799149 -48.92720762 266.77938393 -48.97143555 283.54077148 C-48.97415982 284.57348378 -48.97688409 285.60619608 -48.97969092 286.67020269 C-48.99337027 291.85087954 -49.00709057 297.03155627 -49.02083123 302.21223295 C-49.1348186 345.20918274 -49.24080961 388.20614706 -49.34375 431.203125 C-76.07375 431.203125 -102.80375 431.203125 -130.34375 431.203125 C-130.40986545 381.63857894 -130.46526598 332.07407442 -130.49694599 282.50949689 C-130.50069819 276.66022116 -130.50458114 270.81094552 -130.50854492 264.96166992 C-130.50933185 263.79716633 -130.51011878 262.63266275 -130.51092956 261.43287117 C-130.52398957 242.56826139 -130.5476467 223.70367898 -130.57520839 204.83908545 C-130.60324601 185.487591 -130.61992278 166.13611091 -130.62601548 146.78459698 C-130.63013533 134.84013703 -130.6431556 122.89575446 -130.6674994 110.95131833 C-130.68333629 102.76467561 -130.688155 94.578073 -130.68425413 86.39141607 C-130.6823294 81.66554893 -130.68531546 76.93981717 -130.70136642 72.213974 C-130.71595262 67.88786369 -130.71671068 63.56197997 -130.70644668 59.23585928 C-130.7051779 57.67046463 -130.70899431 56.10505591 -130.71839955 54.539689 C-130.73044469 52.41126092 -130.72394691 50.28365004 -130.71289349 48.15523434 C-130.71403265 46.97316495 -130.71517181 45.79109556 -130.71634549 44.57320589 C-130.01548748 38.23403039 -127.36732933 33.32761168 -122.69921875 29.015625 C-91.33074534 4.87802689 -38.35369496 0.17475079 0 0 Z " fill="#393939" transform="translate(1659.34375,1683.796875)"/>
<path d="M0 0 C1.0396843 -0.00701431 2.07936859 -0.01402863 3.15055847 -0.02125549 C6.48583364 -0.03864963 9.82093115 -0.04510735 13.15625 -0.046875 C14.29663727 -0.04754974 15.43702454 -0.04822449 16.61196899 -0.04891968 C33.8131795 -0.03274787 50.65701559 0.33918429 67.65625 3.203125 C68.68556641 3.37473145 69.71488281 3.54633789 70.77539062 3.72314453 C95.54787352 8.02488388 119.76639363 15.33819741 139.65625 31.203125 C140.28660156 31.65816406 140.91695312 32.11320312 141.56640625 32.58203125 C152.36151349 40.81975545 159.46046552 55.05233357 161.65625 68.203125 C161.74442461 70.29645185 161.78002055 72.39228673 161.77929783 74.48746967 C161.78128888 75.76189751 161.78327993 77.03632535 161.78533131 78.34937221 C161.78247843 79.76134211 161.77953284 81.17331183 161.77650452 82.58528137 C161.77694058 84.08689937 161.77781615 85.58851729 161.77909368 87.0901348 C161.78133167 91.21761906 161.77732685 95.34507742 161.77231562 99.47255838 C161.76800135 103.92309149 161.76945824 108.37362311 161.7702179 112.82415771 C161.77074251 120.5354071 161.76760223 128.24664802 161.76198006 135.95789528 C161.75385661 147.1070954 161.75124897 158.25629142 161.74999207 169.40549418 C161.74780288 187.4938832 161.74114639 205.58226772 161.73168945 223.6706543 C161.7225119 241.24291969 161.71543274 258.81518386 161.71118164 276.38745117 C161.71078756 278.01189984 161.71078756 278.01189984 161.71038551 279.66916565 C161.70908048 285.10203033 161.70781677 290.53489503 161.70657361 295.96775973 C161.69620514 341.04621882 161.67776906 386.12466958 161.65625 431.203125 C135.25625 431.203125 108.85625 431.203125 81.65625 431.203125 C81.63643066 421.07181885 81.61661133 410.9405127 81.59619141 400.50219727 C81.53138154 368.08460004 81.45684884 335.66703169 81.37619839 303.24947015 C81.36367954 298.21392104 81.35124676 293.17837172 81.33886719 288.14282227 C81.33640119 287.1403365 81.3339352 286.13785073 81.33139448 285.1049866 C81.29167254 268.87362782 81.25892269 252.64226209 81.22875018 236.41088308 C81.1976344 219.75556594 81.15902443 203.10027833 81.11345994 186.44499439 C81.08558119 176.16809997 81.06354547 165.89122714 81.04898749 155.61430507 C81.03844407 148.56670812 81.02062019 141.51915299 80.99708296 134.47158755 C80.98371865 130.40575078 80.97355312 126.33997261 80.97203636 122.2741127 C80.97057563 118.54867896 80.95993261 114.82338625 80.94211559 111.09799587 C80.93499994 109.11835108 80.93759613 107.13867866 80.94058573 105.15902334 C80.87048553 94.00063015 79.75008324 84.73126262 71.90234375 76.32421875 C56.90159864 62.29321878 34.5602685 59.79741359 14.85400391 60.22485352 C-4.22616669 60.9725756 -29.58882194 64.03870287 -44.03125 77.8125 C-47.77863033 82.11347061 -48.46835609 85.42253176 -48.4824152 90.97587872 C-48.48788964 92.18710673 -48.49336409 93.39833475 -48.49900442 94.64626664 C-48.50008069 95.99730656 -48.50106537 97.34834655 -48.50196838 98.6993866 C-48.50653273 100.1291581 -48.51153256 101.55892828 -48.51693195 102.98869687 C-48.53053698 106.92686044 -48.53793825 110.86501536 -48.54435861 114.80319631 C-48.55235218 119.04654735 -48.56605354 123.28988032 -48.57907104 127.53321838 C-48.60084862 134.88817467 -48.61898842 142.24313278 -48.63467598 149.59810448 C-48.65736295 160.23223389 -48.6855074 170.86634331 -48.71499526 181.50045577 C-48.76268556 198.7524923 -48.80594585 216.00453698 -48.84643555 233.2565918 C-48.88578316 250.01799149 -48.92720762 266.77938393 -48.97143555 283.54077148 C-48.97415982 284.57348378 -48.97688409 285.60619608 -48.97969092 286.67020269 C-48.99337027 291.85087954 -49.00709057 297.03155627 -49.02083123 302.21223295 C-49.1348186 345.20918274 -49.24080961 388.20614706 -49.34375 431.203125 C-75.74375 431.203125 -102.14375 431.203125 -129.34375 431.203125 C-129.40985182 381.22235316 -129.46525757 331.24162245 -129.49694599 281.26081942 C-129.50069824 275.36390233 -129.50458119 269.46698532 -129.50854492 263.57006836 C-129.50933185 262.39606831 -129.51011878 261.22206825 -129.51092956 260.01249244 C-129.52399351 240.98810177 -129.54765279 221.96373821 -129.57520839 202.93936364 C-129.60323509 183.42741707 -129.61992046 163.91548473 -129.62601548 144.40351886 C-129.63013761 132.35771219 -129.64317014 120.31198216 -129.6674994 108.26619907 C-129.68332284 100.01275879 -129.68815807 91.7593583 -129.68425413 83.50590394 C-129.68232729 78.73977976 -129.68533928 73.97378977 -129.70136642 69.20768929 C-129.71592315 64.8471429 -129.71672999 60.48682145 -129.70644668 56.12626489 C-129.705175 54.54610112 -129.70901635 52.96592353 -129.71839955 51.38578711 C-129.73039152 49.24224451 -129.72397954 47.09952013 -129.71289349 44.95599079 C-129.71403265 43.76404867 -129.71517181 42.57210656 -129.71634549 41.34404498 C-128.97000017 35.05247412 -124.91871299 31.27478685 -120.296875 27.31640625 C-88.69637409 4.70282028 -37.66887706 0.17163056 0 0 Z " fill="#393939" transform="translate(591.34375,1683.796875)"/>
<path d="M0 0 C3.71148052 0.00316202 7.42216183 -0.02042346 11.13354492 -0.0456543 C50.45566782 -0.15020111 97.21937529 3.75678934 127.1628418 32.25317383 C136.04744534 41.43805225 140.02368435 52.32597854 140.04706287 65.08326244 C140.05152072 66.21704521 140.05597856 67.35082798 140.06057149 68.51896781 C140.06029495 70.37249813 140.06029495 70.37249813 140.06001282 72.26347351 C140.06331492 73.59724862 140.06704122 74.93102274 140.0711543 76.2647956 C140.08114267 79.92411421 140.08488596 83.58341641 140.08754361 87.24274671 C140.09145595 91.19177084 140.10103348 95.14078209 140.10975647 99.08979797 C140.12949234 108.62246747 140.13958243 118.15513798 140.14848426 127.68782279 C140.15287098 132.17974381 140.15823671 136.67166366 140.16347313 141.16358376 C140.18048084 156.09958368 140.19497515 171.03558288 140.20222187 185.971591 C140.20413167 189.84499297 140.20605202 193.71839493 140.20800781 197.59179688 C140.20849155 198.55447764 140.20897529 199.5171584 140.20947369 200.50901131 C140.21777465 216.1049637 140.24311473 231.70083941 140.27558849 247.29675832 C140.3086737 263.31718873 140.32667186 279.33758017 140.32986611 295.35804492 C140.33202961 304.34959695 140.34075509 313.34103708 140.36632729 322.33255577 C140.38805407 329.98949118 140.3960749 337.64628748 140.3863605 345.30325022 C140.38182182 349.20745216 140.3836767 353.11136721 140.40312195 357.01552963 C140.42079736 360.5953638 140.41972105 364.1747027 140.40422466 367.75454245 C140.40073971 369.65093838 140.41684206 371.54733977 140.43382913 373.44366282 C140.34041599 385.92816758 136.71962126 395.40783296 127.9128418 404.31567383 C91.85461592 436.14097754 29.57852542 435.89677974 -16.01245117 433.07250977 C-43.83226828 430.80684532 -73.55703282 425.24164436 -95.0871582 406.31567383 C-96.20670898 405.41075195 -96.20670898 405.41075195 -97.34887695 404.48754883 C-108.18354086 395.48702523 -115.65406283 383.68831128 -122.0871582 371.31567383 C-122.69430664 370.15551758 -123.30145508 368.99536133 -123.92700195 367.80004883 C-142.32736113 331.24373752 -144.16583177 286.02308887 -131.77856445 247.3659668 C-122.68173586 220.39027239 -103.48241818 196.95830581 -77.98339844 184.10058594 C-44.13789941 167.78036408 -4.45537138 168.10099018 31.7253418 175.56567383 C32.61979004 175.74573975 33.51423828 175.92580566 34.43579102 176.11132812 C40.12485602 177.37240248 45.39628459 179.21698035 50.77490234 181.41625977 C51.46419579 181.69517059 52.15348923 181.97408142 52.86367035 182.26144409 C54.5478637 182.94338797 56.23051416 183.62914022 57.9128418 184.31567383 C57.98256049 173.7969517 58.03576374 163.27828516 58.06827831 152.75937843 C58.08388901 147.87425154 58.10504277 142.98928353 58.13916016 138.10424805 C58.17191822 133.3839399 58.18972932 128.66378393 58.19747353 123.94337082 C58.20298764 122.14856956 58.21375492 120.35377599 58.23003197 118.55904007 C58.36497918 103.05332081 56.60110099 90.71994181 45.9128418 78.62817383 C39.24390361 72.31890871 28.71910288 67.21659571 19.47753906 67.17041016 C18.60464737 67.1640303 17.73175568 67.15765045 16.83241272 67.15107727 C15.89086838 67.14996445 14.94932404 67.14885162 13.97924805 67.14770508 C12.99149887 67.14437668 12.00374969 67.14104828 10.98606873 67.13761902 C8.88541121 67.13255267 6.78474565 67.1302106 4.68408203 67.13037109 C1.54599656 67.12822221 -1.59171486 67.11016998 -4.72973633 67.09106445 C-36.90353283 66.99391846 -67.57876743 72.98183019 -98.82293701 80.0802002 C-104.52833154 81.37497916 -110.23640678 82.65789131 -115.94446182 83.94087982 C-117.92045284 84.38616121 -119.89568667 84.83467992 -121.87081909 85.28375244 C-123.0545108 85.5511322 -124.23820251 85.81851196 -125.45776367 86.09399414 C-126.50012177 86.33063782 -127.54247986 86.56728149 -128.61642456 86.81109619 C-131.0871582 87.31567383 -131.0871582 87.31567383 -133.0871582 87.31567383 C-133.18004343 79.98753523 -133.25101637 72.6595246 -133.29440689 65.33091545 C-133.31523766 61.92751065 -133.34347079 58.52451008 -133.38891602 55.12133789 C-133.4408917 51.20439577 -133.46014089 47.28761448 -133.4777832 43.37036133 C-133.49842834 42.15452362 -133.51907349 40.93868591 -133.54034424 39.68600464 C-133.54204294 33.27220948 -133.49515315 29.15222384 -129.0871582 24.31567383 C-113.71777766 10.01149787 -83.61382569 7.68853252 -63.9621582 4.56567383 C-62.7265918 4.36707764 -61.49102539 4.16848145 -60.21801758 3.96386719 C-40.19452343 0.93098844 -20.23944968 -0.03588319 0 0 Z M-36.0871582 237.31567383 C-36.75875977 237.89575195 -37.43036133 238.47583008 -38.12231445 239.07348633 C-52.32679101 252.15583661 -58.11313935 270.79166859 -59.29223633 289.58422852 C-59.38939358 292.87270424 -59.41621781 296.15083267 -59.3996582 299.44067383 C-59.39474365 300.61210938 -59.3898291 301.78354492 -59.38476562 302.99047852 C-59.08718612 325.2891027 -54.8218115 348.64868735 -39.0090332 365.51098633 C-27.47984892 376.33717157 -13.40162166 380.41659234 2.1159668 380.55395508 C3.43271393 380.5660627 3.43271393 380.5660627 4.77606201 380.57841492 C6.62843892 380.59219767 8.4808406 380.60294559 10.33325195 380.61083984 C12.21256036 380.62235243 14.09183625 380.64279285 15.97094727 380.67236328 C29.08851534 380.87844057 39.50463986 380.54223538 50.15893555 372.01879883 C56.04007542 366.30793694 58.96197617 359.18046924 59.18026733 351.04089355 C59.19819969 348.90142848 59.20513136 346.76185395 59.20336914 344.62231445 C59.21008636 343.45089401 59.21680359 342.27947357 59.22372437 341.07255554 C59.24270133 337.20563502 59.2466281 333.338888 59.2487793 329.47192383 C59.25162738 328.13662134 59.25481944 326.80131954 59.25835037 325.46601868 C59.2768277 318.47594483 59.28502345 311.48594707 59.28344727 304.49584961 C59.28224494 297.989407 59.30337068 291.4832956 59.33493459 284.97693682 C59.3611105 279.38099886 59.37181409 273.78516905 59.37053645 268.18917036 C59.37002739 264.8510537 59.37752678 261.51346665 59.39689255 258.17536926 C59.41647028 254.45297646 59.41074634 250.73143955 59.39868164 247.0090332 C59.40992065 245.90859177 59.42115967 244.80815033 59.43273926 243.67436218 C59.3724063 236.35520619 58.35228197 232.83328309 53.1940918 227.55786133 C28.12315515 208.31481785 -14.0645419 217.37567919 -36.0871582 237.31567383 Z " fill="#393939" transform="translate(1314.087158203125,1681.684326171875)"/>
<path d="M0 0 C26.73 0 53.46 0 81 0 C81.01458252 10.52511475 81.02916504 21.05022949 81.04418945 31.89428711 C81.09294665 65.57022793 81.15635569 99.2461269 81.22898628 132.92202437 C81.24025445 138.15284999 81.2513929 143.38367588 81.26245117 148.61450195 C81.26465486 149.65586571 81.26685854 150.69722948 81.269129 151.77014972 C81.30450187 168.63199612 81.32936607 185.49384248 81.35034702 202.35571223 C81.37210914 219.65740525 81.4051635 236.95905013 81.44870156 254.26070219 C81.47521115 264.93683125 81.49291164 275.61290031 81.49934604 286.28906066 C81.50460202 293.60999401 81.52082613 300.93085185 81.54566566 308.25174474 C81.55967337 312.47557729 81.56885417 316.69927471 81.56500816 320.92313194 C81.5615914 324.792953 81.57200024 328.66248571 81.59323552 332.53224773 C81.59849247 333.92942775 81.59874982 335.32663781 81.59339563 336.72381746 C81.55249663 348.61070015 82.81672802 356.89713362 91.234375 365.640625 C108.09719209 380.02641811 132.91972397 381.02983663 154 380 C171.77894957 378.5323748 193.67442306 374.90915266 207 362 C209.75590353 358.15405128 210.37651147 355.5131577 210.38476086 350.80935955 C210.3942174 349.55583209 210.40367394 348.30230462 210.41341704 347.01079148 C210.40878744 345.62240235 210.40388096 344.23401412 210.39872742 342.84562683 C210.40416645 341.36875258 210.41091783 339.89188267 210.41886932 338.41501981 C210.43692145 334.35590406 210.4363343 330.29697101 210.43273985 326.23782456 C210.43211683 321.86088158 210.44872831 317.48400034 210.46325684 313.10708618 C210.48606575 305.52352125 210.4979319 297.94000232 210.50238609 290.35640526 C210.50884191 279.39178125 210.53176927 268.42724048 210.55872939 257.46264998 C210.60202144 239.67376077 210.63197438 221.88487507 210.65356445 204.09594727 C210.6745669 186.81467976 210.70183558 169.5334409 210.73754883 152.25219727 C210.73974765 151.18715346 210.74194648 150.12210966 210.74421193 149.0247918 C210.7552814 143.68183132 210.76647425 138.3388711 210.77772844 132.995911 C210.87094779 88.66395796 210.94007711 44.33201301 211 0 C237.73 0 264.46 0 292 0 C292.11020313 49.80231839 292.20253317 99.60452191 292.25532665 149.40692732 C292.26158027 155.28495697 292.26805187 161.16298636 292.2746582 167.04101562 C292.27596976 168.21123813 292.27728131 169.38146064 292.2786326 170.58714443 C292.30039623 189.5416357 292.33982306 208.49605124 292.38576398 227.45049757 C292.43250192 246.89578486 292.46028977 266.34103246 292.47044247 285.78637362 C292.47730714 297.78770275 292.49899785 309.78881783 292.53958233 321.79008108 C292.56598778 330.01692695 292.57400595 338.24366196 292.56750689 346.47054714 C292.5643006 351.2189099 292.56925673 355.9668983 292.59602737 360.7151947 C292.6203616 365.06307261 292.6215866 369.41032448 292.60449447 373.75823122 C292.60238208 375.33038114 292.60872354 376.90257015 292.62441591 378.47464317 C292.76779928 393.72682224 292.76779928 393.72682224 287 400 C255.54842177 430.25069979 189.15314123 431.22203983 148.5 431.25 C147.16255737 431.25101212 147.16255737 431.25101212 145.7980957 431.25204468 C104.86400828 431.20328758 57.35271695 427.47762538 24 401 C22.75669922 400.03707031 22.75669922 400.03707031 21.48828125 399.0546875 C9.04851908 388.72949439 2.00039057 374.9809372 0 359 C-0.08438602 356.84527138 -0.12380049 354.68840942 -0.12304783 352.53202915 C-0.12503888 351.2675528 -0.12702993 350.00307645 -0.12908131 348.70028263 C-0.12622881 347.30991826 -0.12328322 345.91955407 -0.12025452 344.52919006 C-0.12069084 343.04234516 -0.12156688 341.55550033 -0.12284368 340.06865591 C-0.1250766 335.99129649 -0.12108381 331.9139634 -0.11606562 327.83660734 C-0.11174405 323.43655294 -0.11320876 319.03650001 -0.1139679 314.63644409 C-0.11449205 307.01581025 -0.11135659 299.39518498 -0.10573006 291.7745533 C-0.09760035 280.75642153 -0.09499833 269.7382939 -0.09374207 258.72015946 C-0.09155386 240.84362935 -0.08490004 222.96710381 -0.07543945 205.09057617 C-0.06625935 187.72599307 -0.05918144 170.36141121 -0.05493164 152.99682617 C-0.05466892 151.92633382 -0.05440619 150.85584148 -0.05413551 149.75290997 C-0.05283046 144.38252283 -0.05156676 139.01213569 -0.05032361 133.64174855 C-0.0399582 89.09449498 -0.02152377 44.54724985 0 0 Z " fill="#3A3A3A" transform="translate(2269,1684)"/>
<path d="M0 0 C1.18274506 -0.00570007 2.36549011 -0.01140015 3.58407593 -0.01727295 C6.07654954 -0.02665601 8.56903518 -0.03323002 11.06152344 -0.03710938 C14.77823041 -0.04672569 18.4943618 -0.07777818 22.2109375 -0.109375 C59.4817023 -0.27465041 108.70300236 2.60362531 137.37060547 30.1159668 C146.98081032 39.83981156 151.62415231 50.58022885 151.74591112 64.27053463 C151.73698823 65.52414914 151.72806535 66.77776364 151.71887207 68.06936646 C151.72349001 69.44188625 151.72984889 70.81440109 151.73778105 72.18690574 C151.75437481 75.93013669 151.74627395 79.67295618 151.73383617 83.416188 C151.72474704 87.46394846 151.73877436 91.51164055 151.74975586 95.55938721 C151.76750366 103.47716082 151.7637181 111.39478241 151.7521053 119.31256188 C151.74305777 125.74863865 151.74185267 132.18467293 151.74620056 138.62075424 C151.74681349 139.53808528 151.74742643 140.45541632 151.74805793 141.40054526 C151.74933688 143.26428082 151.75063373 145.12801636 151.7519483 146.99175189 C151.76334281 164.45020494 151.75025746 181.90857384 151.72874683 199.36701308 C151.71087089 214.33895576 151.71398623 229.31077439 151.73242188 244.28271484 C151.75383823 261.6834177 151.76225056 279.08404693 151.74997282 296.48476112 C151.74869866 298.34088316 151.74744118 300.19700522 151.74620056 302.05312729 C151.74527491 303.42288729 151.74527491 303.42288729 151.74433056 304.82031921 C151.7408804 311.24780616 151.74669866 317.67524629 151.75611877 324.10272598 C151.76734838 331.936753 151.76427827 339.77061975 151.7429958 347.60462846 C151.73249921 351.59973526 151.72833974 355.59457503 151.74159241 359.58967972 C151.75355087 363.25003486 151.74689764 366.90987656 151.7256822 370.57018541 C151.71912931 372.51452498 151.73212119 374.45890046 151.74591112 376.40320218 C151.64263465 387.96375365 148.27349715 395.09209305 140.2109375 403.203125 C139.59863281 403.85023438 138.98632812 404.49734375 138.35546875 405.1640625 C108.43533819 434.44759454 52.32511017 433.8109832 13.37036133 433.55664062 C-22.46653291 433.14817126 -59.11407241 427.65598706 -86.7890625 403.203125 C-87.70751953 402.41035156 -87.70751953 402.41035156 -88.64453125 401.6015625 C-106.41018796 385.14406579 -116.64973579 361.08631557 -122.5390625 338.078125 C-122.73790039 337.30364014 -122.93673828 336.52915527 -123.14160156 335.73120117 C-126.22412775 323.01644157 -127.16614526 310.4750778 -127.1015625 297.453125 C-127.10007202 296.70711029 -127.09858154 295.96109558 -127.0970459 295.19247437 C-127.05665762 283.93514677 -126.43718698 273.17392641 -123.7890625 262.203125 C-123.38880859 260.33720703 -123.38880859 260.33720703 -122.98046875 258.43359375 C-116.29444074 230.0551193 -98.89870711 203.88279812 -74.0390625 188.453125 C-38.88516098 167.34470705 7.08301305 166.44471091 46.13623047 175.95825195 C52.25289571 177.5465331 58.09499399 179.51163986 63.99291992 181.79541016 C65.15877121 182.24614899 66.3246225 182.69688782 67.52580261 183.1612854 C68.85494438 183.676996 68.85494438 183.676996 70.2109375 184.203125 C70.28074763 173.97971329 70.33390525 163.75635921 70.36637402 153.53275681 C70.38196505 148.78444693 70.40308201 144.03630131 70.43725586 139.28808594 C70.47008518 134.69744525 70.48783974 130.10696158 70.49556923 125.51621246 C70.50107074 123.77330304 70.51181267 122.03040125 70.52812767 120.28755951 C70.66925492 104.57280682 69.32286235 91.41476492 58.3984375 79.171875 C51.40169584 72.52497043 41.70403026 67.13260212 31.90258789 67.04199219 C30.63029076 67.02782257 30.63029076 67.02782257 29.33229065 67.0133667 C28.41697067 67.00895569 27.5016507 67.00454468 26.55859375 67 C25.59996933 66.99284973 24.64134491 66.98569946 23.65367126 66.97833252 C-21.41478452 66.71965095 -62.62826533 74.38736291 -106.37231445 84.40869141 C-107.60105286 84.68937973 -107.60105286 84.68937973 -108.85461426 84.97573853 C-110.39005468 85.3269601 -111.92507355 85.68003148 -113.45959473 86.0352478 C-118.56670947 87.203125 -118.56670947 87.203125 -120.7890625 87.203125 C-120.90515836 79.74466368 -120.99387895 72.28639869 -121.04812336 64.82721519 C-121.07416476 61.36316275 -121.10945942 57.89973062 -121.16625977 54.43603516 C-121.23121936 50.44962106 -121.25528837 46.46345394 -121.27734375 42.4765625 C-121.30315018 41.23885101 -121.3289566 40.00113953 -121.35554504 38.72592163 C-121.35866928 29.12334991 -121.35866928 29.12334991 -118.43652344 25.49267578 C-91.00183217 1.76687952 -34.30795541 0.1331539 0 0 Z M-27.7890625 241.203125 C-28.57023437 241.95916016 -28.57023437 241.95916016 -29.3671875 242.73046875 C-44.15879847 257.95516743 -47.02006101 278.81275211 -47.0390625 299.078125 C-47.04006958 299.81856049 -47.04107666 300.55899597 -47.04211426 301.3218689 C-47.0320651 312.22298623 -46.63499495 322.61674698 -43.7890625 333.203125 C-43.510625 334.26402344 -43.2321875 335.32492187 -42.9453125 336.41796875 C-38.30824784 351.9481379 -29.77271894 365.35120038 -15.6953125 373.734375 C-5.98615967 378.64115116 3.65978847 380.34620869 14.4140625 380.44140625 C15.73080963 380.45351387 15.73080963 380.45351387 17.07415771 380.46586609 C18.92653462 380.47964884 20.7789363 380.49039676 22.63134766 380.49829102 C24.51065606 380.5098036 26.38993195 380.53024402 28.26904297 380.55981445 C41.56253917 380.76865558 52.29396693 380.73371536 62.45703125 371.125 C70.28215315 362.5504789 71.51032407 353.94217204 71.51733398 342.70336914 C71.52981926 340.99472939 71.52981926 340.99472939 71.54255676 339.25157166 C71.56659489 335.49710648 71.57542043 331.74281515 71.58203125 327.98828125 C71.59100059 325.37186126 71.60012249 322.75544178 71.60939026 320.13902283 C71.62672279 314.65916293 71.63361072 309.17934717 71.63647461 303.69946289 C71.64011105 297.37985061 71.67002535 291.0607236 71.71187919 284.74125963 C71.75083997 278.64315091 71.76206875 272.54527737 71.76320076 266.44705009 C71.76740292 263.86071575 71.7798369 261.27438098 71.80071831 258.68812752 C71.82761876 255.06908119 71.82281019 251.45137115 71.81030273 247.83227539 C71.82513702 246.76864777 71.83997131 245.70502014 71.85525513 244.60916138 C71.78926754 237.89289087 70.6076082 233.38339888 66.2109375 228.203125 C40.18248185 206.26854896 -6.48730698 218.2627729 -27.7890625 241.203125 Z " fill="#393939" transform="translate(3348.7890625,1681.796875)"/>
<path d="M0 0 C1.04690506 0.00031723 1.04690506 0.00031723 2.11495972 0.00064087 C13.92627111 0.03620239 25.04817354 1.13270519 36.4375 4.375 C37.43789307 4.64787842 37.43789307 4.64787842 38.45849609 4.92626953 C69.30781025 13.52840822 96.45706424 34.70871129 112.4375 62.375 C136.88471151 107.06574244 137.00729786 173.4647001 125.52734375 222.2421875 C122.64639271 231.59653055 118.87525036 237.28162127 110.24609375 242.08984375 C97.14392187 248.08513519 82.50766936 247.52134228 68.42138672 247.48852539 C66.71549989 247.4882429 65.00961295 247.48840247 63.3037262 247.4889679 C58.69908253 247.48925344 54.09446521 247.48339601 49.48982763 247.47639394 C44.6678719 247.47011993 39.84591548 247.46955341 35.0239563 247.46836853 C25.90467196 247.46526711 16.78539969 247.45706982 7.66612065 247.44701904 C-2.72085273 247.43582088 -13.1078267 247.43033814 -23.49480462 247.42532361 C-44.8507098 247.41488617 -66.20660414 247.39730985 -87.5625 247.375 C-87.17344552 251.31787448 -86.77914483 255.2601884 -86.38032532 259.2020874 C-86.18028431 261.18963394 -85.98420046 263.17757749 -85.78820801 265.16552734 C-82.60367967 296.52545492 -72.96425673 326.82151672 -48.48046875 348.09375 C-22.8359095 368.1425085 9.38526112 372.5234073 41.0078125 368.69140625 C54.1143503 366.77937883 66.85560862 363.46965467 79.4375 359.375 C80.25057617 359.11348145 81.06365234 358.85196289 81.90136719 358.58251953 C92.13285136 355.23153404 101.44439388 351.09679458 110.65307617 345.48730469 C111.35408447 345.06868164 112.05509277 344.65005859 112.77734375 344.21875 C113.38956787 343.83912109 114.00179199 343.45949219 114.63256836 343.06835938 C116.92422725 342.18802511 118.15907046 342.58359512 120.4375 343.375 C121.39502542 352.62537947 121.6293488 361.8942156 121.75 371.1875 C121.79447266 372.92157104 121.79447266 372.92157104 121.83984375 374.69067383 C121.91937393 386.19852499 118.21397742 393.98803277 110.4375 402.375 C83.64594312 428.19552846 42.25301208 432.92163966 6.78125 432.5859375 C-41.25456143 431.57162553 -86.63469519 413.47097237 -120.5625 379.375 C-121.82320312 378.11429688 -121.82320312 378.11429688 -123.109375 376.828125 C-149.27493828 349.17799076 -162.25067969 311.37768045 -167.5625 274.375 C-167.67964355 273.57723145 -167.79678711 272.77946289 -167.91748047 271.95751953 C-177.72649534 201.51625823 -162.74779819 119.84618533 -120.0234375 62.34204102 C-111.13525276 50.67869816 -101.313072 40.19664604 -89.5625 31.375 C-88.69367187 30.70210937 -87.82484375 30.02921875 -86.9296875 29.3359375 C-72.50981435 18.44746185 -56.28517938 10.08914592 -38.9375 5.0625 C-38.103396 4.81999512 -37.26929199 4.57749023 -36.40991211 4.32763672 C-24.36208616 1.01322558 -12.46823493 -0.0351176 0 0 Z M-55.89453125 81.0859375 C-81.07949965 113.09272869 -87.62290584 159.42056056 -87.56958008 199.10595703 C-87.56855789 200.09355011 -87.56753571 201.08114319 -87.56648254 202.09866333 C-87.5651683 202.84985443 -87.56385406 203.60104553 -87.5625 204.375 C-72.67990099 204.55303612 -57.79720121 204.71863048 -42.91430473 204.86977577 C-36.00252441 204.94025333 -29.09082991 205.01466472 -22.17919922 205.09863281 C-15.50084158 205.1797555 -8.82245093 205.24952394 -2.1438942 205.31257248 C0.39562904 205.33836324 2.93511755 205.36786747 5.47455215 205.40126419 C26.43309726 206.9369374 26.43309726 206.9369374 46.0625 201.5625 C56.16307591 188.0064639 54.76751938 166.92663014 54.69824219 150.78637695 C54.68750454 147.81375803 54.69820583 144.84174153 54.7109375 141.86914062 C54.72257149 128.25885861 54.26481236 115.15879767 49.6875 102.1875 C49.42509521 101.42703369 49.16269043 100.66656738 48.89233398 99.88305664 C45.33881916 89.90543177 40.34025387 81.40785074 33.4375 73.375 C32.91671875 72.75882813 32.3959375 72.14265625 31.859375 71.5078125 C23.04402654 61.87939791 11.02461293 56.52048882 -1.86572266 55.92358398 C-22.96535893 55.48206688 -42.19946974 65.16571525 -55.89453125 81.0859375 Z " fill="#393939" transform="translate(2798.5625,1682.625)"/>
<path d="M0 0 C1.0548761 -0.00807175 2.1097522 -0.01614349 3.19659424 -0.02445984 C5.41164566 -0.03818036 7.62671715 -0.04895527 9.84179688 -0.05688477 C12.07558527 -0.06840416 14.30934615 -0.08885516 16.54296875 -0.1184082 C50.51137965 -0.56601904 50.51137965 -0.56601904 60.98046875 8.68359375 C70.55598168 18.79249069 70.63238042 32.90067775 70.640625 46.05078125 C70.65287109 47.06720703 70.66511719 48.08363281 70.67773438 49.13085938 C70.71316227 67.65964598 70.71316227 67.65964598 65.453125 73.23828125 C59.26594242 74.2045415 54.60207939 71.92339406 49.078125 69.48828125 C23.82237399 58.9263206 -4.54400976 56.58224958 -30.38330078 66.97705078 C-38.15097445 70.25664585 -44.92605441 73.93389131 -49.546875 81.23828125 C-50.6077457 84.42089336 -50.67709773 86.68223028 -50.6855402 90.02665234 C-50.69101464 91.24136375 -50.69648909 92.45607516 -50.70212942 93.707596 C-50.70320569 95.06256617 -50.70419037 96.41753642 -50.70509338 97.77250671 C-50.70965772 99.20640302 -50.71465755 100.64029799 -50.72005695 102.07419139 C-50.73366212 106.02375654 -50.74106329 109.97331307 -50.74748361 113.92289555 C-50.75547712 118.17851661 -50.7691785 122.43411966 -50.78219604 126.68972778 C-50.8039737 134.06596501 -50.82211347 141.44220405 -50.83780098 148.81845665 C-50.86048787 159.48335511 -50.88863233 170.14823364 -50.91812026 180.81311522 C-50.96581066 198.11506606 -51.00907092 215.41702505 -51.04956055 232.71899414 C-51.08890811 249.52889642 -51.13033256 266.33879146 -51.17456055 283.14868164 C-51.17728482 284.18438094 -51.18000909 285.22008023 -51.18281592 286.28716435 C-51.19649527 291.48282527 -51.21021557 296.67848607 -51.22395623 301.87414682 C-51.33794375 344.99551078 -51.4439347 388.11688923 -51.546875 431.23828125 C-78.276875 431.23828125 -105.006875 431.23828125 -132.546875 431.23828125 C-132.61299784 382.32772737 -132.66839554 333.4172156 -132.70007099 284.50662982 C-132.70382316 278.73374923 -132.70770612 272.96086873 -132.71166992 267.18798828 C-132.71245685 266.03870008 -132.71324378 264.88941187 -132.71405456 263.70529675 C-132.72711244 245.0903236 -132.7507684 226.47537821 -132.77833339 207.86042154 C-132.80637693 188.76317507 -132.82304904 169.66594316 -132.82914048 150.56867695 C-132.8332591 138.78237318 -132.84627271 126.99614787 -132.8706244 115.20986825 C-132.8864686 107.13021098 -132.89127834 99.05059434 -132.88737913 90.97092265 C-132.88545555 86.30771413 -132.88842751 81.64464285 -132.90449142 76.98145866 C-132.91909364 72.71142462 -132.91982526 68.44162005 -132.90957168 64.17157543 C-132.90830446 62.6276971 -132.91210731 61.08380443 -132.92152455 59.5399543 C-133.01751197 42.83089138 -133.01751197 42.83089138 -127.734375 35.83984375 C-96.15544765 7.30602725 -40.83497106 0.30731179 0 0 Z " fill="#393939" transform="translate(3123.546875,1683.76171875)"/>
</svg>
