<?xml version="1.0" encoding="UTF-8"?>
<svg version="1.1" xmlns="http://www.w3.org/2000/svg" width="1985" height="704">
<path d="M0 0 C8.09298505 -0.20904389 16.18483276 -0.36869321 24.27985477 -0.46630955 C28.03935009 -0.51317574 31.79699166 -0.57667029 35.55541992 -0.67895508 C39.18659424 -0.77715191 42.81599284 -0.83063711 46.44839287 -0.85389519 C47.8300618 -0.87045529 49.2116393 -0.90279872 50.59254646 -0.95157051 C61.38028905 -1.31723153 61.38028905 -1.31723153 65.45089722 1.99319458 C70 7.66860918 70 7.66860918 70 11 C70.99 11.33 71.98 11.66 73 12 C74.31518555 13.51538086 74.31518555 13.51538086 75.63671875 15.46484375 C76.12712646 16.17697021 76.61753418 16.88909668 77.12280273 17.62280273 C77.89732788 18.76857788 77.89732788 18.76857788 78.6875 19.9375 C83.61355674 27.08482092 83.61355674 27.08482092 88.9375 33.9375 C95.01031179 41.325443 100.4455142 49.22015931 106 57 C113.03949515 50.10392411 118.57215314 42.23355015 124.24365234 34.21606445 C126.66937633 30.80514725 129.15980105 27.49032214 131.8125 24.25 C136.36250444 18.67952131 140.51244678 12.82617951 144.6965332 6.97949219 C145.23882568 6.2218457 145.78111816 5.46419922 146.33984375 4.68359375 C146.82831787 3.99837646 147.31679199 3.31315918 147.82006836 2.60717773 C149 1 149 1 150 0 C151.96369153 -0.0940067 153.93079199 -0.11743381 155.89672852 -0.11352539 C157.15796036 -0.11344986 158.4191922 -0.11337433 159.71864319 -0.11329651 C161.10539794 -0.1081891 162.49215229 -0.10297309 163.87890625 -0.09765625 C165.28995209 -0.09579201 166.70099857 -0.09436814 168.11204529 -0.09336853 C171.83240535 -0.08954379 175.5527266 -0.0797139 179.27307129 -0.06866455 C183.06680781 -0.05844948 186.86055058 -0.05387071 190.65429688 -0.04882812 C198.10288231 -0.03809158 205.55143572 -0.0210157 213 0 C219.00994804 16.77423061 224.44115713 33.71472503 229.81958008 50.70019531 C230.92219714 54.17872656 232.02927891 57.6558142 233.13671875 61.1328125 C233.46596848 62.17776886 233.7952182 63.22272522 234.13444519 64.29934692 C235.89892523 69.83412437 237.84976955 75.22110092 240.05082703 80.59616089 C241.6055409 84.53356967 242.86686343 88.55485313 244.12890625 92.59375 C244.54256691 93.90200745 244.54256691 93.90200745 244.96458435 95.23669434 C245.83412284 97.99001986 246.69832034 100.74498847 247.5625 103.5 C248.14484844 105.34515748 248.7275283 107.1902104 249.31054688 109.03515625 C250.8831619 114.02054582 252.45256107 119.00673271 254 124 C254.28165009 124.89614014 254.56330017 125.79228027 254.85348511 126.71557617 C255.26620163 128.05036011 255.26620163 128.05036011 255.68725586 129.41210938 C255.93865829 130.21886108 256.19006073 131.02561279 256.44908142 131.85681152 C257 134 257 134 257 137 C257.66 137 258.32 137 259 137 C260.28734407 140.93088838 261.56892842 144.86360274 262.84521484 148.7980957 C263.28015954 150.13617501 263.71667209 151.47374574 264.15478516 152.81079102 C264.78440139 154.73319069 265.40790843 156.65758784 266.03125 158.58203125 C266.40830078 159.73936768 266.78535156 160.8967041 267.17382812 162.08911133 C268 165 268 165 268 168 C243.25 168 218.5 168 193 168 C191.14375 161.35875 189.2875 154.7175 187.375 147.875 C186.77486084 145.72887207 186.17472168 143.58274414 185.55639648 141.37158203 C179.57902787 119.9761097 179.57902787 119.9761097 176.78857422 109.25732422 C175.89670135 105.90650244 174.93785651 102.85750431 173.546875 99.66796875 C171.47353766 94.75164613 170.17016348 89.71491669 168.8125 84.5625 C168.40354492 83.03592773 168.40354492 83.03592773 167.98632812 81.47851562 C167.31955252 78.98688049 166.65757822 76.49407518 166 74 C161.3265621 80.88491682 161.3265621 80.88491682 157.125 88.0625 C156.71507812 88.81660156 156.30515625 89.57070313 155.8828125 90.34765625 C155.44582031 91.16556641 155.44582031 91.16556641 155 92 C154.34 92 153.68 92 153 92 C152.76667969 92.64710938 152.53335938 93.29421875 152.29296875 93.9609375 C150.57071837 98.00900637 148.45972312 101.78895869 146.3125 105.625 C145.86841797 106.4195459 145.42433594 107.2140918 144.96679688 108.03271484 C137.11625127 121.9807441 137.11625127 121.9807441 134 126 C133.34 126 132.68 126 132 126 C131.8453125 126.8353125 131.8453125 126.8353125 131.6875 127.6875 C130.76860496 130.77832878 130.15402769 132.52541288 128 135 C124.70235539 135.73171637 121.44489707 135.57992538 118.08203125 135.48828125 C117.10965012 135.48120651 116.13726898 135.47413177 115.13542175 135.46684265 C112.02700138 135.43883408 108.92037666 135.37608275 105.8125 135.3125 C103.70640621 135.28742553 101.6002842 135.26461088 99.49414062 135.24414062 C94.32873429 135.18898599 89.16467165 135.10266795 84 135 C83.58046303 134.23658546 83.58046303 134.23658546 83.15245056 133.45774841 C81.86318321 131.11501417 80.57028903 128.77430002 79.27734375 126.43359375 C78.83757202 125.63320679 78.39780029 124.83281982 77.94470215 124.00817871 C74.65860244 118.06774674 71.09841788 112.40059959 67.37109375 106.7265625 C63.00858264 99.98025735 59.11010815 92.93843843 55.13378906 85.96044922 C54.1798257 84.31093893 53.18436276 82.68552883 52.1796875 81.06640625 C51 79 51 79 51 77 C49.515 76.505 49.515 76.505 48 76 C47.67 75.34 47.34 74.68 47 74 C44.04590317 81.15547899 42.19338946 88.56509177 40.27124023 96.04498291 C37.53528191 106.67271062 34.76697761 117.25747683 31.3203125 127.68041992 C28.2127364 137.18878726 25.63606165 146.85974115 22.98242188 156.50244141 C22.79247147 157.18802124 22.60252106 157.87360107 22.40681458 158.57995605 C21.88341953 160.4694103 21.36384284 162.35992104 20.84448242 164.25048828 C20 167 20 167 19 168 C16.73008113 168.09439978 14.45718033 168.11742226 12.18530273 168.11352539 C11.11706772 168.11374443 11.11706772 168.11374443 10.0272522 168.1139679 C7.66266888 168.1132687 5.29816339 168.10547606 2.93359375 168.09765625 C1.29834537 168.09579209 -0.33690357 168.09436818 -1.97215271 168.09336853 C-6.28434785 168.08954318 -10.59650952 168.07971275 -14.90869141 168.06866455 C-19.30565946 168.0584508 -23.70263289 168.05387099 -28.09960938 168.04882812 C-36.73308831 168.03809049 -45.36654 168.02101387 -54 168 C-53.4176036 160.81293421 -51.40570306 154.36705711 -49.17578125 147.53125 C-48.79189743 146.33753784 -48.40801361 145.14382568 -48.01249695 143.91394043 C-47.19960303 141.39133291 -46.38408001 138.8697786 -45.5637207 136.34960938 C-44.32497672 132.54350847 -43.10079876 128.73279364 -41.87695312 124.921875 C-35.26336196 104.41340014 -35.26336196 104.41340014 -31.85546875 95.625 C-28.05149648 85.75167236 -25.0760335 75.61870782 -22 65.5 C-18.52132487 54.05679005 -15.00307024 42.72278217 -10.6875 31.56445312 C-6.76307478 21.17863749 -3.46509247 10.54573233 0 0 Z " fill="#00A88F" transform="translate(236,364)"/>
<path d="M0 0 C0.82934555 -0.00014603 1.6586911 -0.00029205 2.51316833 -0.0004425 C5.2618977 0.00025568 8.01055978 0.00804368 10.75927734 0.01586914 C12.66213952 0.01773366 14.56500217 0.0191574 16.46786499 0.02015686 C21.4820284 0.0239794 26.49616295 0.03380746 31.51031494 0.04486084 C36.62454844 0.0550806 41.73878659 0.0596557 46.85302734 0.06469727 C56.89210254 0.07542994 66.93115629 0.09250323 76.97021484 0.11352539 C77.308629 0.99803375 77.64704315 1.88254211 77.99571228 2.79385376 C78.44225662 3.95847137 78.88880096 5.12308899 79.34887695 6.32299805 C79.79041611 7.47563141 80.23195526 8.62826477 80.68687439 9.81582642 C81.72481532 12.48294155 82.79673424 15.12650487 83.91162109 17.76196289 C87.05492882 25.58159145 89.40224229 33.69821491 91.90771484 41.73852539 C92.42493659 43.38837674 92.94251267 45.03811705 93.46044922 46.68774414 C97.5517746 59.73249806 97.5517746 59.73249806 99.32226562 65.53833008 C99.53814835 66.24154388 99.75403107 66.94475769 99.97645569 67.66928101 C100.55367692 69.55129353 101.12651379 71.43464925 101.69897461 73.31811523 C102.62756911 76.21893812 103.72284953 79.02195535 104.87524414 81.84106445 C107.14732224 87.43857694 109.0209068 93.13518885 110.86083984 98.88696289 C111.38505524 100.51621201 111.38505524 100.51621201 111.91986084 102.17837524 C112.65106074 104.45515616 113.38038624 106.73253984 114.10791016 109.01049805 C115.22437325 112.50152817 116.3509094 115.98920406 117.47802734 119.47680664 C118.18957685 121.69666265 118.90053548 123.91670815 119.61083984 126.13696289 C119.94827209 127.17863617 120.28570435 128.22030945 120.63336182 129.29354858 C120.94078308 130.26200714 121.24820435 131.2304657 121.56494141 132.22827148 C121.83711487 133.07747162 122.10928833 133.92667175 122.38970947 134.80160522 C122.97021484 137.11352539 122.97021484 137.11352539 122.97021484 141.11352539 C123.63021484 141.11352539 124.29021484 141.11352539 124.97021484 141.11352539 C126.54413293 146.0225059 128.11049208 150.93380987 129.66992188 155.84741211 C130.20138237 157.51831873 130.73489569 159.18857386 131.27050781 160.8581543 C132.04041642 163.25929783 132.80289097 165.66269416 133.56396484 168.06665039 C133.80457642 168.81158752 134.04518799 169.55652466 134.29309082 170.32403564 C135.38131582 173.78507682 135.97021484 176.44771105 135.97021484 180.11352539 C115.51021484 180.11352539 95.05021484 180.11352539 73.97021484 180.11352539 C71.20749664 174.58808899 68.90705308 169.46417931 66.97021484 163.67602539 C65.2010036 158.52827675 63.35091524 153.52503915 61.06396484 148.58227539 C57.20439754 139.87068063 54.00657975 130.84142214 50.61903381 121.93830872 C49.75745224 119.67413598 48.89501345 117.4102911 48.0324707 115.14648438 C46.88175674 112.12632546 45.73465167 109.10482899 44.58959961 106.08251953 C41.36679429 97.60060783 38.06127498 89.22061117 33.97021484 81.11352539 C33.6736499 81.93852539 33.37708496 82.76352539 33.0715332 83.61352539 C23.11159398 111.2476823 23.11159398 111.2476823 19.28271484 119.67602539 C14.40189104 130.44186163 10.21846814 141.52596743 6.37646484 152.70336914 C6.00146851 153.79210327 6.00146851 153.79210327 5.61889648 154.90283203 C4.96470604 156.82138644 4.32422093 158.74459971 3.68505859 160.66821289 C1.12861114 167.2951769 -2.02604558 173.67694058 -5.02978516 180.11352539 C-25.81978516 180.11352539 -46.60978516 180.11352539 -68.02978516 180.11352539 C-66.70119328 174.13486197 -65.54925102 169.48010186 -63.34619141 163.96508789 C-59.34106316 153.64741019 -56.19437814 143.06927253 -52.96728516 132.48852539 C-46.22469004 110.43239323 -46.22469004 110.43239323 -42.30541992 99.72094727 C-39.49703174 91.77898673 -37.05081343 83.71280661 -34.52978516 75.67602539 C-30.79300365 63.78734792 -27.00885617 51.9237468 -23.02978516 40.11352539 C-22.25682474 37.7973943 -21.48467911 35.48099113 -20.71337891 33.16430664 C-16.21337891 19.66430664 -16.21337891 19.66430664 -15.11523438 16.3894043 C-14.37214815 14.14677476 -13.64537074 11.89869373 -12.93261719 9.64624023 C-12.58440918 8.55649902 -12.23620117 7.46675781 -11.87744141 6.34399414 C-11.56943604 5.36197021 -11.26143066 4.37994629 -10.9440918 3.36816406 C-9.04752004 -1.3086958 -4.35051499 -0.01985889 0 0 Z " fill="#2D9185" transform="translate(308.02978515625,171.886474609375)"/>
<path d="M0 0 C10.23 0 20.46 0 31 0 C34.37353702 10.12061107 34.37353702 10.12061107 35.41040039 14.87109375 C35.64396744 15.92828613 35.87753448 16.98547852 36.11817932 18.07470703 C36.35890671 19.18442871 36.59963409 20.29415039 36.84765625 21.4375 C37.37545724 23.81905338 37.90345773 26.20056255 38.43164062 28.58203125 C39.25315523 32.31232522 40.07193214 36.04318616 40.88696289 39.77490234 C41.67913893 43.39323912 42.48150265 47.009198 43.28515625 50.625 C43.52790787 51.75091553 43.77065948 52.87683105 44.02076721 54.03686523 C44.2511821 55.06884033 44.48159698 56.10081543 44.71899414 57.1640625 C45.01852745 58.53232178 45.01852745 58.53232178 45.32411194 59.92822266 C45.547155 60.61190918 45.77019806 61.2955957 46 62 C46.99 62.495 46.99 62.495 48 63 C48.17317245 62.22547989 48.34634491 61.45095978 48.52476501 60.65296936 C50.15427958 53.36796089 51.78730122 46.0837519 53.42430782 38.80042362 C54.26586266 35.05561558 55.10603897 31.31050917 55.94311523 27.56469727 C56.75039405 23.95245979 57.56122795 20.34103752 58.37457466 16.73016167 C58.68485886 15.34969177 58.99384237 13.96892889 59.30152702 12.58787727 C59.73138695 10.65946683 60.16622666 8.73216842 60.60131836 6.80493164 C60.97105019 5.15612755 60.97105019 5.15612755 61.34825134 3.47401428 C62 1 62 1 63 0 C73.23 0 83.46 0 94 0 C94 34.98 94 69.96 94 106 C87.4 106 80.8 106 74 106 C73.67 84.55 73.34 63.1 73 41 C71.35 48.26 69.7 55.52 68 63 C67.34 64.65 66.68 66.3 66 68 C65.64864038 69.30688822 65.33176728 70.62366608 65.05444336 71.94824219 C64.8976561 72.68540466 64.74086884 73.42256714 64.57933044 74.18206787 C64.41779984 74.96245422 64.25626923 75.74284058 64.08984375 76.546875 C63.91747696 77.35868225 63.74511017 78.1704895 63.56752014 79.00689697 C63.01994015 81.58705701 62.47812558 84.16837449 61.9375 86.75 C61.39303921 89.34584698 60.84725189 91.94137292 60.29676819 94.53594971 C59.95482418 96.14778062 59.61638164 97.76035897 59.28172302 99.37371826 C58.11259565 104.88740435 58.11259565 104.88740435 57 106 C55.43827255 106.08685603 53.87270656 106.10702219 52.30859375 106.09765625 C51.36435547 106.09443359 50.42011719 106.09121094 49.44726562 106.08789062 C48.45404297 106.07951172 47.46082031 106.07113281 46.4375 106.0625 C45.44041016 106.05798828 44.44332031 106.05347656 43.41601562 106.04882812 C40.94395151 106.03700007 38.47200482 106.02051849 36 106 C34.56866281 99.39956805 33.14533363 92.7974459 31.72753906 86.1940918 C31.24435361 83.9482523 30.75934131 81.70280503 30.27246094 79.45776367 C29.57265419 76.22936946 28.87944512 72.99961835 28.1875 69.76953125 C27.96876221 68.76727005 27.75002441 67.76500885 27.5246582 66.7323761 C27.32445068 65.79177841 27.12424316 64.85118073 26.91796875 63.88208008 C26.74031982 63.05823318 26.5626709 62.23438629 26.37963867 61.38557434 C25.98175253 58.88533648 25.93393422 56.52742007 26 54 C25.34 54 24.68 54 24 54 C22.515 47.07 22.515 47.07 21 40 C20.67 61.78 20.34 83.56 20 106 C13.4 106 6.8 106 0 106 C0 71.02 0 36.04 0 0 Z " fill="#717275" transform="translate(1259,306)"/>
<path d="M0 0 C3.18716532 1.90685105 5.23589927 4.26839512 7.375 7.3125 C8.035 7.6425 8.695 7.9725 9.375 8.3125 C9.601875 7.735 9.82875 7.1575 10.0625 6.5625 C12.93213609 1.64312384 17.07037159 -0.20194902 22.375 -1.6875 C30.21491571 -2.56995497 37.36894377 -2.37992546 44.3125 1.6171875 C48.8624257 5.35708855 51.22113914 10.6222421 52.375 16.3125 C52.46169889 18.3288954 52.49269534 20.34795681 52.48852539 22.36621094 C52.48841209 24.19765656 52.48841209 24.19765656 52.48829651 26.06610107 C52.48313522 27.37975647 52.47797394 28.69341187 52.47265625 30.046875 C52.47079021 31.4087926 52.46936718 32.77071088 52.46836853 34.13262939 C52.46455803 37.70991889 52.45474032 41.28716752 52.44366455 44.86444092 C52.43341884 48.51769457 52.42886415 52.17095486 52.42382812 55.82421875 C52.41311669 62.98699992 52.39553182 70.14973902 52.375 77.3125 C45.775 77.3125 39.175 77.3125 32.375 77.3125 C32.345271 75.00463501 32.345271 75.00463501 32.31494141 72.65014648 C32.23870959 66.92667636 32.15001897 61.20345463 32.05761719 55.48022461 C32.01940008 53.00599074 31.98453467 50.53170269 31.953125 48.05737305 C31.90731697 44.49508335 31.84934758 40.93316431 31.7890625 37.37109375 C31.77751129 36.26978622 31.76596008 35.1684787 31.75405884 34.03379822 C31.64735395 28.44579889 31.37666968 23.55932817 29.375 18.3125 C26.95148044 16.23519752 25.62629307 16.30715334 22.4375 16.375 C18.52301388 17.57331208 16.92137989 19.12952513 14.375 22.3125 C11.83922129 27.929422 12.02805382 33.56952159 11.9609375 39.6171875 C11.94157135 40.69630402 11.9222052 41.77542053 11.9022522 42.88723755 C11.84266058 46.32057895 11.79615239 49.75395424 11.75 53.1875 C11.71180147 55.52084764 11.67274865 57.85418146 11.6328125 60.1875 C11.53697566 65.89572059 11.45286898 71.60400717 11.375 77.3125 C4.445 77.3125 -2.485 77.3125 -9.625 77.3125 C-9.63958252 75.6725708 -9.65416504 74.0326416 -9.66918945 72.34301758 C-9.72716623 66.25799771 -9.80440008 60.17334811 -9.88745117 54.08862305 C-9.92070325 51.45522064 -9.94873424 48.82174691 -9.97143555 46.18823242 C-10.00497529 42.40252289 -10.0572932 38.61746711 -10.11328125 34.83203125 C-10.11967117 33.65477982 -10.1260611 32.47752838 -10.13264465 31.26460266 C-10.16233589 29.61345711 -10.16233589 29.61345711 -10.19262695 27.92895508 C-10.20928154 26.48000603 -10.20928154 26.48000603 -10.22627258 25.00178528 C-10.70127433 21.79805476 -11.6964278 19.89928516 -13.625 17.3125 C-17.31474316 16.00059132 -19.11574215 16.13276194 -22.8125 17.4375 C-26.64090247 19.98976831 -28.18096025 22.31930703 -29.17944336 26.80126953 C-29.78775831 31.59512469 -29.8604818 36.35157708 -29.94140625 41.1796875 C-29.96218735 42.21441193 -29.98296844 43.24913635 -30.00437927 44.31521606 C-30.0695282 47.60591274 -30.12859809 50.89668617 -30.1875 54.1875 C-30.2307182 56.42448696 -30.27433353 58.66146629 -30.31835938 60.8984375 C-30.42517394 66.3697139 -30.52653827 71.84106717 -30.625 77.3125 C-37.225 77.3125 -43.825 77.3125 -50.625 77.3125 C-50.625 51.5725 -50.625 25.8325 -50.625 -0.6875 C-44.355 -0.6875 -38.085 -0.6875 -31.625 -0.6875 C-31.295 1.2925 -30.965 3.2725 -30.625 5.3125 C-29.325625 4.136875 -29.325625 4.136875 -28 2.9375 C-21.02474888 -3.37344149 -8.30328335 -3.85509584 0 0 Z " fill="#707275" transform="translate(1034.625,334.6875)"/>
<path d="M0 0 C3.18925862 1.90128879 5.20044089 4.30157201 7.375 7.3125 C8.035 7.3125 8.695 7.3125 9.375 7.3125 C9.890625 6.57 10.40625 5.8275 10.9375 5.0625 C15.09729271 0.36940053 19.5354257 -1.329654 25.72265625 -2.109375 C33.5460882 -2.41584241 40.09765881 -1.64517287 46.375 3.3125 C51.20164932 8.95476367 52.50339987 14.13976184 52.48852539 21.45800781 C52.48841209 23.31948456 52.48841209 23.31948456 52.48829651 25.21856689 C52.48319031 26.56758667 52.47797432 27.91660604 52.47265625 29.265625 C52.47079024 30.64996286 52.4693672 32.03430138 52.46836853 33.41864014 C52.46455773 37.05511308 52.45473975 40.69154582 52.44366455 44.32800293 C52.4334195 48.04157976 52.42886429 51.7551631 52.42382812 55.46875 C52.41311615 62.75002041 52.39553103 70.03124944 52.375 77.3125 C45.775 77.3125 39.175 77.3125 32.375 77.3125 C32.36041748 75.74363037 32.34583496 74.17476074 32.33081055 72.55834961 C32.27272327 66.72299713 32.19549005 60.8880263 32.11254883 55.05297852 C32.07934871 52.53025519 32.05130158 50.00745846 32.02856445 47.48461914 C31.99492904 43.85270994 31.94260633 40.22147043 31.88671875 36.58984375 C31.88032883 35.46666245 31.8739389 34.34348114 31.86735535 33.18626404 C31.75540606 27.18802046 31.44279451 22.54365234 28.375 17.3125 C24.67763501 15.833554 22.92780954 16.11739075 19.1875 17.4375 C15.44012686 19.93574876 13.85613966 22.29567858 12.81361389 26.66569519 C12.38592333 29.24658344 12.21795158 31.67269299 12.16967773 34.28637695 C12.14973251 35.24699539 12.12978729 36.20761383 12.10923767 37.19734192 C12.08416893 38.73354439 12.08416893 38.73354439 12.05859375 40.30078125 C12.03781265 41.35911667 12.01703156 42.41745209 11.99562073 43.50785828 C11.93036897 46.88017441 11.87135363 50.25256674 11.8125 53.625 C11.7692916 55.91472134 11.72567657 58.20443505 11.68164062 60.49414062 C11.57471259 66.10018045 11.47290137 71.70629566 11.375 77.3125 C8.06251813 77.34138146 4.75006833 77.35925799 1.4375 77.375 C0.49197266 77.38337891 -0.45355469 77.39175781 -1.42773438 77.40039062 C-2.77641602 77.40522461 -2.77641602 77.40522461 -4.15234375 77.41015625 C-4.98499756 77.41539307 -5.81765137 77.42062988 -6.67553711 77.42602539 C-8.625 77.3125 -8.625 77.3125 -9.625 76.3125 C-9.74283232 74.61578819 -9.79232362 72.91427754 -9.81445312 71.21362305 C-9.83117065 70.12546799 -9.84788818 69.03731293 -9.8651123 67.91618347 C-9.87868774 66.73083511 -9.89226318 65.54548676 -9.90625 64.32421875 C-9.92465942 63.11433792 -9.94306885 61.90445709 -9.96203613 60.65791321 C-10.02100547 56.77199335 -10.07370721 52.88602832 -10.125 49 C-10.19259621 43.89964522 -10.26632933 38.79943275 -10.34375 33.69921875 C-10.35732544 32.51994308 -10.37090088 31.34066742 -10.3848877 30.12565613 C-10.40160522 29.02804459 -10.41832275 27.93043304 -10.43554688 26.79956055 C-10.44807495 25.83439011 -10.46060303 24.86921967 -10.47351074 23.87480164 C-10.61118764 21.54612332 -10.96780001 19.54336857 -11.625 17.3125 C-16.01717837 16.47950065 -18.65274946 16.00064605 -22.9375 17.375 C-27.04765603 20.33813574 -28.2846281 23.4430774 -29.17944336 28.35766602 C-29.7243033 33.19393238 -29.85569165 37.97678601 -29.94140625 42.83984375 C-29.96218735 43.82876114 -29.98296844 44.81767853 -30.00437927 45.83656311 C-30.06940554 48.97430938 -30.12854018 52.11213446 -30.1875 55.25 C-30.23072991 57.38607563 -30.27434558 59.5221435 -30.31835938 61.65820312 C-30.42575939 66.87622273 -30.5251811 72.0943079 -30.625 77.3125 C-37.225 77.3125 -43.825 77.3125 -50.625 77.3125 C-50.625 51.5725 -50.625 25.8325 -50.625 -0.6875 C-44.355 -0.6875 -38.085 -0.6875 -31.625 -0.6875 C-31.295 1.2925 -30.965 3.2725 -30.625 5.3125 C-29.325625 4.136875 -29.325625 4.136875 -28 2.9375 C-21.02474888 -3.37344149 -8.30328335 -3.85509584 0 0 Z " fill="#707174" transform="translate(1634.625,334.6875)"/>
<path d="M0 0 C3.62498334 -0.02893932 7.24993713 -0.04677792 10.875 -0.0625 C12.42380859 -0.07506836 12.42380859 -0.07506836 14.00390625 -0.08789062 C14.99003906 -0.09111328 15.97617187 -0.09433594 16.9921875 -0.09765625 C18.35899658 -0.10551147 18.35899658 -0.10551147 19.75341797 -0.11352539 C22 0 22 0 24 1 C24.85204855 2.99161195 25.60794045 5.02457768 26.3203125 7.0703125 C26.65023949 8.0078109 26.65023949 8.0078109 26.98683167 8.96424866 C27.7067167 11.01540696 28.4160717 13.07003164 29.125 15.125 C29.61637741 16.5344585 30.10832398 17.9437187 30.60083008 19.3527832 C31.5953936 22.20123809 32.58584865 25.05107695 33.57373047 27.90185547 C34.86432772 31.61997106 36.18020395 35.32868267 37.50390625 39.03515625 C38.23187475 41.08590062 38.95974611 43.13667946 39.6875 45.1875 C40.02604004 46.12932129 40.36458008 47.07114258 40.71337891 48.04150391 C41.01808105 48.9082373 41.3227832 49.7749707 41.63671875 50.66796875 C41.90186279 51.41328857 42.16700684 52.1586084 42.44018555 52.92651367 C43 55 43 55 43 59 C43.66 59 44.32 59 45 59 C47.14497824 65.04755118 49.28021154 71.09847803 51.40869141 77.15185547 C52.13398675 79.21091541 52.86151277 81.26919102 53.59130859 83.32666016 C54.63966325 86.28344819 55.67997442 89.24296023 56.71875 92.203125 C57.04685669 93.12305237 57.37496338 94.04297974 57.7130127 94.99078369 C58.01332397 95.8513739 58.31363525 96.71196411 58.62304688 97.59863281 C58.88952026 98.35364075 59.15599365 99.10864868 59.43054199 99.88653564 C60 102 60 102 60 106 C52.41 106 44.82 106 37 106 C35.845 102.57625 34.69 99.1525 33.5 95.625 C33.13455078 94.54686035 32.76910156 93.4687207 32.39257812 92.35791016 C31.9662207 91.08633057 31.9662207 91.08633057 31.53125 89.7890625 C31.23798828 88.91975098 30.94472656 88.05043945 30.64257812 87.15478516 C30 85 30 85 30 83 C17.79 83 5.58 83 -7 83 C-7.99 86.63 -8.98 90.26 -10 94 C-11.27063942 98.02439977 -12.63707796 102.00522849 -14 106 C-21.26 106 -28.52 106 -36 106 C-34.87492553 96.9994042 -34.87492553 96.9994042 -33.57299805 93.30322266 C-33.28567307 92.47521149 -32.99834808 91.64720032 -32.70231628 90.7940979 C-32.3919191 89.92618622 -32.08152191 89.05827454 -31.76171875 88.1640625 C-31.43967972 87.24466888 -31.11764069 86.32527527 -30.7858429 85.37802124 C-30.10615742 83.44210671 -29.42267337 81.50752206 -28.7355957 79.57421875 C-27.69402675 76.6433655 -26.66334803 73.70887048 -25.63476562 70.7734375 C-24.9693834 68.88258949 -24.30338755 66.99195728 -23.63671875 65.1015625 C-23.18023201 63.80576767 -23.18023201 63.80576767 -22.71452332 62.48379517 C-21.20952301 58.25292087 -19.64014551 54.0637085 -17.95239258 49.90209961 C-16.1625772 45.47390655 -14.59689958 41.00721972 -13.125 36.46484375 C-12.60944346 34.89776393 -12.09381635 33.33070733 -11.578125 31.76367188 C-10.78686416 29.34644856 -9.99714316 26.92873461 -9.20898438 24.51049805 C-3.75778479 7.81366307 -3.75778479 7.81366307 0 0 Z M11 30 C8.76559464 35.00611641 6.92920428 40.01402722 5.3125 45.25 C5.08755859 45.95640625 4.86261719 46.6628125 4.63085938 47.390625 C3.70359842 50.36687902 3 52.8638555 3 56 C2.34 56 1.68 56 1 56 C0.67 58.31 0.34 60.62 0 63 C7.59 63 15.18 63 23 63 C19.37 52.11 15.74 41.22 12 30 C11.67 30 11.34 30 11 30 Z " fill="#707174" transform="translate(679,306)"/>
<path d="M0 0 C7.26 0 14.52 0 22 0 C22.0093457 2.23007813 22.01869141 4.46015625 22.02832031 6.7578125 C22.06216654 14.14599465 22.1177578 21.53389973 22.18390274 28.92185974 C22.2233242 33.39892999 22.25553869 37.87580513 22.27099609 42.35302734 C22.286198 46.67805413 22.32070563 51.00254431 22.36830902 55.32733154 C22.38308653 56.97299522 22.39103892 58.61873552 22.39188385 60.26446533 C22.2352413 72.24435669 22.2352413 72.24435669 27 83 C27.66 83.33 28.32 83.66 29 84 C29 84.66 29 85.32 29 86 C35.35337785 87.69423409 42.64662215 87.69423409 49 86 C49 85.34 49 84.68 49 84 C49.66 84 50.32 84 51 84 C51.309375 83.21625 51.61875 82.4325 51.9375 81.625 C53 79 53 79 54 77 C55.30056404 68.24006058 55.21048993 59.3246235 55.31640625 50.48828125 C55.33703023 49.02426134 55.35802789 47.56024666 55.37937927 46.09623718 C55.43403894 42.28073409 55.48369064 38.46518241 55.53222656 34.64959717 C55.58285678 30.74096456 55.63832398 26.83240075 55.69335938 22.92382812 C55.80025248 15.28260923 55.90139604 7.64133118 56 0 C62.93 0 69.86 0 77 0 C77.02271984 8.64158022 77.04101194 17.28313667 77.05181217 25.92473888 C77.05699941 29.93868825 77.06402015 33.95261588 77.07543945 37.96655273 C77.08641786 41.85044375 77.09230803 45.73431403 77.09487724 49.61821938 C77.09670486 51.08954507 77.1002727 52.5608698 77.10573006 54.03218651 C77.22710931 88.15756349 77.22710931 88.15756349 69.0078125 98.21484375 C64.93809983 101.83324588 59.97422848 103.89783615 55 106 C54.21866699 106.34909424 53.43733398 106.69818848 52.63232422 107.05786133 C48.22409368 108.635617 43.82521849 108.32788725 39.1875 108.3125 C37.74793945 108.33666992 37.74793945 108.33666992 36.27929688 108.36132812 C30.1106483 108.36553881 25.63350621 107.51683538 20 105 C19.23429688 104.69578125 18.46859375 104.3915625 17.6796875 104.078125 C10.51070189 100.78846061 5.87940927 95.34249363 3 88 C-2.73926945 69.44302877 -0.12499162 46.87951085 -0.0625 27.75 C-0.05688984 25.04687646 -0.05284136 22.34375132 -0.04882812 19.640625 C-0.03793866 13.09372697 -0.02075028 6.54687389 0 0 Z " fill="#6E6F72" transform="translate(641,171)"/>
<path d="M0 0 C6.93 0 13.86 0 21 0 C21.33 10.89 21.66 21.78 22 33 C23.65 31.68 25.3 30.36 27 29 C33.83124106 25.46582074 42.92025014 25.72317055 50.1328125 27.98046875 C54.66463299 30.12746825 56.79674752 31.5005308 59 36 C59.99 36.33 60.98 36.66 62 37 C63.31640625 38.75 63.31640625 38.75 64.5625 41 C64.97628906 41.721875 65.39007812 42.44375 65.81640625 43.1875 C68.97782914 50.69979202 69.35854776 58.24479927 69.3125 66.3125 C69.30512817 67.83435913 69.30512817 67.83435913 69.29760742 69.38696289 C69.10311718 81.81738284 66.82167216 91.25911645 58.625 100.75 C51.75605713 106.63766532 45.39795498 108.4116064 36.44140625 108.3515625 C30.48904065 107.74348883 25.0630848 105.52659725 21.2265625 100.828125 C20.82179688 100.22484375 20.41703125 99.6215625 20 99 C19.67 101.31 19.34 103.62 19 106 C12.73 106 6.46 106 0 106 C0 71.02 0 36.04 0 0 Z M25 48 C19.32034316 56.10641931 19.14470333 65.66369395 20.75 75.125 C21.97541541 80.71220874 24.33010515 84.28497286 28.3125 88.375 C31.86710156 90.52429397 33.90348173 90.57494993 38 90 C42.47906448 87.67433191 44.74870898 85.46516447 47 81 C49.30728195 71.35443594 50.45163176 60.30059765 45.5234375 51.3046875 C42.74367402 47.09940429 41.20632299 45.31641259 36.1875 44 C31.59146514 43.66620976 28.37128659 44.85974066 25 48 Z " fill="#707173" transform="translate(1703,306)"/>
<path d="M0 0 C6.6 0 13.2 0 20 0 C20.33 11.22 20.66 22.44 21 34 C23.97 31.525 23.97 31.525 27 29 C33.65483838 25.47432878 42.83045081 25.81578193 49.95703125 27.83984375 C58.86798848 31.90521133 63.8774253 38.50099754 67.2734375 47.5078125 C71.19041833 60.94347791 71.00435138 80.00646195 64.7109375 92.57421875 C60.78781891 98.92044 55.28175915 104.85809659 48.13671875 107.5234375 C39.7839125 109.38640343 32.5153038 108.51654225 25.0234375 104.484375 C22.84349828 102.88519179 21.49986927 101.23547394 20 99 C19.67 101.31 19.34 103.62 19 106 C12.73 106 6.46 106 0 106 C0 71.02 0 36.04 0 0 Z M26 47 C19.28450946 55.21787791 19.3515222 64.24320782 20.203125 74.4296875 C21.20757859 80.74027637 24.36203267 84.71206794 29 89 C32.10953379 90.5547669 34.56266761 90.28644437 38 90 C42.39793364 87.71645754 44.8735753 85.47668358 47 81 C48.30719388 76.60100841 48.22192177 72.30569283 48.25 67.75 C48.270625 66.92886719 48.29125 66.10773438 48.3125 65.26171875 C48.35101593 59.1858315 47.72332635 53.3379515 43.72460938 48.43676758 C38.17886639 43.2683922 32.12553292 42.60559595 26 47 Z " fill="#707174" transform="translate(1103,306)"/>
<path d="M0 0 C6.6 0 13.2 0 20 0 C20 34.65 20 69.3 20 105 C13.73 105 7.46 105 1 105 C0.67 103.02 0.34 101.04 0 99 C-0.50789063 99.39832031 -1.01578125 99.79664063 -1.5390625 100.20703125 C-8.30657185 105.41573227 -13.34747149 108.70022146 -22.12890625 108.40234375 C-30.44322775 107.23720754 -36.10264222 102.6723873 -41.3125 96.328125 C-47.96129868 87.15524534 -49.34902544 77.79853736 -49.3125 66.6875 C-49.32861328 65.71876953 -49.34472656 64.75003906 -49.36132812 63.75195312 C-49.3659981 56.75166536 -48.15105377 50.65174516 -46 44 C-45.34 44 -44.68 44 -44 44 C-43.89816406 43.25878906 -43.79632812 42.51757812 -43.69140625 41.75390625 C-42.27126979 36.09743052 -37.43431064 31.54217509 -32.5625 28.5 C-25.87075608 25.5666328 -16.21164496 25.69943431 -9.29296875 27.8359375 C-6.34969206 29.28846366 -3.7283809 31.1810794 -1 33 C-0.67 22.11 -0.34 11.22 0 0 Z M-25 49 C-30.03789707 57.93820449 -29.81661163 67.89192078 -27.69921875 77.66796875 C-26.71620415 80.94651464 -25.13480001 83.34767271 -23 86 C-22.5875 86.598125 -22.175 87.19625 -21.75 87.8125 C-18.76933118 89.8350967 -15.50794421 90.08286482 -12 90 C-6.49213078 88.16404359 -3.65970816 82.8874255 -1 78 C0.00674926 75.12680099 0.00674926 75.12680099 0 72 C0.04898437 71.17628906 0.09796875 70.35257813 0.1484375 69.50390625 C0.42976494 61.70248004 -0.52157007 54.84396602 -5.4375 48.5625 C-8.41232866 45.58767134 -10.17917769 44.35404878 -14.25 43.5625 C-18.53190352 44.24371192 -21.73381417 46.18016929 -25 49 Z " fill="#707074" transform="translate(1204,171)"/>
<path d="M0 0 C6.6 0 13.2 0 20 0 C20 34.65 20 69.3 20 105 C13.73 105 7.46 105 1 105 C0.67 103.02 0.34 101.04 0 99 C-0.42410156 99.39832031 -0.84820313 99.79664063 -1.28515625 100.20703125 C-7.62975259 105.93808421 -13.41424036 108.74687153 -22.09375 108.47265625 C-30.03276463 107.1814993 -36.61215734 102.40468471 -41.56640625 96.21484375 C-49.93419126 83.28695792 -50.21794593 64.46817342 -47.31640625 49.74609375 C-44.89588519 41.23911723 -40.53147033 33.89545572 -33 29 C-25.44139118 25.99621759 -16.58086854 25.42780067 -8.8359375 28.0859375 C-3.00897989 30.99102011 -3.00897989 30.99102011 -1 33 C-0.67 22.11 -0.34 11.22 0 0 Z M-24.234375 49.6484375 C-29.13095793 57.77392656 -28.94679134 67.60503223 -27.375 76.75 C-26.08477558 81.62615851 -23.89236252 85.72744043 -20 89 C-15.4728057 90.78172227 -12.13436658 90.47086915 -7.6875 88.625 C-1.70826282 82.78481484 -0.21817339 75.36346782 0.1875 67.25 C0.05968054 59.83647159 -0.97997876 52.71724642 -6 47 C-12.90047961 42.59543855 -18.9811088 42.63299973 -24.234375 49.6484375 Z " fill="#707174" transform="translate(1357,171)"/>
<path d="M0 0 C6.6 0 13.2 0 20 0 C20.33 11.22 20.66 22.44 21 34 C23.64 32.02 26.28 30.04 29 28 C35.84854495 25.71715168 45.30169064 25.87657483 52.0625 28.5 C57.51654637 31.40196429 60.8645255 36.0606692 63.06027222 41.74465942 C64.03030115 45.10496718 64.24152346 47.79284631 64.22705078 51.28076172 C64.22689972 52.5015744 64.22674866 53.72238708 64.22659302 54.98019409 C64.21627045 56.28352692 64.20594788 57.58685974 64.1953125 58.9296875 C64.19157802 60.28874503 64.1887331 61.64780526 64.18673706 63.00686646 C64.17913483 66.56774449 64.1595161 70.12845697 64.1373291 73.68927002 C64.11679679 77.32928224 64.10771962 80.96932145 64.09765625 84.609375 C64.07626661 91.73965716 64.04111266 98.86980029 64 106 C57.4 106 50.8 106 44 106 C43.98541748 104.42589355 43.97083496 102.85178711 43.95581055 101.22998047 C43.89777403 95.38160657 43.82054047 89.53361551 43.73754883 83.68554688 C43.70432486 81.15598775 43.67628511 78.62635495 43.65356445 76.09667969 C43.61997296 72.45736333 43.56765246 68.81872066 43.51171875 65.1796875 C43.50532883 64.05134491 43.4989389 62.92300232 43.49235535 61.76046753 C43.38779283 56.15760843 43.29622781 51.77150112 40 47 C36.95845865 45.05679303 35.12080296 44.9978428 31.5 45.0625 C27.18878407 46.21728998 25.65919887 47.4290758 23 51 C20.9676134 57.38928747 20.66404782 63.3898224 20.5859375 70.0625 C20.56657135 71.09439453 20.5472052 72.12628906 20.5272522 73.18945312 C20.46785273 76.45955343 20.42123027 79.72968969 20.375 83 C20.33678373 85.22787926 20.29772991 87.45574432 20.2578125 89.68359375 C20.16218396 95.12227943 20.07800756 100.5610342 20 106 C13.4 106 6.8 106 0 106 C0 71.02 0 36.04 0 0 Z " fill="#717274" transform="translate(830,306)"/>
<path d="M0 0 C2.625 2.1875 2.625 2.1875 5 5 C5.63808594 5.61488281 6.27617188 6.22976563 6.93359375 6.86328125 C15.31580268 15.27625058 17.33337862 24.69352612 17.375 36.25 C17.18142176 47.57608657 15.43673757 57.52964693 7.3125 66.0625 C5 68 5 68 3 68 C2.62488281 68.92232422 2.62488281 68.92232422 2.2421875 69.86328125 C0.78571664 72.36859433 -0.27589622 72.9860275 -2.875 74.1875 C-3.55304688 74.51105469 -4.23109375 74.83460938 -4.9296875 75.16796875 C-14.67157514 79.08310473 -26.9943701 77.90135213 -36.5859375 74.19140625 C-39.82713433 72.59178646 -41.7505675 70.827858 -44 68 C-44.86044922 67.10087891 -44.86044922 67.10087891 -45.73828125 66.18359375 C-50.82434679 60.80268383 -53.7866309 55.9828899 -54.1875 48.5 C-54.125625 47.675 -54.06375 46.85 -54 46 C-54.66 46 -55.32 46 -56 46 C-56.08184423 43.02026385 -56.14089764 40.04283168 -56.1875 37.0625 C-56.21263672 36.23169922 -56.23777344 35.40089844 -56.26367188 34.54492188 C-56.39897387 22.95405102 -51.52002756 12.18308273 -43.80859375 3.5703125 C-32.78520078 -6.0007544 -12.40612595 -7.77621091 0 0 Z M-28 17 C-34.03925863 23.70413114 -36.34823981 31.02256075 -36 39.9375 C-35.24357602 45.7007303 -32.69327585 50.54682448 -29 55 C-25.68815379 57.23992041 -23.0336529 58.81238824 -19 59 C-12.82225189 57.70405691 -9.46926125 55.20389187 -6 50 C-2.86069156 42.27840276 -2.55731303 32.43244854 -5.0625 24.4375 C-8.14252562 18.97293842 -11.45334841 15.77309066 -17.5 13.9375 C-21.63602943 14.01135767 -24.68261015 14.53478369 -28 17 Z " fill="#6F7073" transform="translate(1422,337)"/>
<path d="M0 0 C1.00353516 -0.020625 2.00707031 -0.04125 3.04101562 -0.0625 C10.40870192 -0.1008484 16.97118153 0.58865248 23.15234375 4.87109375 C32.28943554 15.2592299 29.99695001 30.57393891 29.77148438 43.54760742 C29.61658795 53.35193938 29.95966836 62.57419536 31.8125 72.25 C32.1425 74.23 32.4725 76.21 32.8125 78.25 C26.2125 78.25 19.6125 78.25 12.8125 78.25 C12.1525 76.6 11.4925 74.95 10.8125 73.25 C10.22082031 73.65992188 9.62914062 74.06984375 9.01953125 74.4921875 C8.22933594 75.03101563 7.43914062 75.56984375 6.625 76.125 C5.84769531 76.65867187 5.07039063 77.19234375 4.26953125 77.7421875 C-2.04805515 81.61911652 -7.88744841 82.26364906 -15.1875 81.25 C-21.84996262 78.77610223 -27.41987355 75.32681686 -31.1875 69.25 C-34.09555393 61.68596611 -33.74327652 54.283515 -31.3125 46.62890625 C-29.52216593 42.84309567 -26.76661098 40.3715935 -23.1875 38.25 C-22.5275 38.25 -21.8675 38.25 -21.1875 38.25 C-21.1875 37.59 -21.1875 36.93 -21.1875 36.25 C-11.0708571 32.4537348 -0.76411978 30.32992104 9.8125 28.25 C9.36522338 26.94628816 8.90749387 25.64615897 8.4453125 24.34765625 C8.19152832 23.62328369 7.93774414 22.89891113 7.67626953 22.15258789 C6.91133852 20.05601574 6.91133852 20.05601574 4.6875 18.6875 C0.65905316 18.07447548 -3.24561802 18.15011158 -7.1875 19.25 C-9.63653971 21.28805144 -10.88884943 23.35301026 -12.1875 26.25 C-18.86241831 26.70510807 -24.78124557 25.0172426 -31.1875 23.25 C-29.3518002 13.3372211 -29.3518002 13.3372211 -26.1875 9.25 C-25.5275 9.25 -24.8675 9.25 -24.1875 9.25 C-24.001875 8.6725 -23.81625 8.095 -23.625 7.5 C-21.29710657 3.85634072 -17.49463162 1.94254705 -13.39086914 0.71069336 C-8.99375823 -0.20868041 -4.47549704 0.02256079 0 0 Z M-1.1875 46 C-2.404375 46.32484375 -3.62125 46.6496875 -4.875 46.984375 C-8.30372692 48.29440746 -9.9669 49.35995441 -12.1875 52.25 C-12.78624771 56.36639054 -12.61678602 58.49049397 -10.5625 62.125 C-7.57177411 64.80091264 -6.20594707 65.32727783 -2.1875 65.25 C1.96653586 63.90210601 5.01805238 62.24946636 7.75 58.8125 C9.78939048 53.89397002 9.9165359 49.55583112 9.8125 44.25 C5.74671073 44.25 2.71864908 44.92415386 -1.1875 46 Z " fill="#6F7073" transform="translate(1267.1875,197.75)"/>
<path d="M0 0 C8.3521003 4.94896551 12.61752792 11.1352549 15.25 20.4375 C16.8995192 28.60074559 17.25 36.04684 17.25 44.4375 C2.4 44.4375 -12.45 44.4375 -27.75 44.4375 C-25.437881 53.68385632 -25.437881 53.68385632 -19.75 59.4375 C-16.9701184 60.8274408 -14.8313674 60.62238204 -11.75 60.4375 C-9.16123879 59.48763134 -8.00106074 58.82338965 -6.484375 56.4921875 C-6.15953125 55.77289063 -5.8346875 55.05359375 -5.5 54.3125 C-5.16484375 53.58804688 -4.8296875 52.86359375 -4.484375 52.1171875 C-4.24203125 51.56289062 -3.9996875 51.00859375 -3.75 50.4375 C3.13940671 50.87382909 9.60751464 51.52139845 16.25 53.4375 C15.92144438 59.68005678 13.01534554 64.60307932 9.25 69.4375 C6.44678677 71.87441314 3.51343098 73.6811597 0.25 75.4375 C-0.78125 76.05625 -1.8125 76.675 -2.875 77.3125 C-10.72886172 80.33742122 -20.42841557 79.35451535 -28.125 76.4375 C-35.63101714 72.8261144 -41.86804535 68.33050841 -45.1875 60.5 C-45.74217268 58.82331821 -46.26518323 57.13569796 -46.75 55.4375 C-46.97300781 54.76460937 -47.19601562 54.09171875 -47.42578125 53.3984375 C-51.20110625 40.0949113 -49.6701751 23.15289288 -43.125 11.0625 C-33.8129864 -3.16032675 -15.18562253 -7.13610081 0 0 Z M-25 19.6875 C-27.3058843 22.89395784 -27.3058843 22.89395784 -27.75 29.4375 C-19.83 29.4375 -11.91 29.4375 -3.75 29.4375 C-4.41646165 21.632775 -4.41646165 21.632775 -8.75 16.4375 C-14.97355091 12.22154616 -20.11667107 14.80417107 -25 19.6875 Z " fill="#6F7073" transform="translate(968.75,200.5625)"/>
<path d="M0 0 C2.75 2.1875 2.75 2.1875 5 5 C5.50273438 5.62648438 6.00546875 6.25296875 6.5234375 6.8984375 C14.09353752 17.12730436 14.93919311 29.64100039 15 42 C14 43 14 43 12.17137146 43.12025452 C11.37417191 43.11803391 10.57697235 43.11581329 9.75561523 43.11352539 C8.85475693 43.11344986 7.95389862 43.11337433 7.02574158 43.11329651 C6.04658279 43.10813522 5.06742401 43.10297394 4.05859375 43.09765625 C3.06118668 43.0962413 2.0637796 43.09482635 1.03614807 43.09336853 C-2.16343124 43.08775114 -5.36294169 43.07519571 -8.5625 43.0625 C-10.72591045 43.05748724 -12.88932199 43.05292395 -15.05273438 43.04882812 C-20.36851325 43.03777607 -25.68425171 43.02102104 -31 43 C-30.52140759 44.60433809 -30.04210442 46.20846416 -29.5625 47.8125 C-29.29566406 48.70582031 -29.02882813 49.59914063 -28.75390625 50.51953125 C-28.19612127 52.35473055 -27.60655425 54.18033726 -27 56 C-24.57616923 57.16953416 -24.57616923 57.16953416 -22 58 C-21.34 58.33 -20.68 58.66 -20 59 C-16.268148 59.41465022 -14.48562474 59.297997 -11.25 57.3125 C-8.93396044 54.93212601 -7.96212407 53.14876968 -7 50 C0.34918342 49.56769509 6.90215087 51.18225815 14 53 C11.88348201 61.52654392 7.83882111 67.88095785 1 73.4375 C-8.43478859 78.35145239 -20.50591286 78.54764331 -30.6875 75.75 C-39.40720008 72.96217404 -44.93811611 64.8130914 -49 57 C-53.82259805 43.42415972 -52.683107 29.68283793 -49 16 C-48.67 15.34 -48.34 14.68 -48 14 C-47.34 14 -46.68 14 -46 14 C-45.79375 13.154375 -45.5875 12.30875 -45.375 11.4375 C-42.53621195 4.34052987 -37.77781879 0.26339423 -31 -3 C-21.66125175 -6.19145296 -8.35682727 -5.12192639 0 0 Z M-27 17 C-30.39868202 21.05649144 -30.19068847 23.3348193 -31 29 C-22.42 29 -13.84 29 -5 29 C-5 27.35 -5 25.7 -5 24 C-5.66 24 -6.32 24 -7 24 C-7.061875 23.278125 -7.12375 22.55625 -7.1875 21.8125 C-8.28329906 18.0193494 -9.93602589 16.45117929 -13 14 C-18.4561134 11.93880161 -22.44303237 13.82423716 -27 17 Z " fill="#6F7073" transform="translate(957,337)"/>
<path d="M0 0 C0.7532959 0.00563965 1.5065918 0.0112793 2.28271484 0.01708984 C10.48707544 0.19610052 16.98112377 1.72809434 23.125 7.4453125 C26.09598489 10.99563945 27.86463487 15.09042268 29.6875 19.3125 C29.996875 19.98023438 30.30625 20.64796875 30.625 21.3359375 C34.66217196 30.2254796 33.6875 36.90961974 33.6875 47.3125 C18.8375 47.6425 3.9875 47.9725 -11.3125 48.3125 C-9.36188328 54.16435016 -7.74648367 58.27321639 -3 62.25 C0.63598566 63.6874827 2.93808882 63.28456957 6.6875 62.3125 C8.48135992 60.8545814 8.48135992 60.8545814 9.6875 59.3125 C10.3475 59.3125 11.0075 59.3125 11.6875 59.3125 C12.0175 57.3325 12.3475 55.3525 12.6875 53.3125 C19.57690671 53.74882909 26.04501464 54.39639845 32.6875 56.3125 C31.64045175 64.68888604 27.09743042 71.06166375 20.6875 76.3125 C11.93509933 81.49249223 2.23138517 82.96611963 -7.75390625 80.77734375 C-9.75 80.0625 -9.75 80.0625 -13.3125 78.3125 C-13.91449219 78.0340625 -14.51648437 77.755625 -15.13671875 77.46875 C-22.09102457 73.9689692 -25.91790793 68.93817126 -28.5625 61.6875 C-29.14755966 59.89639631 -29.73094561 58.10474488 -30.3125 56.3125 C-30.67214844 55.58804688 -31.03179688 54.86359375 -31.40234375 54.1171875 C-32.80304683 49.80085785 -32.64080808 45.57096564 -32.625 41.0625 C-32.64111328 40.15886719 -32.65722656 39.25523437 -32.67382812 38.32421875 C-32.67830313 32.1039646 -31.65312552 27.06243414 -29.3125 21.3125 C-28.88710937 20.23742187 -28.46171875 19.16234375 -28.0234375 18.0546875 C-24.26194183 9.98176989 -19.87815708 4.65054831 -11.55078125 1.15234375 C-7.67025101 0.14593361 -3.9815548 -0.03097453 0 0 Z M-9.6875 24.25 C-11.70309651 27.47080426 -11.70309651 27.47080426 -11.3125 32.3125 C-3.0625 32.3125 5.1875 32.3125 13.6875 32.3125 C12.62197307 24.85381151 12.49481527 24.11981527 7.6875 19.3125 C0.81008793 14.5842792 -4.96024612 18.40313335 -9.6875 24.25 Z " fill="#6F7073" transform="translate(1419.3125,197.6875)"/>
<path d="M0 0 C6.93 0 13.86 0 21 0 C21.01458252 1.6399292 21.02916504 3.2798584 21.04418945 4.96948242 C21.10216623 11.05450229 21.17940008 17.13915189 21.26245117 23.22387695 C21.29570325 25.85727936 21.32373424 28.49075309 21.34643555 31.12426758 C21.37997529 34.90997711 21.4322932 38.69503289 21.48828125 42.48046875 C21.49467117 43.65772018 21.5010611 44.83497162 21.50764465 46.04789734 C21.53733589 47.69904289 21.53733589 47.69904289 21.56762695 49.38354492 C21.57873001 50.34951096 21.58983307 51.31547699 21.60127258 52.31071472 C22.07801897 55.52621229 23.06054242 57.40489294 25 60 C29.24726764 61.96027737 31.24312603 62.22706219 35.75 60.875 C39.99622549 58.42525452 41.46951679 56.59144962 43 52 C43.11534189 50.29785889 43.17641041 48.59178591 43.20532227 46.88598633 C43.22526749 45.84513382 43.24521271 44.80428131 43.26576233 43.73188782 C43.28247482 42.60993515 43.29918732 41.48798248 43.31640625 40.33203125 C43.33718735 39.18208176 43.35796844 38.03213226 43.37937927 36.84733582 C43.44483342 33.16911875 43.50374074 29.49082952 43.5625 25.8125 C43.60568913 23.32095604 43.64930355 20.82941941 43.69335938 18.33789062 C43.80051065 12.22533462 43.90178997 6.11270594 44 0 C50.93 0 57.86 0 65 0 C65 25.74 65 51.48 65 78 C58.73 78 52.46 78 46 78 C45.505 74.535 45.505 74.535 45 71 C44.29875 71.763125 43.5975 72.52625 42.875 73.3125 C36.16458644 79.5852779 29.25476083 80.43544675 20.3984375 80.3359375 C14.38459758 79.74146597 9.51611521 77.67633952 5.34375 73.23828125 C-0.72010779 64.54792691 -0.28300469 53.70807412 -0.1953125 43.5546875 C-0.1924826 42.30366241 -0.18965271 41.05263733 -0.18673706 39.76370239 C-0.17750168 36.47248436 -0.15960118 33.18147039 -0.1373291 29.89031982 C-0.11669861 26.51805083 -0.10769895 23.1457517 -0.09765625 19.7734375 C-0.07570389 13.18220305 -0.04123031 6.59114091 0 0 Z " fill="#707174" transform="translate(1503,334)"/>
<path d="M0 0 C5.33623647 4.06507344 8.79203946 8.34184983 10.14524841 15.01528931 C10.56431258 18.12569254 10.69459255 21.06801621 10.68774414 24.20458984 C10.68763084 25.94571548 10.68763084 25.94571548 10.68751526 27.72201538 C10.68235397 28.95972687 10.67719269 30.19743835 10.671875 31.47265625 C10.67046005 32.75153717 10.6690451 34.03041809 10.66758728 35.34805298 C10.66294897 38.73133211 10.65397956 42.11454261 10.6428833 45.49780273 C10.6326139 48.95686249 10.62807786 52.41592936 10.62304688 55.875 C10.61203484 62.64976085 10.59477893 69.42448042 10.57421875 76.19921875 C3.64421875 76.19921875 -3.28578125 76.19921875 -10.42578125 76.19921875 C-10.44036377 74.58958252 -10.45494629 72.97994629 -10.4699707 71.3215332 C-10.52795204 65.34832569 -10.60518584 59.37549519 -10.68823242 53.40258789 C-10.72148236 50.81768921 -10.74951402 48.23271791 -10.7722168 45.64770508 C-10.80576052 41.93148866 -10.85807853 38.21593774 -10.9140625 34.5 C-10.92045242 33.34462234 -10.92684235 32.18924469 -10.9334259 30.99885559 C-10.95322006 29.91811264 -10.97301422 28.83736969 -10.9934082 27.72387695 C-11.01006279 26.30157524 -11.01006279 26.30157524 -11.02705383 24.85054016 C-11.60187349 21.02830073 -13.12589085 18.22056121 -16.17578125 15.82421875 C-19.57203156 14.88081589 -22.02331826 15.36352609 -25.42578125 16.19921875 C-29.44360139 18.69919573 -30.96831569 20.76440098 -32.42578125 25.19921875 C-32.74723237 27.76057685 -32.74723237 27.76057685 -32.74462891 30.44848633 C-32.7644986 31.46916702 -32.78436829 32.48984772 -32.80484009 33.54145813 C-32.8163913 34.63121445 -32.8279425 35.72097076 -32.83984375 36.84375 C-32.8592099 37.96867355 -32.87857605 39.09359711 -32.89852905 40.25260925 C-32.95821835 43.83890241 -33.00466819 47.42522784 -33.05078125 51.01171875 C-33.08897078 53.44597739 -33.12802308 55.88022267 -33.16796875 58.31445312 C-33.26391139 64.27593282 -33.34798226 70.23747578 -33.42578125 76.19921875 C-40.35578125 76.19921875 -47.28578125 76.19921875 -54.42578125 76.19921875 C-54.42578125 50.45921875 -54.42578125 24.71921875 -54.42578125 -1.80078125 C-48.15578125 -1.80078125 -41.88578125 -1.80078125 -35.42578125 -1.80078125 C-35.09578125 0.50921875 -34.76578125 2.81921875 -34.42578125 5.19921875 C-33.58015625 4.43609375 -32.73453125 3.67296875 -31.86328125 2.88671875 C-23.17609156 -4.15911252 -9.88986994 -6.11412784 0 0 Z " fill="#6F7073" transform="translate(802.42578125,335.80078125)"/>
<path d="M0 0 C7.57793458 6.74351033 8.35878767 14.33182321 9 24 C9.11983876 28.07793465 9.11754216 32.15106407 9.09765625 36.23046875 C9.0962413 37.34690262 9.09482635 38.46333649 9.09336853 39.61360168 C9.08782367 43.13826309 9.0752818 46.66285818 9.0625 50.1875 C9.05747786 52.59440012 9.05291621 55.00130124 9.04882812 57.40820312 C9.03787237 63.27216051 9.02064653 69.13606906 9 75 C2.07 75 -4.86 75 -12 75 C-12.01458252 73.42065674 -12.02916504 71.84131348 -12.04418945 70.21411133 C-12.10217553 64.35271601 -12.17940928 58.49170473 -12.26245117 52.63061523 C-12.29569888 50.09422032 -12.32373125 47.55775144 -12.34643555 45.02124023 C-12.3799834 41.37451672 -12.43230152 37.72847089 -12.48828125 34.08203125 C-12.49467117 32.94852737 -12.5010611 31.8150235 -12.50764465 30.64717102 C-12.52743881 29.58644882 -12.54723297 28.52572662 -12.56762695 27.43286133 C-12.58428154 26.03720695 -12.58428154 26.03720695 -12.60127258 24.61335754 C-13.08378485 21.45085352 -14.12714696 19.57775664 -16 17 C-19.3901543 14.73989713 -21.04312668 14.77626979 -25 15.39453125 C-28.31619576 16.3984577 -29.92287834 18.3119602 -32 21 C-33.63635785 24.46313127 -34.25966651 27.24848971 -34.31884766 31.06567383 C-34.33871735 32.04631302 -34.35858704 33.02695221 -34.37905884 34.03730774 C-34.39638565 35.60632088 -34.39638565 35.60632088 -34.4140625 37.20703125 C-34.43342865 38.28756271 -34.4527948 39.36809418 -34.4727478 40.48136902 C-34.53242103 43.9249996 -34.57888041 47.36866383 -34.625 50.8125 C-34.66319101 53.15040502 -34.7022434 55.48829615 -34.7421875 57.82617188 C-34.83811271 63.55066805 -34.92218944 69.2752301 -35 75 C-41.93 75 -48.86 75 -56 75 C-56.02255176 65.10810217 -56.04091552 55.2162213 -56.05181217 45.32430363 C-56.05704082 40.7315736 -56.06413812 36.138862 -56.07543945 31.54614258 C-56.086269 27.11766312 -56.09227698 22.68920144 -56.09487724 18.26070976 C-56.09673137 16.56734372 -56.10035175 14.87397871 -56.10573006 13.18062019 C-56.1129414 10.81708768 -56.1139909 8.45362955 -56.11352539 6.09008789 C-56.11712067 5.38302704 -56.12071594 4.67596619 -56.12442017 3.94747925 C-56.11405216 -0.88594784 -56.11405216 -0.88594784 -55 -2 C-53.65732587 -2.08631874 -52.31025678 -2.10706473 -50.96484375 -2.09765625 C-50.15595703 -2.09443359 -49.34707031 -2.09121094 -48.51367188 -2.08789062 C-47.66353516 -2.07951172 -46.81339844 -2.07113281 -45.9375 -2.0625 C-45.08349609 -2.05798828 -44.22949219 -2.05347656 -43.34960938 -2.04882812 C-41.23304337 -2.03700373 -39.11651315 -2.01906769 -37 -2 C-36.67 0.31 -36.34 2.62 -36 5 C-35.154375 4.236875 -34.30875 3.47375 -33.4375 2.6875 C-24.20890396 -4.79744425 -10.4695717 -5.90103132 0 0 Z " fill="#6E6F71" transform="translate(791,201)"/>
<path d="M0 0 C1.38239868 -0.02779541 1.38239868 -0.02779541 2.79272461 -0.05615234 C10.68667426 0.01552778 17.08544781 2.15527258 23.8125 6.25 C28.29788589 10.99923212 30.02659243 16.10542884 30.9375 22.5 C28.54280271 23.00604924 26.14698283 23.50499517 23.75 24 C23.07646484 24.14308594 22.40292969 24.28617188 21.70898438 24.43359375 C18.06240207 25.18069842 14.66101043 25.67352282 10.9375 25.5 C10.56625 24.55125 10.195 23.6025 9.8125 22.625 C8.19754095 19.24446192 8.19754095 19.24446192 4.75 18.125 C3.821875 17.91875 2.89375 17.7125 1.9375 17.5 C1.9375 16.84 1.9375 16.18 1.9375 15.5 C-2.0225 16.82 -5.9825 18.14 -10.0625 19.5 C-9.7325 21.15 -9.4025 22.8 -9.0625 24.5 C-8.3096875 24.73074219 -7.556875 24.96148437 -6.78125 25.19921875 C-4.51855224 25.89395483 -2.25692582 26.5921851 0.00390625 27.29296875 C2.71385695 28.13034008 5.43034238 28.94100311 8.15234375 29.73828125 C9.55991856 30.15877808 10.96747103 30.57934973 12.375 31 C13.03628906 31.18908936 13.69757813 31.37817871 14.37890625 31.57299805 C21.65174154 33.77122724 26.51069941 37.35166585 30.9375 43.5 C34.05173797 50.02507002 33.77766376 57.41815561 31.75 64.25 C28.82636533 71.86754354 24.71491474 75.00836066 17.53515625 78.421875 C7.10729642 82.74982885 -3.58088647 83.20769162 -14.1875 79.25 C-16.16289116 78.37069518 -18.12462117 77.45915215 -20.0625 76.5 C-21.196875 75.943125 -22.33125 75.38625 -23.5 74.8125 C-29.42726513 69.46350464 -32.23940797 63.37263314 -33.0625 55.5 C-30.50194242 54.96742809 -27.93983671 54.44868156 -25.375 53.9375 C-24.2931543 53.71030273 -24.2931543 53.71030273 -23.18945312 53.47851562 C-15.85532114 52.03848058 -15.85532114 52.03848058 -12.0625 53.5 C-10.99597808 55.80368736 -9.99828995 58.14018187 -9.0625 60.5 C-6.75414907 62.79783453 -5.44300663 63.45191968 -2.1875 63.86328125 C-1.15625 63.84652344 -0.125 63.82976562 0.9375 63.8125 C1.96875 63.80863281 3 63.80476563 4.0625 63.80078125 C6.89873056 63.50405604 8.58456818 63.08317918 10.9375 61.5 C12.01774658 59.09889783 12.01774658 59.09889783 11.9375 56.5 C9.67790388 53.49129352 7.27257522 52.79013128 3.7109375 51.8515625 C2.16212891 51.42617187 2.16212891 51.42617187 0.58203125 50.9921875 C-1.57382375 50.42038366 -3.73006599 49.85003754 -5.88671875 49.28125 C-15.89910658 46.52691283 -23.62561831 43.67473785 -29.0625 34.5 C-31.12966256 28.29851231 -31.32685899 19.65042593 -28.875 13.5 C-24.95748323 7.01583432 -22.07873354 3.56912614 -14.7578125 1.1953125 C-9.82256799 0.26669355 -5.01430365 0.06289368 0 0 Z " fill="#6F7073" transform="translate(1076.0625,197.5)"/>
<path d="M0 0 C6.93 0 13.86 0 21 0 C24.6184227 8.3822454 27.75127842 16.83575767 30.59472656 25.50292969 C31.25886312 27.52701206 31.92966759 29.54879366 32.6015625 31.5703125 C36.12406024 42.21278034 36.12406024 42.21278034 37 46 C37.2266333 45.30962646 37.4532666 44.61925293 37.68676758 43.90795898 C38.72545341 40.75006811 39.76893495 37.59378167 40.8125 34.4375 C41.16892578 33.35146484 41.52535156 32.26542969 41.89257812 31.14648438 C44.90021433 22.06838977 44.90021433 22.06838977 46.59375 18.21875 C48.1923544 14.55972214 49.45492595 10.85624482 50.6875 7.0625 C51.450625 4.731875 52.21375 2.40125 53 0 C59.93 0 66.86 0 74 0 C73.18082032 4.91507808 72.232602 8.23819077 70.34375 12.73046875 C67.05623429 20.70955894 64.16102952 28.80290122 61.32275391 36.95092773 C60.50392195 39.30124273 59.68012223 41.64976893 58.85546875 43.99804688 C55.77570407 52.79019334 52.76878887 61.60228909 49.89050293 70.46272278 C48.10799873 75.89200127 48.10799873 75.89200127 47 77 C45.58429877 77.08651611 44.164405 77.10704904 42.74609375 77.09765625 C41.89208984 77.09443359 41.03808594 77.09121094 40.15820312 77.08789062 C39.26037109 77.07951172 38.36253906 77.07113281 37.4375 77.0625 C36.53580078 77.05798828 35.63410156 77.05347656 34.70507812 77.04882812 C32.46998686 77.03700225 30.23502563 77.0205222 28 77 C26.74335022 74.09399739 26 72.20395416 26 69 C25.34 69 24.68 69 24 69 C23.82318192 68.47985321 23.64636383 67.95970642 23.46418762 67.42379761 C21.59939812 61.93883258 19.73309429 56.45438442 17.8659668 50.97021484 C17.17223027 48.93193171 16.47886143 46.89352339 15.78588867 44.85498047 C11.03770469 30.88459172 11.03770469 30.88459172 6.19921875 16.9453125 C5.84045654 15.92195801 5.48169434 14.89860352 5.11206055 13.84423828 C4.02416503 10.91845189 4.02416503 10.91845189 2.42504883 7.94091797 C1 5 1 5 0 0 Z " fill="#6F7073" transform="translate(843,199)"/>
<path d="M0 0 C2.31 0 4.62 0 7 0 C7 119.13 7 238.26 7 361 C4.69 361 2.38 361 0 361 C0 241.87 0 122.74 0 0 Z " fill="#696A6D" transform="translate(575,172)"/>
<path d="M0 0 C1.36125 0.7425 1.36125 0.7425 2.75 1.5 C2.32787914 6.14332948 1.29606812 10.41037223 -0.0625 14.875 C-0.37832031 15.91398437 -0.69414063 16.95296875 -1.01953125 18.0234375 C-2.25 20.5 -2.25 20.5 -4.2734375 21.4140625 C-6.25 21.5 -6.25 21.5 -8.0625 20.5 C-11.40253003 18.97312913 -13.759748 19.61157222 -17.25 20.5 C-21.24573969 23.94460319 -22.02275221 29.84615099 -22.45608521 34.90670776 C-22.55801145 37.56253664 -22.60454729 40.21343044 -22.62890625 42.87109375 C-22.64590073 43.83402847 -22.6628952 44.7969632 -22.68040466 45.78907776 C-22.73317578 48.83848678 -22.77370817 51.88788367 -22.8125 54.9375 C-22.85641866 58.01204649 -22.90301054 61.08648823 -22.95530701 64.16090393 C-22.98729773 66.06832437 -23.0141773 67.9758385 -23.03553772 69.88340759 C-23.04902756 70.73842361 -23.0625174 71.59343964 -23.07641602 72.47436523 C-23.08592789 73.22967026 -23.09543976 73.98497528 -23.10523987 74.76316833 C-23.25 76.5 -23.25 76.5 -24.25 77.5 C-30.85 77.5 -37.45 77.5 -44.25 77.5 C-44.25 51.76 -44.25 26.02 -44.25 -0.5 C-37.98 -0.5 -31.71 -0.5 -25.25 -0.5 C-24.92 1.48 -24.59 3.46 -24.25 5.5 C-23.6725 4.71625 -23.095 3.9325 -22.5 3.125 C-17.01377777 -3.27559261 -7.45979319 -3.21884737 0 0 Z " fill="#6D6E71" transform="translate(1495.25,334.5)"/>
<path d="M0 0 C1.62109375 0.828125 1.62109375 0.828125 3.80859375 2.328125 C3.16206048 9.27835764 0.94832127 15.70989803 -1.19140625 22.328125 C-1.75859375 22.17859375 -2.32578125 22.0290625 -2.91015625 21.875 C-9.84215657 20.12026239 -9.84215657 20.12026239 -16.62890625 21.390625 C-22.04507333 28.10667218 -21.34256636 38.61648551 -21.5078125 46.859375 C-21.5285936 47.73589722 -21.54937469 48.61241943 -21.57078552 49.51550293 C-21.63561508 52.28630542 -21.69485283 55.05719401 -21.75390625 57.828125 C-21.79715498 59.71875852 -21.84077118 61.60938368 -21.88476562 63.5 C-21.99191137 68.1092885 -22.09147764 72.71865191 -22.19140625 77.328125 C-28.79140625 77.328125 -35.39140625 77.328125 -42.19140625 77.328125 C-42.19140625 51.918125 -42.19140625 26.508125 -42.19140625 0.328125 C-35.92140625 0.328125 -29.65140625 0.328125 -23.19140625 0.328125 C-22.86140625 1.978125 -22.53140625 3.628125 -22.19140625 5.328125 C-21.40765625 4.52375 -20.62390625 3.719375 -19.81640625 2.890625 C-14.71471833 -2.08959416 -6.71086914 -2.05752138 0 0 Z " fill="#707275" transform="translate(1040.19140625,198.671875)"/>
<path d="M0 0 C6.93 0 13.86 0 21 0 C21 25.74 21 51.48 21 78 C14.07 78 7.14 78 0 78 C0 52.26 0 26.52 0 0 Z " fill="#6F7074" transform="translate(1185,334)"/>
<path d="M0 0 C2.97 0 5.94 0 9 0 C10 1 10 1 10.11352539 4.23461914 C10.11336631 5.66814126 10.10767407 7.10166912 10.09765625 8.53515625 C10.0962413 9.28840683 10.09482635 10.04165741 10.09336853 10.81773376 C10.08775376 13.2326956 10.07519883 15.64756601 10.0625 18.0625 C10.0574869 19.69596221 10.05292366 21.32942586 10.04882812 22.96289062 C10.03862875 26.9753243 10.01905645 30.98755936 10 35 C16.6 35 23.2 35 30 35 C30.33 35.99 30.66 36.98 31 38 C31.67095703 36.25976562 31.67095703 36.25976562 32.35546875 34.484375 C35.45361985 26.47078883 38.59283872 18.4866891 41.93359375 10.5703125 C43.3822579 7.07866044 44.70274447 3.55038357 46 0 C49.63 0 53.26 0 57 0 C59 4 59 4 59 7 C59.66 7 60.32 7 61 7 C62.85564602 11.80387577 64.70694675 16.60939427 66.55419922 21.41650391 C67.1835333 23.05238264 67.81406291 24.68780196 68.44580078 26.32275391 C69.3524162 28.66970655 70.25475215 31.01826518 71.15625 33.3671875 C71.44060913 34.10057343 71.72496826 34.83395935 72.01794434 35.58956909 C74 40.77225659 74 40.77225659 74 43 C70.37 43 66.74 43 63 43 C61 39 61 39 61 36 C60.34 36 59.68 36 59 36 C59 35.34 59 34.68 59 34 C54.38 34.33 49.76 34.66 45 35 C44.01 37.64 43.02 40.28 42 43 C28.14 43 14.28 43 0 43 C0 28.81 0 14.62 0 0 Z M51 15 C50.49632243 16.45706726 49.99717444 17.91570096 49.5 19.375 C49.2215625 20.18710937 48.943125 20.99921875 48.65625 21.8359375 C47.90326695 23.94209242 47.90326695 23.94209242 48 26 C50.64 26 53.28 26 56 26 C54.68 22.37 53.36 18.74 52 15 C51.67 15 51.34 15 51 15 Z " fill="#6E6F72" transform="translate(642,490)"/>
<path d="M0 0 C6.6 0 13.2 0 20 0 C20 25.41 20 50.82 20 77 C13.4 77 6.8 77 0 77 C0 51.59 0 26.18 0 0 Z " fill="#717275" transform="translate(1123,199)"/>
<path d="M0 0 C6.6 0 13.2 0 20 0 C20 25.41 20 50.82 20 77 C13.4 77 6.8 77 0 77 C0 51.59 0 26.18 0 0 Z " fill="#717275" transform="translate(816,199)"/>
<path d="M0 0 C6.27 0 12.54 0 19 0 C19 25.74 19 51.48 19 78 C12.73 78 6.46 78 0 78 C0 52.26 0 26.52 0 0 Z " fill="#717274" transform="translate(1785,334)"/>
<path d="M0 0 C4.49625 -0.0825 8.9925 -0.165 13.625 -0.25 C15.03217285 -0.28641602 16.4393457 -0.32283203 17.88916016 -0.36035156 C29.42455554 -0.46306512 29.42455554 -0.46306512 34 4 C37.10787848 8.66181771 36.61235556 13.5404444 36 19 C33.95769333 22.52121839 32.37173484 23.75217677 29 26 C29.37511719 26.4125 29.75023437 26.825 30.13671875 27.25 C40 38.38035264 40 38.38035264 40 43 C35.71 43 31.42 43 27 43 C26.67 41.68 26.34 40.36 26 39 C24.515 38.505 24.515 38.505 23 38 C21.45044771 35.78201339 20.13781064 33.4757872 18.79296875 31.12890625 C16.76106037 28.34044604 16.76106037 28.34044604 11 27 C11 32.28 11 37.56 11 43 C7.37 43 3.74 43 0 43 C0 28.81 0 14.62 0 0 Z M11 9 C11 11.64 11 14.28 11 17 C13.12472576 17.05386629 15.24983652 17.09273071 17.375 17.125 C19.15003906 17.15980469 19.15003906 17.15980469 20.9609375 17.1953125 C24.11153817 17.32866229 24.11153817 17.32866229 26 15 C26 13.68 26 12.36 26 11 C22.65060119 8.97441119 20.13037449 8.78261013 16.25 8.875 C15.26515625 8.89304687 14.2803125 8.91109375 13.265625 8.9296875 C12.51796875 8.95289063 11.7703125 8.97609375 11 9 Z " fill="#6E7073" transform="translate(760,490)"/>
<path d="M0 0 C10.89 0 21.78 0 33 0 C33 2.97 33 5.94 33 9 C25.74 9 18.48 9 11 9 C11 11.31 11 13.62 11 16 C17.93 16 24.86 16 32 16 C32 19.3 32 22.6 32 26 C25.07 26 18.14 26 11 26 C11 28.97 11 31.94 11 35 C18.59 35 26.18 35 34 35 C34 37.64 34 40.28 34 43 C22.78 43 11.56 43 0 43 C0 28.81 0 14.62 0 0 Z " fill="#707174" transform="translate(802,490)"/>
<path d="M0 0 C10.89 0 21.78 0 33 0 C33 2.97 33 5.94 33 9 C25.41 9 17.82 9 10 9 C10 11.31 10 13.62 10 16 C16.93 16 23.86 16 31 16 C31 19.3 31 22.6 31 26 C24.07 26 17.14 26 10 26 C10 28.97 10 31.94 10 35 C17.92 35 25.84 35 34 35 C34 37.64 34 40.28 34 43 C22.78 43 11.56 43 0 43 C0 28.81 0 14.62 0 0 Z " fill="#707173" transform="translate(914,490)"/>
<path d="M0 0 C3.63 0 7.26 0 11 0 C11.01458252 0.92337158 11.02916504 1.84674316 11.04418945 2.7980957 C11.10526308 6.22577204 11.1794161 9.65264662 11.26245117 13.07983398 C11.29569423 14.56279854 11.32372823 16.04588944 11.34643555 17.52905273 C11.37999468 19.66184293 11.43230638 21.79347612 11.48828125 23.92578125 C11.51446533 25.20880127 11.54064941 26.49182129 11.56762695 27.8137207 C11.75258829 30.94015386 11.75258829 30.94015386 13.30151367 32.93041992 C16.07290509 34.67563564 18.82403952 34.17977135 22 34 C24.5044586 29.59751748 25.39589405 26.33901951 25.51171875 21.2890625 C25.54716797 20.04511719 25.58261719 18.80117188 25.61914062 17.51953125 C25.64169922 16.23433594 25.66425781 14.94914062 25.6875 13.625 C25.72166016 12.31660156 25.75582031 11.00820313 25.79101562 9.66015625 C25.87327754 6.44018975 25.94250263 3.22048821 26 0 C27.47906892 -0.02689216 28.95827483 -0.04634621 30.4375 -0.0625 C31.26121094 -0.07410156 32.08492187 -0.08570313 32.93359375 -0.09765625 C35 0 35 0 36 1 C36.25705832 5.30605091 36.18524789 9.62470843 36.1875 13.9375 C36.19974609 15.13697266 36.21199219 16.33644531 36.22460938 17.57226562 C36.25328725 35.09444539 36.25328725 35.09444539 31.625 41.0625 C25.71799788 45.42243014 18.04055888 44.55065824 11 44 C7.83395819 43.20729572 5.31655401 42.32822431 3 40 C0.41346341 34.91493147 -0.4222803 30.82424445 -0.29296875 25.09765625 C-0.28872391 24.3750914 -0.28447906 23.65252655 -0.28010559 22.9080658 C-0.26346418 20.62581307 -0.22584248 18.34448067 -0.1875 16.0625 C-0.17243423 14.50457015 -0.15874916 12.9466263 -0.14648438 11.38867188 C-0.11360882 7.59209943 -0.0619309 3.79620513 0 0 Z " fill="#6F7073" transform="translate(718,490)"/>
<path d="M0 0 C3.63 0 7.26 0 11 0 C11.91145833 2.34375 12.82291667 4.6875 13.734375 7.03125 C14.69637675 9.28779731 15.71300855 11.39783392 16.84375 13.56640625 C19.60105093 19.01020907 21.64117896 24.71895434 23.75 30.4375 C24.16121094 31.53771484 24.57242188 32.63792969 24.99609375 33.77148438 C28 41.85009603 28 41.85009603 28 43 C24.27260422 43.3470334 20.71496295 43.52918177 17 43 C14.01794412 39.87924385 13 38.31744457 13 34 C8.05 34 3.1 34 -2 34 C-2.66 36.97 -3.32 39.94 -4 43 C-7.96 43 -11.92 43 -16 43 C-15.35471014 37.19239123 -13.29366412 32.0886069 -11.1875 26.6875 C-10.84396484 25.78837891 -10.50042969 24.88925781 -10.14648438 23.96289062 C-8.19808243 18.90728108 -6.13321717 13.92561489 -3.89868164 8.98974609 C-2.55386469 6.01222418 -1.27923024 3.00619106 0 0 Z M5 15 C4.505 16.0725 4.01 17.145 3.5 18.25 C3.2215625 18.85328125 2.943125 19.4565625 2.65625 20.078125 C1.78457076 22.29242836 1.78457076 22.29242836 2 26 C4.31 26 6.62 26 9 26 C8.71758359 24.53984709 8.42373386 23.08190207 8.125 21.625 C7.88136719 20.40683594 7.88136719 20.40683594 7.6328125 19.1640625 C7.13341068 16.81326077 7.13341068 16.81326077 5 15 Z " fill="#6D6E71" transform="translate(853,490)"/>
<path d="M0 0 C2.23759858 1.80451498 2.83522338 3.09835714 3.34765625 5.90234375 C3.63512875 9.86061895 3.63512875 9.86061895 3 12 C0.22418685 14.98696034 -1.22106287 15.95982036 -5.33203125 16.171875 C-6.48058594 16.03265625 -7.62914062 15.8934375 -8.8125 15.75 C-9.97394531 15.62109375 -11.13539062 15.4921875 -12.33203125 15.359375 C-13.21246094 15.24078125 -14.09289063 15.1221875 -15 15 C-15.29390625 14.20207031 -15.5878125 13.40414063 -15.890625 12.58203125 C-16.76921995 9.9460529 -16.76921995 9.9460529 -18.75 8.6875 C-21.63871644 7.80483664 -23.99462231 7.74422318 -27 8 C-27.99 8.66 -28.98 9.32 -30 10 C-30 11.32 -30 12.64 -30 14 C-28.2984375 14.6496875 -28.2984375 14.6496875 -26.5625 15.3125 C-25.83546875 15.5909375 -25.1084375 15.869375 -24.359375 16.15625 C-22.01802311 17.02552901 -22.01802311 17.02552901 -19.640625 17.65625 C-13.91765581 19.26943595 -11.15668772 20.87038246 -8 26 C-6.74990784 30.29719179 -6.83238608 32.4706929 -8.1875 36.75 C-10.57430439 41.02978719 -12.41448482 42.47149494 -17 44 C-29.76540335 44.95786576 -29.76540335 44.95786576 -35 41 C-37.88103283 37.88848454 -39.85753767 35.33914589 -40.3125 31.0625 C-40.209375 30.381875 -40.10625 29.70125 -40 29 C-36.535 28.505 -36.535 28.505 -33 28 C-32.649375 28.928125 -32.29875 29.85625 -31.9375 30.8125 C-29.4394826 34.92214153 -27.6111208 35.77036779 -23 37 C-20.42185224 36.65457826 -18.45318894 35.95123653 -16 35 C-15.67 33.35 -15.34 31.7 -15 30 C-20.13189662 27.16395187 -25.3856009 25.56448671 -31 24 C-31 23.34 -31 22.68 -31 22 C-31.78375 21.7525 -32.5675 21.505 -33.375 21.25 C-36 20 -36 20 -37.3125 18.3125 C-38.58368299 14.03670268 -38.62335705 10.41075542 -36.8125 6.3125 C-33.95247796 2.66350637 -31.55237732 0.26423444 -26.87890625 -0.53125 C-15.84230884 -0.42725379 -15.84230884 -0.42725379 -11 4 C-10.71125 3.360625 -10.4225 2.72125 -10.125 2.0625 C-7.74633499 -2.29838585 -4.30781485 -0.98248409 0 0 Z M-9 6 C-8 10 -8 10 -8 10 Z M-1 6 C0 10 0 10 0 10 Z " fill="#6A6B6E" transform="translate(1801,490)"/>
<path d="M0 0 C1.08152344 -0.02900391 2.16304687 -0.05800781 3.27734375 -0.08789062 C9.85758954 -0.1401148 14.1195945 0.20176502 19.375 4.3125 C22.34108577 8.40421943 22.14588914 13.47345331 21.375 18.3125 C19.97662203 20.85973125 18.52185738 22.26787392 16.375 24.3125 C15.715 24.9725 15.055 25.6325 14.375 26.3125 C15.07625 27.116875 15.7775 27.92125 16.5 28.75 C25.375 39.40508596 25.375 39.40508596 25.375 43.3125 C22.18734748 43.96304133 19.54132701 44.14069399 16.375 43.3125 C13.45708269 40.34278534 11.47537476 36.88953417 9.375 33.3125 C7.43052526 30.19762485 5.81331229 27.67512019 2.06640625 26.73046875 C-0.71101918 26.36889429 -0.71101918 26.36889429 -4.625 26.3125 C-4.625 31.9225 -4.625 37.5325 -4.625 43.3125 C-7.265 43.3125 -9.905 43.3125 -12.625 43.3125 C-12.64964574 37.34936834 -12.667834 31.38626605 -12.67993164 25.4230957 C-12.68497278 23.39281702 -12.69180557 21.36254198 -12.70043945 19.33227539 C-12.71251467 16.42072653 -12.71823034 13.5092255 -12.72265625 10.59765625 C-12.72781754 9.6841188 -12.73297882 8.77058136 -12.73829651 7.82936096 C-12.73849168 5.65674573 -12.68711805 3.48422704 -12.625 1.3125 C-10.10423109 -1.20826891 -3.3818745 0.02959633 0 0 Z M-4.625 7.3125 C-4.625 10.9425 -4.625 14.5725 -4.625 18.3125 C-2.02021117 18.3934313 0.58206653 18.45295434 3.1875 18.5 C3.92548828 18.52513672 4.66347656 18.55027344 5.42382812 18.57617188 C9.64627276 18.66786554 9.64627276 18.66786554 13.3984375 16.9609375 C14.61656576 15.26255358 14.61656576 15.26255358 14.1875 12.75 C13.52872967 10.16808728 13.52872967 10.16808728 11.375 8.3125 C7.98715901 7.09928667 4.69340018 7.21121304 1.125 7.25 C0.04734375 7.25902344 -1.0303125 7.26804687 -2.140625 7.27734375 C-3.37039063 7.29474609 -3.37039063 7.29474609 -4.625 7.3125 Z " fill="#6A6A6E" transform="translate(1114.625,489.6875)"/>
<path d="M0 0 C0.97775391 -0.02900391 1.95550781 -0.05800781 2.96289062 -0.08789062 C9.09369476 -0.14127338 14.52002783 0.31457412 19.4375 4.3125 C22.11192571 8.78834951 22.24586317 13.22221309 21.4375 18.3125 C20.03973057 20.95215379 18.70044726 22.26507153 16.4375 24.3125 C15.7775 24.3125 15.1175 24.3125 14.4375 24.3125 C15.07558594 25.34890625 15.71367188 26.3853125 16.37109375 27.453125 C17.20600227 28.82275022 18.04062264 30.19255113 18.875 31.5625 C19.29587891 32.24441406 19.71675781 32.92632813 20.15039062 33.62890625 C20.55322266 34.29277344 20.95605469 34.95664062 21.37109375 35.640625 C21.74290771 36.2480957 22.11472168 36.85556641 22.49780273 37.48144531 C23.48633545 39.40765872 23.99490065 41.19944504 24.4375 43.3125 C19.54338235 44.27384454 19.54338235 44.27384454 16.4375 43.3125 C12.52086219 39.21271006 9.67857819 34.31667357 6.703125 29.51171875 C3.99551014 26.44186165 3.99551014 26.44186165 -3.5625 26.3125 C-3.5625 31.9225 -3.5625 37.5325 -3.5625 43.3125 C-6.2025 43.3125 -8.8425 43.3125 -11.5625 43.3125 C-11.58714574 37.34936834 -11.605334 31.38626605 -11.61743164 25.4230957 C-11.62247278 23.39281702 -11.62930557 21.36254198 -11.63793945 19.33227539 C-11.65001467 16.42072653 -11.65573034 13.5092255 -11.66015625 10.59765625 C-11.66531754 9.6841188 -11.67047882 8.77058136 -11.67579651 7.82936096 C-11.67599168 5.65674573 -11.62461805 3.48422704 -11.5625 1.3125 C-9.16631869 -1.08368131 -3.21205891 0.03090499 0 0 Z M-3.5625 7.3125 C-3.5625 10.9425 -3.5625 14.5725 -3.5625 18.3125 C-1.12433415 18.3934723 1.31114384 18.45296972 3.75 18.5 C4.44029297 18.52513672 5.13058594 18.55027344 5.84179688 18.57617188 C9.87097909 18.64601485 9.87097909 18.64601485 13.4296875 16.9609375 C14.68436746 15.26830513 14.68436746 15.26830513 14.25 12.75 C13.59122967 10.16808728 13.59122967 10.16808728 11.4375 8.3125 C8.19132456 7.17059315 5.10420275 7.20932497 1.6875 7.25 C-0.91125 7.2809375 -0.91125 7.2809375 -3.5625 7.3125 Z " fill="#6B6C6E" transform="translate(1603.5625,489.6875)"/>
<path d="M0 0 C7 0 7 0 9.1171875 1.87890625 C9.69726562 2.76449219 10.27734375 3.65007812 10.875 4.5625 C11.53242187 5.5525 12.18984375 6.5425 12.8671875 7.5625 C13.58138912 8.70630165 14.29211317 9.85227948 15 11 C15.40637695 11.64710938 15.81275391 12.29421875 16.23144531 12.9609375 C24 25.37160482 24 25.37160482 24 28 C24.66 28 25.32 28 26 28 C26.33 18.76 26.66 9.52 27 0 C29.31 0 31.62 0 34 0 C34 14.19 34 28.38 34 43 C31.36 43 28.72 43 26 43 C26 42.34 26 41.68 26 41 C24.515 40.505 24.515 40.505 23 40 C21.82080078 38.54467773 21.82080078 38.54467773 20.6953125 36.68359375 C20.27636719 36.00103516 19.85742188 35.31847656 19.42578125 34.61523438 C18.99652344 33.89658203 18.56726563 33.17792969 18.125 32.4375 C17.49271484 31.40012695 17.49271484 31.40012695 16.84765625 30.34179688 C16.04039517 29.01734559 15.23669478 27.69071159 14.43798828 26.36108398 C12.32295754 22.88833997 10.15503761 19.44806017 8 16 C7.67 24.91 7.34 33.82 7 43 C4.69 43 2.38 43 0 43 C0 28.81 0 14.62 0 0 Z " fill="#6D6E71" transform="translate(989,490)"/>
<path d="M0 0 C2.31 0 4.62 0 7 0 C8.98315427 2.30699751 10.26732846 4.132938 11.6875 6.75 C12.4157894 8.01838366 13.14877512 9.28408375 13.88671875 10.546875 C14.19826904 11.11245117 14.50981934 11.67802734 14.83081055 12.26074219 C16.27900628 14.53546557 16.27900628 14.53546557 20 18 C21.98 21.3 23.96 24.6 26 28 C26.33 18.76 26.66 9.52 27 0 C28.98 0 30.96 0 33 0 C34 1 34 1 34.11352539 4.96899414 C34.1133662 6.74105607 34.10766785 8.5131226 34.09765625 10.28515625 C34.0962413 11.21597519 34.09482635 12.14679413 34.09336853 13.1058197 C34.08775172 16.09141191 34.0751964 19.07693029 34.0625 22.0625 C34.05748716 24.08137913 34.05292388 26.10025943 34.04882812 28.11914062 C34.03777683 33.07945572 34.02050095 38.03971532 34 43 C26.28027344 43.25146484 26.28027344 43.25146484 23.7578125 40.98828125 C23.21898437 40.10527344 22.68015625 39.22226562 22.125 38.3125 C21.57070312 37.44238281 21.01640625 36.57226562 20.4453125 35.67578125 C19.08827892 33.1634353 17.99273852 30.67461105 17 28 C16.34 28 15.68 28 15 28 C12.4590218 24.45872721 10.28099269 20.71717327 8 17 C7.67 25.58 7.34 34.16 7 43 C4.69 43 2.38 43 0 43 C0 28.81 0 14.62 0 0 Z " fill="#6E6F71" transform="translate(1143,490)"/>
<path d="M0 0 C2.31 0 4.62 0 7 0 C8.85546875 2.046875 8.85546875 2.046875 10.1875 4.75 C11.58951594 7.51362797 12.70977397 9.71036748 14.91015625 11.90625 C17.55035325 14.55138195 19.3562493 17.55867937 21.25 20.75 C21.61351562 21.35199219 21.97703125 21.95398438 22.3515625 22.57421875 C23.23953297 24.04638031 24.12049158 25.5227674 25 27 C25.02505615 26.21761963 25.0501123 25.43523926 25.07592773 24.62915039 C25.19149788 21.10675051 25.31439949 17.5846444 25.4375 14.0625 C25.47681641 12.83080078 25.51613281 11.59910156 25.55664062 10.33007812 C25.59853516 9.16025391 25.64042969 7.99042969 25.68359375 6.78515625 C25.72025146 5.70113525 25.75690918 4.61711426 25.79467773 3.50024414 C26 1 26 1 27 0 C28.98 0 30.96 0 33 0 C33 14.19 33 28.38 33 43 C25 43 25 43 22.96191406 41.25927734 C22.48463867 40.4595752 22.00736328 39.65987305 21.515625 38.8359375 C20.97292969 37.96066406 20.43023438 37.08539062 19.87109375 36.18359375 C19.06865234 34.79333984 19.06865234 34.79333984 18.25 33.375 C17.42435547 32.01955078 17.42435547 32.01955078 16.58203125 30.63671875 C15.54809132 28.93828026 14.52608806 27.23247128 13.52050781 25.51708984 C11.77117861 22.62120287 9.87668398 19.81502597 8 17 C7.67 25.58 7.34 34.16 7 43 C4.69 43 2.38 43 0 43 C0 28.81 0 14.62 0 0 Z " fill="#6E6F71" transform="translate(1312,490)"/>
<path d="M0 0 C5.57452258 3.33168461 9.52653707 7.6718592 11.33984375 13.9609375 C11.86389459 19.97210895 12.26725641 26.17869951 10.33984375 31.9609375 C9.67984375 31.9609375 9.01984375 31.9609375 8.33984375 31.9609375 C8.13359375 32.6828125 7.92734375 33.4046875 7.71484375 34.1484375 C5.85850331 37.9454975 3.74516572 39.4590683 0.33984375 41.9609375 C-5.75468082 43.99244569 -12.99310476 43.78529887 -19.09765625 41.8984375 C-24.20872843 38.03396829 -28.25240171 33.86157119 -29.47265625 27.328125 C-30.0792306 19.67012386 -29.96432686 11.96254805 -25.21875 5.6171875 C-18.41698977 -1.61074819 -9.46344394 -3.69644066 0 0 Z M-19.97265625 11.3984375 C-22.90320109 17.58514327 -22.65971146 24.11220515 -20.41015625 30.5234375 C-17.68412152 34.32041444 -15.90148621 35.63303902 -11.34765625 36.8359375 C-6.80209185 36.99002443 -4.52737758 36.36883003 -0.66015625 33.9609375 C3.15247475 29.27364409 3.93734256 24.20107382 3.65625 18.2890625 C2.98901772 13.3795509 1.297346 10.78787126 -2.41015625 7.5859375 C-9.60904509 3.98649308 -14.69369367 5.83412559 -19.97265625 11.3984375 Z " fill="#6C6D70" transform="translate(1295.66015625,491.0390625)"/>
<path d="M0 0 C3.31640625 0.625 3.31640625 0.625 4.85205078 2.28125 C6.4708025 4.67643326 7.93963093 7.11787524 9.37890625 9.625 C9.88228516 10.46417969 10.38566406 11.30335938 10.90429688 12.16796875 C11.90403521 13.83635484 12.89586732 15.50950622 13.87939453 17.1875 C17.15120671 23.23489794 17.15120671 23.23489794 21.31640625 28.625 C21.64640625 19.385 21.97640625 10.145 22.31640625 0.625 C24.29640625 0.625 26.27640625 0.625 28.31640625 0.625 C28.31640625 14.815 28.31640625 29.005 28.31640625 43.625 C21.31640625 43.625 21.31640625 43.625 19.52685547 42.44311523 C19.1042041 41.88309814 18.68155273 41.32308105 18.24609375 40.74609375 C17.5185791 39.78678955 17.5185791 39.78678955 16.77636719 38.80810547 C14.14213025 34.86908428 11.75555245 30.82103153 9.44140625 26.6875 C7.75015625 23.696875 6.05890625 20.70625 4.31640625 17.625 C3.98640625 26.205 3.65640625 34.785 3.31640625 43.625 C1.00640625 43.625 -1.30359375 43.625 -3.68359375 43.625 C-3.70823949 37.66186834 -3.72642775 31.69876605 -3.73852539 25.7355957 C-3.74356653 23.70531702 -3.75039932 21.67504198 -3.7590332 19.64477539 C-3.77110842 16.73322653 -3.77682409 13.8217255 -3.78125 10.91015625 C-3.78641129 9.9966188 -3.79157257 9.08308136 -3.79689026 8.14186096 C-3.79708543 5.96924573 -3.7457118 3.79672704 -3.68359375 1.625 C-2.68359375 0.625 -2.68359375 0.625 0 0 Z " fill="#6D6E71" transform="translate(1472.68359375,489.375)"/>
<path d="M0 0 C0 0.66 0 1.32 0 2 C0.7425 2.185625 1.485 2.37125 2.25 2.5625 C6.2277396 4.64177297 7.08794536 6.96344021 9 11 C9 11.99 9 12.98 9 14 C6.36 14.33 3.72 14.66 1 15 C0.54625 14.030625 0.0925 13.06125 -0.375 12.0625 C-1.65786221 8.92920418 -1.65786221 8.92920418 -4 8 C-7.48955396 7.69656053 -9.37505704 7.60529918 -12.375 9.5 C-12.91125 9.995 -13.4475 10.49 -14 11 C-13.67 11.99 -13.34 12.98 -13 14 C-9.54692624 15.47988876 -6.14284504 16.66803073 -2.5390625 17.71484375 C-1.74242187 17.95332031 -0.94578125 18.19179688 -0.125 18.4375 C0.61492187 18.64246094 1.35484375 18.84742188 2.1171875 19.05859375 C4.53022562 20.26511281 5.03843522 21.53535765 6 24 C6.66 24 7.32 24 8 24 C10.24812995 27.85768603 10.20833708 30.47715545 9.609375 34.8125 C8.47334692 38.89054952 5.67827301 40.96833434 2.1953125 43.109375 C-3.24219787 45.31534006 -10.62890061 44.87467668 -16.0625 42.75 C-19.05876103 40.96499343 -20.4852695 40.1136127 -22 37 C-22.51965165 34.31942068 -22.77246372 31.73043538 -23 29 C-19.535 28.505 -19.535 28.505 -16 28 C-15.7834375 29.3921875 -15.7834375 29.3921875 -15.5625 30.8125 C-13.79994481 34.40811259 -13.27660786 34.68240393 -9.6875 36 C-6.69581815 36.80934388 -5.10021014 37.01670169 -2 36.5 C0.24318091 35.12324894 0.24318091 35.12324894 0.8125 32.375 C0.874375 31.59125 0.93625 30.8075 1 30 C-3.61805085 26.76736441 -8.63214705 25.46964518 -14 24 C-14 23.34 -14 22.68 -14 22 C-14.598125 21.896875 -15.19625 21.79375 -15.8125 21.6875 C-18.50141816 20.84241144 -19.40984985 20.3473645 -21 18 C-22.02680444 13.52606637 -22.36315154 11.11081648 -20.9375 6.75 C-15.37827091 -1.14051871 -8.9022731 -0.47549233 0 0 Z " fill="#6A6A6D" transform="translate(1652,490)"/>
<path d="M0 0 C9.9 0 19.8 0 30 0 C30 2.64 30 5.28 30 8 C22.41 8 14.82 8 7 8 C7 11.3 7 14.6 7 18 C14.26 18 21.52 18 29 18 C29 20.31 29 22.62 29 25 C21.74 25 14.48 25 7 25 C7 28.96 7 32.92 7 37 C14.92 37 22.84 37 31 37 C31 38.98 31 40.96 31 43 C20.77 43 10.54 43 0 43 C0 28.81 0 14.62 0 0 Z " fill="#6E6F73" transform="translate(1065,490)"/>
<path d="M0 0 C9.57 0 19.14 0 29 0 C29 2.64 29 5.28 29 8 C21.74 8 14.48 8 7 8 C7 11.3 7 14.6 7 18 C13.93 18 20.86 18 28 18 C28 20.31 28 22.62 28 25 C21.07 25 14.14 25 7 25 C7 28.96 7 32.92 7 37 C14.59 37 22.18 37 30 37 C30 38.98 30 40.96 30 43 C20.1 43 10.2 43 0 43 C0 28.81 0 14.62 0 0 Z " fill="#6E6F72" transform="translate(1728,490)"/>
<path d="M0 0 C9.57 0 19.14 0 29 0 C29 2.64 29 5.28 29 8 C21.74 8 14.48 8 7 8 C7 11.3 7 14.6 7 18 C13.6 18 20.2 18 27 18 C27 20.31 27 22.62 27 25 C20.4 25 13.8 25 7 25 C7 28.96 7 32.92 7 37 C14.59 37 22.18 37 30 37 C30 38.98 30 40.96 30 43 C20.1 43 10.2 43 0 43 C0 28.81 0 14.62 0 0 Z " fill="#6D6F72" transform="translate(1558,490)"/>
<path d="M0 0 C3.3125 -0.25 3.3125 -0.25 7 0 C9.98781344 3.06288413 11.27802488 6.81024571 12.8125 10.75 C13.06676758 11.39888184 13.32103516 12.04776367 13.58300781 12.71630859 C16.01963828 18.96634048 18.36929762 25.25004578 20.703125 31.5390625 C21.4874129 33.63207178 22.30192599 35.71455817 23.171875 37.7734375 C24 40 24 40 24 43 C21.36 43 18.72 43 16 43 C14.68 39.7 13.36 36.4 12 33 C6.72 32.67 1.44 32.34 -4 32 C-4.99 35.63 -5.98 39.26 -7 43 C-9.97 43 -12.94 43 -16 43 C-14.44395824 38.23131898 -12.74435402 33.52849785 -10.99609375 28.828125 C-10.71274673 28.06449646 -10.42939972 27.30086792 -10.13746643 26.51409912 C-9.54209315 24.91041898 -8.94621378 23.30692665 -8.34985352 21.70361328 C-7.43541894 19.24440336 -6.52327793 16.78435102 -5.61132812 14.32421875 C-5.03138735 12.76296981 -4.45131391 11.20177014 -3.87109375 9.640625 C-3.59817001 8.90418762 -3.32524628 8.16775024 -3.04405212 7.40899658 C-1.11485713 2.22971426 -1.11485713 2.22971426 0 0 Z M3 11 C2.32739649 12.76858691 1.66211605 14.53996016 1 16.3125 C0.62875 17.29863281 0.2575 18.28476562 -0.125 19.30078125 C-1.15418502 22.00271656 -1.15418502 22.00271656 -1 25 C2.3 25 5.6 25 9 25 C8.34 22.03 7.68 19.06 7 16 C6.34 16 5.68 16 5 16 C4.67 14.35 4.34 12.7 4 11 C3.67 11 3.34 11 3 11 Z " fill="#6D6D70" transform="translate(1195,490)"/>
<path d="M0 0 C2.31 0 4.62 0 7 0 C10.96816616 7.40825763 14.0876307 15.06148346 17.02197266 22.92480469 C17.75741499 24.89486283 18.50111554 26.86165539 19.24609375 28.828125 C23.16614649 39.23387649 23.16614649 39.23387649 24 43 C21.36 43 18.72 43 16 43 C15.32880451 41.5437455 14.66318193 40.08492133 14 38.625 C13.62875 37.81289063 13.2575 37.00078125 12.875 36.1640625 C12 34 12 34 12 32 C4.08 32.495 4.08 32.495 -4 33 C-5.98 37.95 -5.98 37.95 -8 43 C-10.31 43 -12.62 43 -15 43 C-14.42944307 38.01260036 -13.33908884 33.66976235 -11.6015625 28.96484375 C-11.36593597 28.32309708 -11.13030945 27.6813504 -10.88754272 27.02015686 C-10.39152779 25.67360093 -9.89218365 24.32826703 -9.38964844 22.98413086 C-8.62674182 20.9421621 -7.87506207 18.89632652 -7.125 16.84960938 C-4.99476805 11.08517628 -2.8366356 5.46397715 0 0 Z M3 11 C1.35 15.62 -0.3 20.24 -2 25 C1.63 25 5.26 25 9 25 C8.319375 22.64875 8.319375 22.64875 7.625 20.25 C7.36976562 19.36828125 7.11453125 18.4865625 6.8515625 17.578125 C6.0790066 15.23919428 5.16374324 13.16557438 4 11 C3.67 11 3.34 11 3 11 Z " fill="#6C6D70" transform="translate(1364,490)"/>
<path d="M0 0 C4.82380802 -0.0246519 9.64757967 -0.04283693 14.47143555 -0.05493164 C16.11369464 -0.05997174 17.75594923 -0.06680378 19.39819336 -0.07543945 C21.75375479 -0.08751926 24.10925709 -0.09323139 26.46484375 -0.09765625 C27.20339096 -0.10281754 27.94193817 -0.10797882 28.7028656 -0.11329651 C30.46898088 -0.1134925 32.23497146 -0.06194719 34 0 C35 1 35 1 35.09765625 2.84765625 C35.06510417 4.8984375 35.03255208 6.94921875 35 9 C31.04 9 27.08 9 23 9 C23 20.22 23 31.44 23 43 C19.37 43 15.74 43 12 43 C12 31.78 12 20.56 12 9 C8.04 9 4.08 9 0 9 C0 6.03 0 3.06 0 0 Z " fill="#6E6F73" transform="translate(876,490)"/>
<path d="M0 0 C1.98 0 3.96 0 6 0 C6.01981934 0.8470752 6.03963867 1.69415039 6.06005859 2.56689453 C6.13849595 5.73169002 6.22520049 8.8961242 6.31738281 12.06054688 C6.35549202 13.42601921 6.39037536 14.79158577 6.421875 16.15722656 C6.46791878 18.12847607 6.52681049 20.09941204 6.5859375 22.0703125 C6.6173584 23.25383301 6.6487793 24.43735352 6.68115234 25.65673828 C7.0070572 29.07399788 7.67755052 31.83634364 9 35 C11.31433022 36.15716511 12.86060812 36.23210436 15.4375 36.3125 C16.21996094 36.34988281 17.00242187 36.38726563 17.80859375 36.42578125 C20.10031096 36.18847211 20.10031096 36.18847211 21.60498047 34.43530273 C23.52195665 31.08881386 23.43544416 28.45361453 23.51171875 24.609375 C23.52966995 23.90476135 23.54762115 23.20014771 23.56611633 22.47418213 C23.62011858 20.23284821 23.65408088 17.99172595 23.6875 15.75 C23.72068218 14.22653311 23.75517269 12.70309411 23.79101562 11.1796875 C23.87583738 7.4533284 23.94269724 3.72689537 24 0 C26.31 0 28.62 0 31 0 C31.07457894 4.57149757 31.12880276 9.14263509 31.16479492 13.71459961 C31.17981105 15.2673968 31.20023028 16.82015209 31.22631836 18.37280273 C31.26302073 20.61452624 31.27979787 22.85568539 31.29296875 25.09765625 C31.30845261 25.78336197 31.32393646 26.46906769 31.33988953 27.17555237 C31.34162871 32.24247926 30.27713513 35.57340985 28 40 C23.23052163 44.47138598 18.18806914 44.28623876 11.953125 44.2109375 C8.24337503 43.94595536 5.96058602 43.27737386 3 41 C0.02828999 36.26781932 -0.4079351 32.21226465 -0.29296875 26.7578125 C-0.28872391 25.98944061 -0.28447906 25.22106873 -0.28010559 24.42941284 C-0.26341826 21.99424015 -0.22578641 19.5599192 -0.1875 17.125 C-0.17244023 15.46615785 -0.15875409 13.80730263 -0.14648438 12.1484375 C-0.11354759 8.0986341 -0.06183594 4.04946106 0 0 Z " fill="#6E6F71" transform="translate(1432,490)"/>
<path d="M0 0 C1.4540625 0.0309375 1.4540625 0.0309375 2.9375 0.0625 C5.79259725 6.69780982 8.06657932 13.42799182 10.09838867 20.3515625 C11.34533778 24.5077173 12.95742098 28.21043898 14.9375 32.0625 C15.23519287 31.16418457 15.53288574 30.26586914 15.83959961 29.34033203 C16.94354024 26.01148 18.04882497 22.68308061 19.1550293 19.35498047 C19.63376067 17.9137539 20.11195368 16.47234838 20.58959961 15.03076172 C21.27576913 12.96014008 21.96386455 10.89016715 22.65234375 8.8203125 C23.06605225 7.5739502 23.47976074 6.32758789 23.90600586 5.04345703 C24.9375 2.0625 24.9375 2.0625 25.9375 0.0625 C27.9175 0.0625 29.8975 0.0625 31.9375 0.0625 C31.42390182 6.26027288 30.36259594 11.55925978 28.21484375 17.37890625 C27.94990616 18.12083725 27.68496857 18.86276825 27.41200256 19.62718201 C26.575481 21.9631991 25.7255358 24.29405389 24.875 26.625 C24.30053173 28.22168148 23.72695591 29.81868436 23.15429688 31.41601562 C21.75897227 35.30196336 20.35159899 39.18334696 18.9375 43.0625 C15.9675 43.0625 12.9975 43.0625 9.9375 43.0625 C8.1000648 37.88621302 6.26710546 32.70837109 4.43823242 27.52905273 C3.81575589 25.76820382 3.19206954 24.00778209 2.56713867 22.24780273 C1.66785552 19.71449991 0.77296852 17.17968062 -0.12109375 14.64453125 C-0.4002916 13.86100784 -0.67948944 13.07748444 -0.96714783 12.2702179 C-3.59578983 4.79034186 -3.59578983 4.79034186 -4.0625 1.0625 C-3.0625 0.0625 -3.0625 0.0625 0 0 Z " fill="#6B6B6E" transform="translate(1522.0625,489.9375)"/>
<path d="M0 0 C11.22 0 22.44 0 34 0 C34 2.64 34 5.28 34 8 C29.71 8 25.42 8 21 8 C21 19.55 21 31.1 21 43 C18.36 43 15.72 43 13 43 C13 31.45 13 19.9 13 8 C8.71 8 4.42 8 0 8 C0 5.36 0 2.72 0 0 Z " fill="#666769" transform="translate(1027,490)"/>
<path d="M0 0 C0.71353638 0.00202423 1.42707275 0.00404846 2.16223145 0.00613403 C2.89091431 0.00517731 3.61959717 0.00422058 4.37036133 0.00323486 C5.91377855 0.00255318 7.45719861 0.00440666 9.00061035 0.00857544 C11.37095544 0.01392391 13.74111104 0.00863011 16.1114502 0.00222778 C17.60754437 0.00288857 19.10363842 0.00416973 20.59973145 0.00613403 C21.31326782 0.0041098 22.0268042 0.00208557 22.76196289 0 C27.76602953 0.02399462 27.76602953 0.02399462 28.88098145 1.13894653 C28.88098145 3.44894653 28.88098145 5.75894653 28.88098145 8.13894653 C24.26098145 8.13894653 19.64098145 8.13894653 14.88098145 8.13894653 C14.88098145 19.68894653 14.88098145 31.23894653 14.88098145 43.13894653 C12.57098145 43.13894653 10.26098145 43.13894653 7.88098145 43.13894653 C7.88098145 31.58894653 7.88098145 20.03894653 7.88098145 8.13894653 C3.26098145 8.13894653 -1.35901855 8.13894653 -6.11901855 8.13894653 C-6.11901855 0.02934084 -6.11901855 0.02934084 0 0 Z " fill="#6D6E70" transform="translate(1220.1190185546875,489.8610534667969)"/>
<path d="M0 0 C1.02787125 0.00212242 1.02787125 0.00212242 2.07650757 0.00428772 C4.26719511 0.0098895 6.4577808 0.02244219 8.6484375 0.03515625 C10.13281102 0.04017103 11.61718615 0.04473397 13.1015625 0.04882812 C16.74222065 0.05985948 20.38281914 0.07712526 24.0234375 0.09765625 C24.0234375 2.73765625 24.0234375 5.37765625 24.0234375 8.09765625 C19.7334375 8.09765625 15.4434375 8.09765625 11.0234375 8.09765625 C11.0234375 19.64765625 11.0234375 31.19765625 11.0234375 43.09765625 C8.7134375 43.09765625 6.4034375 43.09765625 4.0234375 43.09765625 C4.0234375 31.54765625 4.0234375 19.99765625 4.0234375 8.09765625 C0.0634375 8.09765625 -3.8965625 8.09765625 -7.9765625 8.09765625 C-8.3065625 5.78765625 -8.6365625 3.47765625 -8.9765625 1.09765625 C-6.00296801 -0.389141 -3.31357071 -0.0134698 0 0 Z " fill="#6B6C70" transform="translate(1685.9765625,489.90234375)"/>
<path d="M0 0 C3 0.125 3 0.125 4 1.125 C4.08855161 3.7912603 4.11524673 6.43147114 4.09765625 9.09765625 C4.0962413 9.89529892 4.09482635 10.69294159 4.09336853 11.51475525 C4.08775316 14.07237435 4.07519812 16.62990718 4.0625 19.1875 C4.05748698 20.91731645 4.05292373 22.64713426 4.04882812 24.37695312 C4.03862791 28.62636239 4.01905568 32.87558416 4 37.125 C10.6 37.125 17.2 37.125 24 37.125 C24 39.105 24 41.085 24 43.125 C14.76 43.125 5.52 43.125 -4 43.125 C-4.02290595 37.1618177 -4.04283396 31.19878689 -4.05493164 25.2355957 C-4.05997278 23.20531702 -4.06680557 21.17504198 -4.07543945 19.14477539 C-4.08751467 16.23322653 -4.09323034 13.3217255 -4.09765625 10.41015625 C-4.10281754 9.4966188 -4.10797882 8.58308136 -4.11329651 7.64186096 C-4.11349168 5.46924573 -4.06211805 3.29672704 -4 1.125 C-3 0.125 -3 0.125 0 0 Z " fill="#6D6E73" transform="translate(1394,489.875)"/>
<path d="M0 0 C6.93 0 13.86 0 21 0 C21 6.6 21 13.2 21 20 C14.07 20 7.14 20 0 20 C0 13.4 0 6.8 0 0 Z " fill="#6F7074" transform="translate(1185,306)"/>
<path d="M0 0 C6.27 0 12.54 0 19 0 C19 6.6 19 13.2 19 20 C12.73 20 6.46 20 0 20 C0 13.4 0 6.8 0 0 Z " fill="#717274" transform="translate(1785,306)"/>
<path d="M0 0 C6.6 0 13.2 0 20 0 C20 6.27 20 12.54 20 19 C13.4 19 6.8 19 0 19 C0 12.73 0 6.46 0 0 Z " fill="#717275" transform="translate(1123,171)"/>
<path d="M0 0 C6.6 0 13.2 0 20 0 C20 6.27 20 12.54 20 19 C13.4 19 6.8 19 0 19 C0 12.73 0 6.46 0 0 Z " fill="#717275" transform="translate(816,171)"/>
<path d="M0 0 C3 0.125 3 0.125 4 1.125 C4.08874135 4.22751201 4.11518455 7.3076812 4.09765625 10.41015625 C4.0962413 11.34097519 4.09482635 12.27179413 4.09336853 13.2308197 C4.08775172 16.21641191 4.0751964 19.20193029 4.0625 22.1875 C4.05748716 24.20637913 4.05292388 26.22525943 4.04882812 28.24414062 C4.03777683 33.20445572 4.02050095 38.16471532 4 43.125 C1.36 43.125 -1.28 43.125 -4 43.125 C-4.02464574 37.16186834 -4.042834 31.19876605 -4.05493164 25.2355957 C-4.05997278 23.20531702 -4.06680557 21.17504198 -4.07543945 19.14477539 C-4.08751467 16.23322653 -4.09323034 13.3217255 -4.09765625 10.41015625 C-4.10281754 9.4966188 -4.10797882 8.58308136 -4.11329651 7.64186096 C-4.11349168 5.46924573 -4.06211805 3.29672704 -4 1.125 C-3 0.125 -3 0.125 0 0 Z " fill="#6E6F72" transform="translate(1512,489.875)"/>
<path d="M0 0 C2.31 0 4.62 0 7 0 C7 14.19 7 28.38 7 43 C4.69 43 2.38 43 0 43 C0 28.81 0 14.62 0 0 Z " fill="#6F7073" transform="translate(1667,490)"/>
<path d="M0 0 C2.31 0 4.62 0 7 0 C7 14.19 7 28.38 7 43 C4.69 43 2.38 43 0 43 C0 28.81 0 14.62 0 0 Z " fill="#707073" transform="translate(1253,490)"/>
<path d="M0 0 C1.98 0 3.96 0 6 0 C7 1 7 1 7.11352539 4.96899414 C7.1133662 6.74105607 7.10766785 8.5131226 7.09765625 10.28515625 C7.0962413 11.21597519 7.09482635 12.14679413 7.09336853 13.1058197 C7.08775172 16.09141191 7.0751964 19.07693029 7.0625 22.0625 C7.05748716 24.08137913 7.05292388 26.10025943 7.04882812 28.11914062 C7.03777683 33.07945572 7.02050095 38.03971532 7 43 C4.69 43 2.38 43 0 43 C0 28.81 0 14.62 0 0 Z " fill="#6F6F74" transform="translate(975,490)"/>
<path d="M0 0 C1.98 0 3.96 0 6 0 C6 14.19 6 28.38 6 43 C4.02 43 2.04 43 0 43 C0 28.81 0 14.62 0 0 Z " fill="#707173" transform="translate(1714,490)"/>
<path d="M0 0 C1.1125264 0.00888245 2.2250528 0.01776489 3.37129211 0.0269165 C4.63237289 0.02721863 5.89345367 0.02752075 7.19274902 0.02783203 C8.56908294 0.04825861 9.94541043 0.06912259 11.32173157 0.09039307 C12.72991127 0.09785458 14.13810136 0.10354794 15.54629517 0.10754395 C19.25046011 0.12280768 22.95399643 0.16209471 26.65791321 0.20635986 C30.43834428 0.24729731 34.21887705 0.26555162 37.99946594 0.28570557 C45.41576798 0.32858924 52.83155228 0.39684827 60.24751282 0.48101807 C60.24751282 0.81101807 60.24751282 1.14101807 60.24751282 1.48101807 C59.12451027 1.47982468 59.12451027 1.47982468 57.9788208 1.47860718 C50.90216813 1.47639378 43.82633241 1.50293801 36.7499609 1.56129646 C33.11233451 1.59029459 29.47534975 1.60840706 25.83760071 1.60113525 C22.32281011 1.59451822 18.80928471 1.61715764 15.29475594 1.6595726 C13.3102368 1.67603704 11.32554216 1.66267526 9.34100342 1.64877319 C1.48555938 1.7176406 1.48555938 1.7176406 -5.12919617 5.53131104 C-5.9948822 6.50471436 -6.86056824 7.47811768 -7.75248718 8.48101807 C-4.15173269 0.72554686 -4.15173269 0.72554686 0 0 Z " fill="#009C89" transform="translate(388.7524871826172,363.51898193359375)"/>
<path d="M0 0 C0.99 0.33 1.98 0.66 3 1 C0.36 3.64 -2.28 6.28 -5 9 C-5 4.61031544 -2.87194899 3.23094261 0 0 Z " fill="#575A5B" transform="translate(1054,202)"/>
<path d="M0 0 C0.66 0 1.32 0 2 0 C0.50902342 3.7952131 -1.75700849 5.61042731 -5 8 C-3.63055898 5.05043472 -2.12169591 2.47531189 0 0 Z " fill="#008C76" transform="translate(386,364)"/>
</svg>
