<?xml version="1.0" encoding="UTF-8"?>
<svg version="1.1" xmlns="http://www.w3.org/2000/svg" width="1875" height="524">
<path d="M0 0 C618.75 0 1237.5 0 1875 0 C1875 172.92 1875 345.84 1875 524 C1256.25 524 637.5 524 0 524 C0 351.08 0 178.16 0 0 Z " fill="#D9261C" transform="translate(0,0)"/>
<path d="M0 0 C1.03427999 -0.00339833 1.03427999 -0.00339833 2.08945453 -0.00686532 C4.41861094 -0.013235 6.74770958 -0.01237396 9.07687378 -0.0115509 C10.74098791 -0.01454134 12.40510135 -0.0179436 14.06921387 -0.02172852 C18.61241723 -0.030604 23.15560177 -0.03290866 27.69881296 -0.0335443 C30.54923987 -0.03425506 33.39966201 -0.0363903 36.25008774 -0.03904152 C46.23206636 -0.04832032 56.21403161 -0.05237496 66.1960144 -0.05158997 C75.43002453 -0.05099477 84.66397518 -0.06142894 93.89797032 -0.07733363 C101.86359237 -0.09055302 109.8291954 -0.09576763 117.7948283 -0.09513456 C122.53373283 -0.0948829 127.27258502 -0.09754307 132.01147842 -0.10831261 C240.17046614 -0.33642848 240.17046614 -0.33642848 273.9357605 30.36418152 C289.49958607 46.16622891 293.13519153 67.09718666 293.02609253 88.41764832 C292.07744389 126.8084266 282.80225176 166.88354565 254.56466675 194.34855652 C219.781085 226.39345032 169.09270487 235.87458203 123.4826355 239.13371277 C122.68599487 239.19155945 121.88935425 239.24940613 121.068573 239.30900574 C95.96032185 241.03161987 70.59300333 240.48578588 45.4826355 239.13371277 C45.24754272 240.25253342 45.01244995 241.37135406 44.77023315 242.52407837 C42.14872796 254.9924269 39.50733645 267.45648511 36.8576355 279.91886902 C36.64564514 280.9160388 36.43365479 281.91320858 36.21524048 282.94059563 C35.09562366 288.20692249 33.97575294 293.47319529 32.85568237 298.73942566 C31.71206435 304.11664921 30.56939935 309.49407482 29.42694092 314.87154484 C28.53519295 319.06802999 27.64270566 323.26435767 26.75003052 327.46064568 C26.32881168 329.44133598 25.90786303 331.42208376 25.48721313 333.40289497 C24.16076507 339.64832296 22.82637406 345.89198218 21.4826355 352.13371277 C21.29390869 353.01312908 21.10518188 353.89254539 20.91073608 354.79861069 C20.36340634 357.34150751 19.81067399 359.88316461 19.256073 362.42448425 C19.09144562 363.19147424 18.92681824 363.95846422 18.75720215 364.74869633 C17.59761578 370.01873248 17.59761578 370.01873248 16.4826355 371.13371277 C13.34703664 371.22906235 10.23349937 371.25922156 7.09762573 371.24723816 C5.61974075 371.2474572 5.61974075 371.2474572 4.11199951 371.24768066 C0.83838743 371.24698109 -2.43516854 371.23918662 -5.70877075 371.23136902 C-7.97178618 371.229505 -10.23480202 371.22808102 -12.49781799 371.2270813 C-18.46715398 371.22325487 -24.43646582 371.21342352 -30.40579224 371.20237732 C-36.49180779 371.19216588 -42.57782723 371.18758425 -48.66384888 371.18254089 C-60.61503139 371.17180136 -72.56619594 371.15472345 -84.5173645 371.13371277 C-83.98480518 364.88344589 -83.18937549 358.80931704 -81.87625122 352.67668152 C-81.71061645 351.88229549 -81.54498167 351.08790947 -81.37432766 350.26945114 C-80.82028772 347.61895092 -80.25870383 344.9701096 -79.697052 342.32121277 C-79.29047754 340.38487943 -78.88433783 338.44845476 -78.47859192 336.51194763 C-77.35994048 331.18028349 -76.23441917 325.85008977 -75.10762405 320.5201416 C-74.1403508 315.94054243 -73.17706325 311.36010843 -72.21371555 306.77968216 C-62.41341169 260.18683005 -52.51027129 213.6155037 -42.60542607 167.04478204 C-41.12658224 160.09141037 -39.64805304 153.1379718 -38.16970825 146.18449402 C-38.00829424 145.42529639 -37.84688024 144.66609877 -37.68057489 143.88389516 C-33.05618526 122.13222609 -28.45425397 100.37594984 -23.87921119 78.61384821 C-23.18971411 75.33451487 -22.49978512 72.05527243 -21.80992126 68.77601624 C-19.50910206 57.83723168 -17.21005405 46.89809044 -14.91984081 35.95707989 C-14.01203254 31.62363428 -13.10129709 27.2908077 -12.18978691 22.95813942 C-11.77158247 20.96679974 -11.35473227 18.97517512 -10.9393177 16.98325157 C-10.37968618 14.3001783 -9.81556374 11.61808901 -9.25027466 8.936203 C-9.08742761 8.14957401 -8.92458055 7.36294502 -8.75679874 6.55247879 C-7.33038552 -0.17117334 -6.81859784 0.00920077 0 0 Z " fill="#FFFFFF" transform="translate(1439.5173645019531,76.86628723144531)"/>
<path d="M0 0 C13.6088005 13.07599265 21.2520662 29.53690359 22.16796875 48.47265625 C22.23986718 61.68758689 20.21547209 73.13811163 17 86 C-16.99 86 -50.98 86 -86 86 C-85.67 80.39 -85.34 74.78 -85 69 C-85.77340411 64.95100201 -86.27711262 62.5100616 -88 59 C-88.34546875 58.29617187 -88.6909375 57.59234375 -89.046875 56.8671875 C-93.89832212 48.99107274 -103.6108181 44.97603903 -112.3203125 42.828125 C-132.84083013 38.67311719 -152.65804673 43.55671659 -170.21484375 54.36328125 C-176.23731709 58.83071771 -179.86672937 66.44643669 -181.6484375 73.60546875 C-182.8403366 81.72362595 -182.08446709 88.97346104 -177.734375 96.0625 C-170.58443295 105.30686952 -159.39948636 109.78646594 -148.625 113.33984375 C-147.27038162 113.78831665 -147.27038162 113.78831665 -145.88839722 114.24584961 C-134.45935294 117.93612317 -122.79565851 120.6946025 -111.125 123.5 C-67.32186103 134.06341661 -67.32186103 134.06341661 -50.75 141.5 C-49.88777832 141.87962891 -49.02555664 142.25925781 -48.13720703 142.65039062 C-41.68877752 145.55212294 -35.68354485 148.76502097 -30 153 C-29.0821875 153.66386719 -28.164375 154.32773438 -27.21875 155.01171875 C-11.58959792 166.96973758 -4.72686539 182.42701228 -1.59765625 201.4453125 C2.10821034 231.39683696 -3.5000268 266.61163887 -22 291 C-35.35127467 307.59187532 -53.34596013 319.18095837 -72 329 C-72.68707031 329.36593262 -73.37414063 329.73186523 -74.08203125 330.10888672 C-131.90325849 360.48112227 -206.83608806 365.78445432 -268.94921875 346.6953125 C-292.02384888 339.19417578 -311.4717214 327.13313764 -323.1875 305.3125 C-329.58319684 292.07648568 -331.18697446 278.11479906 -331.18530273 263.5690918 C-331.18746952 261.46707284 -331.20561087 259.36559697 -331.22460938 257.26367188 C-331.26129844 248.37747648 -330.78916794 239.74089114 -329 231 C-327.04634694 229.04634694 -324.06600248 229.87977876 -321.46598816 229.87557983 C-320.05474419 229.88097275 -320.05474419 229.88097275 -318.61499023 229.88647461 C-317.13710526 229.88625557 -317.13710526 229.88625557 -315.62936401 229.8860321 C-312.35575193 229.88673168 -309.08219596 229.89452615 -305.80859375 229.90234375 C-303.54557832 229.90420777 -301.28256249 229.90563175 -299.01954651 229.90663147 C-293.05021052 229.9104579 -287.08089868 229.92028925 -281.11157227 229.93133545 C-275.02555671 229.94154688 -268.93953727 229.94612851 -262.85351562 229.95117188 C-250.90233311 229.96191141 -238.95116856 229.97898932 -227 230 C-227.08451416 231.22323975 -227.16902832 232.44647949 -227.25610352 233.70678711 C-227.3599219 235.3344482 -227.46333465 236.9621352 -227.56640625 238.58984375 C-227.62300415 239.3933728 -227.67960205 240.19690186 -227.73791504 241.02478027 C-228.39111963 251.66849154 -226.15007345 260.86208746 -219 269 C-207.03349107 280.75282127 -190.23226711 284.05260457 -174 284 C-154.6496274 283.31510778 -135.63708669 278.08249452 -121.234375 264.57421875 C-113.96577427 256.2000791 -111.58946023 247.11646298 -111.734375 236.3203125 C-112.2893324 229.38334505 -114.82742196 224.79419267 -119.75 219.9375 C-128.26199871 212.95293988 -138.64159019 208.58364237 -149.01953125 205.1484375 C-149.78251526 204.89531799 -150.54549927 204.64219849 -151.331604 204.38140869 C-160.77218329 201.32792616 -170.39490158 198.97197508 -180.01541138 196.56307983 C-265.38799861 175.10293848 -265.38799861 175.10293848 -283.40454102 145.84887695 C-295.79705683 124.41752782 -296.17467188 99.87619333 -290.2265625 76.34765625 C-280.95006538 42.28575562 -259.75666885 13.81539601 -229.18457031 -3.78417969 C-168.21290722 -37.71789473 -55.68669042 -52.18988097 0 0 Z " fill="#FFFFFF" transform="translate(1320,100)"/>
<path d="M0 0 C92.73 0 185.46 0 281 0 C276.39664846 27.62010922 276.39664846 27.62010922 274.45703125 36.3359375 C274.13613777 37.80941147 274.13613777 37.80941147 273.8087616 39.31265259 C273.36886657 41.32704719 272.92623689 43.34084678 272.48071289 45.35400391 C271.79604716 48.44938341 271.12107997 51.5467731 270.44726562 54.64453125 C270.01356482 56.6251192 269.5793415 58.60559282 269.14453125 60.5859375 C268.84298882 61.96681046 268.84298882 61.96681046 268.53535461 63.37557983 C268.34813339 64.21891876 268.16091217 65.06225769 267.96801758 65.93115234 C267.80465408 66.67150726 267.64129059 67.41186218 267.47297668 68.1746521 C267 70 267 70 266 72 C206.93 72.33 147.86 72.66 87 73 C82.37960238 91.19430312 82.37960238 91.19430312 78.26171875 109.484375 C78.05061966 110.48414368 77.83952057 111.48391235 77.62202454 112.51397705 C76.9729773 115.59178592 76.32995451 118.67080907 75.6875 121.75 C75.02581649 124.90029907 74.36286862 128.05032918 73.69941711 131.20025635 C73.2929834 133.13206882 72.88779364 135.06414356 72.48405457 136.996521 C72.30328873 137.85972961 72.12252289 138.72293823 71.9362793 139.61230469 C71.77894821 140.36598328 71.62161713 141.11966187 71.45951843 141.8961792 C71.01311416 143.93995923 70.50737581 145.97049676 70 148 C151.675 148.495 151.675 148.495 235 149 C233.87501971 159.12482257 233.87501971 159.12482257 232.80078125 164.17480469 C232.56383545 165.29916931 232.32688965 166.42353394 232.08276367 167.58197021 C231.82857666 168.76663879 231.57438965 169.95130737 231.3125 171.171875 C231.04993408 172.41245667 230.78736816 173.65303833 230.5168457 174.93121338 C229.82327049 178.20467194 229.12602549 181.47730262 228.42687988 184.74957275 C227.71650345 188.07851009 227.01071537 191.40841942 226.3046875 194.73828125 C225.06323973 200.59144001 223.81791476 206.44375954 222.5690918 212.29534912 C222.02943178 214.86012327 221.51400761 217.42996196 221 220 C166.22 220 111.44 220 55 220 C54.34 223.3 53.68 226.6 53 230 C52.6042246 231.75560386 52.19812861 233.50897844 51.7734375 235.2578125 C48.00699474 251.04481726 44.75329359 266.90618857 41.62841797 282.83056641 C41.46117722 283.6800737 41.29393646 284.52958099 41.12162781 285.40483093 C40.80574956 287.01139769 40.49170219 288.61832585 40.17976379 290.22566223 C39.59072844 293.22475691 38.96776327 296.0967102 38 299 C97.4 299.33 156.8 299.66 218 300 C215.03 314.52 212.06 329.04 209 344 C206.69926575 355.58520913 206.69926575 355.58520913 204.4296875 367.17626953 C204 369 204 369 203 371 C109.94 371 16.88 371 -79 371 C-78.33845145 364.38451454 -77.56645222 358.18156483 -76.18774414 351.73486328 C-76.00445179 350.85694878 -75.82115944 349.97903427 -75.63231277 349.0745163 C-75.0215485 346.15538442 -74.40334163 343.23788105 -73.78515625 340.3203125 C-73.34208001 338.20984479 -72.89948158 336.09927672 -72.45732117 333.98861694 C-71.25163604 328.23975666 -70.03950983 322.49227169 -68.82615662 316.74502563 C-67.53525755 310.62566829 -66.24976854 304.50517476 -64.96386719 298.38476562 C-63.33512958 290.63407768 -61.70582069 282.88351151 -60.07394409 275.13348389 C-56.42450669 257.79966461 -52.79645614 240.46148675 -49.18312073 223.12010765 C-39.14180203 174.93107457 -29.08120989 126.74791208 -18.4375 78.6875 C-18.24933212 77.83727264 -18.06116425 76.98704529 -17.86729431 76.11105347 C-13.86418991 58.03014779 -9.78630753 39.96639681 -5.64274788 21.91715431 C-5.24047763 20.16423352 -4.83895105 18.41114189 -4.4382 16.65787315 C-3.88469308 14.23850424 -3.32777201 11.81994813 -2.76977539 9.40161133 C-2.60488932 8.67864931 -2.44000324 7.95568729 -2.27012062 7.21081734 C-1.11460968 2.22921936 -1.11460968 2.22921936 0 0 Z " fill="#FFFFFF" transform="translate(716,77)"/>
<path d="M0 0 C86.13 0 172.26 0 261 0 C260.32640619 6.06234425 259.53997396 11.87405009 258.328125 17.8203125 C258.16382996 18.64087128 257.99953491 19.46143005 257.83026123 20.30685425 C257.48241844 22.04006099 257.13271982 23.77289622 256.78125 25.50537109 C256.26132744 28.06914366 255.74731163 30.63404049 255.234375 33.19921875 C252.62318536 46.16614911 249.81060329 59.07122488 247 72 C167.8 72.495 167.8 72.495 87 73 C77.91188658 113.42127714 77.91188658 113.42127714 69.47387695 153.96777344 C69 156 69 156 68 158 C141.26 158.495 141.26 158.495 216 159 C214.87479355 170.25206451 214.87479355 170.25206451 213.92431641 174.65820312 C213.60861191 176.14024231 213.60861191 176.14024231 213.28652954 177.65222168 C212.94747086 179.2010907 212.94747086 179.2010907 212.6015625 180.78125 C212.24812271 182.42244812 212.24812271 182.42244812 211.88754272 184.09680176 C211.39091173 186.39665503 210.89157147 188.69592478 210.38964844 190.99462891 C209.62753338 194.48838625 208.87563298 197.98422861 208.125 201.48046875 C207.63862763 203.72669397 207.15166797 205.97279213 206.6640625 208.21875 C206.44207184 209.25132935 206.22008118 210.28390869 205.99136353 211.34777832 C205.77458954 212.33580444 205.55781555 213.32383057 205.33447266 214.34179688 C205.14873688 215.19543823 204.9630011 216.04907959 204.77163696 216.92858887 C203.66666523 221.32680027 202.30309101 225.65636329 201 230 C152.16 230 103.32 230 53 230 C52.67 232.64 52.34 235.28 52 238 C51.73684328 239.37827472 51.45031771 240.75276171 51.12025452 242.11656189 C50.95060999 242.8284284 50.78096546 243.54029491 50.60618019 244.27373314 C50.42297911 245.02507845 50.23977802 245.77642376 50.05102539 246.55053711 C49.64792668 248.24167297 49.2451452 249.93288447 48.84263611 251.62416077 C48.62989485 252.51229021 48.41715359 253.40041965 48.19796562 254.31546211 C44.22458029 270.94722346 40.52888452 287.62231527 37.12109375 304.37890625 C36.92645161 305.33552532 36.73180946 306.29214439 36.53126907 307.27775192 C35.35666492 313.06031131 34.19055011 318.84455719 33.02752686 324.62945557 C31.44049908 332.51862695 29.84403105 340.40588644 28.24476814 348.29258537 C27.69413627 351.01429579 27.14741443 353.73676975 26.60118103 356.45936584 C26.26996872 358.09866766 25.93864106 359.73794618 25.60717773 361.37719727 C25.38366638 362.49937653 25.38366638 362.49937653 25.15563965 363.64422607 C24.11360808 368.77278385 24.11360808 368.77278385 23 371 C-10.99 371 -44.98 371 -80 371 C-78.40671875 363.47058594 -76.8134375 355.94117188 -75.171875 348.18359375 C-70.22208875 324.78719891 -65.28050321 301.3890825 -60.34448051 277.98978043 C-58.90392102 271.1610667 -57.46262781 264.33250824 -56.02083397 257.50405502 C-50.95282055 233.50132793 -45.8912245 209.49731147 -40.85683632 185.48750687 C-31.39199207 140.35644898 -21.83369885 95.24969728 -11.88550568 50.22234344 C-11.19248961 47.08508775 -10.50046551 43.9476144 -9.80853271 40.81011963 C-8.73563316 35.94805044 -7.6587343 31.08688468 -6.57828331 26.22648811 C-6.18480557 24.45507061 -5.79227445 22.68344253 -5.40076637 20.91158867 C-4.86692162 18.49771921 -4.32897039 16.08480267 -3.78979492 13.67211914 C-3.56014573 12.62844398 -3.56014573 12.62844398 -3.32585716 11.56368446 C-2.42953147 7.57855086 -1.30078563 3.9023569 0 0 Z " fill="#FFFFFF" transform="translate(230,77)"/>
<path d="M0 0 C33.33 0 66.66 0 101 0 C100.39435377 4.84516984 99.79806764 9.36265503 98.79516602 14.09036255 C98.5523118 15.24316302 98.30945759 16.3959635 98.05924416 17.58369732 C97.79348265 18.82854302 97.52772114 20.07338873 97.25390625 21.35595703 C96.96838615 22.70505516 96.68315907 24.05421534 96.39819908 25.40343189 C95.6203996 29.08200498 94.83849471 32.75969479 94.05588484 36.43724704 C93.21897127 40.37355105 92.38591026 44.31067041 91.55239868 48.24769592 C90.12035483 55.00928708 88.68592479 61.77036831 87.24981689 68.53109741 C85.17701858 78.2891775 83.10780713 88.04801539 81.03954911 97.80705869 C77.99065573 112.19297168 74.93972513 126.57845137 71.88708282 140.96356928 C67.89014812 159.79867905 63.89985717 178.63518627 59.9140625 197.47265625 C52.04322034 234.6672462 44.16811781 271.86090368 36.23828125 309.04296875 C36.02697256 310.03377253 35.81566387 311.0245763 35.59795189 312.04540443 C31.40583725 331.69847612 27.20149139 351.34893002 23 371 C-10.66 371 -44.32 371 -79 371 C-76.75018068 356.37617444 -76.75018068 356.37617444 -75.36206055 349.7734375 C-75.20970129 349.04389421 -75.05734203 348.31435093 -74.90036583 347.56270027 C-74.39904191 345.1661111 -73.89287529 342.77057274 -73.38671875 340.375 C-73.02135886 338.63262607 -72.65633275 336.89018212 -72.29161072 335.14767456 C-71.30183613 330.42280496 -70.30798848 325.69880059 -69.31342316 320.97493744 C-67.58594116 312.76442338 -65.86641455 304.55223568 -64.14513397 296.34041977 C-63.46663429 293.10408876 -62.78767899 289.86785355 -62.10870361 286.63162231 C-58.98479899 271.73588097 -55.8887626 256.83452887 -52.80859375 241.9296875 C-39.39653998 177.05168854 -25.95955753 112.16064486 -11.125 47.58984375 C-10.9478949 46.81893465 -10.77078979 46.04802555 -10.58831787 45.25375557 C-7.11448461 30.15609357 -3.54648138 15.08083203 0 0 Z " fill="#FFFFFF" transform="translate(543,77)"/>
<path d="M0 0 C6.85425823 7.3131207 9.02183101 14.91066851 9.07421875 24.90625 C8.18148102 41.71666993 3.64263544 56.41081836 -8.9453125 68.1796875 C-30.66554781 85.29468305 -61.33134001 85.35761941 -87.6953125 85.3671875 C-88.42810425 85.36818451 -89.160896 85.36918152 -89.91589355 85.37020874 C-97.97726179 85.36896561 -105.93826488 85.17875441 -113.9453125 84.1796875 C-113.42180022 76.91292643 -112.44485305 69.91870784 -110.90625 62.80078125 C-110.70443619 61.84181442 -110.50262238 60.8828476 -110.29469299 59.89482117 C-109.64236276 56.80101759 -108.98144255 53.70912132 -108.3203125 50.6171875 C-107.86726915 48.47718845 -107.41488194 46.33705039 -106.96313477 44.19677734 C-106.28090887 40.96495463 -105.59824236 37.73323316 -104.91316223 34.50201416 C-103.50385307 27.85147336 -102.11858809 21.19658934 -100.76171875 14.53515625 C-100.51687744 13.33453804 -100.51687744 13.33453804 -100.26708984 12.10966492 C-99.65670635 9.11385918 -99.04704313 6.11791893 -98.4418335 3.12106323 C-98.03784365 1.12188848 -97.63035391 -0.8765781 -97.22265625 -2.875 C-96.88609009 -4.53764893 -96.88609009 -4.53764893 -96.54272461 -6.23388672 C-95.9453125 -8.8203125 -95.9453125 -8.8203125 -94.9453125 -10.8203125 C-14.83596116 -13.88264639 -14.83596116 -13.88264639 0 0 Z " fill="#D9261C" transform="translate(1614.9453125,159.8203125)"/>
<path d="M0 0 C36.3 0 72.6 0 110 0 C110 4.29 110 8.58 110 13 C109 14 109 14 107.17465878 14.12304783 C105.97033624 14.12166514 105.97033624 14.12166514 104.74168396 14.12025452 C103.36390778 14.12231651 103.36390778 14.12231651 101.95829773 14.12442017 C100.43484489 14.11902725 100.43484489 14.11902725 98.88061523 14.11352539 C97.81733002 14.11367142 96.7540448 14.11381744 95.65853882 14.1139679 C92.12520342 14.11326825 88.59192 14.10547343 85.05859375 14.09765625 C82.61621632 14.09579225 80.17383851 14.09436827 77.73146057 14.09336853 C71.28865536 14.08954189 64.84587252 14.07971037 58.40307617 14.06866455 C51.83447574 14.05845356 45.2658717 14.05387158 38.69726562 14.04882812 C25.79816723 14.03808823 12.89908547 14.02101007 0 14 C0 9.38 0 4.76 0 0 Z " fill="#FFFFFF" transform="translate(0,347)"/>
<path d="M0 0 C36.3 0 72.6 0 110 0 C110 4.29 110 8.58 110 13 C106.46398143 13.70720371 103.89555156 14.12442581 100.41252136 14.12025452 C99.52216187 14.12162918 98.63180237 14.12300385 97.71446228 14.12442017 C96.75061111 14.12082489 95.78675995 14.11722961 94.79370117 14.11352539 C93.76884613 14.11367142 92.74399109 14.11381744 91.68807983 14.1139679 C88.30635448 14.11327218 84.92468446 14.1054957 81.54296875 14.09765625 C79.19598928 14.09579086 76.84900942 14.09436753 74.50202942 14.09336853 C68.32889732 14.08955289 62.1557888 14.07973071 55.98266602 14.06866455 C49.68180663 14.05842996 43.38094343 14.05386652 37.08007812 14.04882812 C24.72004173 14.03810761 12.36002283 14.0210426 0 14 C0 9.38 0 4.76 0 0 Z " fill="#FFFFFF" transform="translate(0,435)"/>
<path d="M0 0 C11.97974229 -0.0232923 23.95947908 -0.04100045 35.9392395 -0.05181217 C41.50344652 -0.05700435 47.06763791 -0.06403446 52.63183594 -0.07543945 C58.01351065 -0.0863998 63.39517044 -0.09230436 68.77685547 -0.09487724 C70.81787348 -0.09670802 72.85889078 -0.10028237 74.89990234 -0.10573006 C86.6460569 -0.13580102 98.28627973 0.07347362 110 1 C110 4.96 110 8.92 110 13 C106.46398143 13.70720371 103.89555156 14.12442581 100.41252136 14.12025452 C99.52216187 14.12162918 98.63180237 14.12300385 97.71446228 14.12442017 C96.75061111 14.12082489 95.78675995 14.11722961 94.79370117 14.11352539 C93.76884613 14.11367142 92.74399109 14.11381744 91.68807983 14.1139679 C88.30635448 14.11327218 84.92468446 14.1054957 81.54296875 14.09765625 C79.19598928 14.09579086 76.84900942 14.09436753 74.50202942 14.09336853 C68.32889732 14.08955289 62.1557888 14.07973071 55.98266602 14.06866455 C49.68180663 14.05842996 43.38094343 14.05386652 37.08007812 14.04882812 C24.72004173 14.03810761 12.36002283 14.0210426 0 14 C0 9.38 0 4.76 0 0 Z " fill="#FFFFFF" transform="translate(0,165)"/>
<path d="M0 0 C36.3 0 72.6 0 110 0 C110 4.29 110 8.58 110 13 C73.7 13 37.4 13 0 13 C0 8.71 0 4.42 0 0 Z " fill="#FFFFFF" transform="translate(0,256)"/>
<path d="M0 0 C36.3 0 72.6 0 110 0 C110 4.29 110 8.58 110 13 C73.7 13 37.4 13 0 13 C0 8.71 0 4.42 0 0 Z " fill="#FFFFFF" transform="translate(0,78)"/>
<path d="M0 0 C33 0 66 0 100 0 C100 4.62 100 9.24 100 14 C87.5522412 14.02315408 75.10448751 14.04093077 62.65671158 14.05181217 C56.87692759 14.05703427 51.09715833 14.06411976 45.31738281 14.07543945 C39.74124761 14.08629217 34.16512658 14.09228192 28.58898163 14.09487724 C26.45989509 14.09672718 24.33080934 14.10033954 22.20172882 14.10573006 C19.22333592 14.11297207 16.24500183 14.1139896 13.26660156 14.11352539 C11.94166687 14.1189183 11.94166687 14.1189183 10.58996582 14.12442017 C9.77670837 14.1230455 8.96345093 14.12167084 8.12554932 14.12025452 C7.42129948 14.12117631 6.71704964 14.1220981 5.99145889 14.12304783 C4 14 4 14 0 13 C0 8.71 0 4.42 0 0 Z " fill="#FFFFFF" transform="translate(1775,435)"/>
<path d="M0 0 C33 0 66 0 100 0 C100 4.62 100 9.24 100 14 C87.99520496 14.02318959 75.99041527 14.04094884 63.98560238 14.05181217 C58.41104782 14.05702651 52.83650861 14.06409786 47.26196289 14.07543945 C41.88032951 14.0863198 36.49871087 14.09228776 31.11706734 14.09487724 C29.06581961 14.09672221 27.01457266 14.10032495 24.96333122 14.10573006 C22.08613223 14.11300878 19.20899386 14.11398806 16.33178711 14.11352539 C15.48733536 14.11712067 14.64288361 14.12071594 13.77284241 14.12442017 C9.07552227 14.11626852 4.63336055 13.78299292 0 13 C0 8.71 0 4.42 0 0 Z " fill="#FFFFFF" transform="translate(1775,347)"/>
<path d="M0 0 C1.90813154 0.00186962 3.81626356 0.00329095 5.72439575 0.00428772 C10.69892752 0.00807008 15.67342918 0.01786279 20.64794922 0.0289917 C25.74315992 0.03929887 30.83837558 0.0438051 35.93359375 0.04882812 C45.89584642 0.05948975 55.85807694 0.07651346 65.8203125 0.09765625 C65.8203125 4.71765625 65.8203125 9.33765625 65.8203125 14.09765625 C53.3725537 14.12081033 40.92480001 14.13858702 28.47702408 14.14946842 C22.69724009 14.15469052 16.91747083 14.16177601 11.13769531 14.1730957 C5.56156011 14.18394842 -0.01456092 14.18993817 -5.59070587 14.19253349 C-7.71979241 14.19438343 -9.84887816 14.19799579 -11.97795868 14.20338631 C-14.95635158 14.21062832 -17.93468567 14.21164585 -20.91308594 14.21118164 C-22.23802063 14.21657455 -22.23802063 14.21657455 -23.58972168 14.22207642 C-24.40297913 14.22070175 -25.21623657 14.21932709 -26.05413818 14.21791077 C-26.75838802 14.21883256 -27.46263786 14.21975435 -28.18822861 14.22070408 C-30.1796875 14.09765625 -30.1796875 14.09765625 -34.1796875 13.09765625 C-34.1796875 9.13765625 -34.1796875 5.17765625 -34.1796875 1.09765625 C-22.75485486 0.11439936 -11.45847912 -0.03336686 0 0 Z " fill="#FFFFFF" transform="translate(1809.1796875,164.90234375)"/>
<path d="M0 0 C33 0 66 0 100 0 C100 4.29 100 8.58 100 13 C67 13 34 13 0 13 C0 8.71 0 4.42 0 0 Z " fill="#FFFFFF" transform="translate(1775,256)"/>
<path d="M0 0 C33 0 66 0 100 0 C100 4.29 100 8.58 100 13 C67 13 34 13 0 13 C0 8.71 0 4.42 0 0 Z " fill="#FFFFFF" transform="translate(1775,78)"/>
</svg>
