<?xml version="1.0" encoding="UTF-8"?>
<svg version="1.1" xmlns="http://www.w3.org/2000/svg" width="1200" height="800">
<path d="M0 0 C1.98772709 -0.00321839 3.97545394 -0.00658289 5.96318054 -0.01008606 C10.10932973 -0.01604468 14.25545816 -0.01792906 18.40161133 -0.01733398 C23.70870747 -0.01723192 29.01567114 -0.03094397 34.32273579 -0.04810619 C38.41912955 -0.05922569 42.51549111 -0.06125329 46.61189842 -0.06072426 C48.56907805 -0.06190214 50.52625857 -0.06631311 52.48342323 -0.07405663 C55.21601342 -0.08386629 57.94831323 -0.08097584 60.6809082 -0.07495117 C61.88497818 -0.08338043 61.88497818 -0.08338043 63.1133728 -0.09197998 C67.57333631 -0.06702448 71.32738549 0.25191049 75.44921875 2.16796875 C76.80831903 4.77145518 77.66527537 6.88605699 78.48828125 9.65625 C78.73325348 10.41319656 78.97822571 11.17014313 79.23062134 11.95002747 C79.99747126 14.34844246 80.72671594 16.75585982 81.44921875 19.16796875 C81.90721847 20.65934493 82.3652261 22.15071869 82.82324219 23.64208984 C84.20462229 28.19976254 85.5186131 32.77561548 86.82421875 37.35546875 C87.30519037 39.02988572 87.78623 40.70428316 88.26733398 42.37866211 C92.15257771 55.9458501 95.81429213 69.56673404 99.40283203 83.21533203 C101.17151544 89.91645378 102.99229975 96.60365282 104.80545044 103.29284668 C109.39870432 120.23922083 113.94069539 137.19886577 118.44921875 154.16796875 C121.30018055 147.40278663 123.61516685 140.63090217 125.5859375 133.5625 C125.86655029 132.57307907 126.14716309 131.58365814 126.4362793 130.56425476 C127.03287258 128.45853276 127.62709007 126.35213638 128.21908569 124.24511719 C129.15015015 120.93268407 130.08835707 117.62234877 131.02856445 114.3125 C133.07735936 107.09723474 135.11909208 99.8799815 137.15673828 92.66156006 C141.32610467 77.89373702 145.64708153 63.18467503 150.42276001 48.6003418 C150.88901732 47.17512304 151.35219009 45.74889046 151.81185913 44.3215332 C156.86075041 28.70227996 163.07277622 15.05037365 178.01171875 6.73046875 C189.67762621 1.53583826 201.90888461 0.99369831 214.484375 0.6015625 C215.77170029 0.56036285 217.05902557 0.51916321 218.38536072 0.47671509 C234.64966152 -0.00724702 250.92018086 0.01641962 267.19018555 0.03759766 C271.69079846 0.0434049 276.19135316 0.0399267 280.69196415 0.03402519 C284.20151718 0.03041872 287.71105623 0.03155668 291.22060966 0.03415298 C292.88275599 0.03481636 294.54490361 0.0340146 296.20704842 0.03167343 C298.50663808 0.02913355 300.80613049 0.03300134 303.10571289 0.03857422 C304.4075502 0.03936981 305.70938751 0.04016541 307.05067444 0.04098511 C310.44921875 0.16796875 310.44921875 0.16796875 315.44921875 1.16796875 C315.44921875 87.95796875 315.44921875 174.74796875 315.44921875 264.16796875 C283.76921875 264.16796875 252.08921875 264.16796875 219.44921875 264.16796875 C219.44921875 202.45796875 219.44921875 140.74796875 219.44921875 77.16796875 C218.78921875 77.16796875 218.12921875 77.16796875 217.44921875 77.16796875 C217.18818359 78.43769531 216.92714844 79.70742188 216.65820312 81.015625 C215.4738802 86.33237973 213.83202201 91.44354155 212.10546875 96.60546875 C211.43469878 98.63752123 210.76396452 100.6695855 210.09326172 102.70166016 C209.74342224 103.75621399 209.39358276 104.81076782 209.03314209 105.89727783 C202.68310788 125.05822628 196.53584426 144.25751224 190.80078125 163.61132812 C189.21250509 168.97116216 187.61153144 174.32719424 186.01171875 179.68359375 C179.47878173 201.54710278 179.47878173 201.54710278 173.0234375 223.43359375 C169.99475354 233.7695 166.9020236 244.06895829 163.51171875 254.29296875 C163.216604 255.18387207 162.92148926 256.07477539 162.61743164 256.99267578 C160.57840119 263.03878631 160.57840119 263.03878631 159.44921875 264.16796875 C150.95000263 265.51019822 142.39894499 265.29518345 133.8203125 265.265625 C132.2189183 265.26375678 130.61752352 265.26233478 129.01612854 265.26133728 C124.82899357 265.25754394 120.64189405 265.24774132 116.45477295 265.2366333 C112.17102538 265.22635027 107.88727201 265.22182498 103.60351562 265.21679688 C95.21873385 265.20611578 86.83398073 265.18907821 78.44921875 265.16796875 C72.94153112 247.50718143 67.500016 229.82965734 62.19921875 212.10546875 C61.55365413 209.95067623 60.90806435 207.79589125 60.26245117 205.64111328 C55.52375275 189.81332808 50.83514998 173.97096631 46.16430664 158.12304688 C42.03392806 144.11429408 37.84765708 130.1227915 33.64282227 116.13623047 C29.54115375 102.49104862 25.48098211 88.83398173 21.44921875 75.16796875 C20.24651883 78.9250703 20.31548085 82.63078849 20.33569336 86.53149414 C20.33547007 87.64719709 20.33547007 87.64719709 20.33524227 88.78543949 C20.33593699 91.27886346 20.3437803 93.77221383 20.3515625 96.265625 C20.35348155 98.05280516 20.35494541 99.83998586 20.35598755 101.62716675 C20.35914971 105.47621657 20.36542006 109.32524449 20.37405396 113.17428589 C20.3875624 119.2581974 20.39346752 125.34210159 20.39819336 131.42602539 C20.4092995 144.34001625 20.42883471 157.25398971 20.44921875 170.16796875 C20.47122354 184.10874302 20.49180805 198.04951013 20.50263691 211.99029827 C20.50762585 218.04059061 20.51749534 224.09084963 20.53106689 230.14112854 C20.53851585 233.90196805 20.54184003 237.66280294 20.54403305 241.42364883 C20.54590824 243.16998698 20.54951549 244.91632423 20.55496597 246.66265488 C20.56216322 249.04327259 20.56322058 251.42381664 20.56274414 253.80444336 C20.5663391 254.4982161 20.56993406 255.19198885 20.57363796 255.90678501 C20.5664489 259.25180485 20.27040311 261.8832313 19.44921875 265.16796875 C-12.23078125 265.16796875 -43.91078125 265.16796875 -76.55078125 265.16796875 C-76.67169035 210.31106106 -76.67169035 210.31106106 -76.69726562 187.29296875 C-76.71505449 171.41045375 -76.73594752 155.52798284 -76.77709961 139.64550781 C-76.80705839 128.07750175 -76.82636965 116.50953455 -76.83304673 104.94149077 C-76.836948 98.8197744 -76.84607813 92.69816915 -76.86797142 86.57648849 C-76.88843892 80.80634966 -76.89459437 75.03636699 -76.89010429 69.2661953 C-76.89092492 67.15639203 -76.89682901 65.04658316 -76.90839767 62.93681145 C-76.99839135 45.66751682 -76.65784268 30.54092456 -64.5859375 16.95703125 C-46.94646871 -0.18971495 -22.95531219 0.00876125 0 0 Z " fill="#FE3E47" transform="translate(474.55078125,207.83203125)"/>
<path d="M0 0 C2.18814249 0.01152423 4.37629491 0.02129958 6.56445312 0.02929688 C8.65365651 0.04269849 10.74285086 0.05761518 12.83203125 0.07421875 C14.28353325 0.08529915 14.28353325 0.08529915 15.76435852 0.09660339 C16.66687851 0.10943863 17.5693985 0.12227386 18.49926758 0.13549805 C19.28658768 0.14534225 20.07390778 0.15518646 20.88508606 0.16532898 C23.38830955 0.32533581 25.73441867 0.80149571 28.1875 1.3125 C28.18473462 2.23376159 28.18473462 2.23376159 28.18191338 3.17363453 C28.1373638 18.25452969 28.10446604 33.33540408 28.08387566 48.41634846 C28.07364866 55.70996302 28.05975692 63.00353315 28.03662109 70.29711914 C28.01641974 76.66875452 28.00372167 83.04035767 27.99932301 89.4120242 C27.99675981 92.77257438 27.98980315 96.13296067 27.97603989 99.49349403 C25.83758714 146.29638456 25.83758714 146.29638456 43.828125 187.33984375 C57.29016536 198.59535763 74.57611436 198.27653943 91.1875 197.3125 C101.23965992 196.12224425 111.40116427 192.65861361 118.5625 185.1875 C132.25356692 166.81471767 131.38294059 138.2227135 131.20153427 116.32904243 C131.17920897 113.5058942 131.1653276 110.68281598 131.15383911 107.85960388 C131.12052971 99.84112105 131.07875886 91.82275449 131.01611328 83.80444336 C130.97820588 78.87579075 130.95536695 73.94725349 130.94180679 69.01847649 C130.93382417 67.15636908 130.92031923 65.29427588 130.90087509 63.43225288 C130.70750425 44.59435622 133.02436407 28.85494903 146.59765625 14.671875 C155.89421242 6.20261418 164.76871716 2.95743705 176.98446655 1.56416321 C178.39835053 1.40264838 179.81135532 1.23312098 181.22305298 1.05349731 C186.76207443 0.37508243 192.21178454 0.15202331 197.7890625 0.14453125 C198.6697641 0.14120285 199.5504657 0.13787445 200.45785522 0.13444519 C202.30490604 0.12941874 204.15196579 0.12703553 205.99902344 0.12719727 C208.8120006 0.12500039 211.62459143 0.10677085 214.4375 0.08789062 C216.24218617 0.08495779 218.04687419 0.08297226 219.8515625 0.08203125 C221.1002562 0.07125298 221.1002562 0.07125298 222.37417603 0.06025696 C223.16544891 0.06333359 223.9567218 0.06641022 224.77197266 0.06958008 C225.80047836 0.06744255 225.80047836 0.06744255 226.84976196 0.06526184 C230.0897053 0.40791684 233.07885489 1.36292802 236.1875 2.3125 C236.23458956 19.44799486 236.26966729 36.58346904 236.29112434 53.71901417 C236.30135984 61.67850238 236.31526875 69.63794999 236.33837891 77.59741211 C236.35855326 84.5491623 236.37127224 91.50088304 236.37567699 98.45266169 C236.37824452 102.12059128 236.38410934 105.78843676 236.39896011 109.45633888 C236.48826421 132.42761695 236.44865515 155.74904424 232 178.375 C231.78714355 179.48439941 231.57428711 180.59379883 231.35498047 181.73681641 C229.37967962 191.42238893 226.42008809 200.38949925 222.1875 209.3125 C221.90116699 209.92254883 221.61483398 210.53259766 221.31982422 211.16113281 C209.30043368 236.2432876 187.31993766 251.93026263 161.8203125 261.42578125 C108.59528852 279.97618425 33.15644757 278.90924666 -17.80566406 254.35205078 C-41.8968575 242.34380475 -58.76141182 221.04300485 -67.41015625 195.75 C-71.19869989 184.10741189 -73.43285671 172.46353342 -74.8125 160.3125 C-74.94845581 159.12285645 -74.94845581 159.12285645 -75.0871582 157.90917969 C-77.30197987 137.27023209 -76.93317747 116.30134383 -76.98873901 95.57348633 C-76.99616808 93.00983552 -77.00678 90.44619169 -77.02078247 87.88256836 C-77.29293105 32.87896338 -77.29293105 32.87896338 -60.9375 15.296875 C-44.50459826 -0.4513225 -21.23261065 -0.29125445 0 0 Z " fill="#FE3E47" transform="translate(887.8125,207.6875)"/>
<path d="M0 0 C1.88481683 -0.00135984 3.76963339 -0.003143 5.65444946 -0.00531006 C10.70310051 -0.00981083 15.75173079 -0.00812679 20.80038214 -0.00493097 C26.10928237 -0.00237412 31.41818099 -0.00475359 36.7270813 -0.00631714 C45.62144283 -0.00812699 54.515796 -0.00576146 63.41015625 -0.00097656 C73.68511839 0.00448728 83.96006075 0.00268333 94.23502243 -0.00280297 C103.0881018 -0.00734001 111.94117522 -0.00798245 120.79425538 -0.0053643 C126.06917847 -0.0038078 131.34409225 -0.00359107 136.61901474 -0.00690079 C141.56530309 -0.00978888 146.51156582 -0.00778653 151.45785141 -0.00200653 C153.27108721 -0.00068499 155.08432518 -0.00106277 156.89756012 -0.0032692 C159.37296915 -0.00600388 161.84829614 -0.00257146 164.32369995 0.00241089 C165.03964258 0.00018017 165.75558521 -0.00205055 166.49322307 -0.00434887 C170.49799621 0.01127509 174.26989259 0.35829746 178.19970703 1.12939453 C178.37668167 9.42194275 178.54263611 17.71460666 178.6944828 26.00764942 C178.76533675 29.85834184 178.84000043 33.70888213 178.92333984 37.55932617 C179.00361087 41.27445821 179.07391477 44.98965686 179.13727951 48.70511436 C179.16322493 50.12336882 179.19277566 51.54156201 179.22597122 52.9596653 C179.27181286 54.94418607 179.30370885 56.92901422 179.33496094 58.91381836 C179.35716705 60.04410965 179.37937317 61.17440094 179.4022522 62.33894348 C179.19970703 65.12939453 179.19970703 65.12939453 177.19970703 68.12939453 C173.87185455 69.43142216 170.44650883 69.26732272 166.91021729 69.28761292 C165.61735306 69.29740173 164.32448883 69.30719055 162.9924469 69.317276 C161.5618595 69.32317983 160.13127171 69.3289903 158.70068359 69.3347168 C157.19272088 69.34429803 155.68476083 69.35430826 154.17680359 69.36471558 C150.08421287 69.3917441 145.99161065 69.41276478 141.89898014 69.43271756 C137.62149523 69.45458977 133.34404571 69.48197242 129.06658936 69.5087738 C120.96711021 69.55868398 112.86761141 69.60362903 104.76809382 69.64679617 C95.54687142 69.69618285 86.32568453 69.75109568 77.10449648 69.80647576 C58.13626483 69.92027011 39.16800053 70.02638518 20.19970703 70.12939453 C20.19970703 80.02939453 20.19970703 89.92939453 20.19970703 100.12939453 C22.67905762 99.96713379 25.1584082 99.80487305 27.71289062 99.63769531 C39.13567402 98.96626176 50.55007704 98.98428782 61.98876953 98.99658203 C64.23074351 98.99590652 66.47271743 98.99493445 68.71469116 98.99368286 C73.37555653 98.99222054 78.03640253 98.99431484 82.69726562 98.99902344 C88.65746897 99.00475322 94.6176276 99.001412 100.57782936 98.99545097 C105.19156226 98.99183387 109.80528457 98.99298868 114.41901779 98.99557877 C116.6173643 98.99624313 118.81571179 98.99543685 121.01405716 98.99309921 C124.08068641 98.9905501 127.14724331 98.9944436 130.21386719 99 C131.55896866 98.99696365 131.55896866 98.99696365 132.9312439 98.99386597 C138.10963615 99.01118294 143.07401779 99.38251117 148.19970703 100.12939453 C149.79137659 104.34860242 150.4457527 107.81657004 150.42675781 112.31835938 C150.42653122 114.11954727 150.42653122 114.11954727 150.42630005 115.9571228 C150.41597748 117.23858185 150.40565491 118.52004089 150.39501953 119.84033203 C150.39128493 121.17696927 150.38844007 122.51360927 150.38644409 123.85025024 C150.3788428 127.35194585 150.35922491 130.85347303 150.33703613 134.35510254 C150.31650177 137.93479128 150.30742621 141.51450749 150.29736328 145.09423828 C150.27597532 152.1060258 150.24188219 159.11770206 150.19970703 166.12939453 C146.98363463 168.02970283 144.64937991 168.36893311 140.9352417 168.3319397 C139.86955963 168.32627487 138.80387756 168.32061005 137.7059021 168.31477356 C135.96018417 168.28996162 135.96018417 168.28996162 134.17919922 168.26464844 C132.94966522 168.25518692 131.72013123 168.2457254 130.45333862 168.23597717 C127.08575665 168.20807773 123.71849949 168.17116656 120.35106564 168.13025331 C116.83040217 168.08960722 113.30964393 168.06047417 109.78887939 168.03012085 C103.1236304 167.97090818 96.45853135 167.90133872 89.79342389 167.82805002 C82.20467325 167.74510922 74.61582775 167.6737114 67.02695227 167.60328412 C51.41772935 167.45816668 35.80868907 167.29855029 20.19970703 167.12939453 C20.20081734 167.87216928 20.20192764 168.61494402 20.20307159 169.38022709 C20.21321423 176.4825229 20.2207645 183.58481608 20.22561312 190.68711716 C20.22818985 194.33587368 20.23166736 197.98462408 20.23742676 201.63337708 C20.26944892 222.47999617 20.10110118 243.29903874 19.19970703 264.12939453 C15.63817504 265.31657186 12.26803208 265.49360705 8.55126953 265.68408203 C7.7330069 265.72612762 6.91474426 265.76817322 6.07168579 265.81149292 C-6.29963044 266.36728931 -18.68966114 266.27939551 -31.07080078 266.25976562 C-34.70230714 266.25405811 -38.3337404 266.25746324 -41.96524429 266.26320267 C-74.69003617 266.30723484 -74.69003617 266.30723484 -84.80029297 265.12939453 C-86.472577 263.4571105 -85.9681003 261.41503025 -86.00561523 259.11474609 C-86.02555038 258.01198334 -86.04548553 256.90922058 -86.06602478 255.77304077 C-86.08274734 254.53454376 -86.09946991 253.29604675 -86.11669922 252.02001953 C-86.13756936 250.68250196 -86.15865894 249.34498779 -86.1799469 248.00747681 C-86.23732973 244.26175821 -86.28637554 240.51597097 -86.33292389 236.77010345 C-86.36278815 234.37978004 -86.39427815 231.98948202 -86.42596436 229.59918213 C-86.86009911 196.18667769 -86.90971172 162.77207228 -86.92240638 129.35724258 C-86.92404857 125.12704534 -86.92700796 120.89685193 -86.93110853 116.66665637 C-86.93830303 109.21599713 -86.93956092 101.76537158 -86.93467522 94.31470871 C-86.93364429 91.80716338 -86.93418088 89.29961682 -86.93643379 86.7920723 C-86.96475206 48.6411127 -86.96475206 48.6411127 -83.67529297 37.69189453 C-83.34815308 36.56871826 -83.34815308 36.56871826 -83.0144043 35.42285156 C-81.04224267 29.10398264 -78.21859845 24.09305571 -73.80029297 19.12939453 C-73.20474609 18.42685547 -72.60919922 17.72431641 -71.99560547 17.00048828 C-60.60441832 4.54580856 -46.65734399 1.34525736 -30.53781128 0.57498169 C-29.23337659 0.51179062 -29.23337659 0.51179062 -27.90258968 0.44732296 C-18.60097492 0.02895456 -9.30932124 -0.0115243 0 0 Z " fill="#FE3F48" transform="translate(199.80029296875,207.87060546875)"/>
<path d="M0 0 C1.06456421 -0.00855011 1.06456421 -0.00855011 2.15063477 -0.01727295 C3.66046655 -0.02674352 5.17031919 -0.03326506 6.68017578 -0.03710938 C8.96294953 -0.04671903 11.24478532 -0.07767968 13.52734375 -0.109375 C30.99579698 -0.23867943 30.99579698 -0.23867943 36.56616211 4.54931641 C41.95441496 10.55630223 42.91245895 17.41197189 43 25.203125 C42.38114753 30.22270612 40.82299084 35.01417086 38 39.203125 C35.12897611 41.43046738 32.12611812 43.35497969 29 45.203125 C29.87011719 46.12867188 30.74023438 47.05421875 31.63671875 48.0078125 C35.61524333 52.65390615 38.15515289 57.85304221 40.8125 63.328125 C41.30169922 64.30394531 41.79089844 65.27976562 42.29492188 66.28515625 C44.49325291 70.74262969 46.01284782 74.26736411 47 79.203125 C42.05 79.203125 37.1 79.203125 32 79.203125 C28.06241329 72.41418239 24.19177042 65.72562278 20.8125 58.640625 C18.65145119 54.28367176 16.99809731 51.03104749 13 48.203125 C9.535 47.708125 9.535 47.708125 6 47.203125 C6 57.763125 6 68.323125 6 79.203125 C1.38 79.203125 -3.24 79.203125 -8 79.203125 C-8.02312392 69.05046349 -8.04091534 58.8978082 -8.05181217 48.74512577 C-8.05704089 44.03132767 -8.06413834 39.31754753 -8.07543945 34.60375977 C-8.08626873 30.05857096 -8.09227692 25.51339948 -8.09487724 20.96819878 C-8.09673142 19.23017542 -8.10035189 17.49215306 -8.10573006 15.75413704 C-8.11294103 13.32833905 -8.11399092 10.90261354 -8.11352539 8.47680664 C-8.11712067 7.75104431 -8.12071594 7.02528198 -8.12442017 6.27752686 C-8.10995648 -0.64231544 -6.27651031 0.03874616 0 0 Z M6 14.203125 C6 20.473125 6 26.743125 6 33.203125 C10.08375 33.265 10.08375 33.265 14.25 33.328125 C15.10110352 33.34633301 15.95220703 33.36454102 16.82910156 33.38330078 C22.21101153 33.46915836 22.21101153 33.46915836 27 31.203125 C29.54575791 27.76635182 29.43672876 24.35204825 29 20.203125 C27.6891062 17.35579195 27.6891062 17.35579195 25 15.203125 C21.75145814 14.44493142 18.57557953 14.41389845 15.25 14.390625 C10.67125 14.2978125 10.67125 14.2978125 6 14.203125 Z " fill="#FE4B53" transform="translate(997,511.796875)"/>
<path d="M0 0 C4.29 0 8.58 0 13 0 C17.78622673 9.44231437 22.45131903 18.94194983 27.05142212 28.47616577 C27.64161467 29.69929841 28.2324137 30.92213859 28.82382202 32.14468384 C29.66444925 33.88327321 30.50219951 35.62325272 31.33984375 37.36328125 C31.82831787 38.37688721 32.31679199 39.39049316 32.82006836 40.43481445 C34 43 34 43 35 46 C35.01030746 45.43845718 35.02061493 44.87691437 35.03123474 44.2983551 C35.13907685 38.47506534 35.25369208 32.65193736 35.37231445 26.82885742 C35.41573507 24.65311047 35.45740471 22.47732786 35.49731445 20.30151367 C35.55484502 17.18136832 35.61858823 14.06140367 35.68359375 10.94140625 C35.70030624 9.96224747 35.71701874 8.98308868 35.73423767 7.97425842 C35.75418289 7.07340012 35.77412811 6.17254181 35.79467773 5.24438477 C35.81022202 4.44718521 35.8257663 3.64998566 35.84178162 2.82862854 C36 1 36 1 37 0 C40.96 0 44.92 0 49 0 C49 26.07 49 52.14 49 79 C44.71 79 40.42 79 36 79 C27.98815737 64.28798809 20.93890286 49.24944931 14 34 C13.67 48.85 13.34 63.7 13 79 C8.71 79 4.42 79 0 79 C0 52.93 0 26.86 0 0 Z " fill="#FE4750" transform="translate(545,512)"/>
<path d="M0 0 C4.29 0 8.58 0 13 0 C13.4846875 1.0415625 13.969375 2.083125 14.46875 3.15625 C18.21247168 11.171775 22.0109602 19.14916074 26.03320312 27.02929688 C29.20435539 33.28332523 32.05243952 39.61361896 35 46 C35.33 30.82 35.66 15.64 36 0 C39.96 0 43.92 0 48 0 C49.69668207 1.69668207 49.11968993 3.81132018 49.12442017 6.07440186 C49.11902725 7.16304535 49.11902725 7.16304535 49.11352539 8.27368164 C49.11367142 9.03460617 49.11381744 9.7955307 49.1139679 10.57951355 C49.11326862 13.10642298 49.10547555 15.63325962 49.09765625 18.16015625 C49.09579212 19.9075059 49.0943682 21.65485607 49.09336853 23.40220642 C49.08954293 28.01031934 49.07971229 32.61840095 49.06866455 37.22650146 C49.05845134 41.92508521 49.0538711 46.62367399 49.04882812 51.32226562 C49.03809005 60.54819087 49.02101313 69.77409284 49 79 C44.38 79 39.76 79 35 79 C33.1314003 75.16431684 31.26491634 71.32772238 29.40307617 67.48876953 C28.77300409 66.19102814 28.14186796 64.89380265 27.50952148 63.59716797 C22.75096935 53.83700915 18.28673752 43.97628744 14 34 C13.9845388 34.82352211 13.9845388 34.82352211 13.96876526 35.66368103 C13.86092053 41.35721281 13.74630551 47.05057921 13.62768555 52.74389648 C13.58426577 54.87114007 13.54259607 56.9984201 13.50268555 59.12573242 C13.44515293 62.17638151 13.38141033 65.22684589 13.31640625 68.27734375 C13.29133751 69.71327126 13.29133751 69.71327126 13.26576233 71.1782074 C13.24581711 72.05904495 13.22587189 72.93988251 13.20532227 73.84741211 C13.18977798 74.62684677 13.1742337 75.40628143 13.15821838 76.20933533 C13 78 13 78 12 79 C8.04 79 4.08 79 0 79 C0 52.93 0 26.86 0 0 Z " fill="#FE4850" transform="translate(226,512)"/>
<path d="M0 0 C38.15346535 0 38.15346535 0 44.0234375 4.578125 C50.06472076 12.05115747 50.77654105 19.59383341 50 29 C48.92746477 34.84044183 46.35547619 38.14438532 41.81640625 41.87109375 C39.8813931 43.07371483 38.22667479 43.57424021 36 44 C36.4125 44.4640625 36.825 44.928125 37.25 45.40625 C42.77857375 52.0207936 46.36870427 59.25754235 50.03271484 66.99267578 C51.38617973 69.80140579 52.82047777 72.56776389 54.2590332 75.33374023 C55 77 55 77 55 79 C49.72 79 44.44 79 39 79 C38.03578125 77.09734375 37.0715625 75.1946875 36.078125 73.234375 C35.13336276 71.38332184 34.18595317 69.53364689 33.23828125 67.68408203 C32.58381 66.40327146 31.93207672 65.12105783 31.28320312 63.83740234 C30.34710933 61.98675066 29.40110832 60.1414589 28.453125 58.296875 C27.88754883 57.18666992 27.32197266 56.07646484 26.73925781 54.93261719 C24.9894343 51.98218484 23.76919153 50.02332122 21 48 C18.36 47.67 15.72 47.34 13 47 C13 57.56 13 68.12 13 79 C8.71 79 4.42 79 0 79 C0 52.93 0 26.86 0 0 Z M13 15 C13 20.94 13 26.88 13 33 C17.0528125 33.0928125 17.0528125 33.0928125 21.1875 33.1875 C22.02949951 33.21481201 22.87149902 33.24212402 23.73901367 33.27026367 C28.31952096 33.32089807 31.28298447 32.98082993 35 30 C36.14993366 27.70013269 36.2316929 26.18530912 36.3125 23.625 C36.34988281 22.85414063 36.38726562 22.08328125 36.42578125 21.2890625 C36.12300881 18.89140847 36.12300881 18.89140847 34.58984375 16.7265625 C30.6244246 14.08294973 26.89813688 14.57148957 22.25 14.75 C21.36183594 14.76804687 20.47367187 14.78609375 19.55859375 14.8046875 C17.37193225 14.85171248 15.18582719 14.92345352 13 15 Z " fill="#FE4850" transform="translate(337,512)"/>
<path d="M0 0 C38.45869565 0 38.45869565 0 44.12109375 4.796875 C48.88170379 11.86009464 50.91460617 18.46843933 50 27 C48.69552102 33.16570143 46.50872931 37.59612486 42 42 C38.6875 43.875 38.6875 43.875 36 45 C36.825 45.825 37.65 46.65 38.5 47.5 C46.05448733 56.28677959 50.34672935 68.53014103 55 79 C49.72 79 44.44 79 39 79 C38.34773437 77.74445313 37.69546875 76.48890625 37.0234375 75.1953125 C30.2763122 60.71993024 30.2763122 60.71993024 21 48 C18.36 47.67 15.72 47.34 13 47 C13 57.56 13 68.12 13 79 C8.71 79 4.42 79 0 79 C0 52.93 0 26.86 0 0 Z M13 15 C13 20.94 13 26.88 13 33 C17.0528125 33.0928125 17.0528125 33.0928125 21.1875 33.1875 C22.02949951 33.21481201 22.87149902 33.24212402 23.73901367 33.27026367 C28.29346369 33.32061002 31.35019946 33.04031929 35 30 C36.40449969 25.78650094 36.67828466 21.84105837 35.125 17.625 C34.08249579 15.84090097 34.08249579 15.84090097 32 15 C30.55151418 14.91657841 29.09929131 14.89267139 27.6484375 14.90234375 C26.37226562 14.90717773 26.37226562 14.90717773 25.0703125 14.91210938 C24.18085937 14.92048828 23.29140625 14.92886719 22.375 14.9375 C21.02921875 14.94426758 21.02921875 14.94426758 19.65625 14.95117188 C17.43747169 14.96297389 15.21872757 14.98090961 13 15 Z " fill="#FE4850" transform="translate(740,512)"/>
<path d="M0 0 C10.18144146 6.00871955 14.25155875 15.18309676 17.17578125 26.33984375 C19.12338723 39.73701216 18.7770494 56.15677297 10.75 67.5625 C5.52439677 73.61944919 0.35725512 78.47942659 -7.85546875 79.37109375 C-17.03545792 79.53281377 -23.99267554 78.63773765 -31.203125 72.49609375 C-39.83232568 63.45286577 -42.5129981 50.94314994 -42.46875 38.81640625 C-42.18560121 27.67880455 -40.48538869 17.03010738 -33.4375 8 C-32.90125 7.154375 -32.365 6.30875 -31.8125 5.4375 C-23.44208221 -3.15319194 -10.87694331 -4.86730796 0 0 Z M-20.4375 15 C-27.85924705 22.42174705 -28.32186701 30.93993024 -28.4375 41 C-28.01837027 49.39190868 -26.74143373 56.10325816 -20.4375 62 C-16.98277152 64.47839217 -14.53907959 65.23437622 -10.375 64.9375 C-6.45164059 64.22008571 -4.19037804 62.98228454 -1.4375 60 C4.84072865 49.67061705 5.20713122 37.13377395 2.84375 25.4453125 C1.1443972 20.38836747 -0.53435914 16.56300545 -5.4375 14 C-11.22401771 11.58284703 -14.88791053 11.64930447 -20.4375 15 Z " fill="#FE4951" transform="translate(436.4375,513)"/>
<path d="M0 0 C7.84469108 6.10459597 12.10173965 15.09201543 14.1484375 24.671875 C15.33245097 40.74748072 15.98472855 56.71167416 5.3359375 69.796875 C-0.99243982 76.0784621 -5.86606679 78.03017709 -14.8515625 78.171875 C-20.98619106 78.08907892 -25.94688767 77.54035092 -30.8515625 73.671875 C-31.46257812 73.1975 -32.07359375 72.723125 -32.703125 72.234375 C-40.27252366 65.53465193 -43.89942813 55.56349318 -44.8515625 45.671875 C-45.67769063 30.62454119 -44.40177673 16.53850351 -34.6015625 4.421875 C-25.58124821 -5.20484697 -11.52655605 -6.8163687 0 0 Z M-25.1015625 15.484375 C-32.05706266 24.1787502 -31.60074341 35.08189062 -30.8515625 45.671875 C-29.81783118 51.31939242 -27.60625208 56.29140382 -23.8515625 60.671875 C-20.1390384 62.84335136 -17.65026376 63.65761248 -13.3515625 63.734375 C-7.40157254 61.92812805 -3.97626906 58.69634682 -0.9765625 53.296875 C2.20115973 43.0575478 1.98177619 31.9807457 -0.8515625 21.671875 C-3.63981746 16.38380525 -6.94955079 12.61818317 -12.7265625 10.734375 C-17.69233804 10.63505949 -21.27237279 12.39974995 -25.1015625 15.484375 Z " fill="#FE4951" transform="translate(1114.8515625,514.328125)"/>
<path d="M0 0 C0.79719955 0.00222061 1.59439911 0.00444122 2.41575623 0.00672913 C3.31661453 0.00680466 4.21747284 0.00688019 5.14562988 0.00695801 C6.12478867 0.01211929 7.10394745 0.01728058 8.11277771 0.02259827 C9.11018478 0.02401321 10.10759186 0.02542816 11.13522339 0.02688599 C14.3348027 0.03250337 17.53431315 0.04505881 20.73387146 0.05775452 C22.89728191 0.06276728 25.06069345 0.06733057 27.22410583 0.07142639 C32.53988471 0.08247845 37.85562317 0.09923348 43.17137146 0.12025452 C43.19822558 2.43269244 43.21769987 4.74521722 43.23387146 7.05775452 C43.24547302 8.34552795 43.25707458 9.63330139 43.26902771 10.96009827 C43.17137146 14.12025452 43.17137146 14.12025452 42.17137146 15.12025452 C39.87985729 15.20816427 37.58564622 15.2271949 35.29246521 15.21791077 C34.26247154 15.21578835 34.26247154 15.21578835 33.21166992 15.21362305 C31.01069345 15.20800931 28.80981737 15.19545459 26.60887146 15.18275452 C25.11994063 15.17774128 23.63100822 15.17317807 22.14207458 15.16908264 C18.48510341 15.15888473 14.82835029 15.13931231 11.17137146 15.12025452 C11.17137146 20.07025452 11.17137146 25.02025452 11.17137146 30.12025452 C13.2532074 30.10865295 15.33504333 30.09705139 17.47996521 30.08509827 C19.48883444 30.07814716 21.49770397 30.07123063 23.50657654 30.06532288 C24.90632374 30.06028372 26.30606566 30.05345235 27.70579529 30.04481506 C29.71382923 30.03273132 31.72190103 30.02755645 33.72996521 30.02259827 C35.54452209 30.01474304 35.54452209 30.01474304 37.39573669 30.00672913 C40.17137146 30.12025452 40.17137146 30.12025452 41.17137146 31.12025452 C41.17137146 35.74025452 41.17137146 40.36025452 41.17137146 45.12025452 C31.27137146 45.12025452 21.37137146 45.12025452 11.17137146 45.12025452 C11.50137146 51.39025452 11.83137146 57.66025452 12.17137146 64.12025452 C14.3975824 64.10865295 16.62379333 64.09705139 18.91746521 64.08509827 C21.0653316 64.07730729 23.21319643 64.07123077 25.36106873 64.06532288 C26.85782064 64.06028331 28.35456762 64.05345164 29.8513031 64.04481506 C31.99836953 64.03273293 34.14537108 64.0270226 36.29246521 64.02259827 C38.23270569 64.01474304 38.23270569 64.01474304 40.21214294 64.00672913 C43.17137146 64.12025452 43.17137146 64.12025452 44.17137146 65.12025452 C44.24408887 67.47339006 44.25508014 69.8285912 44.23387146 72.18275452 C44.22484802 73.47310608 44.21582458 74.76345764 44.20652771 76.09291077 C44.19492615 77.0919342 44.18332458 78.09095764 44.17137146 79.12025452 C37.6385836 79.14552454 31.10580825 79.16308744 24.57298279 79.17518616 C22.34869414 79.18022768 20.12440883 79.18706074 17.90013123 79.19569397 C14.71058837 79.2077675 11.52108917 79.21348447 8.33152771 79.21791077 C6.82997887 79.22565269 6.82997887 79.22565269 5.2980957 79.23355103 C4.37721664 79.23362656 3.45633759 79.23370209 2.5075531 79.23377991 C1.69258865 79.23600052 0.87762421 79.23822113 0.03796387 79.24050903 C-1.82862854 79.12025452 -1.82862854 79.12025452 -2.82862854 78.12025452 C-2.92890649 75.72216302 -2.9648153 73.35285953 -2.95802307 70.95423889 C-2.95977539 70.20467422 -2.96152771 69.45510956 -2.96333313 68.68283081 C-2.96775174 66.19319883 -2.96481364 63.70363728 -2.96144104 61.21400452 C-2.96211408 59.4914702 -2.9630841 57.76893597 -2.96434021 56.04640198 C-2.96581719 52.43152464 -2.96366261 48.81667196 -2.95899963 45.20179749 C-2.95330234 40.55758959 -2.95658134 35.91343948 -2.9625721 31.2692337 C-2.9661777 27.71088726 -2.96503913 24.15255461 -2.96244431 20.59420776 C-2.96177503 18.8813069 -2.96260347 17.1684048 -2.96492386 15.45550537 C-2.96745037 13.0657263 -2.96360984 10.67604211 -2.95802307 8.28627014 C-2.9600473 7.5714296 -2.96207153 6.85658905 -2.9641571 6.12008667 C-2.93835873 0.19323274 -2.93835873 0.19323274 0 0 Z " fill="#FE4E56" transform="translate(172.82862854003906,511.87974548339844)"/>
<path d="M0 0 C11.1065625 -0.0309375 11.1065625 -0.0309375 22.4375 -0.0625 C24.7777124 -0.071604 27.1179248 -0.08070801 29.52905273 -0.09008789 C31.37223249 -0.09300694 33.21541288 -0.09555552 35.05859375 -0.09765625 C36.50836609 -0.1053302 36.50836609 -0.1053302 37.98742676 -0.11315918 C38.90092896 -0.11328003 39.81443115 -0.11340088 40.75561523 -0.11352539 C41.95141457 -0.11685631 41.95141457 -0.11685631 43.17137146 -0.12025452 C45 0 45 0 46 1 C46.0989294 3.16480797 46.129711 5.33293785 46.125 7.5 C46.12886719 9.27890625 46.12886719 9.27890625 46.1328125 11.09375 C46 14 46 14 45 15 C42.6243148 15.0883967 40.27791326 15.11530305 37.90234375 15.09765625 C36.83905602 15.09553383 36.83905602 15.09553383 35.75428772 15.09336853 C33.48198288 15.08775443 31.20977525 15.07519963 28.9375 15.0625 C27.40039204 15.05748681 25.86328255 15.05292359 24.32617188 15.04882812 C20.55071333 15.0386297 16.77546596 15.01905732 13 15 C13.33 19.95 13.66 24.9 14 30 C17.01447266 29.98259766 17.01447266 29.98259766 20.08984375 29.96484375 C22.02921424 29.9578926 23.96858503 29.95097604 25.90795898 29.94506836 C27.25920386 29.94002943 28.61044326 29.93319823 29.96166992 29.92456055 C31.90020434 29.91247581 33.838778 29.90730172 35.77734375 29.90234375 C37.52905884 29.89448853 37.52905884 29.89448853 39.31616211 29.88647461 C42 30 42 30 43 31 C43 35.62 43 40.24 43 45 C33.1 45 23.2 45 13 45 C13.33 51.27 13.66 57.54 14 64 C16.21460938 63.98839844 18.42921875 63.97679687 20.7109375 63.96484375 C22.85221208 63.95704841 24.9934851 63.95097436 27.13476562 63.94506836 C28.62468166 63.94003486 30.11459274 63.93320758 31.60449219 63.92456055 C33.74415304 63.91245195 35.88374868 63.90676193 38.0234375 63.90234375 C39.31169434 63.89710693 40.59995117 63.89187012 41.92724609 63.88647461 C45 64 45 64 47 65 C47 69.62 47 74.24 47 79 C31.49 79 15.98 79 0 79 C0 52.93 0 26.86 0 0 Z " fill="#FE4B53" transform="translate(684,512)"/>
<path d="M0 0 C5.38258036 3.35385182 8.58355095 8.54416394 10.28515625 14.55859375 C10.81186167 17.24095445 11.27668277 19.83348039 11.4375 22.5625 C10.4375 23.5625 10.4375 23.5625 7.49609375 23.66015625 C6.30113281 23.64855469 5.10617187 23.63695312 3.875 23.625 C2.07869141 23.61146484 2.07869141 23.61146484 0.24609375 23.59765625 C-0.68074219 23.58605469 -1.60757813 23.57445312 -2.5625 23.5625 C-2.82804688 22.92441406 -3.09359375 22.28632812 -3.3671875 21.62890625 C-3.72039063 20.80261719 -4.07359375 19.97632813 -4.4375 19.125 C-4.78554688 18.30128906 -5.13359375 17.47757813 -5.4921875 16.62890625 C-6.3869937 14.40503285 -6.3869937 14.40503285 -8.5625 13.5625 C-13.98541085 13.1694735 -13.98541085 13.1694735 -19.0625 14.6875 C-20.82040052 16.5610579 -20.82040052 16.5610579 -21 19.5625 C-20.50897287 22.92954315 -20.11213739 23.4859875 -17.5625 25.5625 C-15.57551834 26.49916975 -15.57551834 26.49916975 -13.359375 27.17578125 C-12.54339844 27.45486328 -11.72742188 27.73394531 -10.88671875 28.02148438 C-9.18814078 28.58466994 -7.48763943 29.14209164 -5.78515625 29.69335938 C1.32628378 32.14384774 6.65777694 35.60739409 10.875 41.9375 C13.98302036 48.96432864 13.67954767 58.39239103 11.51953125 65.64453125 C8.72635177 71.67382159 5.23046721 75.66264786 -0.76171875 78.6640625 C-7.52897849 80.83487106 -17.64237332 80.93473035 -24.1875 78.0625 C-30.50022287 74.09091938 -34.02890665 67.74473551 -36.10546875 60.75 C-36.76451717 57.59558022 -36.76747837 54.77382783 -36.5625 51.5625 C-30.6225 51.0675 -30.6225 51.0675 -24.5625 50.5625 C-23.61848958 53.06901042 -22.67447917 55.57552083 -21.73046875 58.08203125 C-20.57917733 60.52708159 -19.65837753 61.88896555 -17.5625 63.5625 C-13.95677296 64.76440901 -11.3522565 64.88920315 -7.5625 64.5625 C-4.80920979 62.76687595 -3.03622539 61.50995078 -1.5625 58.5625 C-1.19538939 55.18508239 -0.99273315 53.31150297 -3.08984375 50.5546875 C-6.25586337 48.00386601 -9.63318678 46.8329312 -13.4375 45.5625 C-20.41061528 43.20794159 -26.4391221 40.70544645 -30.875 34.5 C-31.36613281 33.82839844 -31.85726562 33.15679688 -32.36328125 32.46484375 C-35.72977786 27.12450547 -34.97306144 20.63294421 -34.5625 14.5625 C-33.12508262 8.51689161 -29.52173866 3.51345726 -24.25 0.25 C-17.16521191 -3.00660991 -7.18844065 -3.00557152 0 0 Z " fill="#FE4851" transform="translate(833.5625,512.4375)"/>
<path d="M0 0 C4.29 0 8.58 0 13 0 C13.01981934 1.46228027 13.03963867 2.92456055 13.06005859 4.43115234 C13.13652481 9.89193007 13.22517728 15.35245551 13.31738281 20.81298828 C13.35550385 23.16970819 13.39038516 25.52648294 13.421875 27.88330078 C13.46789381 31.28437816 13.52582589 34.68508343 13.5859375 38.0859375 C13.59748871 39.12801361 13.60903992 40.17008972 13.62094116 41.2437439 C13.59741287 53.50441716 13.59741287 53.50441716 19 64 C23.68373923 64.98207435 27.34310626 65.30975136 32 64 C33.52784468 59.90203991 34.25779254 56.46970584 34.30297852 52.10229492 C34.31962051 50.96479294 34.33626251 49.82729095 34.35340881 48.65531921 C34.36182297 47.44261856 34.37023712 46.22991791 34.37890625 44.98046875 C34.39590073 43.72615555 34.4128952 42.47184235 34.43040466 41.17951965 C34.47444621 37.86077138 34.51080757 34.54214115 34.54260254 31.2232666 C34.58848032 26.52937842 34.64414631 21.83563465 34.70530701 17.141922 C34.73735944 14.64465987 34.76421934 12.14732495 34.78553772 9.64994812 C34.79902756 8.52820694 34.8125174 7.40646576 34.82641602 6.25073242 C34.84068382 4.76231087 34.84068382 4.76231087 34.85523987 3.24382019 C35 1 35 1 36 0 C38.18639453 -0.07258946 40.37500389 -0.08373783 42.5625 -0.0625 C44.35880859 -0.04896484 44.35880859 -0.04896484 46.19140625 -0.03515625 C47.11824219 -0.02355469 48.04507813 -0.01195312 49 0 C49.05104406 7.6130891 49.08587707 15.22613344 49.10986328 22.83935547 C49.11987133 25.42498423 49.1334819 28.01060181 49.15087891 30.59619141 C49.17535674 34.3297808 49.18653544 38.06321951 49.1953125 41.796875 C49.20563507 42.93799744 49.21595764 44.07911987 49.22659302 45.25482178 C49.22802007 55.64855024 49.21802664 66.81562553 42 75 C36.30730268 79.44030391 31.8012774 80.22209901 24.75 80.3125 C23.64205078 80.35600586 23.64205078 80.35600586 22.51171875 80.40039062 C16.00567257 80.47497493 12.00203285 78.66712046 7.07421875 74.2890625 C-0.77631105 64.86842674 -0.14971394 53.90530466 -0.09765625 42.1875 C-0.0962413 40.97803711 -0.09482635 39.76857422 -0.09336853 38.52246094 C-0.08779709 34.68161485 -0.07524984 30.8408283 -0.0625 27 C-0.05748131 24.3867196 -0.05291905 21.77343827 -0.04882812 19.16015625 C-0.03783701 12.77341476 -0.02059209 6.38671746 0 0 Z " fill="#FE4A52" transform="translate(485,512)"/>
<path d="M0 0 C4.29 0 8.58 0 13 0 C16.46594111 8.21380565 19.09742863 16.58862403 21.625 25.125 C22.49733496 28.04897771 23.37317948 30.97189582 24.25 33.89453125 C24.47313873 34.63936264 24.69627747 35.38419403 24.92617798 36.15159607 C26.53216612 41.49406947 28.1893304 46.8188898 29.875 52.13671875 C30.10706146 52.87035645 30.33912292 53.60399414 30.57821655 54.35986328 C31.48038103 57.20978264 32.38315801 60.0594366 33.29718018 62.90557861 C33.92432667 64.85872206 34.54471841 66.81390236 35.1640625 68.76953125 C35.51936035 69.87917236 35.8746582 70.98881348 36.24072266 72.13208008 C37 75 37 75 37 79 C32.38 79 27.76 79 23 79 C22.16320723 76.37605694 21.33043058 73.75095616 20.5 71.125 C20.26152344 70.37863281 20.02304687 69.63226562 19.77734375 68.86328125 C18 63.2265625 18 63.2265625 18 61 C10.41 61 2.82 61 -5 61 C-5.99 65.95 -5.99 65.95 -7 71 C-7.94407253 73.68697566 -8.92545799 76.3624878 -10 79 C-14.62 79 -19.24 79 -24 79 C-21.71683732 70.53506667 -19.32424603 62.10574323 -16.875 53.6875 C-16.68290955 53.0270166 -16.49081909 52.3665332 -16.29290771 51.68603516 C-13.45535192 41.936619 -10.60258082 32.19151786 -7.70709229 22.45913696 C-7.13790484 20.54343359 -6.57256944 18.62658706 -6.00732422 16.7097168 C-4.29316091 10.97416578 -2.53755776 5.42622414 0 0 Z M6 22 C4.83117464 25.97853587 3.66530074 29.95793049 2.5 33.9375 C2.16613281 35.07380859 1.83226562 36.21011719 1.48828125 37.38085938 C1.17246094 38.46044922 0.85664062 39.54003906 0.53125 40.65234375 C0.23798828 41.65257568 -0.05527344 42.65280762 -0.35742188 43.68334961 C-1.04454708 45.75991697 -1.04454708 45.75991697 -1 47 C3.95 47 8.9 47 14 47 C11.69 38.75 9.38 30.5 7 22 C6.67 22 6.34 22 6 22 Z " fill="#FE4851" transform="translate(947,512)"/>
<path d="M0 0 C7.15513796 4.29610821 11.3869583 10.60102929 13.625 18.5 C13.625 19.82 13.625 21.14 13.625 22.5 C12.21103098 23.00757862 10.79368271 23.50574925 9.375 24 C8.58609375 24.2784375 7.7971875 24.556875 6.984375 24.84375 C4.625 25.5 4.625 25.5 0.625 25.5 C0.45484375 24.87351562 0.2846875 24.24703125 0.109375 23.6015625 C-0.13296875 22.78429687 -0.3753125 21.96703125 -0.625 21.125 C-0.97304687 19.90683594 -0.97304687 19.90683594 -1.328125 18.6640625 C-2.61915047 15.99530089 -3.63746371 15.50911073 -6.375 14.5 C-10.13005627 13.41520597 -12.18312556 13.4503773 -16 14.4375 C-20.78023177 17.35875275 -22.38432198 21.06431222 -23.90551758 26.33984375 C-26.02495075 36.09166109 -25.80360776 49.4144195 -21.70703125 58.51953125 C-19.35091925 62.02260687 -17.38586157 63.11694429 -13.375 64.5 C-9.48026163 64.57789477 -7.87657755 63.870212 -4.75 61.5625 C-1.62515217 57.53309096 -0.03860587 53.28635209 1.625 48.5 C3.41908332 49.1180287 5.21020478 49.74466081 7 50.375 C8.49660156 50.89707031 8.49660156 50.89707031 10.0234375 51.4296875 C12.625 52.5 12.625 52.5 14.625 54.5 C11.79932175 63.39257567 8.71788378 72.20227828 0.625 77.5625 C-6.22031678 80.86395127 -14.11726102 80.98673766 -21.25 78.49609375 C-29.37094563 74.15089266 -34.45830099 67.05731751 -37.25 58.375 C-41.39500935 41.99839865 -40.29202963 24.5686006 -32.375 9.5 C-30.00197113 6.17581845 -27.82260151 3.83306602 -24.3125 1.75 C-23.64089844 1.34265625 -22.96929687 0.9353125 -22.27734375 0.515625 C-15.91218639 -2.88261096 -6.57620335 -2.93280582 0 0 Z " fill="#FE4952" transform="translate(147.375,512.5)"/>
<path d="M0 0 C4.62 0 9.24 0 14 0 C18.62 17.49 23.24 34.98 28 53 C31.11112483 41.16987474 31.11112483 41.16987474 34.22167969 29.33959961 C36.79526291 19.55453861 39.38692929 9.77459396 42 0 C46.62 0 51.24 0 56 0 C55.34902436 7.58463697 53.32122566 14.71310377 51.2890625 22.02734375 C50.91611917 23.38429044 50.5435987 24.74135341 50.17147827 26.098526 C49.393128 28.93276874 48.61111496 31.76596487 47.82617188 34.59838867 C46.82666716 38.20540301 45.83416444 41.81429536 44.84415627 45.42392635 C44.07575452 48.22396115 43.30471083 51.02326281 42.53278732 53.82232857 C42.16629106 55.15166834 41.80033391 56.48115688 41.4349556 57.81080437 C39.47196003 64.94506359 37.42089535 72.00698451 35 79 C30.38 79 25.76 79 21 79 C16.32643589 64.53771108 12.3141416 49.90355725 8.29797363 35.2479248 C7.56082376 32.56025896 6.82120985 29.87327402 6.08149338 27.18631363 C4.5527623 21.63304641 3.02586849 16.07927258 1.50292969 10.52441406 C1.23599304 9.55119202 0.9690564 8.57796997 0.69403076 7.57525635 C0.46500061 6.72542175 0.23597046 5.87558716 0 5 C-0.21662292 4.24668396 -0.43324585 3.49336792 -0.65643311 2.71722412 C-0.82649872 1.86719818 -0.82649872 1.86719818 -1 1 C-0.67 0.67 -0.34 0.34 0 0 Z " fill="#FE4B53" transform="translate(623,512)"/>
<path d="M0 0 C16.17 0 32.34 0 49 0 C49 4.62 49 9.24 49 14 C48.67 14.33 48.34 14.66 48 15 C42.39 15 36.78 15 31 15 C31 36.12 31 57.24 31 79 C26.71 79 22.42 79 18 79 C18 57.88 18 36.76 18 15 C12.39 15 6.78 15 1 15 C0.67 14.67 0.34 14.34 0 14 C0 9.38 0 4.76 0 0 Z " fill="#FE4A52" transform="translate(874,512)"/>
<path d="M0 0 C6.81761894 -0.0252689 13.63522589 -0.04283244 20.45288086 -0.05493164 C22.77417451 -0.05997333 25.09546497 -0.06680651 27.41674805 -0.07543945 C30.74528795 -0.08751225 34.07378602 -0.09322979 37.40234375 -0.09765625 C38.44712387 -0.10281754 39.49190399 -0.10797882 40.56834412 -0.11329651 C41.52926468 -0.11337204 42.49018524 -0.11344757 43.48022461 -0.11352539 C44.33071884 -0.115746 45.18121307 -0.11796661 46.05747986 -0.12025452 C48 0 48 0 49 1 C49.0989294 3.16480797 49.129711 5.33293785 49.125 7.5 C49.12886719 9.27890625 49.12886719 9.27890625 49.1328125 11.09375 C49 14 49 14 48 15 C42.39 15 36.78 15 31 15 C31 36.12 31 57.24 31 79 C26.71 79 22.42 79 18 79 C16.63075897 76.26151794 16.92244852 74.14560373 16.97827148 71.08154297 C16.99836777 69.84040741 17.01846405 68.59927185 17.03916931 67.32052612 C17.06636765 65.96107771 17.09367846 64.60163155 17.12109375 63.2421875 C17.14539274 61.85499844 17.16923641 60.46780134 17.19264221 59.08059692 C17.2555052 55.4275802 17.32456548 51.77470571 17.39489746 48.12182617 C17.46556097 44.39508548 17.53038979 40.66824386 17.59570312 36.94140625 C17.72474398 29.62749255 17.86032911 22.31371924 18 15 C16.78441406 15.01160156 15.56882812 15.02320313 14.31640625 15.03515625 C12.73177236 15.04453278 11.14713682 15.05363313 9.5625 15.0625 C8.76005859 15.07087891 7.95761719 15.07925781 7.13085938 15.08789062 C5.08704779 15.0965143 3.04316098 15.0522815 1 15 C0 14 0 14 -0.09765625 10.83984375 C-0.08025391 8.90818359 -0.08025391 8.90818359 -0.0625 6.9375 C-0.05347656 5.64714844 -0.04445313 4.35679687 -0.03515625 3.02734375 C-0.02355469 2.02832031 -0.01195312 1.02929688 0 0 Z " fill="#FE4A53" transform="translate(282,512)"/>
<path d="M0 0 C4.29 0 8.58 0 13 0 C14.69668207 1.69668207 14.11968993 3.81132018 14.12442017 6.07440186 C14.12082489 6.80016418 14.11722961 7.52592651 14.11352539 8.27368164 C14.11367142 9.03460617 14.11381744 9.7955307 14.1139679 10.57951355 C14.11326862 13.10642298 14.10547555 15.63325962 14.09765625 18.16015625 C14.09579212 19.9075059 14.0943682 21.65485607 14.09336853 23.40220642 C14.08954293 28.01031934 14.07971229 32.61840095 14.06866455 37.22650146 C14.05845134 41.92508521 14.0538711 46.62367399 14.04882812 51.32226562 C14.03809005 60.54819087 14.02101313 69.77409284 14 79 C9.38 79 4.76 79 0 79 C0 52.93 0 26.86 0 0 Z " fill="#FE5158" transform="translate(1049,512)"/>
<path d="M0 0 C4.29 0 8.58 0 13 0 C14.15993765 3.47981294 14.1400265 6.59087332 14.12939453 10.20947266 C14.13114685 10.93982224 14.13289917 11.67017181 14.13470459 12.4226532 C14.13910572 14.83648047 14.13619184 17.25023449 14.1328125 19.6640625 C14.13348589 21.33889785 14.13445621 23.0137331 14.13571167 24.68856812 C14.13718616 28.19733613 14.1350415 31.70607869 14.13037109 35.21484375 C14.12466515 39.72223237 14.12795984 44.22956156 14.13394356 48.73694801 C14.13754837 52.19406588 14.13641111 55.65116953 14.13381577 59.10828781 C14.13314673 60.77094912 14.13397411 62.4336117 14.13629532 64.09627151 C14.13882149 66.41398821 14.1349822 68.73160705 14.12939453 71.04931641 C14.13141876 71.74231339 14.13344299 72.43531036 14.13552856 73.14930725 C14.11426463 77.88573537 14.11426463 77.88573537 13 79 C8.71 79 4.42 79 0 79 C0 52.93 0 26.86 0 0 Z " fill="#FE5259" transform="translate(605,512)"/>
<path d="M0 0 C4.29 0 8.58 0 13 0 C13 26.07 13 52.14 13 79 C8.71 79 4.42 79 0 79 C0 52.93 0 26.86 0 0 Z " fill="#FE434C" transform="translate(855,512)"/>
<path d="M0 0 C0.66 0 1.32 0 2 0 C2 63.03 2 126.06 2 191 C23.78 191 45.56 191 68 191 C68 191.33 68 191.66 68 192 C45.89 192 23.78 192 1 192 C1 130.29 1 68.58 1 5 C0.34 5 -0.32 5 -1 5 C-0.67 3.35 -0.34 1.7 0 0 Z " fill="#FE757C" transform="translate(693,280)"/>
<path d="M0 0 C3.96 0 7.92 0 12 0 C12 26.07 12 52.14 12 79 C7.71 79 3.42 79 -1 79 C-1 78.67 -1 78.34 -1 78 C2.96 78 6.92 78 11 78 C11 52.59 11 27.18 11 1 C7.7 1 4.4 1 1 1 C1 17.83 1 34.66 1 52 C0.34 52 -0.32 52 -1 52 C-1.87900279 48.99205536 -2.10208928 46.37531137 -2.03759766 43.24731445 C-2.02072906 42.30986893 -2.00386047 41.3724234 -1.98648071 40.40657043 C-1.9506337 38.90014229 -1.9506337 38.90014229 -1.9140625 37.36328125 C-1.89282318 36.3280986 -1.87158386 35.29291595 -1.84970093 34.22636414 C-1.80349114 32.04172093 -1.75456723 29.85713368 -1.703125 27.67260742 C-1.62505951 24.31505965 -1.55803167 20.95741661 -1.4921875 17.59960938 C-1.44597247 15.47915218 -1.39911959 13.35870877 -1.3515625 11.23828125 C-1.33171295 10.22792313 -1.3118634 9.217565 -1.29141235 8.17658997 C-1.26823944 7.24860092 -1.24506653 6.32061188 -1.22119141 5.36450195 C-1.20263092 4.54383743 -1.18407043 3.72317291 -1.16494751 2.87763977 C-1 1 -1 1 0 0 Z " fill="#FE8C92" transform="translate(582,512)"/>
<path d="M0 0 C4.62 0 9.24 0 14 0 C12.17937765 4.55155588 10.38117088 7.41330537 7.4375 11.25 C7.02564453 11.79140625 6.61378906 12.3328125 6.18945312 12.890625 C3.21552579 16.78447421 3.21552579 16.78447421 2 18 C-0.33297433 18.04092937 -2.66705225 18.04241723 -5 18 C-6 16 -6 16 -4.78515625 12.3046875 C-4.21866415 10.82514342 -3.64408111 9.34867819 -3.0625 7.875 C-2.77181641 7.12089844 -2.48113281 6.36679687 -2.18164062 5.58984375 C-1.46125002 3.72391398 -0.73149596 1.8616042 0 0 Z " fill="#FE545C" transform="translate(954,489)"/>
<path d="M0 0 C4.29 0 8.58 0 13 0 C13 0.33 13 0.66 13 1 C9.04 1 5.08 1 1 1 C1 26.41 1 51.82 1 78 C4.3 78 7.6 78 11 78 C11 61.83 11 45.66 11 29 C11.66 29 12.32 29 13 29 C13.96179643 31.88538928 14.10032616 33.5623428 14.03759766 36.54736328 C14.02072906 37.46486359 14.00386047 38.38236389 13.98648071 39.32766724 C13.9625827 40.31524017 13.93868469 41.30281311 13.9140625 42.3203125 C13.89282318 43.33471405 13.87158386 44.3491156 13.84970093 45.39425659 C13.80344605 47.53779784 13.75451836 49.68128283 13.703125 51.82470703 C13.62514924 55.11869563 13.55808233 58.41278129 13.4921875 61.70703125 C13.44596612 63.78647296 13.39911283 65.86590075 13.3515625 67.9453125 C13.33171295 68.9369339 13.3118634 69.9285553 13.29141235 70.95022583 C13.26823944 71.86142181 13.24506653 72.7726178 13.22119141 73.71142578 C13.20263092 74.51734161 13.18407043 75.32325745 13.16494751 76.15359497 C13 78 13 78 12 79 C8.04 79 4.08 79 0 79 C0 52.93 0 26.86 0 0 Z " fill="#FE8289" transform="translate(226,512)"/>
<path d="M0 0 C0.66 0 1.32 0 2 0 C2.96555925 2.89667774 3.09561506 4.56672261 3.02172852 7.56323242 C3.00163223 8.48396042 2.98153595 9.40468842 2.96083069 10.35331726 C2.93379562 11.34402725 2.90676056 12.33473724 2.87890625 13.35546875 C2.85529526 14.37224197 2.83168427 15.3890152 2.80735779 16.43659973 C2.73072902 19.68704212 2.64670099 22.9372458 2.5625 26.1875 C2.50927855 28.38996224 2.45653815 30.59243617 2.40429688 32.79492188 C2.27511492 38.19676257 2.13985601 43.59842569 2 49 C1.34 49 0.68 49 0 49 C0 32.83 0 16.66 0 0 Z " fill="#FE9499" transform="translate(237,541)"/>
<path d="M0 0 C0.66 0 1.32 0 2 0 C2 10.23 2 20.46 2 31 C1.67 31 1.34 31 1 31 C1 22.42 1 13.84 1 5 C0.34 5 -0.32 5 -1 5 C-0.67 3.35 -0.34 1.7 0 0 Z " fill="#FE7C82" transform="translate(693,280)"/>
<path d="M0 0 C0.66 0.33 1.32 0.66 2 1 C-1.96 4.96 -5.92 8.92 -10 13 C-10.66 12.67 -11.32 12.34 -12 12 C-10.75479583 10.55834372 -9.50362077 9.12184348 -8.25 7.6875 C-7.55390625 6.88699219 -6.8578125 6.08648437 -6.140625 5.26171875 C-4.20854665 3.22034399 -2.30056874 1.60107149 0 0 Z " fill="#FE787E" transform="translate(833,218)"/>
<path d="M0 0 C-1.3881735 3.12857014 -3.01101878 5.28189174 -5.4375 7.6875 C-6.03433594 8.28949219 -6.63117188 8.89148438 -7.24609375 9.51171875 C-9 11 -9 11 -12 12 C-10.53033642 8.60140297 -8.61962486 6.35036291 -6 3.75 C-5.29875 3.04359375 -4.5975 2.3371875 -3.875 1.609375 C-2 0 -2 0 0 0 Z " fill="#FE747A" transform="translate(136,219)"/>
<path d="M0 0 C0.66 0.33 1.32 0.66 2 1 C0.38113585 2.67262717 -1.2452729 4.33795537 -2.875 6 C-3.77992188 6.928125 -4.68484375 7.85625 -5.6171875 8.8125 C-8 11 -8 11 -10 11 C-8.55218207 7.55571735 -6.72305391 5.63869038 -3.875 3.25 C-3.15054687 2.63640625 -2.42609375 2.0228125 -1.6796875 1.390625 C-0.84824219 0.70226562 -0.84824219 0.70226562 0 0 Z " fill="#FE7279" transform="translate(417,219)"/>
<path d="M0 0 C0.66 0 1.32 0 2 0 C0.34908222 4.29238623 -2.73754566 6.8793915 -6 10 C-6.66 9.67 -7.32 9.34 -8 9 C-6.71520959 7.49410612 -5.42195918 5.99542625 -4.125 4.5 C-3.04605469 3.24703125 -3.04605469 3.24703125 -1.9453125 1.96875 C-1.30335937 1.3190625 -0.66140625 0.669375 0 0 Z " fill="#FE7076" transform="translate(1037,220)"/>
<path d="M0 0 C0.66 0.33 1.32 0.66 2 1 C-1.3 4.3 -4.6 7.6 -8 11 C-8 6.67750434 -5.85084926 5.11604454 -3 2 C-2.01 1.34 -1.02 0.68 0 0 Z " fill="#FE757B" transform="translate(410,514)"/>
<path d="M0 0 C0.66 0.33 1.32 0.66 2 1 C-0.64 3.64 -3.28 6.28 -6 9 C-6 6 -6 6 -3.5625 3.375 C-2.716875 2.59125 -1.87125 1.8075 -1 1 C-0.67 0.67 -0.34 0.34 0 0 Z " fill="#FE777D" transform="translate(809,513)"/>
<path d="M0 0 C0.33 0.66 0.66 1.32 1 2 C3.31 2 5.62 2 8 2 C7.67 2.66 7.34 3.32 7 4 C4.69 4 2.38 4 0 4 C-0.33 3.34 -0.66 2.68 -1 2 C-0.67 1.34 -0.34 0.68 0 0 Z " fill="#FE9BA0" transform="translate(949,503)"/>
</svg>
