<?xml version="1.0" encoding="UTF-8"?>
<svg version="1.1" xmlns="http://www.w3.org/2000/svg" width="3508" height="1073">
<path d="M0 0 C1.16208984 -0.01611328 2.32417969 -0.03222656 3.52148438 -0.04882812 C4.64232422 -0.04947266 5.76316406 -0.05011719 6.91796875 -0.05078125 C7.93012451 -0.05376221 8.94228027 -0.05674316 9.98510742 -0.05981445 C14.15648461 0.48947751 16.81427413 2.17167043 19.5625 5.3125 C21.96344044 9.1540047 21.93851036 12.37059257 21.94113445 16.79908276 C21.94288749 17.46394995 21.94464053 18.12881715 21.94644669 18.81383184 C21.95112509 21.05772704 21.94863642 23.30155796 21.94621277 25.54545593 C21.94807988 27.16436196 21.95038018 28.78326753 21.95307809 30.40217239 C21.9592161 34.86408795 21.95906012 39.32598484 21.95788372 43.78790367 C21.95768018 48.5961288 21.96319434 53.40434786 21.96794128 58.21257019 C21.97626223 67.64306666 21.97899688 77.07355688 21.97955366 86.50405671 C21.98002868 94.17826601 21.98208274 101.85247325 21.98525429 109.5266819 C21.99406921 131.30104385 21.99867302 153.07540086 21.99792381 174.84976461 C21.99786388 176.61203762 21.99786388 176.61203762 21.99780273 178.40991211 C21.99776185 179.5862036 21.99772097 180.7624951 21.99767885 181.97443179 C21.99727341 200.98902341 22.006815 220.00359512 22.0209411 239.01818099 C22.03534256 258.5585677 22.04220904 278.09894474 22.04134732 297.63933688 C22.04101638 308.60259611 22.04371762 319.56583454 22.05452538 330.52908897 C22.06368064 339.87614981 22.06576516 349.22318045 22.05901595 358.57024386 C22.05577429 363.33061045 22.05560736 368.09091929 22.0643692 372.85128021 C22.14892954 421.86417781 22.14892954 421.86417781 17.625 443.0625 C17.41141846 444.08851318 17.19783691 445.11452637 16.9777832 446.17163086 C8.87801998 483.24793092 -11.30112119 515.99111436 -43.22338867 536.98168945 C-74.01476914 556.68242651 -111.20696351 565.35812507 -147.5390625 565.515625 C-148.59620453 565.52132507 -149.65334656 565.52702515 -150.74252319 565.53289795 C-152.97287008 565.54228767 -155.20323047 565.54885773 -157.43359375 565.55273438 C-160.75547354 565.56233518 -164.07670507 565.59337387 -167.3984375 565.625 C-216.51621219 565.86838293 -266.36018698 554.67983325 -302.1875 519.3125 C-333.39885885 488.1520569 -342.37681429 442.69178188 -342.49104309 400.16355896 C-342.49078152 397.74315373 -342.48984379 395.32274849 -342.48828125 392.90234375 C-342.49217987 390.3609663 -342.49651688 387.8195895 -342.50126648 385.2782135 C-342.508688 379.97231663 -342.50860988 374.66648919 -342.50317383 369.3605957 C-342.49715501 363.29683007 -342.50941136 357.23329771 -342.5307439 351.16957182 C-342.55075037 345.25732581 -342.55350223 339.34516832 -342.55000877 333.43289375 C-342.55051514 330.95470191 -342.55562085 328.47650579 -342.56582069 325.99833488 C-342.73748133 278.45383482 -333.58998765 229.69291814 -299.3828125 194.4140625 C-290.16872295 185.26843677 -279.67198562 178.26366675 -268.1875 172.3125 C-266.44919922 171.40371094 -266.44919922 171.40371094 -264.67578125 170.4765625 C-220.79207861 148.35812282 -161.32229798 147.19986366 -115.0625 162 C-93.86018205 169.20004536 -72.71580013 182.59516001 -61.1875 202.3125 C-61.18530016 201.12450161 -61.18530016 201.12450161 -61.18305588 199.91250324 C-61.14592376 180.59703996 -61.08682443 161.28175658 -61.00359726 141.96643543 C-60.96387216 132.62548872 -60.93144661 123.28462546 -60.91650391 113.94360352 C-60.90345343 105.79723687 -60.87640259 97.65105435 -60.83288693 89.50479144 C-60.81034814 85.19565843 -60.79458474 80.88675188 -60.79561615 76.5775547 C-60.79636728 72.512002 -60.77823693 68.44694843 -60.74633217 64.38152504 C-60.73789376 62.89861838 -60.73604148 61.41565533 -60.74169731 59.93273544 C-60.79873652 42.66152776 -55.87843407 28.9571086 -44.12109375 16.15234375 C-31.54942371 4.19020922 -16.9226965 -0.04740251 0 0 Z M-242.1875 256.3125 C-264.52840997 281.94006154 -260.52921914 322.75043041 -260.44824219 354.35668945 C-260.43685722 358.84521246 -260.44361705 363.33349803 -260.45512199 367.8220129 C-262.39733294 420.68844335 -262.39733294 420.68844335 -239.45703125 466.20703125 C-215.4098566 488.51585593 -180.33144983 489.29800272 -149.1875 488.3125 C-123.37682601 487.05618841 -96.92879484 482.39701915 -78.3515625 462.93359375 C-60.05040307 440.76738801 -60.03118102 410.54142176 -60.01953125 383.24609375 C-60.01630481 381.43693518 -60.0129398 379.62777685 -60.00944519 377.81861877 C-60.00350096 374.04598386 -60.00160033 370.27337168 -60.00219727 366.50073242 C-60.00227839 362.67939507 -59.99535073 358.85817795 -59.98168945 355.03686523 C-57.87598586 302.46785737 -57.87598586 302.46785737 -79.1875 256.3125 C-79.80496094 255.61511719 -80.42242188 254.91773438 -81.05859375 254.19921875 C-85.84618031 249.08411118 -91.00178881 245.55791798 -97.1875 242.3125 C-98.43466797 241.64927734 -98.43466797 241.64927734 -99.70703125 240.97265625 C-117.64916493 232.12263829 -137.78313148 230.95278015 -157.42602539 230.99682617 C-160.35275936 230.99997606 -163.27846896 230.97647964 -166.20507812 230.95117188 C-194.03912464 230.85690962 -222.28567497 235.28415657 -242.1875 256.3125 Z " fill="#273585" transform="translate(2325.1875,144.6875)"/>
<path d="M0 0 C1.022005 -0.00067474 2.04401001 -0.00134949 3.09698486 -0.00204468 C53.61162801 0.05081868 104.2789007 9.02639348 142.0625 45 C170.92246682 74.97674761 182.11526241 118.74995924 182.16113281 159.46923828 C182.16609772 160.54405457 182.17106262 161.61887085 182.17617798 162.72625732 C182.19069529 166.25761578 182.19758715 169.78892919 182.203125 173.3203125 C182.20595238 174.53889828 182.20877975 175.75748405 182.21169281 177.01299667 C182.22664957 183.47269657 182.23589895 189.93237436 182.24023438 196.39208984 C182.24568774 202.99671997 182.26965944 209.60114068 182.29820633 216.20570564 C182.31703101 221.34167019 182.32204891 226.47758651 182.32357025 231.61358261 C182.3265571 234.04433196 182.33444733 236.4750813 182.34775543 238.90579605 C182.58702289 286.00130038 172.71976831 332.43959056 139.046875 367.2265625 C105.54383255 400.87822428 55.94566409 412.39576175 9.87358093 412.66744995 C6.60299889 412.66723443 3.33299067 412.64877388 0.0625 412.625 C-1.07231812 412.62067963 -2.20713623 412.61635925 -3.37634277 412.61190796 C-19.7502799 412.53890516 -35.84984657 412.19208221 -52 409.25 C-53.01255859 409.07307617 -54.02511719 408.89615234 -55.06835938 408.71386719 C-93.82949137 401.79138248 -130.13290412 385.69807517 -154 353.25 C-182.86902952 311.39111107 -183.38279472 260.57680495 -183.26074219 211.65673828 C-183.24933166 207.04403061 -183.25614499 202.43155328 -183.26761341 197.81885338 C-183.3778877 145.70355481 -183.3778877 145.70355481 -178.8125 123.875 C-178.59891846 122.81812988 -178.38533691 121.76125977 -178.1652832 120.67236328 C-170.21890367 83.16860678 -150.47907247 49.52754418 -118 28.25 C-92.69052398 12.18526732 -63.5907585 4.56353264 -34 1.25 C-33.18611816 1.1557373 -32.37223633 1.06147461 -31.53369141 0.96435547 C-21.0544244 -0.08226062 -10.52063666 0.0062415 0 0 Z M-79.6796875 100.76953125 C-99.95277864 122.4419435 -100.33571639 154.34901017 -100.265625 182.1875 C-100.26697865 184.12882536 -100.26892492 186.07015039 -100.27142334 188.01147461 C-100.27434179 192.04511804 -100.27018428 196.07867183 -100.26074219 200.11230469 C-100.24934976 205.22160485 -100.25592708 210.33069469 -100.26788712 215.43998718 C-100.27519538 219.43828855 -100.27277721 223.43654197 -100.26763153 227.43484497 C-100.26631966 229.31625393 -100.26785366 231.19766759 -100.27259064 233.07907104 C-100.32830545 261.40785072 -98.74921113 290.62071085 -78.82421875 312.65625 C-69.54447625 321.76443424 -57.90591335 326.78421301 -45.5 330.125 C-44.43567749 330.41165527 -44.43567749 330.41165527 -43.34985352 330.70410156 C-28.99921828 334.22427964 -14.50179915 334.62409991 0.1875 334.5625 C1.54087967 334.55976578 1.54087967 334.55976578 2.92160034 334.55697632 C29.99758665 334.46486378 59.04202089 332.19867522 79.30859375 312.09375 C94.8185066 295.70591755 99.13636866 273.28321582 99.16113281 251.34619141 C99.16609772 250.28153656 99.17106262 249.21688171 99.17617798 248.1199646 C99.1907251 244.61382385 99.19759104 241.10772842 99.203125 237.6015625 C99.20595238 236.3957188 99.20877975 235.18987511 99.21169281 233.94749069 C99.2266594 227.55955539 99.23590342 221.1716425 99.24023438 214.78369141 C99.24569901 208.22997834 99.269692 201.67647512 99.29820633 195.12282753 C99.31696468 190.04543488 99.3220454 184.96809131 99.32357025 179.89066696 C99.32657026 177.47728714 99.33450739 175.06390761 99.34775543 172.65056229 C99.479585 146.77811864 97.89475691 118.9660683 78.6875 99.375 C73.83586941 94.77454375 68.99286712 91.20089505 63 88.25 C62.11054687 87.81171875 61.22109375 87.3734375 60.3046875 86.921875 C20.58466241 68.9558691 -46.54192097 69.76130771 -79.6796875 100.76953125 Z " fill="#273585" transform="translate(1152,297.75)"/>
<path d="M0 0 C7.45510286 6.98408073 12.97022736 14.4815802 18.0390625 23.32421875 C18.59207031 24.26523437 19.14507813 25.20625 19.71484375 26.17578125 C34.72114338 53.70671856 33.49492483 85.60051429 33.40910745 115.94807267 C33.39763684 120.96486763 33.4019121 125.98165452 33.40385437 130.99845886 C33.40473208 139.41103491 33.39376406 147.82352956 33.37524414 156.23608398 C33.35405014 165.91786476 33.3505772 175.59952682 33.3568061 185.28132612 C33.36252778 194.66044839 33.35682342 204.03952952 33.34563255 213.41864586 C33.34102706 217.38190165 33.34009488 221.34513195 33.3422184 225.30838966 C33.34412147 229.98310106 33.33584473 234.657694 33.320158 239.33237839 C33.31596725 241.03294954 33.31502874 242.73353284 33.31784821 244.43410683 C33.36032269 274.66968045 28.2984408 305.60279479 8.0390625 329.32421875 C7.40742187 330.11183594 6.77578125 330.89945313 6.125 331.7109375 C-13.93486741 355.64003027 -46.17683567 365.48955727 -75.9609375 370.32421875 C-76.83331055 370.4752002 -77.70568359 370.62618164 -78.60449219 370.78173828 C-95.6563798 373.61556758 -112.78237383 373.64078747 -130.0234375 373.69921875 C-131.15795349 373.70707397 -132.29246948 373.7149292 -133.46136475 373.72302246 C-154.43707503 373.83583377 -175.69586597 372.83306086 -196.0859375 367.51171875 C-197.62689087 367.1237915 -197.62689087 367.1237915 -199.19897461 366.72802734 C-207.70889095 364.52187646 -215.9246676 361.89286742 -223.9609375 358.32421875 C-224.62915527 358.02789551 -225.29737305 357.73157227 -225.98583984 357.42626953 C-235.56984061 353.0874905 -243.80841106 348.01787204 -251.9609375 341.32421875 C-253.01474609 340.51597656 -253.01474609 340.51597656 -254.08984375 339.69140625 C-273.58589599 324.01579253 -284.30063234 298.32694991 -287.66015625 274.09765625 C-291.5148644 238.55424344 -287.92650595 202.18292251 -265.13818359 173.30004883 C-240.83149892 143.67546159 -200.32032458 134.41644655 -163.96943665 130.80722046 C-158.14216459 130.28476298 -152.37015409 130.18963614 -146.52270508 130.21069336 C-145.43845245 130.21054733 -144.35419983 130.21040131 -143.23709106 130.21025085 C-139.6931958 130.21094129 -136.1493547 130.21869256 -132.60546875 130.2265625 C-130.13254322 130.22842977 -127.65961732 130.22985221 -125.18669128 130.23085022 C-118.70786501 130.23465105 -112.22906149 130.24446033 -105.75024414 130.2555542 C-99.12711902 130.26582088 -92.50399018 130.27035906 -85.88085938 130.27539062 C-72.90754243 130.28608497 -59.93424118 130.30293707 -46.9609375 130.32421875 C-47.02842338 123.28043044 -47.1184146 116.23717615 -47.22338867 109.19384766 C-47.2564566 106.80231086 -47.28454375 104.41069942 -47.30737305 102.01904297 C-47.34125429 98.56315568 -47.39358549 95.10794143 -47.44921875 91.65234375 C-47.45880363 90.07190277 -47.45880363 90.07190277 -47.46858215 88.45953369 C-47.74356986 74.2872085 -51.71524448 60.56991177 -61.9609375 50.32421875 C-91.46255196 25.29950298 -141.71836602 30.78057695 -177.62890625 33.62109375 C-192.62028347 34.96222673 -207.49291798 37.33919033 -222.3125 39.93261719 C-228.24171195 40.80931851 -234.57414268 41.2741302 -239.9609375 38.32421875 C-244.23623952 31.62624559 -243.69666553 24.44707205 -242.33984375 16.84375 C-238.11805887 -0.96280045 -228.33112213 -20.01015883 -212.9609375 -30.67578125 C-160.72866531 -62.82534812 -42.91793437 -38.78467684 0 0 Z M-196.8359375 212.13671875 C-207.90437901 225.93255136 -209.15998468 242.29774875 -207.9609375 259.32421875 C-207.38111334 263.54479924 -206.45726785 267.34008713 -204.9609375 271.32421875 C-204.48527344 272.60619141 -204.48527344 272.60619141 -204 273.9140625 C-198.98438683 285.45708713 -189.43796298 292.98044447 -177.93945312 297.61328125 C-166.2446546 301.81555831 -153.88227502 303.45159661 -141.5078125 303.52734375 C-140.73351898 303.53435806 -139.95922546 303.54137238 -139.16146851 303.54859924 C-136.67789821 303.56599067 -134.19456644 303.57245077 -131.7109375 303.57421875 C-130.4378775 303.57523087 -130.4378775 303.57523087 -129.13909912 303.57626343 C-105.85201389 303.54684596 -79.59020155 302.63269992 -61.46484375 286.0390625 C-49.21743763 273.34922135 -46.46362017 257.67059361 -46.66796875 240.58984375 C-46.67358103 239.21694407 -46.67784338 237.84403827 -46.68083191 236.47113037 C-46.69215261 232.9003773 -46.7215052 229.33000468 -46.75494385 225.75939941 C-46.78592457 222.09876651 -46.79939635 218.43807065 -46.81445312 214.77734375 C-46.84639084 207.62614876 -46.89742712 200.47520891 -46.9609375 193.32421875 C-59.94917803 193.25432133 -72.93737288 193.20120736 -85.92576408 193.16878223 C-91.95855284 193.15320998 -97.99121173 193.13212812 -104.02392578 193.09790039 C-109.85949075 193.06500317 -115.69493179 193.0473025 -121.53058243 193.03958702 C-123.74301221 193.03409749 -125.95543618 193.02338007 -128.16781235 193.00702858 C-151.60040375 192.8409264 -179.62253296 193.81515511 -196.8359375 212.13671875 Z " fill="#273585" transform="translate(869.9609375,336.67578125)"/>
<path d="M0 0 C22.06040558 21.54271023 32.29427043 51.36322297 32.67466921 81.93075663 C32.70282433 85.86946513 32.70853341 89.80803008 32.7109375 93.74682617 C32.71557375 95.52539165 32.72059948 97.30395615 32.72598267 99.08251953 C32.73903625 103.89316811 32.74553851 108.70380278 32.74999332 113.51446629 C32.75293718 116.53087356 32.75704451 119.54727715 32.7614975 122.56368256 C32.77515768 132.03251413 32.78482996 141.50133715 32.78869939 150.97017789 C32.7931681 161.84136984 32.81066696 172.7124353 32.83969998 183.58358884 C32.8614457 192.02398211 32.87141059 200.46434014 32.87274051 208.90476108 C32.87377992 213.92776036 32.87950016 218.95064054 32.89756012 223.97360992 C33.03637622 264.97722474 31.21757215 303.76547114 1.79980469 335.25756836 C-28.54168214 364.08198084 -75.20934274 372.10809751 -115.52050781 372.27319336 C-117.20042313 372.28174347 -117.20042313 372.28174347 -118.91427612 372.29046631 C-121.2756864 372.29985252 -123.63710941 372.30642466 -125.99853516 372.31030273 C-129.51782766 372.31991172 -133.0365104 372.35095772 -136.55566406 372.38256836 C-156.60516291 372.4770698 -176.89879431 371.38979858 -196.38769531 366.32006836 C-197.40726318 366.06330322 -198.42683105 365.80653809 -199.47729492 365.54199219 C-219.45644954 360.34600556 -237.77045154 352.76861707 -253.45019531 339.07006836 C-254.14371094 338.50803711 -254.83722656 337.94600586 -255.55175781 337.36694336 C-275.57568212 320.82207926 -285.92041099 293.7098702 -288.50610352 268.42895508 C-291.59438217 234.02006539 -287.24327797 198.68541315 -264.40722656 171.30834961 C-237.80975717 140.8884894 -196.48646788 132.72362355 -158.05754089 129.7303772 C-138.13786781 128.40105397 -118.11899923 128.85266215 -98.16717529 128.93273926 C-92.43405654 128.95350137 -86.70091925 128.96239671 -80.96777344 128.97241211 C-69.79519983 128.99361771 -58.62270689 129.02757835 -47.45019531 129.07006836 C-47.51769797 122.16868899 -47.60769514 115.26785393 -47.71264648 108.36694336 C-47.74570828 106.02391042 -47.77379725 103.68080142 -47.79663086 101.33764648 C-47.83052365 97.9512519 -47.88285496 94.56554274 -47.93847656 91.17944336 C-47.94806145 89.63181305 -47.94806145 89.63181305 -47.95783997 88.05291748 C-48.22894487 74.35491274 -51.85744099 61.1325816 -61.38769531 50.94506836 C-72.49823198 40.84458048 -86.92505463 36.47588876 -101.45019531 34.07006836 C-102.69542969 33.86381836 -103.94066406 33.65756836 -105.22363281 33.44506836 C-144.18552708 27.89900705 -185.49718768 33.0312921 -223.90380859 39.6784668 C-229.52728604 40.54328538 -234.23005051 40.44286145 -239.45019531 38.07006836 C-243.35994884 33.89067666 -243.80759026 29.6946246 -243.71972656 24.19116211 C-242.30667073 7.82838518 -235.17987857 -7.61256256 -224.45019531 -19.92993164 C-223.74830078 -20.84452148 -223.74830078 -20.84452148 -223.03222656 -21.77758789 C-214.8340285 -32.2262717 -204.44962628 -36.47333797 -191.63769531 -38.05493164 C-129.93021425 -44.75421627 -48.18138762 -45.2622842 0 0 Z M-196.25878906 210.64819336 C-207.95596258 223.5755509 -209.08737014 239.05182445 -208.58642578 255.67944336 C-207.93495495 267.11170577 -203.0811277 279.31872144 -194.45019531 287.07006836 C-176.79517079 300.53675098 -155.70614883 302.61432402 -134.24658203 302.46118164 C-131.58346038 302.44511821 -128.92186494 302.46112919 -126.25878906 302.48022461 C-103.80303823 302.50822945 -78.21548754 300.41579667 -61.13769531 284.19506836 C-51.68444794 274.11414058 -47.30852789 261.48710543 -47.33666992 247.69750977 C-47.33674545 246.45667633 -47.33682098 245.2158429 -47.3368988 243.93740845 C-47.34200418 242.5988155 -47.34722016 241.26022297 -47.35253906 239.92163086 C-47.35440625 238.54015148 -47.35582873 237.15867144 -47.35682678 235.77719116 C-47.36062829 232.15718732 -47.37043815 228.53722419 -47.38153076 224.91723633 C-47.39179597 221.21688385 -47.39633531 217.51652475 -47.40136719 213.81616211 C-47.41206274 206.56744572 -47.42911046 199.31876276 -47.45019531 192.07006836 C-59.52576742 192.02344126 -71.60131762 191.98804639 -83.6769619 191.96644402 C-89.28597602 191.95606871 -94.89492792 191.94202572 -100.50390625 191.91918945 C-105.93098169 191.89723558 -111.35799782 191.88545291 -116.78511429 191.88031387 C-118.84123288 191.87665813 -120.89734874 191.86952134 -122.95344162 191.85860825 C-148.26633574 191.72976986 -176.82921856 192.06067487 -196.25878906 210.64819336 Z " fill="#273585" transform="translate(2696.4501953125,337.929931640625)"/>
<path d="M0 0 C14.63814622 7.32757377 25.37151452 18.90782104 30.61328125 34.55859375 C32.25761121 40.66071488 32.90304739 46.36997154 32.87156677 52.67526245 C32.87524248 53.54751028 32.87891818 54.41975811 32.88270527 55.3184377 C32.89261988 58.2173983 32.88854743 61.1161646 32.88452148 64.01513672 C32.88891255 66.10383812 32.89421609 68.19253776 32.90036011 70.28123474 C32.91183561 74.76968327 32.91731777 79.25808474 32.9182415 83.7465477 C32.92018912 90.85997519 32.93828265 97.97330616 32.95899963 105.08670044 C33.00810301 122.76201727 33.03900173 140.43736035 33.06030273 158.11273193 C33.0768745 171.84015402 33.09983744 185.56749323 33.14332348 199.29486001 C33.1649641 206.34873907 33.17317032 213.40246019 33.17093074 220.45637012 C33.17261204 224.87025184 33.18674971 229.28403278 33.20414352 233.69787788 C33.20968526 235.72494452 33.21028251 237.75203257 33.20520592 239.77910042 C33.15438593 262.47383726 34.62386883 284.66451954 50.27734375 302.44921875 C60.41810642 312.3666166 74.9674711 317.09037673 88.61328125 319.55859375 C89.83273437 319.78289062 91.0521875 320.0071875 92.30859375 320.23828125 C122.80602862 324.73588276 162.46605249 324.69710236 188.26171875 305.59765625 C201.60505702 294.49824274 206.67015463 278.67972433 208.43350124 261.86766696 C209.13895303 252.80692733 208.86571472 243.66067493 208.83691406 234.58032227 C208.83638911 232.06747947 208.83682723 229.55463632 208.83815002 227.04179382 C208.83947796 221.65523449 208.83521198 216.26872499 208.82654572 210.88217354 C208.81342811 202.3644522 208.82109959 193.84680596 208.83197021 185.3290863 C208.83544705 182.40775787 208.83879228 179.4864293 208.84209824 176.56510067 C208.84292957 175.8353643 208.84376091 175.10562794 208.84461744 174.35377835 C208.85377573 166.07317485 208.85874678 157.79257073 208.86181641 149.51196289 C208.86210216 148.7561187 208.8623879 148.00027452 208.86268231 147.22152596 C208.86679518 134.94719148 208.85553374 122.6729054 208.8404409 110.39858175 C208.82547248 97.77242012 208.83344554 85.14640527 208.861058 72.52026504 C208.87721129 64.7435555 208.87455965 56.96730894 208.84758487 49.19062727 C208.82869706 43.23797745 208.84096518 37.28565021 208.86482048 31.33300972 C208.86959918 28.89291174 208.86409807 26.45276883 208.84758949 24.01272202 C208.82654347 20.68272212 208.84231316 17.35484462 208.86724854 14.0249176 C208.84482303 12.57570281 208.84482303 12.57570281 208.82194448 11.09721094 C208.91445362 5.25162744 209.98550866 2.09044215 214.03404021 -2.1804567 C220.55060338 -7.38362531 234.7518271 -4.81963452 242.61328125 -4.44140625 C257.51936231 -2.54643899 270.13525177 5.75207609 279.76171875 17.046875 C290.44318217 31.53670829 291.05399303 46.56033588 290.9855957 63.80883789 C290.98802669 65.95856909 290.99174899 68.10829916 290.99665833 70.25802612 C291.00603275 76.07457438 290.99666867 81.89095331 290.9833262 87.7074883 C290.97196468 93.81560731 290.9761231 99.92371854 290.97807312 106.03184509 C290.97895508 116.29493962 290.96790009 126.55796798 290.94946289 136.82104492 C290.92833634 148.64804686 290.92477764 160.47495165 290.93102485 172.30196863 C290.93674353 183.71695987 290.93104092 195.13191725 290.9198513 206.54690361 C290.91523433 211.38573273 290.91431885 216.22454095 290.91643715 221.06337166 C290.91833734 226.77867543 290.91008475 232.49388204 290.89437675 238.20916367 C290.89017597 240.29309499 290.88925454 242.37703626 290.89206696 244.46096992 C290.91060737 260.67265109 290.17285658 276.65344068 286.42578125 292.49609375 C286.10323364 293.87039551 286.10323364 293.87039551 285.77416992 295.27246094 C280.66651584 316.14988438 272.04826504 335.46535382 257.61328125 351.55859375 C257.04222656 352.25984375 256.47117187 352.96109375 255.8828125 353.68359375 C231.01816234 383.92278825 187.87710621 395.46946815 150.69311523 399.16821289 C142.02613537 399.91368266 133.33165727 399.89247914 124.63867188 399.87426758 C121.51266178 399.87111831 118.38761219 399.89463386 115.26171875 399.91992188 C69.60900507 400.06183604 22.16521825 389.36776175 -11.38671875 356.55859375 C-14.62127722 353.04569049 -17.54758984 349.39540852 -20.38671875 345.55859375 C-20.98742188 344.78386719 -21.588125 344.00914062 -22.20703125 343.2109375 C-33.34315432 328.2545749 -40.12827169 310.18226279 -44.13671875 292.12109375 C-44.33547607 291.22898193 -44.5342334 290.33687012 -44.73901367 289.41772461 C-48.32071753 272.24918872 -48.69406832 255.33923731 -48.70898438 237.87255859 C-48.71825987 235.31986206 -48.72831171 232.76716824 -48.73907471 230.21447754 C-48.76511588 223.33093506 -48.77824384 216.44743698 -48.78709602 209.56385374 C-48.79265431 205.25954043 -48.80113368 200.95523586 -48.81010437 196.6509285 C-48.83443436 184.7091828 -48.85505747 172.76744398 -48.86185455 160.82567406 C-48.86229369 160.06495312 -48.86273282 159.30423218 -48.86318526 158.52045909 C-48.86362181 157.75807853 -48.86405837 156.99569797 -48.86450815 156.21021497 C-48.86539505 154.6656967 -48.86628817 153.12117842 -48.8671875 151.57666016 C-48.86763036 150.81055001 -48.86807322 150.04443987 -48.8685295 149.25511427 C-48.87644746 136.80628655 -48.91144673 124.35769131 -48.95790654 111.90895359 C-49.00533215 99.09742175 -49.03025744 86.28600689 -49.03259039 73.47438586 C-49.03442174 66.29280571 -49.04587537 59.11153059 -49.08222961 51.93003464 C-49.11624538 45.18774024 -49.1195394 38.4461246 -49.1019516 31.70373535 C-49.10040763 29.22975742 -49.10913891 26.75574866 -49.1288681 24.28184891 C-49.15421441 20.90606574 -49.14260917 17.53235348 -49.1217041 14.15658569 C-49.13781691 13.17692506 -49.15392972 12.19726443 -49.1705308 11.18791711 C-49.08525719 5.30573479 -48.04821718 2.11074012 -43.96634817 -2.18508565 C-34.47077259 -9.73716528 -10.06658558 -4.28439456 0 0 Z " fill="#273585" transform="translate(1625.38671875,310.44140625)"/>
<path d="M0 0 C1.22871826 0.19295654 2.45743652 0.38591309 3.72338867 0.5847168 C16.97218897 2.85469704 27.22612031 7.6561936 35.5625 18.5 C46.68995592 34.69144784 55.5671758 55.55859875 53.5 75.5625 C51.79084146 84.30790247 51.79084146 84.30790247 48.69140625 87.3203125 C42.57424393 90.78779488 34.72070165 88.54140339 28.3125 86.875 C24.48987741 85.81182407 20.72495408 84.63914365 16.96875 83.359375 C8.33393092 80.44420104 -0.27722298 78.49623623 -9.25 76.875 C-10.35496826 76.67269775 -11.45993652 76.47039551 -12.59838867 76.26196289 C-30.60156597 73.1452545 -48.41254638 72.21190618 -66.6640625 72.24682617 C-70.12792005 72.25000268 -73.59093357 72.22636014 -77.0546875 72.20117188 C-95.63552036 72.14840613 -115.8083097 72.29667107 -131.5 83.5625 C-132.16 83.5625 -132.82 83.5625 -133.5 83.5625 C-138.70434872 93.57086293 -140.40939162 101.37892049 -138.5 112.5625 C-133.38881647 126.74747002 -122.03047978 133.57839059 -109.01428223 139.76322937 C-107.86445862 140.30002068 -107.86445862 140.30002068 -106.69140625 140.84765625 C-105.86709106 141.23496414 -105.04277588 141.62227203 -104.19348145 142.02131653 C-96.21152027 145.74460477 -88.13820214 149.24072413 -80.02957153 152.67752075 C-76.46630951 154.18826062 -72.90720154 155.70868779 -69.34767151 157.22819519 C-67.43316452 158.04534969 -65.51847895 158.86208591 -63.60362244 159.67842102 C-52.69128364 164.33054322 -41.78843838 169.00463163 -30.8918457 173.69351196 C-28.70592531 174.63337198 -26.51941978 175.57187248 -24.33227539 176.50888062 C-13.83659529 181.00556601 -3.36577754 185.5404995 6.96875 190.3984375 C7.71080185 190.74511978 8.4528537 191.09180206 9.21739197 191.44898987 C36.4192075 204.40372506 57.74324597 224.0258694 68.58203125 252.39453125 C78.63359587 281.72100631 77.91516865 319.22767143 64.71484375 347.49609375 C52.48418571 372.28587442 30.39441966 387.23862857 4.74682617 395.98071289 C-6.15575257 399.51689669 -17.18087324 401.8325193 -28.5 403.5625 C-29.44697754 403.71348145 -30.39395508 403.86446289 -31.36962891 404.02001953 C-76.72755029 410.95042882 -125.92111171 407.69827291 -171.1875 401.25 C-172.48042969 401.07380127 -173.77335937 400.89760254 -175.10546875 400.71606445 C-189.12023569 398.49537522 -199.36573281 392.94101128 -207.7421875 381.5 C-219.80529805 363.99501846 -228.23957646 342.07831409 -226.5 320.5625 C-225.50101267 315.98093741 -224.46432414 311.40261282 -220.5 308.5625 C-215.18904087 307.3934851 -211.65053046 307.76097168 -206.51171875 309.44140625 C-205.85992645 309.64864822 -205.20813416 309.8558902 -204.53659058 310.06941223 C-203.14131509 310.51338603 -201.74789012 310.96321119 -200.35623169 311.418396 C-196.65828401 312.62324058 -192.94278828 313.77097027 -189.2265625 314.91796875 C-188.4813887 315.14840881 -187.7362149 315.37884888 -186.96846008 315.61627197 C-167.88831513 321.46446193 -148.28067818 325.08177535 -128.5 327.5625 C-127.09935303 327.74039063 -127.09935303 327.74039063 -125.67041016 327.921875 C-110.51237704 329.73404334 -95.30698145 329.76579918 -80.0625 329.8125 C-79.08108032 329.81785767 -78.09966064 329.82321533 -77.08850098 329.82873535 C-43.90694406 330.52555874 -43.90694406 330.52555874 -14.5 317.5625 C-6.9136976 308.62372156 -6.72768129 299.82732002 -7.5 288.5625 C-9.75416306 278.93477947 -17.26062437 271.78921824 -25.265625 266.5078125 C-42.00532763 256.43973049 -59.91778516 248.77390719 -77.77462769 240.95175171 C-95.38546121 233.23669902 -112.94300692 225.39916208 -130.5 217.5625 C-131.53852112 217.09913239 -131.53852112 217.09913239 -132.59802246 216.62640381 C-165.46678919 201.94960816 -198.90416528 186.33203125 -213.875 151.25 C-224.85726297 121.63211232 -225.74033758 84.90622821 -213.5 55.5625 C-209.74457351 47.52157486 -205.3790343 40.21981787 -199.5 33.5625 C-198.79488281 32.76328125 -198.08976562 31.9640625 -197.36328125 31.140625 C-176.16818267 8.57923081 -144.33049174 0.09940906 -114.5 -3.4375 C-113.67564453 -3.54046387 -112.85128906 -3.64342773 -112.00195312 -3.74951172 C-74.87548808 -8.19709922 -36.81419428 -5.88091469 0 0 Z " fill="#273585" transform="translate(3021.5,303.4375)"/>
<path d="M0 0 C1.29716949 -0.00101212 1.29716949 -0.00101212 2.62054443 -0.00204468 C25.81541715 0.02634335 48.6474043 2.02625496 71.5625 5.5625 C72.76213379 5.73869873 73.96176758 5.91489746 75.19775391 6.09643555 C89.37464864 8.47663727 99.93827513 14.48036952 108.30859375 26.2265625 C118.15435885 41.52565308 124.45942237 58.13503877 124.625 76.375 C124.63515137 77.16865967 124.64530273 77.96231934 124.65576172 78.7800293 C124.58226653 83.63536968 123.91476324 87.08180175 121.1875 91.25 C118.48682538 93.85166821 116.60672272 94.68105488 112.875 94.6875 C104.93217767 94.4219696 97.38172546 91.82322511 89.83056641 89.53613281 C48.88722105 77.13888001 -16.65702139 65.73260217 -56.8125 86.25 C-62.25845573 89.46937914 -65.08536113 93.45471001 -67.15234375 99.4140625 C-69.32674638 108.7549874 -68.27158987 117.76976659 -63.8125 126.25 C-51.43973486 145.31347237 -20.05222834 153.59768213 -0.22369385 161.93942261 C5.67108532 164.42019975 11.55752926 166.92064466 17.4453125 169.41796875 C18.61554962 169.91379959 19.78578674 170.40963043 20.9914856 170.92048645 C30.88761582 175.11551835 40.76776822 179.34616704 50.62597656 183.62957764 C52.21605122 184.31997754 53.80684066 185.00873418 55.3984375 185.69561768 C88.08730115 199.80877299 123.35107783 216.61476518 137.5625 251.6875 C142.1836143 264.13701756 145.28361434 277.00013521 145.42578125 290.32421875 C145.43552979 291.08197098 145.44527832 291.83972321 145.45532227 292.62043762 C145.66915932 313.53089492 145.15366854 332.91120511 136.1875 352.25 C135.69636719 353.32507813 135.20523437 354.40015625 134.69921875 355.5078125 C130.4289422 364.12989834 124.95797238 370.556684 118.1875 377.25 C117.10855469 378.34441406 117.10855469 378.34441406 116.0078125 379.4609375 C92.93723004 401.48681434 57.74925438 408.17719193 27.1875 411.25 C26.27734131 411.3442627 25.36718262 411.43852539 24.42944336 411.53564453 C13.72162377 412.50616276 2.99305483 412.49370553 -7.75 412.5 C-8.79117981 412.50067474 -9.83235962 412.50134949 -10.90509033 412.50204468 C-40.34717084 412.47213693 -69.75466366 410.94992476 -98.9375 406.9375 C-99.96469147 406.80452011 -99.96469147 406.80452011 -101.01263428 406.66885376 C-114.85234042 404.8318013 -125.88710378 400.23635135 -134.8125 389.25 C-147.31541855 372.8157514 -154.8849983 352.47084501 -155.1875 331.8125 C-155.20167969 331.06661621 -155.21585938 330.32073242 -155.23046875 329.55224609 C-155.18432996 324.41815172 -154.18994567 320.81446486 -151.8125 316.25 C-149.55614267 314.12636957 -148.07696452 313.25280735 -144.94311523 313.24584961 C-138.60210415 313.89641428 -132.9962556 315.71662545 -127 317.8125 C-88.87081372 330.48948662 -49.00443508 335.49210777 -8.9375 335.4375 C-8.10966003 335.43689575 -7.28182007 335.4362915 -6.42889404 335.43566895 C27.23342538 336.10976211 27.23342538 336.10976211 56.953125 322.69140625 C62.51564062 316.84536435 64.30663293 310.31363703 64.625 302.375 C64.3544348 293.51398965 61.66893585 285.6668161 55.4765625 279.2109375 C41.85883191 267.54523655 24.36174356 260.11568817 8.0625 253 C6.51704958 252.31981902 4.97189232 251.63897162 3.42700195 250.95751953 C0.11038882 249.49507891 -3.20736875 248.03527899 -6.52587891 246.57714844 C-20.65590851 240.36322293 -34.75209118 234.07210597 -48.85198975 227.79019165 C-53.8285703 225.57399642 -58.80937029 223.36786678 -63.79577637 221.1738739 C-92.27732161 208.63235268 -92.27732161 208.63235268 -104.8125 200.25 C-105.864375 199.55003906 -106.91625 198.85007812 -108 198.12890625 C-120.77554131 189.06292967 -131.5465288 178.18086449 -138.8125 164.25 C-139.52986328 162.88101563 -139.52986328 162.88101563 -140.26171875 161.484375 C-148.27208089 145.03065818 -150.21607283 127.56011725 -150.125 109.5 C-150.12226578 108.37481461 -150.12226578 108.37481461 -150.11947632 107.22689819 C-150.07476504 96.30467663 -149.71880043 85.84393384 -146.8125 75.25 C-146.4721875 73.9815625 -146.131875 72.713125 -145.78125 71.40625 C-139.1850839 48.6829316 -123.8136827 30.79638225 -103.21728516 19.44189453 C-71.71301913 2.90381532 -34.96847524 0.02487929 0 0 Z " fill="#273585" transform="translate(380.8125,297.75)"/>
<path d="M0 0 C1.14614777 -0.0127597 2.29229553 -0.02551941 3.47317505 -0.03866577 C4.71678802 -0.04089142 5.960401 -0.04311707 7.24169922 -0.04541016 C8.52889862 -0.05206696 9.81609802 -0.05872375 11.14230347 -0.06558228 C13.87778053 -0.07757255 16.61313133 -0.08126247 19.34863281 -0.08007812 C22.12233978 -0.07991701 24.89537628 -0.09356248 27.66894531 -0.12109375 C55.61264598 -0.39463035 80.6456656 2.41298202 101.54638672 22.85302734 C107.95554317 29.3608522 112.86643181 36.40634018 117.42138672 44.29052734 C118.47648002 46.08272197 119.5325452 47.87434464 120.58935547 49.66552734 C123.61623004 54.81484551 126.61350619 59.98085832 129.60400391 65.15136719 C132.4691336 70.10029755 135.35144059 75.03916923 138.23388672 79.97802734 C139.08793091 81.44248291 139.08793091 81.44248291 139.95922852 82.93652344 C144.96443604 91.51628507 149.98816211 100.08513588 155.01382446 108.65292358 C160.39373567 117.82501647 165.75873559 127.00565485 171.11279297 136.19287109 C175.34144765 143.44612161 179.58410276 150.69106826 183.83197021 157.93307495 C185.97941897 161.59446967 188.12583574 165.25646947 190.27224731 168.91847229 C192.01113499 171.8851307 193.75043272 174.85154675 195.49072266 177.81738281 C197.42782319 181.11983435 199.36241905 184.42374045 201.29638672 187.72802734 C201.87324219 188.71029297 202.45009766 189.69255859 203.04443359 190.70458984 C203.57875 191.61853516 204.11306641 192.53248047 204.66357422 193.47412109 C205.12618652 194.26359131 205.58879883 195.05306152 206.06542969 195.86645508 C206.51289551 196.66639893 206.96036133 197.46634277 207.42138672 198.29052734 C208.02853516 199.26030518 208.63568359 200.23008301 209.26123047 201.22924805 C210.42138672 204.29052734 210.42138672 204.29052734 209.53125 207.12939453 C208.64542236 208.5936084 208.64542236 208.5936084 207.74169922 210.08740234 C207.08741943 211.19744629 206.43313965 212.30749023 205.7590332 213.45117188 C205.02175564 214.64779088 204.28419937 215.84423819 203.54638672 217.04052734 C202.7992342 218.29151336 202.05455668 219.5439806 201.31225586 220.79785156 C199.78057703 223.37926892 198.23730482 225.95316836 196.68457031 228.52197266 C193.32049683 234.10175042 190.09734869 239.76227848 186.85888672 245.41552734 C185.61894044 247.56450699 184.37805375 249.7129443 183.13623047 251.86083984 C179.39487016 258.33562756 175.65781189 264.81289078 171.92138672 271.29052734 C170.6714055 273.45720485 169.42140551 275.62387152 168.17138672 277.79052734 C167.24326172 279.39927734 167.24326172 279.39927734 166.29638672 281.04052734 C160.67138672 290.79052735 160.67138672 290.79052735 158.79663086 294.04003906 C157.54574192 296.20828999 156.2949282 298.37658431 155.04418945 300.54492188 C151.93340337 305.9377065 148.82134434 311.32974827 145.70654297 316.72021484 C144.46563861 318.86864141 143.2247532 321.01707891 141.98388672 323.16552734 C141.37279053 324.22271973 140.76169434 325.27991211 140.13208008 326.36914062 C136.7990823 332.14250123 133.48770177 337.92731367 130.20263672 343.72802734 C129.49103562 344.98213541 128.77936611 346.23620465 128.06762695 347.49023438 C126.72365183 349.85830352 125.38548438 352.22933693 124.05053711 354.60253906 C110.34950187 378.75103732 94.06507032 400.05369198 66.60888672 408.66552734 C51.9896877 412.2576116 37.05831355 412.64122682 22.07641602 412.60620117 C19.19820011 412.6029875 16.32096488 412.62680742 13.44287109 412.65185547 C11.58805466 412.65412435 9.73323551 412.65483388 7.87841797 412.65380859 C7.03044144 412.66301834 6.1824649 412.67222809 5.30879211 412.68171692 C-0.06209451 412.64001733 -3.81340823 411.81802966 -8.57861328 409.29052734 C-11.07345199 406.14486114 -10.95831299 403.20023925 -10.57861328 399.29052734 C-9.20030628 395.68918374 -7.44301918 392.29885099 -5.68017578 388.87255859 C-5.17118744 387.86069992 -4.6621991 386.84884125 -4.13778687 385.80632019 C-2.50422863 382.56610349 -0.85405136 379.33467291 0.79638672 376.10302734 C1.86906491 373.97921525 2.94068997 371.8548709 4.01123047 369.72998047 C9.22456196 359.40663381 14.5299844 349.13583988 19.94125366 338.91499329 C23.54915042 332.08645306 27.01357054 325.19154401 30.44042969 318.27075195 C35.36040951 308.33895595 40.33247335 298.44666513 45.55419922 288.66943359 C50.02354775 280.24870739 54.23326568 271.69765334 58.47988892 263.16326904 C65.74303098 248.57293864 65.74303098 248.57293864 69.44555664 241.60693359 C70.21431254 240.15880076 70.97379187 238.7057009 71.72338867 237.24755859 C74.0583952 232.72514646 76.57901547 228.37621982 79.23388672 224.03271484 C85.91135567 213.5240529 85.91135567 213.5240529 88.30322266 201.6484375 C86.92556675 196.41019011 84.07226455 192.12505242 81.02099609 187.70703125 C78.20066401 183.44640137 76.0313409 178.84700895 73.73388672 174.29052734 C72.71317839 172.34049528 71.68834275 170.39261874 70.65966797 168.44677734 C67.21564027 161.91082028 63.81712357 155.35167097 60.42138672 148.79052734 C56.10089994 140.45044799 51.77012133 132.11591233 47.42138672 123.79052734 C42.47245015 114.31609264 37.54956447 104.82832021 32.63232422 95.33740234 C28.90686102 88.14906366 25.16991855 80.966861 21.42138672 73.79052734 C16.48097266 64.33240845 11.55681895 54.86591706 6.66308594 45.38354492 C3.77344057 39.79095609 0.85538275 34.21762764 -2.13330078 28.67724609 C-2.69275391 27.63181641 -3.25220703 26.58638672 -3.82861328 25.50927734 C-4.88349243 23.54152201 -5.94806129 21.57891916 -7.02392578 19.62255859 C-11.35252339 11.51238396 -11.35252339 11.51238396 -10.57861328 6.29052734 C-8.63286117 0.90229074 -5.40287193 0.04086419 0 0 Z " fill="#BABD0D" transform="translate(3194.57861328125,94.70947265625)"/>
<path d="M0 0 C1.14919922 -0.02449219 2.29839844 -0.04898437 3.48242188 -0.07421875 C14.25876544 -0.11165828 14.25876544 -0.11165828 18.8125 4.375 C22.38777585 9.82941938 22.23305061 14.74634704 22.1867218 21.04205322 C22.19069621 22.11758257 22.19467061 23.19311191 22.19876546 24.30123305 C22.20839259 27.90701104 22.19656642 31.51239705 22.18481445 35.11816406 C22.18724267 37.70424547 22.19096228 40.29032593 22.19587708 42.87640381 C22.20536675 49.1796287 22.1987586 55.48273906 22.18661413 61.78595546 C22.17294901 69.15629158 22.17463676 76.52660083 22.17674746 83.8969464 C22.17993924 97.08529226 22.16827134 110.27358422 22.14868164 123.46191406 C22.12978522 136.18719129 22.1225654 148.91240506 22.12817383 161.63769531 C22.1342793 175.531534 22.13396015 189.42534477 22.122688 203.3191812 C22.12148097 204.81212981 22.12027499 206.30507843 22.11907005 207.79802704 C22.11846651 208.53225445 22.11786298 209.26648186 22.11724115 210.02295859 C22.11340913 215.12566316 22.11377702 220.22835703 22.1156559 225.33106232 C22.13617518 300.12690209 20.32366125 375.225566 -23.1875 439.375 C-23.89648438 440.43074219 -24.60546875 441.48648437 -25.3359375 442.57421875 C-29.61908984 448.70174893 -34.47989939 454.15860012 -39.59375 459.58984375 C-41.72916316 461.88284011 -43.75054355 464.21527772 -45.75 466.625 C-52.59921628 474.45035162 -60.48886019 479.72764827 -70.1875 483.375 C-71.35925781 483.85453125 -71.35925781 483.85453125 -72.5546875 484.34375 C-87.55974774 489.52121487 -106.10901742 487.58174533 -120.24609375 480.9375 C-129.742323 475.80039809 -139.93860807 468.29360633 -146.1875 459.375 C-146.82375394 455.93922875 -146.97705312 453.67171133 -145.1171875 450.6171875 C-141.94356748 446.74988004 -138.19148833 443.49289846 -134.390625 440.2578125 C-131.0747231 437.42400981 -127.85808662 434.482208 -124.625 431.5546875 C-122.50916046 429.66263868 -120.35762195 427.82885278 -118.1875 426 C-81.58512631 393.79871333 -68.89244474 343.18507726 -65.64974976 296.40863037 C-64.96125335 285.5511739 -65.03471669 274.68427891 -65.02978516 263.80957031 C-65.02510689 261.47202969 -65.01996169 259.13448996 -65.01438904 256.79695129 C-65.00318286 251.79406064 -64.99471336 246.79117568 -64.98826981 241.78827667 C-64.97751647 233.86971446 -64.95727476 225.9511911 -64.93515015 218.03265381 C-64.92767397 215.31352628 -64.92025983 212.59439859 -64.91286278 209.87527084 C-64.91101221 209.19609264 -64.90916165 208.51691444 -64.907255 207.81715508 C-64.88640195 200.1165513 -64.86753509 192.41594314 -64.84960938 184.71533203 C-64.84797119 184.01277085 -64.84633301 183.31020967 -64.84464519 182.58635876 C-64.81832349 171.18530373 -64.79969261 159.78424551 -64.78301747 148.3831729 C-64.76556532 136.63948175 -64.73669638 124.89585362 -64.6981281 113.15221286 C-64.67710264 106.57363785 -64.66160692 99.99515243 -64.65932083 93.41654205 C-64.6571693 87.2341276 -64.64124818 81.05190043 -64.61493111 74.86954308 C-64.6077591 72.60732494 -64.60562691 70.34508407 -64.60903358 68.08285713 C-64.63405306 48.30373092 -62.94120886 32.74670131 -48.66015625 17.7265625 C-34.75901857 4.50620723 -18.74856697 0.02124484 0 0 Z " fill="#273585" transform="translate(1476.1875,305.625)"/>
<path d="M0 0 C0.66328306 -0.00297112 1.32656612 -0.00594224 2.00994867 -0.0090034 C4.21298001 -0.01761425 6.41595652 -0.01919209 8.6190033 -0.02069092 C10.20634068 -0.02532424 11.79367696 -0.03034959 13.38101196 -0.03573608 C17.67838352 -0.04880647 21.97573949 -0.0552937 26.27312779 -0.05974674 C28.95956775 -0.06268416 31.6460035 -0.06679006 34.33244133 -0.07125092 C42.74298903 -0.08490732 51.15352705 -0.09458491 59.56408507 -0.09845281 C69.26445304 -0.10293904 78.9646805 -0.12052086 88.66500574 -0.1494534 C96.17176319 -0.17106514 103.67848107 -0.1811567 111.1852693 -0.18249393 C115.66566249 -0.18354166 120.14592326 -0.18944368 124.62628365 -0.20731354 C128.83786637 -0.22378703 133.04921693 -0.22595331 137.26082039 -0.21717453 C138.80475486 -0.21640396 140.3487018 -0.22074956 141.89260483 -0.23063278 C144.00330489 -0.24335068 146.11318223 -0.23747738 148.22387695 -0.22705078 C149.99390878 -0.22925062 149.99390878 -0.22925062 151.79969883 -0.2314949 C156.3137808 0.28530519 159.69888639 1.76948551 162.89634705 5.01763916 C164.27209609 7.55252748 164.4494315 9.22896478 164.48204041 12.10528564 C164.4935614 13.06410645 164.5050824 14.02292725 164.51695251 15.01080322 C164.50672058 16.02295898 164.49648865 17.03511475 164.48594666 18.07794189 C164.47764832 19.11394531 164.46934998 20.14994873 164.46080017 21.21734619 C164.17989784 33.98590643 161.05486906 43.04208014 153.04844666 53.14044189 C152.45032166 54.02731689 151.85219666 54.91419189 151.23594666 55.82794189 C143.82039308 63.66724139 132.83588753 69.80158484 121.89965153 70.27745628 C120.02340422 70.28581473 120.02340422 70.28581473 118.10925293 70.29434204 C117.41107561 70.29872429 116.71289828 70.30310655 115.99356407 70.3076216 C113.65451498 70.3209744 111.31550353 70.3271804 108.97642517 70.33331299 C107.29923839 70.34121645 105.62205331 70.34948555 103.94487 70.35809326 C98.43904741 70.38427523 92.93321733 70.39961254 87.42735291 70.41387939 C85.5317376 70.41923979 83.63612234 70.4246173 81.74050713 70.43001175 C73.85770737 70.45163079 65.97490963 70.47036926 58.09208775 70.48163414 C46.79307341 70.49788772 35.49440213 70.53111071 24.19551712 70.58803499 C16.25062569 70.62669944 8.30582618 70.64626241 0.36084312 70.6515547 C-4.38514767 70.65521165 -9.13077225 70.66727011 -13.8766613 70.69965744 C-18.33945796 70.72967834 -22.80166561 70.73607148 -27.26454163 70.72427368 C-28.9024379 70.72405247 -30.54036106 70.73239652 -32.17816353 70.74992752 C-34.41461302 70.77256415 -36.6489163 70.76435301 -38.88537598 70.7484436 C-40.13658454 70.75175375 -41.3877931 70.7550639 -42.67691708 70.75847435 C-46.84148358 69.97248255 -48.30364121 68.37032778 -50.95155334 65.14044189 C-54.931187 57.18117458 -51.92826159 41.23826116 -49.95155334 33.14044189 C-45.2466209 20.1261203 -36.25271467 10.36909763 -23.95155334 4.14044189 C-16.19097895 1.07020005 -8.32519509 0.02097991 0 0 Z " fill="#273585" transform="translate(704.9515533447266,182.85955810546875)"/>
</svg>
