<?xml version="1.0" encoding="UTF-8"?>
<svg version="1.1" xmlns="http://www.w3.org/2000/svg" width="2048" height="791">
<path d="M0 0 C6.7644122 4.65822022 7.98735354 12.35725644 9.44613647 19.98895264 C10.2291506 24.53249019 10.93322627 29.08813521 11.63671875 33.64453125 C11.90095539 35.32467678 12.16571976 37.00473938 12.4309845 38.6847229 C12.98227673 42.18548266 13.52897835 45.68691617 14.07202148 49.18896484 C14.76787065 53.67564327 15.47258634 58.16087174 16.18036938 62.64568138 C16.72594011 66.10593308 17.26822945 69.56669222 17.80938148 73.02763748 C18.06824789 74.68234738 18.32781341 76.33694807 18.58809471 77.991436 C18.95012735 80.29768998 19.30806812 82.60454126 19.66479492 84.91162109 C19.77229065 85.59218567 19.87978638 86.27275024 19.99053955 86.97393799 C20.47129111 90.11075988 20.71875 92.99504439 20.71875 96.18359375 C21.71648437 95.89484375 22.71421875 95.60609375 23.7421875 95.30859375 C29.80774873 93.79950975 36.00262983 93.15172082 42.20068359 92.43359375 C44.26394581 92.19290333 46.32523121 91.9389728 48.38671875 91.68359375 C72.59087272 88.77408181 96.81975177 87.84108272 121.17211914 87.92285156 C124.62047967 87.93434781 128.06853505 87.92737376 131.51688576 87.91599274 C143.90307659 87.88108609 156.27483262 87.90570113 168.62109375 89.01171875 C169.426642 89.08082458 170.23219025 89.14993042 171.06214905 89.22113037 C180.49491126 90.21330482 188.43424381 92.80741277 194.71875 100.18359375 C197.64322515 105.09043126 198.65564511 110.55120082 197.71875 116.18359375 C194.84943898 126.4195047 185.53934362 132.28788164 176.83398438 137.27783203 C174.12185134 138.80049522 171.40293297 140.31056171 168.68359375 141.8203125 C150.23280724 152.11106112 132.47797341 163.75113949 114.71875 175.18359375 C114.14242828 175.55435028 113.56610657 175.92510681 112.97232056 176.30709839 C100.26522641 184.48733772 87.64486083 192.79768402 75.03125 201.12109375 C73.0397553 202.43430812 71.04821905 203.74745948 69.05664062 205.06054688 C58.37330052 212.10035876 58.37330052 212.10035876 47.71875 219.18359375 C48.98214403 226.83864966 50.69178797 234.26301515 52.7734375 241.734375 C53.07078293 242.81417633 53.36812836 243.89397766 53.67448425 245.00650024 C54.6409762 248.50490175 55.61621186 252.00076366 56.59375 255.49609375 C56.92921844 256.6988797 57.26468689 257.90166565 57.61032104 259.14089966 C66.86362886 292.25905662 77.38167133 324.71191814 89.19189453 357.00170898 C90.65614923 361.00752375 92.1097182 365.01703389 93.55078125 369.03125 C93.94112549 370.11672119 94.33146973 371.20219238 94.73364258 372.32055664 C98.65520427 383.71786864 100.80887443 396.62262737 95.8828125 407.94921875 C92.15820157 415.09847194 86.2557514 419.53883272 78.71875 422.18359375 C69.36968111 424.28085723 61.69647283 422.35864653 53.3359375 417.91796875 C44.93498205 412.50718388 37.92055971 405.00385327 30.74169922 398.11376953 C27.99718443 395.49511953 25.21012535 392.92588195 22.40625 390.37109375 C21.46136719 389.50871094 20.51648438 388.64632813 19.54296875 387.7578125 C18.61097656 386.90832031 17.67898438 386.05882812 16.71875 385.18359375 C14.71751444 383.35160705 12.71814739 381.51758615 10.71875 379.68359375 C9.71878375 378.76689026 8.71878381 377.85022353 7.71875 376.93359375 C-22.28125 349.43359375 -22.28125 349.43359375 -23.78173828 348.05810547 C-24.78005661 347.14300742 -25.77842886 346.2279682 -26.77685547 345.31298828 C-29.3030342 342.99780523 -31.82821832 340.68155365 -34.3515625 338.36328125 C-39.77724367 333.38051283 -45.22307344 328.42218594 -50.7109375 323.5078125 C-52.58355615 321.81448712 -54.44153822 320.11087539 -56.2890625 318.390625 C-56.80726563 317.90980469 -57.32546875 317.42898438 -57.859375 316.93359375 C-59.31773689 315.57834836 -60.7722756 314.21899225 -62.2265625 312.859375 C-65.71093481 309.70679104 -69.48812922 306.95013597 -73.28125 304.18359375 C-73.97347656 304.7254834 -73.97347656 304.7254834 -74.6796875 305.27832031 C-83.40450077 312.10212437 -92.15433249 318.88393813 -101.03393555 325.50537109 C-106.58546383 329.64882931 -112.0910921 333.85053147 -117.59375 338.05859375 C-126.63469926 344.96363411 -135.76142031 351.74313765 -144.93847656 358.46582031 C-148.09765453 360.78219965 -151.25110924 363.10629707 -154.40405273 365.43115234 C-155.98110166 366.59373396 -157.55873299 367.755526 -159.13696289 368.91650391 C-163.21753501 371.91897392 -167.28903784 374.93274839 -171.34765625 377.96484375 C-172.60255859 378.89876953 -172.60255859 378.89876953 -173.8828125 379.8515625 C-175.46243259 381.0275019 -177.03949022 382.20689577 -178.61328125 383.390625 C-197.92224863 397.7354075 -197.92224863 397.7354075 -208.78125 397.24609375 C-215.08038532 396.18889621 -219.94534749 393.05310569 -223.95703125 388.125 C-229.06632649 379.5903181 -228.35508767 369.73831426 -226.53515625 360.32421875 C-215.95439311 318.42628614 -192.04555997 276.51207094 -172.078125 238.45800781 C-171.1809375 236.74436035 -171.1809375 236.74436035 -170.265625 234.99609375 C-169.73678711 233.99191406 -169.20794922 232.98773438 -168.66308594 231.953125 C-167.39009412 229.40174352 -166.29522376 226.84694859 -165.28125 224.18359375 C-172.66912724 217.72166379 -180.04437294 211.28040393 -187.7578125 205.20703125 C-191.38432118 202.29908775 -194.9151122 199.28173259 -198.44555664 196.25830078 C-201.83286024 193.36840524 -205.29743675 190.62858291 -208.84375 187.93359375 C-213.49559755 184.20455173 -216.63791595 181.08466195 -217.6484375 174.95703125 C-217.96214804 169.43941641 -216.78330395 166.60693002 -213.28125 162.18359375 C-195.14509148 149.39491411 -169.10266922 144.0340844 -148.28125 136.93359375 C-147.28481476 136.59361359 -146.28837952 136.25363342 -145.26174927 135.90335083 C-143.29600136 135.233744 -141.32969823 134.56576474 -139.36282349 133.8994751 C-137.44333228 133.24849204 -135.52531733 132.5931387 -133.6088562 131.93328857 C-129.06913099 130.38567396 -124.55032305 128.95713587 -119.90063477 127.77612305 C-109.32276476 125.15750499 -109.32276476 125.15750499 -101.55859375 117.859375 C-100.38897324 115.76881964 -99.2772867 113.6450316 -98.21875 111.49609375 C-97.57983199 110.325446 -96.93344182 109.15885058 -96.28027344 107.99609375 C-95.26577498 106.18853091 -94.25587137 104.37985624 -93.26675415 102.55825806 C-89.89244333 96.3483675 -86.00578045 90.52464135 -82.03125 84.68359375 C-80.92237233 83.03606177 -79.81353144 81.38850453 -78.70597839 79.74008179 C-77.91194619 78.55863052 -77.11717759 77.3776739 -76.32173157 76.19717407 C-72.66048943 70.7611089 -69.03194083 65.30357138 -65.40625 59.84375 C-64.17745708 57.99475961 -62.94861556 56.14580153 -61.71972656 54.296875 C-59.90387802 51.56480764 -58.08851353 48.83242892 -56.27526855 46.09863281 C-49.88875318 36.47289568 -43.44565197 26.88890871 -36.859375 17.3984375 C-36.02548248 16.18722984 -36.02548248 16.18722984 -35.17474365 14.95155334 C-26.50418931 2.5390053 -15.95384857 -9.14813936 0 0 Z M-35.28125 47.18359375 C-38.01611777 48.9214694 -38.01611777 48.9214694 -40.28125 51.18359375 C-40.28125 51.84359375 -40.28125 52.50359375 -40.28125 53.18359375 C-40.94125 53.18359375 -41.60125 53.18359375 -42.28125 53.18359375 C-44.15402532 55.5932019 -45.9035315 58.01054389 -47.62890625 60.5234375 C-48.1598439 61.2867186 -48.69078156 62.04999969 -49.23780823 62.83641052 C-54.63869839 70.63146728 -59.92028232 78.50727758 -65.16577148 86.4074707 C-66.73995513 88.77802645 -68.31795914 91.14600543 -69.89648438 93.51367188 C-70.91949062 95.05063498 -71.94228505 96.5877391 -72.96484375 98.125 C-73.65712318 99.16425377 -73.65712318 99.16425377 -74.36338806 100.22450256 C-75.67773834 102.20552683 -76.98280875 104.19210838 -78.28125 106.18359375 C-78.75708527 106.91270966 -79.23292053 107.64182556 -79.72317505 108.39303589 C-80.41139847 109.46679977 -80.41139847 109.46679977 -81.11352539 110.56225586 C-81.52961563 111.20883652 -81.94570587 111.85541718 -82.37440491 112.52159119 C-83.44090784 114.16065196 -83.44090784 114.16065196 -83.28125 116.18359375 C-76.84200039 115.51300631 -70.68669591 114.22011102 -64.39453125 112.71484375 C-63.37449509 112.47447388 -62.35445892 112.234104 -61.30351257 111.9864502 C-58.06598225 111.22275704 -54.82983407 110.45338987 -51.59375 109.68359375 C-48.3466886 108.91496453 -45.09935295 108.14750891 -41.85185242 107.3807373 C-39.83706083 106.90461521 -37.82257155 106.42721153 -35.8084259 105.94836426 C-34.43626167 105.62297668 -34.43626167 105.62297668 -33.03637695 105.29101562 C-31.83680107 105.00575012 -31.83680107 105.00575012 -30.61299133 104.71472168 C-28.17684543 104.1598123 -25.73325072 103.66311333 -23.28125 103.18359375 C-23.90482548 93.85632837 -25.34406611 84.67127007 -26.81030273 75.44799805 C-27.22048 72.86017916 -27.62125724 70.27101483 -28.02148438 67.68164062 C-28.28328911 66.01944215 -28.54563962 64.35732953 -28.80859375 62.6953125 C-28.9263768 61.9295842 -29.04415985 61.1638559 -29.16551208 60.37492371 C-29.84365698 56.16457551 -30.5763837 52.12184631 -32.28125 48.18359375 C-33.27125 47.85359375 -34.26125 47.52359375 -35.28125 47.18359375 Z M90.75567627 116.22003174 C57.59297583 116.51141342 57.59297583 116.51141342 24.71875 120.18359375 C26.38118354 132.91997974 29.19286279 145.43804597 31.84375 157.99609375 C32.31672349 160.24928239 32.78938239 162.50253709 33.26171875 164.75585938 C34.41043495 170.23253809 35.56303841 175.7083872 36.71875 181.18359375 C41.67414392 178.48121324 46.55126095 175.75495407 51.23828125 172.6015625 C52.24310547 171.92851074 53.24792969 171.25545898 54.28320312 170.56201172 C55.35505859 169.83900879 56.42691406 169.11600586 57.53125 168.37109375 C58.68529936 167.5961482 59.83960387 166.82158251 60.99414062 166.04736328 C62.85864677 164.79702194 64.72297349 163.5464218 66.5864563 162.29455566 C71.74843462 158.82813634 76.92507774 155.38413878 82.10546875 151.9453125 C84.51768199 150.34269051 86.92978883 148.73990849 89.34188843 147.13711548 C90.90850813 146.09669173 92.47557546 145.05694163 94.04312134 144.01791382 C109.34472948 135.10797348 109.34472948 135.10797348 121.71875 123.18359375 C121.88588569 120.55827851 121.88588569 120.55827851 121.71875 118.18359375 C116.14998676 116.30004148 111.32330803 115.90679534 105.46875 115.99609375 C104.53764404 116.00398926 103.60653809 116.01188477 102.6472168 116.02001953 C98.68288529 116.06497163 94.71954921 116.14645551 90.75567627 116.22003174 Z M-27.95019531 125.83862305 C-28.85097305 125.98293259 -29.75175079 126.12724213 -30.67982483 126.27592468 C-31.64657639 126.43494766 -32.61332794 126.59397064 -33.609375 126.7578125 C-34.62313705 126.92098465 -35.63689911 127.0841568 -36.68138123 127.25227356 C-42.21670276 128.14805423 -47.74616955 129.07502812 -53.27270508 130.0234375 C-55.49556344 130.40389147 -57.71846346 130.78410216 -59.94140625 131.1640625 C-61.02891678 131.35068451 -62.11642731 131.53730652 -63.2368927 131.72958374 C-69.02151559 132.70327446 -74.74495887 133.49308771 -80.58984375 133.984375 C-90.88623024 134.87680436 -90.88623024 134.87680436 -99.36621094 140.2734375 C-103.69382256 145.93312504 -106.66211463 152.18437394 -109.609375 158.640625 C-112.23289303 164.20027652 -115.28747152 169.50321308 -118.31347656 174.8508606 C-120.01790969 177.88284317 -121.67976107 180.93787989 -123.34375 183.9921875 C-125.93989711 188.75100183 -128.56735585 193.4904747 -131.21875 198.21875 C-132.42729348 200.39441453 -133.63563689 202.57019021 -134.84375 204.74609375 C-135.41037354 205.74511719 -135.97699707 206.74414062 -136.56079102 207.7734375 C-137.06795654 208.69382812 -137.57512207 209.61421875 -138.09765625 210.5625 C-138.54568604 211.36244385 -138.99371582 212.1623877 -139.45532227 212.98657227 C-140.43292914 215.58707012 -140.36273971 216.64851024 -139.28125 219.18359375 C-137.36276149 221.04634636 -135.48324309 222.70573576 -133.40625 224.37109375 C-132.81908203 224.85449219 -132.23191406 225.33789062 -131.62695312 225.8359375 C-129.85216774 227.29413955 -128.06771802 228.73974297 -126.28125 230.18359375 C-124.44758097 231.68318336 -122.61422192 233.18315213 -120.78125 234.68359375 C-119.894375 235.40546875 -119.0075 236.12734375 -118.09375 236.87109375 C-114.96325209 239.4450587 -111.86957138 242.05933711 -108.78125 244.68359375 C-101.37902926 250.97174953 -93.87233829 257.12427864 -86.28125 263.18359375 C-83.09530702 261.68175441 -80.2404653 259.89647902 -77.3203125 257.9296875 C-76.25586914 257.21409668 -75.19142578 256.49850586 -74.09472656 255.76123047 C-72.82339469 254.90227425 -71.55225061 254.04304005 -70.28125 253.18359375 C-68.75229296 252.15118323 -67.22332065 251.11879532 -65.69433594 250.08642578 C-59.44622918 245.86569958 -53.19819806 241.64484798 -46.95507812 237.41674805 C-31.83376761 227.17801755 -16.58884981 217.14067317 -1.28125 207.18359375 C-1.43523254 206.46601395 -1.58921509 205.74843414 -1.74786377 205.0091095 C-3.22062768 198.14372165 -4.69102658 191.27783215 -6.15896988 184.41141224 C-6.91317237 180.88395265 -7.66819189 177.35667268 -8.42529297 173.82983398 C-11.89822343 157.64872732 -15.29410563 141.46307311 -18.28125 125.18359375 C-21.58974261 125.12225509 -24.68529159 125.30956403 -27.95019531 125.83862305 Z M-136.71875 147.93359375 C-137.7949762 148.22571747 -137.7949762 148.22571747 -138.89294434 148.52374268 C-151.05833125 151.84459718 -163.06686555 155.5771452 -175.03125 159.55859375 C-175.81273407 159.81684937 -176.59421814 160.07510498 -177.39938354 160.34118652 C-179.62830934 161.08042736 -181.8537867 161.82911262 -184.078125 162.58203125 C-184.73508865 162.80049713 -185.39205231 163.01896301 -186.06892395 163.24404907 C-189.76626588 164.51418452 -193.073892 165.93277697 -196.28125 168.18359375 C-197.15947312 170.26893008 -197.15947312 170.26893008 -197.28125 172.18359375 C-190.16889593 178.8826046 -182.81574409 184.97709028 -175.02099609 190.85546875 C-173.17081725 192.26789829 -171.34315653 193.70581027 -169.51953125 195.15234375 C-168.8953833 195.64742432 -168.27123535 196.14250488 -167.62817383 196.65258789 C-166.42976434 197.60545413 -165.23289113 198.56025695 -164.0378418 199.51733398 C-160.90729411 201.99980177 -157.76018685 204.21695594 -154.28125 206.18359375 C-150.97724772 201.00969229 -147.89807125 195.76431232 -144.96875 190.37109375 C-139.17320568 179.81141555 -132.98712736 169.48556825 -126.8203125 159.140625 C-125.64011845 157.15524895 -124.46037031 155.16960769 -123.28125 153.18359375 C-122.83104492 152.42997559 -122.38083984 151.67635742 -121.91699219 150.89990234 C-119.92226492 147.75470594 -119.92226492 147.75470594 -119.28125 144.18359375 C-125.19097213 144.18359375 -131.03317696 146.38477852 -136.71875 147.93359375 Z M-151.28125 236.18359375 C-159.5566739 253.23796721 -167.66234668 270.35980483 -175.60791016 287.57080078 C-177.3685043 291.3719785 -179.14170915 295.16706615 -180.91796875 298.9609375 C-181.81273177 300.87539027 -182.70720361 302.78997877 -183.6015625 304.70462036 C-184.44710647 306.51232171 -185.29577824 308.318559 -186.14453125 310.12475586 C-186.65757812 311.22440674 -187.170625 312.32405762 -187.69921875 313.45703125 C-188.37633911 314.90215088 -188.37633911 314.90215088 -189.06713867 316.37646484 C-191.2387436 321.39740059 -192.77196003 325.6631059 -192.28125 331.18359375 C-191.62125 332.17359375 -190.96125 333.16359375 -190.28125 334.18359375 C-183.87505285 333.82208919 -180.08447221 331.52233142 -174.90625 327.87109375 C-174.12314453 327.33347412 -173.34003906 326.79585449 -172.53320312 326.24194336 C-170.10604987 324.5694983 -167.69267486 322.87861664 -165.28125 321.18359375 C-163.84128242 320.18079342 -162.40118341 319.17818179 -160.9609375 318.17578125 C-149.02135831 309.82850643 -137.24888844 301.24281589 -125.4609375 292.68359375 C-124.66679443 292.10794678 -123.87265137 291.5322998 -123.05444336 290.93920898 C-121.55416898 289.85167864 -120.05489537 288.7627656 -118.55688477 287.67211914 C-113.54978241 284.04402969 -108.44780232 280.58043783 -103.28125 277.18359375 C-111.61488058 268.75770895 -120.34030214 260.83052269 -129.58203125 253.41015625 C-133.45458544 250.21571936 -137.12928472 246.81814619 -140.828125 243.42578125 C-145.47121634 238.50231852 -145.47121634 238.50231852 -151.28125 236.18359375 Z M3.38671875 248.53515625 C2.68087646 249.04957275 1.97503418 249.56398926 1.24780273 250.09399414 C0.47509033 250.65981201 -0.29762207 251.22562988 -1.09375 251.80859375 C-8.62498146 257.28729785 -16.21699488 262.66977464 -23.85522461 267.99804688 C-30.16400618 272.39897799 -36.45319446 276.8266594 -42.72680664 281.27758789 C-46.53886426 283.97638552 -50.38198211 286.61224991 -54.28125 289.18359375 C-48.02045873 296.92720401 -40.70570187 303.25916316 -32.96875 309.49609375 C-28.15379256 313.38744863 -23.63037829 317.51488519 -19.11572266 321.74365234 C-15.79022767 324.84095601 -12.39432457 327.77959134 -8.84375 330.62109375 C-4.468728 334.13002697 -0.36105841 337.84205454 3.71875 341.68359375 C8.64380066 346.32069991 13.69074205 350.68697463 18.9765625 354.9140625 C22.69538814 357.99189398 26.22749712 361.25441334 29.74853516 364.55517578 C31.99893058 366.6559012 34.14779741 368.46962536 36.71875 370.18359375 C39.36507287 369.87141735 39.36507287 369.87141735 41.71875 369.18359375 C42.85764115 365.81433266 42.57081436 363.83388299 41.49389648 360.47412109 C41.19815735 359.53285873 40.90241821 358.59159637 40.59771729 357.62181091 C40.26511902 356.59805862 39.93252075 355.57430634 39.58984375 354.51953125 C39.24878601 353.43926163 38.90772827 352.358992 38.55633545 351.24598694 C37.8172886 348.90555758 37.07408813 346.56643671 36.32723999 344.22848511 C34.34364299 338.01187732 32.39577387 331.78419544 30.453125 325.5546875 C30.25456091 324.91850809 30.05599682 324.28232868 29.85141563 323.62687111 C25.61356358 310.03009341 21.70441363 296.34677611 17.90625 282.62109375 C17.61869843 281.58208923 17.33114685 280.54308472 17.03488159 279.47259521 C15.95893755 275.57967279 14.8849064 271.68623767 13.8155365 267.79150391 C11.83346132 260.57414012 9.79785508 253.37360698 7.71875 246.18359375 C5.96390289 246.18359375 4.7644566 247.52546995 3.38671875 248.53515625 Z " fill="#FF9F00" transform="translate(351.28125,169.81640625)"/>
<path d="M0 0 C9.9 0 19.8 0 30 0 C30 48.51 30 97.02 30 147 C8.2932658 156.04447258 -14.95681806 159.94527853 -37.75 151.8125 C-51.53483796 146.06742172 -60.94570882 137.00013315 -66.8125 123.2578125 C-72.4110523 107.89862626 -71.18705427 90.52837329 -64.375 75.75 C-57.45666397 62.96982261 -47.4645879 55.40893262 -33.84765625 50.8125 C-22.51390539 47.57872746 -11.61403877 47.3408516 0 49 C0 32.83 0 16.66 0 0 Z M-33 81 C-38.44908432 87.67996884 -40.49605158 95.10185476 -40.24609375 103.64453125 C-39.41538263 111.59562338 -36.64902288 118.287362 -31 124 C-23.44501504 130.03477457 -15.50460166 131.63168141 -6 131 C-3.03 130.505 -3.03 130.505 0 130 C0 111.19 0 92.38 0 73 C-12.67774179 70.88704303 -23.37448912 71.68973511 -33 81 Z " fill="#00225C" transform="translate(1450,371)"/>
<path d="M0 0 C1 1 1 1 1.1328125 3.9921875 C1.11726137 11.72110013 0.89515271 19.31127762 0 27 C-4.15780731 25.65555931 -8.19916218 24.13629902 -12.25 22.5 C-22.63691697 18.5077496 -34.30389168 15.37069469 -45.0625 19.75 C-47.55216655 20.88453159 -48.73474332 21.58813179 -50.22265625 23.8984375 C-51.95291057 28.57621048 -51.59829741 32.60397272 -49.6875 37.0625 C-43.8262351 43.46899885 -35.96161232 47.05043299 -28.33032227 50.95678711 C-12.99440854 58.81480271 1.13508764 66.65458069 7.2890625 83.72265625 C10.56223776 94.20760777 9.25133692 104.76785953 4.78125 114.7109375 C-1.74049397 126.48630855 -11.7663991 132.53068726 -24.29296875 136.77734375 C-44.284588 142.24411389 -66.44738357 138.44367853 -84.4375 128.6875 C-85.96574314 127.80436677 -87.48980452 126.91365257 -89 126 C-88.40442162 120.86570359 -86.01764133 116.73998833 -83.625 112.25 C-83.22539063 111.47011719 -82.82578125 110.69023437 -82.4140625 109.88671875 C-82.0221875 109.14550781 -81.6303125 108.40429688 -81.2265625 107.640625 C-80.87158691 106.96547852 -80.51661133 106.29033203 -80.15087891 105.59472656 C-79 104 -79 104 -76 103 C-73.13671875 104.328125 -73.13671875 104.328125 -69.6875 106.25 C-59.46992979 111.67636367 -47.30443721 115.20455658 -35.875 111.75 C-31.89811953 110.4727979 -28.99848876 108.99848876 -26 106 C-24.25699383 102.51398766 -24.56718111 98.81139025 -25 95 C-29.63327266 84.46983487 -43.80424483 79.33674909 -53.52148438 74.5390625 C-66.98945856 67.72850164 -78.59834545 58.89656748 -83.61328125 44.203125 C-85.75628168 31.99451646 -84.37777236 19.94279462 -77.1875 9.6875 C-58.54721556 -13.08990493 -24.5163855 -12.12732237 0 0 Z " fill="#00225C" transform="translate(1741,388)"/>
<path d="M0 0 C1 1 1 1 1.11352539 3.59204102 C1.10567017 5.28091431 1.10567017 5.28091431 1.09765625 7.00390625 C1.09282227 8.82631836 1.09282227 8.82631836 1.08789062 10.68554688 C1.07532227 12.60463867 1.07532227 12.60463867 1.0625 14.5625 C1.05798828 15.84576172 1.05347656 17.12902344 1.04882812 18.45117188 C1.03699545 21.63416022 1.02051068 24.81705762 1 28 C-3.13507159 26.64044566 -7.1565157 25.14243832 -11.1875 23.5 C-25.10667743 18.16824729 -40.85175829 16.39965432 -55 22 C-68.42476478 28.01925595 -75.55071416 36.5224175 -80.8828125 50.27734375 C-84.68122912 64.21378783 -81.98893344 79.28083687 -75.30078125 91.7890625 C-69.5042054 101.64150073 -59.0562295 108.45516789 -48.11206055 111.53051758 C-34.02621237 114.66161064 -18.27711272 111.17547155 -5.734375 104.63671875 C-4 104 -4 104 -1 105 C-0.0168457 106.94946289 -0.0168457 106.94946289 0.82421875 109.47265625 C1.13037109 110.37177734 1.43652344 111.27089844 1.75195312 112.19726562 C2.21504883 113.61555664 2.21504883 113.61555664 2.6875 115.0625 C3.00783203 116.01189453 3.32816406 116.96128906 3.65820312 117.93945312 C4.44946823 120.28962857 5.22949395 122.64295338 6 125 C-4.091488 132.65007369 -16.44551087 137.33901089 -29 139 C-29.77085937 139.10957031 -30.54171875 139.21914063 -31.3359375 139.33203125 C-52.95391578 141.9555723 -72.49629364 138.62704139 -90.0625 125.4375 C-91.39369282 124.31343775 -92.7077717 123.16864721 -94 122 C-94.60972656 121.47019531 -95.21945312 120.94039063 -95.84765625 120.39453125 C-108.44310229 108.74028338 -115.44570535 91.32913118 -116.28515625 74.41015625 C-116.93338848 51.594697 -110.37810378 31.26917154 -94.56640625 14.4140625 C-70.23697547 -8.47115549 -30.28191871 -13.77579089 0 0 Z " fill="#00225C" transform="translate(691,387)"/>
<path d="M0 0 C10.10607041 10.45124929 14.70442446 25.11839924 15.12109375 39.44140625 C14.72728765 52.54727327 11.40032927 66.85600256 2.21875 76.71875 C1.40277344 77.47285156 0.58679687 78.22695313 -0.25390625 79.00390625 C-0.80433594 79.54015625 -1.35476563 80.07640625 -1.921875 80.62890625 C-12.96026473 90.61737202 -27.58546677 94.48349921 -42.25390625 94.00390625 C-56.48658738 92.86461158 -69.58166246 87.82989681 -79.25390625 77.00390625 C-81.56269491 73.80672464 -83.46535284 70.51537808 -85.25390625 67.00390625 C-85.83978516 65.85535156 -85.83978516 65.85535156 -86.4375 64.68359375 C-92.55061729 51.83037279 -93.32575059 36.47523138 -89.28125 22.83203125 C-84.24337723 8.96351456 -76.37106526 -1.58820057 -63.19921875 -8.62890625 C-42.44445316 -18.26308126 -17.21951177 -15.24986224 0 0 Z M-54.00390625 16.56640625 C-60.80073136 25.87460063 -61.5066495 36.90465592 -60.25390625 48.00390625 C-58.42568014 57.01522191 -53.91180803 63.69162054 -46.44140625 69.00390625 C-40.53162009 70.85795681 -34.75556197 70.9830682 -29.00390625 68.50390625 C-22.80242296 64.93335526 -18.70165023 58.68326426 -16.7265625 51.8828125 C-14.82133145 40.27822341 -14.95693979 28.62157336 -21.83203125 18.734375 C-25.87579532 13.67966991 -29.81567902 10.63793871 -36.4140625 9.6953125 C-43.68447199 9.28377989 -48.74232708 11.66357112 -54.00390625 16.56640625 Z " fill="#00225C" transform="translate(1306.25390625,432.99609375)"/>
<path d="M0 0 C11.82211384 12.71224947 14.96940508 28.86965333 14.37744141 45.65527344 C13.62059924 58.09532282 7.57549214 70.61102466 -0.75 79.75 C-12.90780826 90.22215027 -27.48309564 94.27109814 -43.3125 93.625 C-56.26692179 92.47764647 -69.78527866 87.56357487 -78.75 77.75 C-88.42937268 64.77595713 -93.28530658 49.98586705 -91.75 33.75 C-89.11971354 18.71552173 -83.60189573 5.41595892 -71.21484375 -4.22265625 C-49.80793158 -18.73007442 -19.31694133 -17.96433275 0 0 Z M-54.75 16.75 C-61.07296201 26.60767341 -62.30884688 38.26168047 -60.21484375 49.6640625 C-57.85056136 58.21682173 -53.54307708 64.28145595 -45.890625 68.86328125 C-41.05942493 70.86452653 -35.2237913 70.7427985 -30.39453125 68.8046875 C-22.85029003 64.30362051 -19.13688335 58.0758111 -16.75 49.75 C-14.87509772 38.74337943 -15.6197582 28.29779821 -21.75 18.75 C-25.66732936 13.96215301 -30.61820892 10.45965877 -36.796875 9.3984375 C-43.79223643 9.10018566 -49.86163279 11.86163279 -54.75 16.75 Z " fill="#00225C" transform="translate(1584.75,433.25)"/>
<path d="M0 0 C14.1478728 14.36893331 14 31.77722207 14 51 C-7.45 51.33 -28.9 51.66 -51 52 C-47.81082432 60.50446849 -45.79879197 64.5653928 -38 69 C-26.64062092 73.45465846 -15.19280784 70.41898478 -4 67 C-2.66439139 66.33790343 -1.33028929 65.67272032 0 65 C0.99 65 1.98 65 3 65 C4.00816056 67.58041096 5.0067111 70.16386944 6 72.75 C6.28617188 73.47960937 6.57234375 74.20921875 6.8671875 74.9609375 C7.27324219 76.02441406 7.27324219 76.02441406 7.6875 77.109375 C7.93886719 77.75874023 8.19023438 78.40810547 8.44921875 79.07714844 C9 81 9 81 9 85 C-7.90803195 94.00938929 -26.77165535 99.68147998 -46 94.8125 C-47.68284401 94.25497763 -49.35128823 93.65157089 -51 93 C-51.83660156 92.67128906 -52.67320312 92.34257813 -53.53515625 92.00390625 C-65.29300707 86.75194507 -74.09087973 77.31841954 -79.05859375 65.4765625 C-79.80555008 63.32504235 -80.4576148 61.21126274 -81 59 C-81.18304687 58.26394531 -81.36609375 57.52789062 -81.5546875 56.76953125 C-84.29949312 39.69876647 -81.05061859 22.69187795 -72 8 C-63.91743154 -3.09666171 -53.61009649 -9.0454041 -40.3125 -11.75 C-25.51594864 -13.13258035 -11.29137936 -9.87995694 0 0 Z M-49.375 18.25 C-51.66622101 21.8031969 -51.66622101 21.8031969 -53 30 C-41.12 30 -29.24 30 -17 30 C-17.99225525 21.26410319 -17.99225525 21.26410319 -23 15 C-27.26139845 11.91321779 -31.69278615 10.25521262 -36.984375 10.546875 C-41.98524772 11.6711022 -45.7291886 14.79607341 -49.375 18.25 Z " fill="#00225C" transform="translate(1064,431)"/>
<path d="M0 0 C9.9 0 19.8 0 30 0 C30.03738281 4.83914063 30.07476563 9.67828125 30.11328125 14.6640625 C30.14356899 17.73571223 30.17472198 20.80730457 30.20898438 23.87890625 C30.2632459 28.75078392 30.31435822 33.62254808 30.34643555 38.49462891 C30.37250758 42.42407931 30.41293704 46.35314709 30.46318626 50.28236008 C30.47982873 51.77895715 30.49135932 53.27562037 30.49761391 54.77229691 C30.50728401 56.87415616 30.53537527 58.97504237 30.56762695 61.07666016 C30.57873001 62.27134918 30.58983307 63.46603821 30.60127258 64.69692993 C31.21838467 69.80910522 33.12799592 73.04292235 36.5625 76.8125 C40.64599107 79.91032081 44.98007938 80.39442233 50 80 C53.81272652 78.96697069 57.37485964 77.55621666 61 76 C61.99 75.67 62.98 75.34 64 75 C64 50.25 64 25.5 64 0 C73.9 0 83.8 0 94 0 C94.02505615 2.73458496 94.0501123 5.46916992 94.07592773 8.28662109 C94.15960628 17.34705897 94.24826496 26.40744327 94.33933926 35.46780968 C94.39437652 40.95817541 94.44776453 46.44854663 94.49731445 51.93896484 C94.54524277 57.24284835 94.59759344 62.54667185 94.65294075 67.85048294 C94.67323608 69.86853149 94.69196919 71.88659641 94.70907402 73.90467453 C94.73340452 76.74298733 94.76341625 79.58118978 94.79467773 82.41943359 C94.8004332 83.24374878 94.80618866 84.06806396 94.81211853 84.9173584 C94.8841088 90.71146426 95.41797221 96.17972213 96 102 C83.625 102.495 83.625 102.495 71 103 C69.35 100.03 67.7 97.06 66 94 C64.741875 94.9075 63.48375 95.815 62.1875 96.75 C51.83013573 103.58489093 40.16333197 106.38830176 27.8125 104.375 C17.5148959 101.83403276 10.41157906 96.99767712 4.75390625 88.0234375 C-0.7157807 77.96562486 -0.27064587 67.24073754 -0.1953125 56.15234375 C-0.19157618 54.52853063 -0.18873214 52.90471524 -0.18673706 51.28089905 C-0.1791493 47.03453196 -0.15954329 42.78830458 -0.1373291 38.54199219 C-0.11676528 34.19793588 -0.10771294 29.85385671 -0.09765625 25.50976562 C-0.07629217 17.00643958 -0.04115039 8.50325334 0 0 Z " fill="#00225C" transform="translate(785,422)"/>
<path d="M0 0 C9.9 0 19.8 0 30 0 C29.96519531 4.6715625 29.93039062 9.343125 29.89453125 14.15625 C29.87919053 17.12761678 29.86474786 20.09893427 29.85351562 23.0703125 C29.83562858 27.77972641 29.81453906 32.48896423 29.77368164 37.19824219 C29.74092538 40.99783754 29.72311297 44.79724387 29.71536827 48.5969696 C29.70985378 50.04175285 29.69908568 51.48652654 29.68280983 52.93122864 C29.55422754 63.80878129 29.55422754 63.80878129 33 74 C36.59913391 77.59913391 40.45800676 79.88600927 45.61328125 80.1171875 C51.84190897 79.55832365 58.33530031 78.66469969 63 74 C63.12420734 71.70016978 63.17804453 69.39652614 63.20532227 67.09350586 C63.21522186 66.37159561 63.22512146 65.64968536 63.23532104 64.90589905 C63.26702299 62.50891449 63.29172759 60.11191008 63.31640625 57.71484375 C63.33696829 56.05716931 63.35796455 54.3995002 63.37937927 52.74183655 C63.4346775 48.37051705 63.48405244 43.99914963 63.53222656 39.62774658 C63.58238516 35.17040726 63.6381006 30.71313787 63.69335938 26.25585938 C63.8010357 17.50396366 63.90194622 8.75200882 64 0 C73.9 0 83.8 0 94 0 C94.33 33.66 94.66 67.32 95 102 C82.625 102.495 82.625 102.495 70 103 C69.01 100.03 68.02 97.06 67 94 C66.15179687 94.54269531 65.30359375 95.08539062 64.4296875 95.64453125 C52.28369404 103.15948213 40.38633716 106.66962958 26 104 C17.3974845 101.82465125 10.22922398 97.03286371 5.3984375 89.50390625 C1.64090664 82.2854917 -0.2546417 75.50126447 -0.22705078 67.32055664 C-0.22734283 66.58801666 -0.22763489 65.85547668 -0.22793579 65.10073853 C-0.22655367 62.70375299 -0.21104587 60.3070868 -0.1953125 57.91015625 C-0.19157838 56.2386441 -0.18873329 54.56712975 -0.18673706 52.89561462 C-0.17913199 48.51441311 -0.15951062 44.13334599 -0.1373291 39.75219727 C-0.11680307 35.27426979 -0.10772094 30.79632042 -0.09765625 26.31835938 C-0.07626153 17.54550463 -0.04110514 8.77278456 0 0 Z " fill="#00225C" transform="translate(1763,422)"/>
<path d="M0 0 C28.05 0 56.1 0 85 0 C80.2694469 9.4611062 75.5883161 18.76554074 70.375 27.9375 C69.1626119 30.08585369 67.95037702 32.23429386 66.73828125 34.3828125 C66.1242041 35.46852539 65.51012695 36.55423828 64.87744141 37.67285156 C62.98623208 41.02439912 61.10636127 44.38204555 59.23046875 47.7421875 C58.61574707 48.84312744 58.00102539 49.94406738 57.36767578 51.07836914 C56.20543152 53.16063175 55.04361375 55.24313251 53.88232422 57.32592773 C50.00052172 64.26835981 46.00948247 71.12660148 42 78 C56.19 78.33 70.38 78.66 85 79 C85 86.92 85 94.84 85 103 C55.63 103 26.26 103 -4 103 C-2.49756887 98.4927066 -1.18644101 95.27771609 1.1328125 91.2734375 C1.76622559 90.17298096 2.39963867 89.07252441 3.05224609 87.9387207 C3.74309054 86.75077104 4.43401049 85.56286529 5.125 84.375 C5.841219 83.13468276 6.55686678 81.89403552 7.27197266 80.65307617 C8.76187628 78.06842915 10.25424407 75.4852272 11.74804688 72.90283203 C13.93442206 69.11885709 16.10300865 65.3249371 18.265625 61.52734375 C18.60927094 60.92398193 18.95291687 60.32062012 19.30697632 59.69897461 C19.99175859 58.49657232 20.67652237 57.29415951 21.36126709 56.09173584 C27.48631159 45.34146958 33.69233984 34.64417652 40 24 C28.78 23.67 17.56 23.34 6 23 C2.56914894 13.85106383 2.56914894 13.85106383 1.3125 9.25 C1.06113281 8.34765625 0.80976562 7.4453125 0.55078125 6.515625 C0 4 0 4 0 0 Z " fill="#00225C" transform="translate(894,422)"/>
<path d="M0 0 C9.9 0 19.8 0 30 0 C30.01981934 3.59849854 30.03963867 7.19699707 30.06005859 10.90454102 C30.12696987 22.79491909 30.20451057 34.68521163 30.28752708 46.57548618 C30.33759969 53.78443351 30.3840431 60.99336977 30.421875 68.20239258 C30.45486742 74.48746492 30.49473843 80.77245001 30.54279006 87.05742592 C30.56798323 90.38374444 30.58875933 93.70999447 30.60334396 97.03637886 C30.62022927 100.75427869 30.64927085 104.47189997 30.68115234 108.18969727 C30.68331253 109.28661896 30.68547272 110.38354065 30.68769836 111.51370239 C30.74845881 117.06164881 31.14013869 121.75888594 33 127 C36.96 127 40.92 127 45 127 C45.50938345 129.49840454 46.00763114 131.99823388 46.5 134.5 C46.64308594 135.19609375 46.78617188 135.8921875 46.93359375 136.609375 C47.88277373 141.49087203 48.13440046 146.02718299 48 151 C37.12791429 155.2269411 24.62842523 158.93947013 13.1875 154.5 C7.51090493 151.57913381 3.21262866 147.17019816 0.92605591 141.19236755 C-0.63214844 135.46316399 -0.26076813 129.51814096 -0.22705078 123.62915039 C-0.22648596 122.27838143 -0.22680461 120.92761186 -0.22793579 119.57684326 C-0.22850754 115.92649336 -0.2167822 112.27627599 -0.20278788 108.62595677 C-0.19025073 104.80496096 -0.18910767 100.98396182 -0.18673706 97.16294861 C-0.18053104 89.93475363 -0.16413215 82.70661945 -0.14403808 75.47845119 C-0.1216517 67.2462896 -0.11067877 59.01412505 -0.10064721 50.78194058 C-0.0797651 33.8545859 -0.04309989 16.92731491 0 0 Z " fill="#00225C" transform="translate(1876,371)"/>
<path d="M0 0 C1.00160156 0.15984375 2.00320313 0.3196875 3.03515625 0.484375 C6.10067939 1.29304598 8.31241952 2.49673524 10.9375 4.25 C10.33518601 7.81669804 9.37592499 10.82808629 7.87109375 14.11328125 C7.46826172 14.99951172 7.06542969 15.88574219 6.65039062 16.79882812 C6.22951172 17.71083984 5.80863281 18.62285156 5.375 19.5625 C4.73788086 20.95952148 4.73788086 20.95952148 4.08789062 22.38476562 C3.04243657 24.6753672 1.99218244 26.96363659 0.9375 29.25 C-1.82526177 28.72731534 -4.3885876 28.14130413 -7.0625 27.25 C-16.13832013 26.34241799 -22.55123538 28.24249025 -30.0625 33.25 C-30.54242056 36.36190809 -30.54242056 36.36190809 -30.49487305 40.08642578 C-30.5050647 40.78897491 -30.51525635 41.49152405 -30.52575684 42.21536255 C-30.55599862 44.54209246 -30.56516939 46.8684115 -30.57421875 49.1953125 C-30.59105723 50.80672587 -30.60920634 52.41812605 -30.62861633 54.0295105 C-30.67621308 58.27422968 -30.70595957 62.51889537 -30.73205566 66.76379395 C-30.76181263 71.09393892 -30.80835953 75.42389932 -30.85351562 79.75390625 C-30.93965883 88.25252911 -31.00540346 96.7511323 -31.0625 105.25 C-40.9625 105.25 -50.8625 105.25 -61.0625 105.25 C-61.0625 71.26 -61.0625 37.27 -61.0625 2.25 C-52.4825 2.25 -43.9025 2.25 -35.0625 2.25 C-34.4025 5.22 -33.7425 8.19 -33.0625 11.25 C-32.46824219 10.79109375 -31.87398437 10.3321875 -31.26171875 9.859375 C-22.02455417 3.02128738 -11.72173644 -1.9964764 0 0 Z " fill="#00225C" transform="translate(770.0625,419.75)"/>
<path d="M0 0 C-0.60231399 3.56669804 -1.56157501 6.57808629 -3.06640625 9.86328125 C-3.46923828 10.74951172 -3.87207031 11.63574219 -4.28710938 12.54882812 C-4.70798828 13.46083984 -5.12886719 14.37285156 -5.5625 15.3125 C-6.19961914 16.70952148 -6.19961914 16.70952148 -6.84960938 18.13476562 C-7.89506343 20.4253672 -8.94531756 22.71363659 -10 25 C-12.76276177 24.47731534 -15.3260876 23.89130413 -18 23 C-26.56573123 22.08736501 -32.73584749 23.35520647 -40 28 C-41.89281558 29.89281558 -41.17468256 33.20606717 -41.20532227 35.72290039 C-41.22017166 36.77650505 -41.22017166 36.77650505 -41.23532104 37.85139465 C-41.26702122 40.18344704 -41.29172688 42.51551984 -41.31640625 44.84765625 C-41.33696844 46.46049035 -41.35796471 48.07331896 -41.37937927 49.68614197 C-41.43467592 53.93909275 -41.48405156 58.19209277 -41.53222656 62.44512939 C-41.58238631 66.78182375 -41.63810115 71.11844627 -41.69335938 75.45507812 C-41.80103377 83.9699931 -41.90194488 92.48496881 -42 101 C-51.9 101 -61.8 101 -72 101 C-72 67.01 -72 33.02 -72 -2 C-63.42 -2 -54.84 -2 -46 -2 C-45.34 0.97 -44.68 3.94 -44 7 C-43.39414063 6.54109375 -42.78828125 6.0821875 -42.1640625 5.609375 C-29.63155176 -3.56827902 -14.24121054 -9.49414036 0 0 Z " fill="#00225C" transform="translate(1219,424)"/>
<path d="M0 0 C9.9 0 19.8 0 30 0 C30 33.99 30 67.98 30 103 C20.1 103 10.2 103 0 103 C0 69.01 0 35.02 0 0 Z " fill="#00225C" transform="translate(1095,422)"/>
<path d="M0 0 C3.63 0 7.26 0 11 0 C11.01458252 1.50828369 11.02916504 3.01656738 11.04418945 4.57055664 C11.1022909 10.18228511 11.1795239 15.79361731 11.26245117 21.4050293 C11.29564466 23.83074498 11.32369384 26.25653686 11.34643555 28.68237305 C11.38008331 32.17529684 11.43240631 35.66752585 11.48828125 39.16015625 C11.49467117 40.23959 11.5010611 41.31902374 11.50764465 42.4311676 C11.64517937 49.52206037 12.38779667 54.58709956 16.796875 60.34765625 C21.18509743 63.63882307 26.65542712 63.79566746 32 64 C36.4223492 63.33352351 39.28193792 61.73647393 42.4375 58.5 C44.73298447 54.82722485 45.13477014 52.03739594 45.20532227 47.79418945 C45.22526749 46.73331619 45.24521271 45.67244293 45.26576233 44.579422 C45.28247482 43.43559555 45.29918732 42.2917691 45.31640625 41.11328125 C45.33718735 39.94113571 45.35796844 38.76899017 45.37937927 37.56132507 C45.44483818 33.81177714 45.50374296 30.06215837 45.5625 26.3125 C45.60568868 23.77277909 45.64930308 21.23306538 45.69335938 18.69335938 C45.8005159 12.46231245 45.90179388 6.23119416 46 0 C49.3 0 52.6 0 56 0 C56.10169191 7.82866277 56.1715885 15.65715422 56.21972656 23.48632812 C56.23753649 26.14810247 56.26706285 28.80901028 56.30175781 31.47070312 C56.35045548 35.3034958 56.37301116 39.13570363 56.390625 42.96875 C56.41127014 44.15239136 56.43191528 45.33603271 56.45318604 46.55554199 C56.45545599 54.97464506 55.17489504 60.11957273 49.75 66.75 C40.74354831 74.11891502 31.28775595 74.80380765 20 74 C13.64661056 72.62495092 9.11952918 70.060756 5.1796875 64.86328125 C1.38775902 58.87404321 -0.13103608 52.80754042 -0.11352539 45.75073242 C-0.11341209 44.21971138 -0.11341209 44.21971138 -0.11329651 42.65776062 C-0.10813522 41.5680043 -0.10297394 40.47824799 -0.09765625 39.35546875 C-0.0962413 38.2305452 -0.09482635 37.10562164 -0.09336853 35.9466095 C-0.08777931 32.36021241 -0.07522872 28.77387816 -0.0625 25.1875 C-0.05748361 22.75325611 -0.05292094 20.31901124 -0.04882812 17.88476562 C-0.03781339 11.92315294 -0.02055611 5.96158712 0 0 Z " fill="#00225C" transform="translate(584,272)"/>
<path d="M0 0 C3.63 0 7.26 0 11 0 C11 24.75 11 49.5 11 75 C1.08057076 79.25118396 -8.88498774 81.23056892 -19.4375 77.4375 C-25.54388557 74.58517516 -29.53108157 70.54612527 -32.875 64.75 C-35.78140173 55.06199424 -35.50260505 46.58273435 -31.375 37.375 C-27.67754442 31.48645963 -22.00131091 26.603512 -15.36328125 24.421875 C-10.27069231 23.51278474 -5.15073472 23.83903954 0 24 C0 16.08 0 8.16 0 0 Z M-16 36 C-20.75197571 39.80158057 -23.50489244 44.11374478 -24.28515625 50.23828125 C-24.51139507 56.09098123 -23.45472591 60.09524101 -19.59375 64.6640625 C-15.50599582 68.73253482 -12.02571766 69.74015277 -6.33203125 70.08984375 C-3.69067197 70.0678819 -3.69067197 70.0678819 0 69 C0 57.45 0 45.9 0 34 C-8.66855896 32.87986081 -8.66855896 32.87986081 -16 36 Z " fill="#00225C" transform="translate(956,267)"/>
<path d="M0 0 C3.63 0 7.26 0 11 0 C11 24.75 11 49.5 11 75 C2.09365983 79.45317009 -7.03407546 80.56262632 -16.890625 78.3515625 C-24.11197567 75.75985076 -29.13428754 71.60850739 -32.66015625 64.7890625 C-34.28809085 60.76060512 -34.53899264 56.99911162 -34.5 52.6875 C-34.49355469 51.94129395 -34.48710938 51.19508789 -34.48046875 50.42626953 C-34.19796863 41.86019673 -31.40531709 35.98598255 -25.1875 30.0625 C-17.07830003 23.67160634 -10.1901526 23.68155773 0 24 C0 16.08 0 8.16 0 0 Z M-16 36 C-20.65515278 39.72412222 -23.42234338 43.98805611 -24.28515625 49.98046875 C-24.53639457 55.62786933 -23.22053178 60.26134414 -19.59375 64.734375 C-15.52532526 68.76441837 -11.97881865 69.74303319 -6.33203125 70.08984375 C-3.69067197 70.0678819 -3.69067197 70.0678819 0 69 C0 57.45 0 45.9 0 34 C-8.66855896 32.87986081 -8.66855896 32.87986081 -16 36 Z " fill="#00225C" transform="translate(1059,267)"/>
<path d="M0 0 C4.49422508 4.173209 6.75777714 8.96967919 7.17089844 15.109375 C7.21158236 16.80172662 7.23194391 18.49466117 7.234375 20.1875 C7.25091125 21.08621826 7.26744751 21.98493652 7.28448486 22.91088867 C7.33268104 25.75316392 7.35427224 28.5949053 7.375 31.4375 C7.40318347 33.37632853 7.4331142 35.31513251 7.46484375 37.25390625 C7.53843212 41.98172682 7.58817962 46.70925594 7.625 51.4375 C6.18844146 51.51881463 4.7505517 51.57683559 3.3125 51.625 C2.11173828 51.67720703 2.11173828 51.67720703 0.88671875 51.73046875 C-1.85351584 51.37551608 -2.66671079 50.54383718 -4.375 48.4375 C-5.468125 49.0975 -6.56125 49.7575 -7.6875 50.4375 C-13.88082213 53.52866078 -20.2471191 53.48012697 -26.75 51.3125 C-30.81307606 48.41030281 -33.68539764 45.96322153 -35.01171875 41.10546875 C-35.83303498 35.35625512 -35.40516197 30.47223066 -32.375 25.4375 C-26.03510525 19.09760525 -18.59846219 18.38510395 -10 18.375 C-8.12495225 18.39096756 -6.24991693 18.41019538 -4.375 18.4375 C-4.629496 16.95543505 -4.90411762 15.47681385 -5.1875 14 C-5.33832031 13.17628906 -5.48914063 12.35257812 -5.64453125 11.50390625 C-5.88558594 10.82199219 -6.12664063 10.14007813 -6.375 9.4375 C-12.13055435 7.51898188 -18.33994876 7.52899498 -23.875 10 C-24.7 10.474375 -25.525 10.94875 -26.375 11.4375 C-30.12876152 10.18624616 -30.61573289 8.8722596 -32.375 5.4375 C-32.375 4.7775 -32.375 4.1175 -32.375 3.4375 C-23.09440731 -2.89017684 -10.36364737 -4.79798489 0 0 Z M-24.375 31.4375 C-25.01905526 35.44495494 -25.06236819 37.47009292 -22.6875 40.8125 C-19.95466138 42.73287308 -18.72963892 43.36295247 -15.375 43.4375 C-11.20739412 42.42454024 -7.44764932 41.51014932 -4.375 38.4375 C-4.13184344 35.76800591 -4.13184344 35.76800591 -4.25 32.8125 C-4.26804687 31.80960937 -4.28609375 30.80671875 -4.3046875 29.7734375 C-4.32789063 29.00257813 -4.35109375 28.23171875 -4.375 27.4375 C-6.77206123 27.32895383 -9.16415838 27.24996843 -11.5625 27.1875 C-12.23603516 27.15398437 -12.90957031 27.12046875 -13.60351562 27.0859375 C-18.50264353 26.99034476 -21.03151728 27.83878959 -24.375 31.4375 Z " fill="#00225C" transform="translate(1010.375,293.5625)"/>
<path d="M0 0 C5.57741979 3.92982314 8.05693242 8.89067206 9.78515625 15.2578125 C9.78515625 19.2178125 9.78515625 23.1778125 9.78515625 27.2578125 C-1.10484375 27.2578125 -11.99484375 27.2578125 -23.21484375 27.2578125 C-20.12186259 35.95889667 -20.12186259 35.95889667 -13.21484375 41.2578125 C-6.56127375 41.69196047 -0.50053997 41.54352022 5.78515625 39.2578125 C6.77515625 41.5678125 7.76515625 43.8778125 8.78515625 46.2578125 C2.95663767 51.07208771 -4.30464019 52.62813694 -11.77734375 52.3203125 C-18.77901904 51.37008514 -24.53745004 48.40320592 -29.13671875 43 C-35.02529394 34.50362723 -34.76278561 26.28016724 -34.21484375 16.2578125 C-33.03448676 10.03073229 -29.70020452 4.70931345 -24.4765625 1.03515625 C-16.62288541 -3.65686925 -8.10452475 -4.60813932 0 0 Z M-20.21484375 9.2578125 C-23.10827554 13.04920588 -23.21484375 14.24087434 -23.21484375 19.2578125 C-15.95484375 19.2578125 -8.69484375 19.2578125 -1.21484375 19.2578125 C-2.23839218 13.11652189 -2.76470669 11.32921449 -7.21484375 7.2578125 C-12.17852348 5.45283805 -16.12050725 5.74838121 -20.21484375 9.2578125 Z " fill="#00225C" transform="translate(1112.21484375,293.7421875)"/>
<path d="M0 0 C7.22997385 7.22997385 7.3125 15.3236677 7.3125 25.3125 C-3.5775 25.3125 -14.4675 25.3125 -25.6875 25.3125 C-22.70108705 34.5735873 -22.70108705 34.5735873 -19.1875 37.9375 C-11.87249698 40.81125119 -3.96933311 39.96043931 3.3125 37.3125 C4.3025 39.6225 5.2925 41.9325 6.3125 44.3125 C-0.77147103 49.76170849 -8.06788502 51.04309171 -16.91015625 49.9765625 C-24.00676226 48.279765 -29.71831434 44.26627848 -33.75 38.21875 C-37.71062415 30.16548089 -38.15415287 20.13154437 -35.96484375 11.4453125 C-33.0534885 4.44391566 -28.1429109 0.15827671 -21.6875 -3.6875 C-13.95173364 -6.78180655 -6.66743332 -4.1865279 0 0 Z M-23.33984375 8.28125 C-25.28158373 10.89233868 -25.28158373 10.89233868 -25.6875 17.3125 C-18.4275 17.3125 -11.1675 17.3125 -3.6875 17.3125 C-4.71104843 11.17120939 -5.23736294 9.38390199 -9.6875 5.3125 C-15.33866943 2.86010572 -18.87617553 4.45815376 -23.33984375 8.28125 Z " fill="#00225C" transform="translate(809.6875,295.6875)"/>
<path d="M0 0 C1.2684375 1.0828125 1.2684375 1.0828125 2.5625 2.1875 C3.42875 2.868125 3.42875 2.868125 4.3125 3.5625 C8.1994406 8.61552278 7.82982947 14.70140374 7.7578125 20.7421875 C7.7549826 21.64373566 7.75215271 22.54528381 7.74923706 23.47415161 C7.73809439 26.33707276 7.7130008 29.19967434 7.6875 32.0625 C7.67746255 34.01041213 7.66833804 35.95832919 7.66015625 37.90625 C7.63817443 42.6667887 7.6036855 47.42709027 7.5625 52.1875 C3.9325 52.1875 0.3025 52.1875 -3.4375 52.1875 C-3.467229 50.49222168 -3.467229 50.49222168 -3.49755859 48.76269531 C-3.5736888 44.56553036 -3.66239479 40.36870874 -3.75488281 36.171875 C-3.79314191 34.35618879 -3.82800017 32.54042759 -3.859375 30.72460938 C-3.9050923 28.11300877 -3.96307536 25.50192312 -4.0234375 22.890625 C-4.03498871 22.08006653 -4.04653992 21.26950806 -4.05844116 20.43438721 C-4.14879106 14.98691244 -4.14879106 14.98691244 -6.4375 10.1875 C-9.56606476 8.62321762 -11.96462131 8.90742914 -15.4375 9.1875 C-18.57158464 10.41001529 -22.0269675 11.7769675 -24.4375 14.1875 C-24.59767166 16.99726518 -24.69700534 19.78523596 -24.75390625 22.59765625 C-24.77468735 23.43969101 -24.79546844 24.28172577 -24.81687927 25.14927673 C-24.88246812 27.84943179 -24.94130276 30.54968717 -25 33.25 C-25.04317637 35.07618241 -25.08679036 36.90235454 -25.13085938 38.72851562 C-25.23815894 43.21473992 -25.33939966 47.7010655 -25.4375 52.1875 C-29.0675 52.1875 -32.6975 52.1875 -36.4375 52.1875 C-36.4375 34.6975 -36.4375 17.2075 -36.4375 -0.8125 C-33.4675 -0.8125 -30.4975 -0.8125 -27.4375 -0.8125 C-26.7775 0.5075 -26.1175 1.8275 -25.4375 3.1875 C-24.90640625 2.91035156 -24.3753125 2.63320313 -23.828125 2.34765625 C-22.76851562 1.80431641 -22.76851562 1.80431641 -21.6875 1.25 C-20.99140625 0.89035156 -20.2953125 0.53070313 -19.578125 0.16015625 C-13.32145851 -2.68274513 -6.1174586 -3.22556908 0 0 Z " fill="#00225C" transform="translate(687.4375,292.8125)"/>
<path d="M0 0 C0 2.97 0 5.94 0 9 C-0.64066406 8.855625 -1.28132812 8.71125 -1.94140625 8.5625 C-10.66451967 6.56897164 -10.66451967 6.56897164 -19.375 7.8125 C-21.31945624 8.99273731 -21.31945624 8.99273731 -22 12 C-21.99530794 14.10231241 -21.99530794 14.10231241 -21 16 C-19.35254184 16.71281403 -17.68085783 17.36996892 -16 18 C-13.96805197 18.93453589 -11.94749687 19.89414185 -9.9375 20.875 C-8.91527344 21.36742187 -7.89304687 21.85984375 -6.83984375 22.3671875 C-2.84624428 24.66336986 -0.47002957 26.58991128 1 31 C1.68833929 36.47186168 2.06852524 41.46734858 -1.4375 46 C-6.49488247 50.92740302 -12.50023455 52.12367333 -19.375 52.4375 C-25.39220649 52.2928147 -30.5245815 50.37232833 -36 48 C-35.44271087 44.65626525 -34.64826111 41.96687001 -33 39 C-32.45472656 39.2165625 -31.90945313 39.433125 -31.34765625 39.65625 C-25.31635211 41.88319307 -18.99251055 43.63233617 -12.79296875 41.09765625 C-10.85405651 40.1374518 -10.85405651 40.1374518 -10.125 38.125 C-9.96002322 35.3203948 -10.39680676 34.32834332 -12 32 C-14.27082295 30.71348814 -16.43809657 29.61210808 -18.8125 28.5625 C-24.53008452 26.02334282 -28.97377499 23.22353978 -32.375 17.8125 C-33.35304622 13.41129199 -33.10072254 9.36691882 -32 5 C-24.39277653 -5.51586774 -10.77553307 -4.97332296 0 0 Z " fill="#00225C" transform="translate(892,294)"/>
<path d="M0 0 C3.63 0 7.26 0 11 0 C14.56955 8.7482564 17.75796505 17.60731879 20.90820312 26.51367188 C21.29298828 27.59326172 21.67777344 28.67285156 22.07421875 29.78515625 C22.42057373 30.76363525 22.76692871 31.74211426 23.1237793 32.75024414 C23.80100517 34.93509641 23.80100517 34.93509641 25 36 C29.62 24.12 34.24 12.24 39 0 C42.63 0 46.26 0 50 0 C47.39335847 9.76503208 43.42559397 18.89841669 39.5 28.1875 C38.81594876 29.8168653 38.13235163 31.44642133 37.44921875 33.07617188 C34.65778813 39.72826012 31.84744051 46.3716829 29 53 C26.03 53 23.06 53 20 53 C15.36149521 41.52652198 10.80820863 30.02013633 6.32189941 18.48635864 C5.77350451 17.07759948 5.22394162 15.66929444 4.67321777 14.26144409 C3.89337455 12.26672769 3.11797619 10.27033965 2.34375 8.2734375 C1.89193359 7.11247559 1.44011719 5.95151367 0.97460938 4.75537109 C0 2 0 2 0 0 Z " fill="#00225C" transform="translate(722,292)"/>
<path d="M0 0 C4.88622466 2.37391743 7.98347715 6.35001333 9.91796875 11.37109375 C10.87715112 17.29061926 10.4111947 22.36413655 6.91796875 27.37109375 C2.39027824 31.70192815 -1.17495222 34.04199046 -7.39453125 34.74609375 C-13.19558572 34.15615601 -17.38776871 32.10994214 -21.45703125 27.93359375 C-24.67408939 22.86054054 -25.95134618 18.411718 -25.08203125 12.37109375 C-23.44233793 6.74632298 -20.56579297 3.04767436 -15.42578125 0.21875 C-10.35188911 -1.61630766 -5.14903807 -1.55533795 0 0 Z " fill="#00225C" transform="translate(1118.08203125,374.62890625)"/>
<path d="M0 0 C0.66 0.33 1.32 0.66 2 1 C1.44894091 4.9492568 0.61064629 8.34920174 -1 12 C-1.65226563 11.95359375 -2.30453125 11.9071875 -2.9765625 11.859375 C-3.85054687 11.82328125 -4.72453125 11.7871875 -5.625 11.75 C-6.48351562 11.70359375 -7.34203125 11.6571875 -8.2265625 11.609375 C-12.13906267 12.16043136 -14.02507289 13.39466669 -17 16 C-17.89132287 18.89228028 -17.83844597 21.69417232 -17.8046875 24.703125 C-17.82524704 25.95980988 -17.82524704 25.95980988 -17.84622192 27.24188232 C-17.88354536 29.91179997 -17.87980587 32.57985835 -17.875 35.25 C-17.89312529 37.0625291 -17.91392746 38.87503356 -17.9375 40.6875 C-17.98937241 45.12531188 -18.00442924 49.56190157 -18 54 C-21.3 54 -24.6 54 -28 54 C-28 36.51 -28 19.02 -28 1 C-25.03 1 -22.06 1 -19 1 C-18.34 2.32 -17.68 3.64 -17 5 C-16.071875 4.360625 -15.14375 3.72125 -14.1875 3.0625 C-9.15879231 -0.19136968 -5.80166486 -0.18417984 0 0 Z " fill="#00225C" transform="translate(854,291)"/>
<path d="M0 0 C3.63 0 7.26 0 11 0 C11 17.49 11 34.98 11 53 C7.37 53 3.74 53 0 53 C0 35.51 0 18.02 0 0 Z " fill="#00225C" transform="translate(902,292)"/>
<path d="M0 0 C3.63 0 7.26 0 11 0 C11 17.49 11 34.98 11 53 C7.37 53 3.74 53 0 53 C0 35.51 0 18.02 0 0 Z " fill="#00225C" transform="translate(705,292)"/>
<path d="M0 0 C2.375 1.625 2.375 1.625 4 4 C4.5625 7 4.5625 7 4 10 C1.875 12.4375 1.875 12.4375 -1 14 C-4.125 14.0625 -4.125 14.0625 -7 13 C-9.29492223 10.33492902 -10.04299299 8.90285284 -9.875 5.375 C-7.9597099 0.17635545 -5.4759481 -0.7822783 0 0 Z " fill="#00225C" transform="translate(910,270)"/>
<path d="M0 0 C1.9375 1.0625 1.9375 1.0625 3 3 C3.6414791 8.98713826 3.6414791 8.98713826 1.8125 11.875 C-0.52105067 13.32341076 -2.25767499 13.79934207 -5 14 C-7.70637529 13.02269781 -8.70256222 12.59487555 -10 10 C-10.44948064 3.81964117 -10.44948064 3.81964117 -8.9375 1.0625 C-5.88023824 -0.6140629 -3.4093712 -0.36528977 0 0 Z " fill="#00225C" transform="translate(714,270)"/>
</svg>
