<?xml version="1.0" encoding="UTF-8"?>
<!DOCTYPE svg PUBLIC "-//W3C//DTD SVG 1.1//EN" "http://www.w3.org/Graphics/SVG/1.1/DTD/svg11.dtd">
<svg xmlns="http://www.w3.org/2000/svg" version="1.1" width="4096px" height="1683px" style="shape-rendering:geometricPrecision; text-rendering:geometricPrecision; image-rendering:optimizeQuality; fill-rule:evenodd; clip-rule:evenodd" xmlns:xlink="http://www.w3.org/1999/xlink">
<g><path style="opacity:0.992" fill="#000000" d="M -0.5,-0.5 C 448.833,-0.5 898.167,-0.5 1347.5,-0.5C 1346.5,36.8612 1346.17,74.1946 1346.5,111.5C 1159.83,111.5 973.167,111.5 786.5,111.5C 786.833,504.167 786.5,896.834 785.5,1289.5C 748.207,1289.2 710.874,1289.53 673.5,1290.5C 674.007,1220.5 674.34,1150.5 674.5,1080.5C 673.948,757.833 673.281,435.167 672.5,112.5C 486.207,111.501 299.873,111.168 113.5,111.5C 113.213,516.834 113.713,922.168 115,1327.5C 117.957,1358.37 126.957,1387.37 142,1414.5C 188.988,1501.96 261.821,1553.46 360.5,1569C 603.833,1569.67 847.167,1569.67 1090.5,1569C 1185.32,1557.71 1257.48,1511.54 1307,1430.5C 1322.72,1403.99 1333.72,1375.66 1340,1345.5C 1342.22,1326.53 1344.05,1307.53 1345.5,1288.5C 1383.5,1288.5 1421.5,1288.5 1459.5,1288.5C 1463.49,1375.78 1497.83,1448.28 1562.5,1506C 1608.57,1543.02 1661.23,1564.02 1720.5,1569C 1940.83,1569.67 2161.17,1569.67 2381.5,1569C 2417.12,1567.24 2450.45,1557.57 2481.5,1540C 2567.33,1493.24 2617.83,1421.4 2633,1324.5C 2635.01,1294.87 2636.18,1265.2 2636.5,1235.5C 2635.46,1186.16 2634.29,1136.83 2633,1087.5C 2415.36,868.86 2197.36,650.527 1979,432.5C 1978.33,431.833 1978.33,431.167 1979,430.5C 2006.07,404.098 2033.73,378.432 2062,353.5C 2290.64,583.14 2519.64,812.473 2749,1041.5C 2749.67,1121.17 2749.67,1200.83 2749,1280.5C 2745.72,1454.66 2665.56,1578.49 2508.5,1652C 2473.76,1667.44 2437.43,1676.77 2399.5,1680C 2276.68,1681.14 2154.01,1681.97 2031.5,1682.5C 1922.5,1682.5 1813.5,1682.5 1704.5,1682.5C 1602.42,1670.38 1516.25,1627.04 1446,1552.5C 1432.1,1533.26 1417.43,1514.59 1402,1496.5C 1335.53,1596.2 1243.03,1657.03 1124.5,1679C 1117.19,1679.87 1109.85,1680.54 1102.5,1681C 942.999,1681.17 783.666,1681.67 624.5,1682.5C 538.833,1682.5 453.167,1682.5 367.5,1682.5C 261.536,1672.77 172.036,1629.43 99,1552.5C 74.1857,1524.89 53.8524,1494.22 38,1460.5C 24.9983,1427.49 13.9983,1393.83 5,1359.5C 3.01025,1348.92 1.67692,1338.25 1,1327.5C 0.831667,1309.33 0.331667,1291.33 -0.5,1273.5C -0.5,848.833 -0.5,424.167 -0.5,-0.5 Z"/></g>
<g><path style="opacity:0.991" fill="#000000" d="M 4095.5,810.5 C 4095.5,914.5 4095.5,1018.5 4095.5,1122.5C 3871.17,1122.5 3646.83,1122.5 3422.5,1122.5C 3422.67,1306.83 3422.5,1491.17 3422,1675.5C 3421.47,1678.58 3419.97,1680.92 3417.5,1682.5C 3194.17,1682.5 2970.83,1682.5 2747.5,1682.5C 2748.83,1645.5 2748.83,1608.5 2747.5,1571.5C 2932.17,1571.67 3116.83,1571.5 3301.5,1571C 3303.85,1570.65 3305.68,1569.49 3307,1567.5C 3308.29,1175.85 3308.79,784.187 3308.5,392.5C 3346.17,392.5 3383.83,392.5 3421.5,392.5C 3421.62,597.822 3421.62,803.155 3421.5,1008.5C 3608.83,1008.5 3796.17,1008.5 3983.5,1008.5C 3983.24,810.166 3982.74,611.833 3982,413.5C 3983.32,356.462 3970.66,302.795 3944,252.5C 3910.9,196.076 3863.74,156.243 3802.5,133C 3776.01,121.46 3748.34,114.793 3719.5,113C 3484.5,111.036 3249.5,111.036 3014.5,113C 2914.41,121.599 2838.24,168.432 2786,253.5C 2761.65,296.91 2749.15,343.576 2748.5,393.5C 2710.5,393.5 2672.5,393.5 2634.5,393.5C 2631.36,299.046 2592.69,223.213 2518.5,166C 2469.5,132.223 2415.17,114.223 2355.5,112C 2131.83,111.333 1908.17,111.333 1684.5,112C 1575.91,117.006 1494.08,165.839 1439,258.5C 1424.77,283.53 1415.1,310.197 1410,338.5C 1406.56,366.058 1404.56,393.725 1404,421.5C 1403.33,478.5 1403.33,535.5 1404,592.5C 1622,811.833 1840,1031.17 2058,1250.5C 2058.67,1251.5 2058.67,1252.5 2058,1253.5C 2039.86,1272.64 2021.36,1291.47 2002.5,1310C 1995.5,1315.67 1988.5,1321.33 1981.5,1327C 1980.17,1327.67 1978.83,1327.67 1977.5,1327C 1748.69,1099.19 1520.19,871.027 1292,642.5C 1291.75,588.163 1291.25,533.83 1290.5,479.5C 1291.03,439.492 1291.87,399.492 1293,359.5C 1305.44,229.868 1366.27,130.368 1475.5,61C 1508.81,39.3336 1544.81,23.667 1583.5,14C 1611.87,7.70905 1640.54,3.37571 1669.5,1C 1904.83,0.333333 2140.17,0.333333 2375.5,1C 2491.87,9.10027 2587.37,57.6003 2662,146.5C 2673.1,159.599 2683.43,173.266 2693,187.5C 2726.08,139.084 2766.58,97.9174 2814.5,64C 2858.41,35.1344 2906.41,16.4677 2958.5,8C 2982.04,4.41233 3005.71,2.079 3029.5,1C 3261.83,0.333333 3494.17,0.333333 3726.5,1C 3858.53,12.3974 3961.03,72.8974 4034,182.5C 4069.01,239.193 4089.01,300.86 4094,367.5C 4094.17,515.334 4094.67,663.001 4095.5,810.5 Z"/></g>
</svg>
